G04 #@! TF.GenerationSoftware,KiCad,Pcbnew,5.0.1-33cea8e~68~ubuntu18.04.1*
G04 #@! TF.CreationDate,2018-12-16T18:27:52+03:00*
G04 #@! TF.ProjectId,up5k_v0,7570356B5F76302E6B696361645F7063,rev?*
G04 #@! TF.SameCoordinates,Original*
G04 #@! TF.FileFunction,Legend,Top*
G04 #@! TF.FilePolarity,Positive*
%FSLAX46Y46*%
G04 Gerber Fmt 4.6, Leading zero omitted, Abs format (unit mm)*
G04 Created by KiCad (PCBNEW 5.0.1-33cea8e~68~ubuntu18.04.1) date Paz 16 Ara 2018 18:27:52 +03*
%MOMM*%
%LPD*%
G01*
G04 APERTURE LIST*
%ADD10C,0.100000*%
%ADD11C,0.150000*%
%ADD12C,0.080000*%
%ADD13C,0.200000*%
%ADD14C,0.120000*%
G04 APERTURE END LIST*
D10*
X134945619Y-107233980D02*
X134612285Y-106757790D01*
X134374190Y-107233980D02*
X134374190Y-106233980D01*
X134755142Y-106233980D01*
X134850380Y-106281600D01*
X134898000Y-106329219D01*
X134945619Y-106424457D01*
X134945619Y-106567314D01*
X134898000Y-106662552D01*
X134850380Y-106710171D01*
X134755142Y-106757790D01*
X134374190Y-106757790D01*
X135374190Y-106710171D02*
X135707523Y-106710171D01*
X135850380Y-107233980D02*
X135374190Y-107233980D01*
X135374190Y-106233980D01*
X135850380Y-106233980D01*
X136231333Y-107186361D02*
X136374190Y-107233980D01*
X136612285Y-107233980D01*
X136707523Y-107186361D01*
X136755142Y-107138742D01*
X136802761Y-107043504D01*
X136802761Y-106948266D01*
X136755142Y-106853028D01*
X136707523Y-106805409D01*
X136612285Y-106757790D01*
X136421809Y-106710171D01*
X136326571Y-106662552D01*
X136278952Y-106614933D01*
X136231333Y-106519695D01*
X136231333Y-106424457D01*
X136278952Y-106329219D01*
X136326571Y-106281600D01*
X136421809Y-106233980D01*
X136659904Y-106233980D01*
X136802761Y-106281600D01*
X137231333Y-106710171D02*
X137564666Y-106710171D01*
X137707523Y-107233980D02*
X137231333Y-107233980D01*
X137231333Y-106233980D01*
X137707523Y-106233980D01*
X137993238Y-106233980D02*
X138564666Y-106233980D01*
X138278952Y-107233980D02*
X138278952Y-106233980D01*
X124353866Y-106659371D02*
X124496723Y-106706990D01*
X124544342Y-106754609D01*
X124591961Y-106849847D01*
X124591961Y-106992704D01*
X124544342Y-107087942D01*
X124496723Y-107135561D01*
X124401485Y-107183180D01*
X124020533Y-107183180D01*
X124020533Y-106183180D01*
X124353866Y-106183180D01*
X124449104Y-106230800D01*
X124496723Y-106278419D01*
X124544342Y-106373657D01*
X124544342Y-106468895D01*
X124496723Y-106564133D01*
X124449104Y-106611752D01*
X124353866Y-106659371D01*
X124020533Y-106659371D01*
X125211009Y-106183180D02*
X125401485Y-106183180D01*
X125496723Y-106230800D01*
X125591961Y-106326038D01*
X125639580Y-106516514D01*
X125639580Y-106849847D01*
X125591961Y-107040323D01*
X125496723Y-107135561D01*
X125401485Y-107183180D01*
X125211009Y-107183180D01*
X125115771Y-107135561D01*
X125020533Y-107040323D01*
X124972914Y-106849847D01*
X124972914Y-106516514D01*
X125020533Y-106326038D01*
X125115771Y-106230800D01*
X125211009Y-106183180D01*
X126258628Y-106183180D02*
X126449104Y-106183180D01*
X126544342Y-106230800D01*
X126639580Y-106326038D01*
X126687200Y-106516514D01*
X126687200Y-106849847D01*
X126639580Y-107040323D01*
X126544342Y-107135561D01*
X126449104Y-107183180D01*
X126258628Y-107183180D01*
X126163390Y-107135561D01*
X126068152Y-107040323D01*
X126020533Y-106849847D01*
X126020533Y-106516514D01*
X126068152Y-106326038D01*
X126163390Y-106230800D01*
X126258628Y-106183180D01*
X126972914Y-106183180D02*
X127544342Y-106183180D01*
X127258628Y-107183180D02*
X127258628Y-106183180D01*
X128068152Y-106183180D02*
X128163390Y-106183180D01*
X128258628Y-106230800D01*
X128306247Y-106278419D01*
X128353866Y-106373657D01*
X128401485Y-106564133D01*
X128401485Y-106802228D01*
X128353866Y-106992704D01*
X128306247Y-107087942D01*
X128258628Y-107135561D01*
X128163390Y-107183180D01*
X128068152Y-107183180D01*
X127972914Y-107135561D01*
X127925295Y-107087942D01*
X127877676Y-106992704D01*
X127830057Y-106802228D01*
X127830057Y-106564133D01*
X127877676Y-106373657D01*
X127925295Y-106278419D01*
X127972914Y-106230800D01*
X128068152Y-106183180D01*
X163068000Y-92329000D02*
X163068000Y-83566000D01*
X171958000Y-92329000D02*
X163068000Y-92329000D01*
X171958000Y-83566000D02*
X171958000Y-92329000D01*
X163068000Y-83566000D02*
X171958000Y-83566000D01*
X144780000Y-66294000D02*
X122682000Y-66294000D01*
X144780000Y-72644000D02*
X144780000Y-66294000D01*
X122682000Y-72644000D02*
X144780000Y-72644000D01*
X122682000Y-66294000D02*
X122682000Y-72644000D01*
X123286714Y-68934857D02*
X123286714Y-67734857D01*
X124543857Y-68820571D02*
X124486714Y-68877714D01*
X124315285Y-68934857D01*
X124201000Y-68934857D01*
X124029571Y-68877714D01*
X123915285Y-68763428D01*
X123858142Y-68649142D01*
X123801000Y-68420571D01*
X123801000Y-68249142D01*
X123858142Y-68020571D01*
X123915285Y-67906285D01*
X124029571Y-67792000D01*
X124201000Y-67734857D01*
X124315285Y-67734857D01*
X124486714Y-67792000D01*
X124543857Y-67849142D01*
X125058142Y-68306285D02*
X125458142Y-68306285D01*
X125629571Y-68934857D02*
X125058142Y-68934857D01*
X125058142Y-67734857D01*
X125629571Y-67734857D01*
X126658142Y-68134857D02*
X126658142Y-68934857D01*
X126372428Y-67677714D02*
X126086714Y-68534857D01*
X126829571Y-68534857D01*
X127515285Y-67734857D02*
X127629571Y-67734857D01*
X127743857Y-67792000D01*
X127801000Y-67849142D01*
X127858142Y-67963428D01*
X127915285Y-68192000D01*
X127915285Y-68477714D01*
X127858142Y-68706285D01*
X127801000Y-68820571D01*
X127743857Y-68877714D01*
X127629571Y-68934857D01*
X127515285Y-68934857D01*
X127401000Y-68877714D01*
X127343857Y-68820571D01*
X127286714Y-68706285D01*
X127229571Y-68477714D01*
X127229571Y-68192000D01*
X127286714Y-67963428D01*
X127343857Y-67849142D01*
X127401000Y-67792000D01*
X127515285Y-67734857D01*
X128429571Y-67734857D02*
X128429571Y-68706285D01*
X128486714Y-68820571D01*
X128543857Y-68877714D01*
X128658142Y-68934857D01*
X128886714Y-68934857D01*
X129001000Y-68877714D01*
X129058142Y-68820571D01*
X129115285Y-68706285D01*
X129115285Y-67734857D01*
X129686714Y-68934857D02*
X129686714Y-67734857D01*
X130143857Y-67734857D01*
X130258142Y-67792000D01*
X130315285Y-67849142D01*
X130372428Y-67963428D01*
X130372428Y-68134857D01*
X130315285Y-68249142D01*
X130258142Y-68306285D01*
X130143857Y-68363428D01*
X129686714Y-68363428D01*
X131458142Y-67734857D02*
X130886714Y-67734857D01*
X130829571Y-68306285D01*
X130886714Y-68249142D01*
X131001000Y-68192000D01*
X131286714Y-68192000D01*
X131401000Y-68249142D01*
X131458142Y-68306285D01*
X131515285Y-68420571D01*
X131515285Y-68706285D01*
X131458142Y-68820571D01*
X131401000Y-68877714D01*
X131286714Y-68934857D01*
X131001000Y-68934857D01*
X130886714Y-68877714D01*
X130829571Y-68820571D01*
X132029571Y-68934857D02*
X132029571Y-67734857D01*
X132715285Y-68934857D02*
X132201000Y-68249142D01*
X132715285Y-67734857D02*
X132029571Y-68420571D01*
X134143857Y-68934857D02*
X134143857Y-67734857D01*
X134429571Y-67734857D01*
X134601000Y-67792000D01*
X134715285Y-67906285D01*
X134772428Y-68020571D01*
X134829571Y-68249142D01*
X134829571Y-68420571D01*
X134772428Y-68649142D01*
X134715285Y-68763428D01*
X134601000Y-68877714D01*
X134429571Y-68934857D01*
X134143857Y-68934857D01*
X135801000Y-68877714D02*
X135686714Y-68934857D01*
X135458142Y-68934857D01*
X135343857Y-68877714D01*
X135286714Y-68763428D01*
X135286714Y-68306285D01*
X135343857Y-68192000D01*
X135458142Y-68134857D01*
X135686714Y-68134857D01*
X135801000Y-68192000D01*
X135858142Y-68306285D01*
X135858142Y-68420571D01*
X135286714Y-68534857D01*
X136258142Y-68134857D02*
X136543857Y-68934857D01*
X136829571Y-68134857D01*
X138601000Y-68306285D02*
X138772428Y-68363428D01*
X138829571Y-68420571D01*
X138886714Y-68534857D01*
X138886714Y-68706285D01*
X138829571Y-68820571D01*
X138772428Y-68877714D01*
X138658142Y-68934857D01*
X138201000Y-68934857D01*
X138201000Y-67734857D01*
X138601000Y-67734857D01*
X138715285Y-67792000D01*
X138772428Y-67849142D01*
X138829571Y-67963428D01*
X138829571Y-68077714D01*
X138772428Y-68192000D01*
X138715285Y-68249142D01*
X138601000Y-68306285D01*
X138201000Y-68306285D01*
X139572428Y-68934857D02*
X139458142Y-68877714D01*
X139401000Y-68820571D01*
X139343857Y-68706285D01*
X139343857Y-68363428D01*
X139401000Y-68249142D01*
X139458142Y-68192000D01*
X139572428Y-68134857D01*
X139743857Y-68134857D01*
X139858142Y-68192000D01*
X139915285Y-68249142D01*
X139972428Y-68363428D01*
X139972428Y-68706285D01*
X139915285Y-68820571D01*
X139858142Y-68877714D01*
X139743857Y-68934857D01*
X139572428Y-68934857D01*
X141001000Y-68934857D02*
X141001000Y-68306285D01*
X140943857Y-68192000D01*
X140829571Y-68134857D01*
X140601000Y-68134857D01*
X140486714Y-68192000D01*
X141001000Y-68877714D02*
X140886714Y-68934857D01*
X140601000Y-68934857D01*
X140486714Y-68877714D01*
X140429571Y-68763428D01*
X140429571Y-68649142D01*
X140486714Y-68534857D01*
X140601000Y-68477714D01*
X140886714Y-68477714D01*
X141001000Y-68420571D01*
X141572428Y-68934857D02*
X141572428Y-68134857D01*
X141572428Y-68363428D02*
X141629571Y-68249142D01*
X141686714Y-68192000D01*
X141801000Y-68134857D01*
X141915285Y-68134857D01*
X142829571Y-68934857D02*
X142829571Y-67734857D01*
X142829571Y-68877714D02*
X142715285Y-68934857D01*
X142486714Y-68934857D01*
X142372428Y-68877714D01*
X142315285Y-68820571D01*
X142258142Y-68706285D01*
X142258142Y-68363428D01*
X142315285Y-68249142D01*
X142372428Y-68192000D01*
X142486714Y-68134857D01*
X142715285Y-68134857D01*
X142829571Y-68192000D01*
X123172428Y-70034857D02*
X123458142Y-70834857D01*
X123743857Y-70034857D01*
X124429571Y-69634857D02*
X124543857Y-69634857D01*
X124658142Y-69692000D01*
X124715285Y-69749142D01*
X124772428Y-69863428D01*
X124829571Y-70092000D01*
X124829571Y-70377714D01*
X124772428Y-70606285D01*
X124715285Y-70720571D01*
X124658142Y-70777714D01*
X124543857Y-70834857D01*
X124429571Y-70834857D01*
X124315285Y-70777714D01*
X124258142Y-70720571D01*
X124201000Y-70606285D01*
X124143857Y-70377714D01*
X124143857Y-70092000D01*
X124201000Y-69863428D01*
X124258142Y-69749142D01*
X124315285Y-69692000D01*
X124429571Y-69634857D01*
X125343857Y-70720571D02*
X125401000Y-70777714D01*
X125343857Y-70834857D01*
X125286714Y-70777714D01*
X125343857Y-70720571D01*
X125343857Y-70834857D01*
X126143857Y-69634857D02*
X126258142Y-69634857D01*
X126372428Y-69692000D01*
X126429571Y-69749142D01*
X126486714Y-69863428D01*
X126543857Y-70092000D01*
X126543857Y-70377714D01*
X126486714Y-70606285D01*
X126429571Y-70720571D01*
X126372428Y-70777714D01*
X126258142Y-70834857D01*
X126143857Y-70834857D01*
X126029571Y-70777714D01*
X125972428Y-70720571D01*
X125915285Y-70606285D01*
X125858142Y-70377714D01*
X125858142Y-70092000D01*
X125915285Y-69863428D01*
X125972428Y-69749142D01*
X126029571Y-69692000D01*
X126143857Y-69634857D01*
X127972428Y-70377714D02*
X128886714Y-70377714D01*
X130372428Y-70834857D02*
X130372428Y-69634857D01*
X130658142Y-69634857D01*
X130829571Y-69692000D01*
X130943857Y-69806285D01*
X131001000Y-69920571D01*
X131058142Y-70149142D01*
X131058142Y-70320571D01*
X131001000Y-70549142D01*
X130943857Y-70663428D01*
X130829571Y-70777714D01*
X130658142Y-70834857D01*
X130372428Y-70834857D01*
X132029571Y-70777714D02*
X131915285Y-70834857D01*
X131686714Y-70834857D01*
X131572428Y-70777714D01*
X131515285Y-70663428D01*
X131515285Y-70206285D01*
X131572428Y-70092000D01*
X131686714Y-70034857D01*
X131915285Y-70034857D01*
X132029571Y-70092000D01*
X132086714Y-70206285D01*
X132086714Y-70320571D01*
X131515285Y-70434857D01*
X133115285Y-70777714D02*
X133001000Y-70834857D01*
X132772428Y-70834857D01*
X132658142Y-70777714D01*
X132601000Y-70720571D01*
X132543857Y-70606285D01*
X132543857Y-70263428D01*
X132601000Y-70149142D01*
X132658142Y-70092000D01*
X132772428Y-70034857D01*
X133001000Y-70034857D01*
X133115285Y-70092000D01*
X134086714Y-70777714D02*
X133972428Y-70834857D01*
X133743857Y-70834857D01*
X133629571Y-70777714D01*
X133572428Y-70663428D01*
X133572428Y-70206285D01*
X133629571Y-70092000D01*
X133743857Y-70034857D01*
X133972428Y-70034857D01*
X134086714Y-70092000D01*
X134143857Y-70206285D01*
X134143857Y-70320571D01*
X133572428Y-70434857D01*
X134658142Y-70834857D02*
X134658142Y-70034857D01*
X134658142Y-70149142D02*
X134715285Y-70092000D01*
X134829571Y-70034857D01*
X135001000Y-70034857D01*
X135115285Y-70092000D01*
X135172428Y-70206285D01*
X135172428Y-70834857D01*
X135172428Y-70206285D02*
X135229571Y-70092000D01*
X135343857Y-70034857D01*
X135515285Y-70034857D01*
X135629571Y-70092000D01*
X135686714Y-70206285D01*
X135686714Y-70834857D01*
X136258142Y-70834857D02*
X136258142Y-69634857D01*
X136258142Y-70092000D02*
X136372428Y-70034857D01*
X136601000Y-70034857D01*
X136715285Y-70092000D01*
X136772428Y-70149142D01*
X136829571Y-70263428D01*
X136829571Y-70606285D01*
X136772428Y-70720571D01*
X136715285Y-70777714D01*
X136601000Y-70834857D01*
X136372428Y-70834857D01*
X136258142Y-70777714D01*
X137801000Y-70777714D02*
X137686714Y-70834857D01*
X137458142Y-70834857D01*
X137343857Y-70777714D01*
X137286714Y-70663428D01*
X137286714Y-70206285D01*
X137343857Y-70092000D01*
X137458142Y-70034857D01*
X137686714Y-70034857D01*
X137801000Y-70092000D01*
X137858142Y-70206285D01*
X137858142Y-70320571D01*
X137286714Y-70434857D01*
X138372428Y-70834857D02*
X138372428Y-70034857D01*
X138372428Y-70263428D02*
X138429571Y-70149142D01*
X138486714Y-70092000D01*
X138601000Y-70034857D01*
X138715285Y-70034857D01*
X139972428Y-69749142D02*
X140029571Y-69692000D01*
X140143857Y-69634857D01*
X140429571Y-69634857D01*
X140543857Y-69692000D01*
X140601000Y-69749142D01*
X140658142Y-69863428D01*
X140658142Y-69977714D01*
X140601000Y-70149142D01*
X139915285Y-70834857D01*
X140658142Y-70834857D01*
X141401000Y-69634857D02*
X141515285Y-69634857D01*
X141629571Y-69692000D01*
X141686714Y-69749142D01*
X141743857Y-69863428D01*
X141801000Y-70092000D01*
X141801000Y-70377714D01*
X141743857Y-70606285D01*
X141686714Y-70720571D01*
X141629571Y-70777714D01*
X141515285Y-70834857D01*
X141401000Y-70834857D01*
X141286714Y-70777714D01*
X141229571Y-70720571D01*
X141172428Y-70606285D01*
X141115285Y-70377714D01*
X141115285Y-70092000D01*
X141172428Y-69863428D01*
X141229571Y-69749142D01*
X141286714Y-69692000D01*
X141401000Y-69634857D01*
X142943857Y-70834857D02*
X142258142Y-70834857D01*
X142601000Y-70834857D02*
X142601000Y-69634857D01*
X142486714Y-69806285D01*
X142372428Y-69920571D01*
X142258142Y-69977714D01*
X143629571Y-70149142D02*
X143515285Y-70092000D01*
X143458142Y-70034857D01*
X143401000Y-69920571D01*
X143401000Y-69863428D01*
X143458142Y-69749142D01*
X143515285Y-69692000D01*
X143629571Y-69634857D01*
X143858142Y-69634857D01*
X143972428Y-69692000D01*
X144029571Y-69749142D01*
X144086714Y-69863428D01*
X144086714Y-69920571D01*
X144029571Y-70034857D01*
X143972428Y-70092000D01*
X143858142Y-70149142D01*
X143629571Y-70149142D01*
X143515285Y-70206285D01*
X143458142Y-70263428D01*
X143401000Y-70377714D01*
X143401000Y-70606285D01*
X143458142Y-70720571D01*
X143515285Y-70777714D01*
X143629571Y-70834857D01*
X143858142Y-70834857D01*
X143972428Y-70777714D01*
X144029571Y-70720571D01*
X144086714Y-70606285D01*
X144086714Y-70377714D01*
X144029571Y-70263428D01*
X143972428Y-70206285D01*
X143858142Y-70149142D01*
D11*
X186490095Y-68080000D02*
X186394857Y-68032380D01*
X186252000Y-68032380D01*
X186109142Y-68080000D01*
X186013904Y-68175238D01*
X185966285Y-68270476D01*
X185918666Y-68460952D01*
X185918666Y-68603809D01*
X185966285Y-68794285D01*
X186013904Y-68889523D01*
X186109142Y-68984761D01*
X186252000Y-69032380D01*
X186347238Y-69032380D01*
X186490095Y-68984761D01*
X186537714Y-68937142D01*
X186537714Y-68603809D01*
X186347238Y-68603809D01*
X186966285Y-69032380D02*
X186966285Y-68032380D01*
X187537714Y-69032380D01*
X187537714Y-68032380D01*
X188013904Y-69032380D02*
X188013904Y-68032380D01*
X188252000Y-68032380D01*
X188394857Y-68080000D01*
X188490095Y-68175238D01*
X188537714Y-68270476D01*
X188585333Y-68460952D01*
X188585333Y-68603809D01*
X188537714Y-68794285D01*
X188490095Y-68889523D01*
X188394857Y-68984761D01*
X188252000Y-69032380D01*
X188013904Y-69032380D01*
X195403904Y-68032380D02*
X194927713Y-68032380D01*
X194880094Y-68508571D01*
X194927713Y-68460952D01*
X195022951Y-68413333D01*
X195261047Y-68413333D01*
X195356285Y-68460952D01*
X195403904Y-68508571D01*
X195451523Y-68603809D01*
X195451523Y-68841904D01*
X195403904Y-68937142D01*
X195356285Y-68984761D01*
X195261047Y-69032380D01*
X195022951Y-69032380D01*
X194927713Y-68984761D01*
X194880094Y-68937142D01*
X195737237Y-68032380D02*
X196070571Y-69032380D01*
X196403904Y-68032380D01*
X196927713Y-68032380D02*
X197022951Y-68032380D01*
X197118190Y-68080000D01*
X197165809Y-68127619D01*
X197213428Y-68222857D01*
X197261047Y-68413333D01*
X197261047Y-68651428D01*
X197213428Y-68841904D01*
X197165809Y-68937142D01*
X197118190Y-68984761D01*
X197022951Y-69032380D01*
X196927713Y-69032380D01*
X196832475Y-68984761D01*
X196784856Y-68937142D01*
X196737237Y-68841904D01*
X196689618Y-68651428D01*
X196689618Y-68413333D01*
X196737237Y-68222857D01*
X196784856Y-68127619D01*
X196832475Y-68080000D01*
X196927713Y-68032380D01*
X194927714Y-71572380D02*
X194927714Y-70572380D01*
X195308666Y-70572380D01*
X195403904Y-70620000D01*
X195451523Y-70667619D01*
X195499142Y-70762857D01*
X195499142Y-70905714D01*
X195451523Y-71000952D01*
X195403904Y-71048571D01*
X195308666Y-71096190D01*
X194927714Y-71096190D01*
X195880095Y-70667619D02*
X195927714Y-70620000D01*
X196022952Y-70572380D01*
X196261047Y-70572380D01*
X196356285Y-70620000D01*
X196403904Y-70667619D01*
X196451523Y-70762857D01*
X196451523Y-70858095D01*
X196403904Y-71000952D01*
X195832476Y-71572380D01*
X196451523Y-71572380D01*
X197308666Y-70905714D02*
X197308666Y-71572380D01*
X197070571Y-70524761D02*
X196832476Y-71239047D01*
X197451523Y-71239047D01*
X185966286Y-102052380D02*
X185966286Y-101052380D01*
X186347238Y-101052380D01*
X186442476Y-101100000D01*
X186490095Y-101147619D01*
X186537714Y-101242857D01*
X186537714Y-101385714D01*
X186490095Y-101480952D01*
X186442476Y-101528571D01*
X186347238Y-101576190D01*
X185966286Y-101576190D01*
X187394857Y-101385714D02*
X187394857Y-102052380D01*
X187156762Y-101004761D02*
X186918667Y-101719047D01*
X187537714Y-101719047D01*
X188442476Y-102052380D02*
X187871048Y-102052380D01*
X188156762Y-102052380D02*
X188156762Y-101052380D01*
X188061524Y-101195238D01*
X187966286Y-101290476D01*
X187871048Y-101338095D01*
X185966286Y-84272380D02*
X185966286Y-83272380D01*
X186347238Y-83272380D01*
X186442476Y-83320000D01*
X186490095Y-83367619D01*
X186537714Y-83462857D01*
X186537714Y-83605714D01*
X186490095Y-83700952D01*
X186442476Y-83748571D01*
X186347238Y-83796190D01*
X185966286Y-83796190D01*
X187394857Y-83605714D02*
X187394857Y-84272380D01*
X187156762Y-83224761D02*
X186918667Y-83939047D01*
X187537714Y-83939047D01*
X185966286Y-79192380D02*
X185966286Y-78192380D01*
X186347238Y-78192380D01*
X186442476Y-78240000D01*
X186490095Y-78287619D01*
X186537714Y-78382857D01*
X186537714Y-78525714D01*
X186490095Y-78620952D01*
X186442476Y-78668571D01*
X186347238Y-78716190D01*
X185966286Y-78716190D01*
X187490095Y-79192380D02*
X186918667Y-79192380D01*
X187204381Y-79192380D02*
X187204381Y-78192380D01*
X187109143Y-78335238D01*
X187013905Y-78430476D01*
X186918667Y-78478095D01*
X187823429Y-78192380D02*
X188442476Y-78192380D01*
X188109143Y-78573333D01*
X188252000Y-78573333D01*
X188347238Y-78620952D01*
X188394857Y-78668571D01*
X188442476Y-78763809D01*
X188442476Y-79001904D01*
X188394857Y-79097142D01*
X188347238Y-79144761D01*
X188252000Y-79192380D01*
X187966286Y-79192380D01*
X187871048Y-79144761D01*
X187823429Y-79097142D01*
X185966286Y-81732380D02*
X185966286Y-80732380D01*
X186347238Y-80732380D01*
X186442476Y-80780000D01*
X186490095Y-80827619D01*
X186537714Y-80922857D01*
X186537714Y-81065714D01*
X186490095Y-81160952D01*
X186442476Y-81208571D01*
X186347238Y-81256190D01*
X185966286Y-81256190D01*
X187013905Y-81732380D02*
X187204381Y-81732380D01*
X187299619Y-81684761D01*
X187347238Y-81637142D01*
X187442476Y-81494285D01*
X187490095Y-81303809D01*
X187490095Y-80922857D01*
X187442476Y-80827619D01*
X187394857Y-80780000D01*
X187299619Y-80732380D01*
X187109143Y-80732380D01*
X187013905Y-80780000D01*
X186966286Y-80827619D01*
X186918667Y-80922857D01*
X186918667Y-81160952D01*
X186966286Y-81256190D01*
X187013905Y-81303809D01*
X187109143Y-81351428D01*
X187299619Y-81351428D01*
X187394857Y-81303809D01*
X187442476Y-81256190D01*
X187490095Y-81160952D01*
X185966286Y-86812380D02*
X185966286Y-85812380D01*
X186347238Y-85812380D01*
X186442476Y-85860000D01*
X186490095Y-85907619D01*
X186537714Y-86002857D01*
X186537714Y-86145714D01*
X186490095Y-86240952D01*
X186442476Y-86288571D01*
X186347238Y-86336190D01*
X185966286Y-86336190D01*
X187156762Y-85812380D02*
X187252000Y-85812380D01*
X187347238Y-85860000D01*
X187394857Y-85907619D01*
X187442476Y-86002857D01*
X187490095Y-86193333D01*
X187490095Y-86431428D01*
X187442476Y-86621904D01*
X187394857Y-86717142D01*
X187347238Y-86764761D01*
X187252000Y-86812380D01*
X187156762Y-86812380D01*
X187061524Y-86764761D01*
X187013905Y-86717142D01*
X186966286Y-86621904D01*
X186918667Y-86431428D01*
X186918667Y-86193333D01*
X186966286Y-86002857D01*
X187013905Y-85907619D01*
X187061524Y-85860000D01*
X187156762Y-85812380D01*
X185966286Y-74112380D02*
X185966286Y-73112380D01*
X186347238Y-73112380D01*
X186442476Y-73160000D01*
X186490095Y-73207619D01*
X186537714Y-73302857D01*
X186537714Y-73445714D01*
X186490095Y-73540952D01*
X186442476Y-73588571D01*
X186347238Y-73636190D01*
X185966286Y-73636190D01*
X186918667Y-73207619D02*
X186966286Y-73160000D01*
X187061524Y-73112380D01*
X187299619Y-73112380D01*
X187394857Y-73160000D01*
X187442476Y-73207619D01*
X187490095Y-73302857D01*
X187490095Y-73398095D01*
X187442476Y-73540952D01*
X186871048Y-74112380D01*
X187490095Y-74112380D01*
X188109143Y-73112380D02*
X188204381Y-73112380D01*
X188299619Y-73160000D01*
X188347238Y-73207619D01*
X188394857Y-73302857D01*
X188442476Y-73493333D01*
X188442476Y-73731428D01*
X188394857Y-73921904D01*
X188347238Y-74017142D01*
X188299619Y-74064761D01*
X188204381Y-74112380D01*
X188109143Y-74112380D01*
X188013905Y-74064761D01*
X187966286Y-74017142D01*
X187918667Y-73921904D01*
X187871048Y-73731428D01*
X187871048Y-73493333D01*
X187918667Y-73302857D01*
X187966286Y-73207619D01*
X188013905Y-73160000D01*
X188109143Y-73112380D01*
X185966286Y-107132380D02*
X185966286Y-106132380D01*
X186347238Y-106132380D01*
X186442476Y-106180000D01*
X186490095Y-106227619D01*
X186537714Y-106322857D01*
X186537714Y-106465714D01*
X186490095Y-106560952D01*
X186442476Y-106608571D01*
X186347238Y-106656190D01*
X185966286Y-106656190D01*
X186918667Y-106227619D02*
X186966286Y-106180000D01*
X187061524Y-106132380D01*
X187299619Y-106132380D01*
X187394857Y-106180000D01*
X187442476Y-106227619D01*
X187490095Y-106322857D01*
X187490095Y-106418095D01*
X187442476Y-106560952D01*
X186871048Y-107132380D01*
X187490095Y-107132380D01*
X187823429Y-106132380D02*
X188442476Y-106132380D01*
X188109143Y-106513333D01*
X188252000Y-106513333D01*
X188347238Y-106560952D01*
X188394857Y-106608571D01*
X188442476Y-106703809D01*
X188442476Y-106941904D01*
X188394857Y-107037142D01*
X188347238Y-107084761D01*
X188252000Y-107132380D01*
X187966286Y-107132380D01*
X187871048Y-107084761D01*
X187823429Y-107037142D01*
X185966286Y-109672380D02*
X185966286Y-108672380D01*
X186347238Y-108672380D01*
X186442476Y-108720000D01*
X186490095Y-108767619D01*
X186537714Y-108862857D01*
X186537714Y-109005714D01*
X186490095Y-109100952D01*
X186442476Y-109148571D01*
X186347238Y-109196190D01*
X185966286Y-109196190D01*
X186918667Y-108767619D02*
X186966286Y-108720000D01*
X187061524Y-108672380D01*
X187299619Y-108672380D01*
X187394857Y-108720000D01*
X187442476Y-108767619D01*
X187490095Y-108862857D01*
X187490095Y-108958095D01*
X187442476Y-109100952D01*
X186871048Y-109672380D01*
X187490095Y-109672380D01*
X187966286Y-109672380D02*
X188156762Y-109672380D01*
X188252000Y-109624761D01*
X188299619Y-109577142D01*
X188394857Y-109434285D01*
X188442476Y-109243809D01*
X188442476Y-108862857D01*
X188394857Y-108767619D01*
X188347238Y-108720000D01*
X188252000Y-108672380D01*
X188061524Y-108672380D01*
X187966286Y-108720000D01*
X187918667Y-108767619D01*
X187871048Y-108862857D01*
X187871048Y-109100952D01*
X187918667Y-109196190D01*
X187966286Y-109243809D01*
X188061524Y-109291428D01*
X188252000Y-109291428D01*
X188347238Y-109243809D01*
X188394857Y-109196190D01*
X188442476Y-109100952D01*
X185966286Y-96972380D02*
X185966286Y-95972380D01*
X186347238Y-95972380D01*
X186442476Y-96020000D01*
X186490095Y-96067619D01*
X186537714Y-96162857D01*
X186537714Y-96305714D01*
X186490095Y-96400952D01*
X186442476Y-96448571D01*
X186347238Y-96496190D01*
X185966286Y-96496190D01*
X187394857Y-96305714D02*
X187394857Y-96972380D01*
X187156762Y-95924761D02*
X186918667Y-96639047D01*
X187537714Y-96639047D01*
X188347238Y-95972380D02*
X188156762Y-95972380D01*
X188061524Y-96020000D01*
X188013905Y-96067619D01*
X187918667Y-96210476D01*
X187871048Y-96400952D01*
X187871048Y-96781904D01*
X187918667Y-96877142D01*
X187966286Y-96924761D01*
X188061524Y-96972380D01*
X188252000Y-96972380D01*
X188347238Y-96924761D01*
X188394857Y-96877142D01*
X188442476Y-96781904D01*
X188442476Y-96543809D01*
X188394857Y-96448571D01*
X188347238Y-96400952D01*
X188252000Y-96353333D01*
X188061524Y-96353333D01*
X187966286Y-96400952D01*
X187918667Y-96448571D01*
X187871048Y-96543809D01*
X185966286Y-91892380D02*
X185966286Y-90892380D01*
X186347238Y-90892380D01*
X186442476Y-90940000D01*
X186490095Y-90987619D01*
X186537714Y-91082857D01*
X186537714Y-91225714D01*
X186490095Y-91320952D01*
X186442476Y-91368571D01*
X186347238Y-91416190D01*
X185966286Y-91416190D01*
X187442476Y-90892380D02*
X186966286Y-90892380D01*
X186918667Y-91368571D01*
X186966286Y-91320952D01*
X187061524Y-91273333D01*
X187299619Y-91273333D01*
X187394857Y-91320952D01*
X187442476Y-91368571D01*
X187490095Y-91463809D01*
X187490095Y-91701904D01*
X187442476Y-91797142D01*
X187394857Y-91844761D01*
X187299619Y-91892380D01*
X187061524Y-91892380D01*
X186966286Y-91844761D01*
X186918667Y-91797142D01*
X188442476Y-91892380D02*
X187871048Y-91892380D01*
X188156762Y-91892380D02*
X188156762Y-90892380D01*
X188061524Y-91035238D01*
X187966286Y-91130476D01*
X187871048Y-91178095D01*
X185966286Y-104592380D02*
X185966286Y-103592380D01*
X186347238Y-103592380D01*
X186442476Y-103640000D01*
X186490095Y-103687619D01*
X186537714Y-103782857D01*
X186537714Y-103925714D01*
X186490095Y-104020952D01*
X186442476Y-104068571D01*
X186347238Y-104116190D01*
X185966286Y-104116190D01*
X186871048Y-103592380D02*
X187490095Y-103592380D01*
X187156762Y-103973333D01*
X187299619Y-103973333D01*
X187394857Y-104020952D01*
X187442476Y-104068571D01*
X187490095Y-104163809D01*
X187490095Y-104401904D01*
X187442476Y-104497142D01*
X187394857Y-104544761D01*
X187299619Y-104592380D01*
X187013905Y-104592380D01*
X186918667Y-104544761D01*
X186871048Y-104497142D01*
X187966286Y-104592380D02*
X188156762Y-104592380D01*
X188252000Y-104544761D01*
X188299619Y-104497142D01*
X188394857Y-104354285D01*
X188442476Y-104163809D01*
X188442476Y-103782857D01*
X188394857Y-103687619D01*
X188347238Y-103640000D01*
X188252000Y-103592380D01*
X188061524Y-103592380D01*
X187966286Y-103640000D01*
X187918667Y-103687619D01*
X187871048Y-103782857D01*
X187871048Y-104020952D01*
X187918667Y-104116190D01*
X187966286Y-104163809D01*
X188061524Y-104211428D01*
X188252000Y-104211428D01*
X188347238Y-104163809D01*
X188394857Y-104116190D01*
X188442476Y-104020952D01*
X185966286Y-89352380D02*
X185966286Y-88352380D01*
X186347238Y-88352380D01*
X186442476Y-88400000D01*
X186490095Y-88447619D01*
X186537714Y-88542857D01*
X186537714Y-88685714D01*
X186490095Y-88780952D01*
X186442476Y-88828571D01*
X186347238Y-88876190D01*
X185966286Y-88876190D01*
X186871048Y-88352380D02*
X187490095Y-88352380D01*
X187156762Y-88733333D01*
X187299619Y-88733333D01*
X187394857Y-88780952D01*
X187442476Y-88828571D01*
X187490095Y-88923809D01*
X187490095Y-89161904D01*
X187442476Y-89257142D01*
X187394857Y-89304761D01*
X187299619Y-89352380D01*
X187013905Y-89352380D01*
X186918667Y-89304761D01*
X186871048Y-89257142D01*
X185966286Y-94432380D02*
X185966286Y-93432380D01*
X186347238Y-93432380D01*
X186442476Y-93480000D01*
X186490095Y-93527619D01*
X186537714Y-93622857D01*
X186537714Y-93765714D01*
X186490095Y-93860952D01*
X186442476Y-93908571D01*
X186347238Y-93956190D01*
X185966286Y-93956190D01*
X187394857Y-93765714D02*
X187394857Y-94432380D01*
X187156762Y-93384761D02*
X186918667Y-94099047D01*
X187537714Y-94099047D01*
X188394857Y-93432380D02*
X187918667Y-93432380D01*
X187871048Y-93908571D01*
X187918667Y-93860952D01*
X188013905Y-93813333D01*
X188252000Y-93813333D01*
X188347238Y-93860952D01*
X188394857Y-93908571D01*
X188442476Y-94003809D01*
X188442476Y-94241904D01*
X188394857Y-94337142D01*
X188347238Y-94384761D01*
X188252000Y-94432380D01*
X188013905Y-94432380D01*
X187918667Y-94384761D01*
X187871048Y-94337142D01*
X185966286Y-76652380D02*
X185966286Y-75652380D01*
X186347238Y-75652380D01*
X186442476Y-75700000D01*
X186490095Y-75747619D01*
X186537714Y-75842857D01*
X186537714Y-75985714D01*
X186490095Y-76080952D01*
X186442476Y-76128571D01*
X186347238Y-76176190D01*
X185966286Y-76176190D01*
X187490095Y-76652380D02*
X186918667Y-76652380D01*
X187204381Y-76652380D02*
X187204381Y-75652380D01*
X187109143Y-75795238D01*
X187013905Y-75890476D01*
X186918667Y-75938095D01*
X188061524Y-76080952D02*
X187966286Y-76033333D01*
X187918667Y-75985714D01*
X187871048Y-75890476D01*
X187871048Y-75842857D01*
X187918667Y-75747619D01*
X187966286Y-75700000D01*
X188061524Y-75652380D01*
X188252000Y-75652380D01*
X188347238Y-75700000D01*
X188394857Y-75747619D01*
X188442476Y-75842857D01*
X188442476Y-75890476D01*
X188394857Y-75985714D01*
X188347238Y-76033333D01*
X188252000Y-76080952D01*
X188061524Y-76080952D01*
X187966286Y-76128571D01*
X187918667Y-76176190D01*
X187871048Y-76271428D01*
X187871048Y-76461904D01*
X187918667Y-76557142D01*
X187966286Y-76604761D01*
X188061524Y-76652380D01*
X188252000Y-76652380D01*
X188347238Y-76604761D01*
X188394857Y-76557142D01*
X188442476Y-76461904D01*
X188442476Y-76271428D01*
X188394857Y-76176190D01*
X188347238Y-76128571D01*
X188252000Y-76080952D01*
X185966286Y-99512380D02*
X185966286Y-98512380D01*
X186347238Y-98512380D01*
X186442476Y-98560000D01*
X186490095Y-98607619D01*
X186537714Y-98702857D01*
X186537714Y-98845714D01*
X186490095Y-98940952D01*
X186442476Y-98988571D01*
X186347238Y-99036190D01*
X185966286Y-99036190D01*
X187394857Y-98845714D02*
X187394857Y-99512380D01*
X187156762Y-98464761D02*
X186918667Y-99179047D01*
X187537714Y-99179047D01*
X187823429Y-98512380D02*
X188442476Y-98512380D01*
X188109143Y-98893333D01*
X188252000Y-98893333D01*
X188347238Y-98940952D01*
X188394857Y-98988571D01*
X188442476Y-99083809D01*
X188442476Y-99321904D01*
X188394857Y-99417142D01*
X188347238Y-99464761D01*
X188252000Y-99512380D01*
X187966286Y-99512380D01*
X187871048Y-99464761D01*
X187823429Y-99417142D01*
X194927714Y-104592380D02*
X194927714Y-103592380D01*
X195308666Y-103592380D01*
X195403904Y-103640000D01*
X195451523Y-103687619D01*
X195499142Y-103782857D01*
X195499142Y-103925714D01*
X195451523Y-104020952D01*
X195403904Y-104068571D01*
X195308666Y-104116190D01*
X194927714Y-104116190D01*
X195832476Y-103592380D02*
X196451523Y-103592380D01*
X196118190Y-103973333D01*
X196261047Y-103973333D01*
X196356285Y-104020952D01*
X196403904Y-104068571D01*
X196451523Y-104163809D01*
X196451523Y-104401904D01*
X196403904Y-104497142D01*
X196356285Y-104544761D01*
X196261047Y-104592380D01*
X195975333Y-104592380D01*
X195880095Y-104544761D01*
X195832476Y-104497142D01*
X197308666Y-103592380D02*
X197118190Y-103592380D01*
X197022952Y-103640000D01*
X196975333Y-103687619D01*
X196880095Y-103830476D01*
X196832476Y-104020952D01*
X196832476Y-104401904D01*
X196880095Y-104497142D01*
X196927714Y-104544761D01*
X197022952Y-104592380D01*
X197213428Y-104592380D01*
X197308666Y-104544761D01*
X197356285Y-104497142D01*
X197403904Y-104401904D01*
X197403904Y-104163809D01*
X197356285Y-104068571D01*
X197308666Y-104020952D01*
X197213428Y-103973333D01*
X197022952Y-103973333D01*
X196927714Y-104020952D01*
X196880095Y-104068571D01*
X196832476Y-104163809D01*
X194927714Y-99512380D02*
X194927714Y-98512380D01*
X195308666Y-98512380D01*
X195403904Y-98560000D01*
X195451523Y-98607619D01*
X195499142Y-98702857D01*
X195499142Y-98845714D01*
X195451523Y-98940952D01*
X195403904Y-98988571D01*
X195308666Y-99036190D01*
X194927714Y-99036190D01*
X196356285Y-98845714D02*
X196356285Y-99512380D01*
X196118190Y-98464761D02*
X195880095Y-99179047D01*
X196499142Y-99179047D01*
X196832476Y-98607619D02*
X196880095Y-98560000D01*
X196975333Y-98512380D01*
X197213428Y-98512380D01*
X197308666Y-98560000D01*
X197356285Y-98607619D01*
X197403904Y-98702857D01*
X197403904Y-98798095D01*
X197356285Y-98940952D01*
X196784857Y-99512380D01*
X197403904Y-99512380D01*
X194927714Y-102052380D02*
X194927714Y-101052380D01*
X195308666Y-101052380D01*
X195403904Y-101100000D01*
X195451523Y-101147619D01*
X195499142Y-101242857D01*
X195499142Y-101385714D01*
X195451523Y-101480952D01*
X195403904Y-101528571D01*
X195308666Y-101576190D01*
X194927714Y-101576190D01*
X195832476Y-101052380D02*
X196451523Y-101052380D01*
X196118190Y-101433333D01*
X196261047Y-101433333D01*
X196356285Y-101480952D01*
X196403904Y-101528571D01*
X196451523Y-101623809D01*
X196451523Y-101861904D01*
X196403904Y-101957142D01*
X196356285Y-102004761D01*
X196261047Y-102052380D01*
X195975333Y-102052380D01*
X195880095Y-102004761D01*
X195832476Y-101957142D01*
X197022952Y-101480952D02*
X196927714Y-101433333D01*
X196880095Y-101385714D01*
X196832476Y-101290476D01*
X196832476Y-101242857D01*
X196880095Y-101147619D01*
X196927714Y-101100000D01*
X197022952Y-101052380D01*
X197213428Y-101052380D01*
X197308666Y-101100000D01*
X197356285Y-101147619D01*
X197403904Y-101242857D01*
X197403904Y-101290476D01*
X197356285Y-101385714D01*
X197308666Y-101433333D01*
X197213428Y-101480952D01*
X197022952Y-101480952D01*
X196927714Y-101528571D01*
X196880095Y-101576190D01*
X196832476Y-101671428D01*
X196832476Y-101861904D01*
X196880095Y-101957142D01*
X196927714Y-102004761D01*
X197022952Y-102052380D01*
X197213428Y-102052380D01*
X197308666Y-102004761D01*
X197356285Y-101957142D01*
X197403904Y-101861904D01*
X197403904Y-101671428D01*
X197356285Y-101576190D01*
X197308666Y-101528571D01*
X197213428Y-101480952D01*
X194927714Y-107132380D02*
X194927714Y-106132380D01*
X195308666Y-106132380D01*
X195403904Y-106180000D01*
X195451523Y-106227619D01*
X195499142Y-106322857D01*
X195499142Y-106465714D01*
X195451523Y-106560952D01*
X195403904Y-106608571D01*
X195308666Y-106656190D01*
X194927714Y-106656190D01*
X195880095Y-106227619D02*
X195927714Y-106180000D01*
X196022952Y-106132380D01*
X196261047Y-106132380D01*
X196356285Y-106180000D01*
X196403904Y-106227619D01*
X196451523Y-106322857D01*
X196451523Y-106418095D01*
X196403904Y-106560952D01*
X195832476Y-107132380D01*
X196451523Y-107132380D01*
X197356285Y-106132380D02*
X196880095Y-106132380D01*
X196832476Y-106608571D01*
X196880095Y-106560952D01*
X196975333Y-106513333D01*
X197213428Y-106513333D01*
X197308666Y-106560952D01*
X197356285Y-106608571D01*
X197403904Y-106703809D01*
X197403904Y-106941904D01*
X197356285Y-107037142D01*
X197308666Y-107084761D01*
X197213428Y-107132380D01*
X196975333Y-107132380D01*
X196880095Y-107084761D01*
X196832476Y-107037142D01*
X194927714Y-94432380D02*
X194927714Y-93432380D01*
X195308666Y-93432380D01*
X195403904Y-93480000D01*
X195451523Y-93527619D01*
X195499142Y-93622857D01*
X195499142Y-93765714D01*
X195451523Y-93860952D01*
X195403904Y-93908571D01*
X195308666Y-93956190D01*
X194927714Y-93956190D01*
X196356285Y-93765714D02*
X196356285Y-94432380D01*
X196118190Y-93384761D02*
X195880095Y-94099047D01*
X196499142Y-94099047D01*
X197022952Y-93860952D02*
X196927714Y-93813333D01*
X196880095Y-93765714D01*
X196832476Y-93670476D01*
X196832476Y-93622857D01*
X196880095Y-93527619D01*
X196927714Y-93480000D01*
X197022952Y-93432380D01*
X197213428Y-93432380D01*
X197308666Y-93480000D01*
X197356285Y-93527619D01*
X197403904Y-93622857D01*
X197403904Y-93670476D01*
X197356285Y-93765714D01*
X197308666Y-93813333D01*
X197213428Y-93860952D01*
X197022952Y-93860952D01*
X196927714Y-93908571D01*
X196880095Y-93956190D01*
X196832476Y-94051428D01*
X196832476Y-94241904D01*
X196880095Y-94337142D01*
X196927714Y-94384761D01*
X197022952Y-94432380D01*
X197213428Y-94432380D01*
X197308666Y-94384761D01*
X197356285Y-94337142D01*
X197403904Y-94241904D01*
X197403904Y-94051428D01*
X197356285Y-93956190D01*
X197308666Y-93908571D01*
X197213428Y-93860952D01*
X194927714Y-109672380D02*
X194927714Y-108672380D01*
X195308666Y-108672380D01*
X195403904Y-108720000D01*
X195451523Y-108767619D01*
X195499142Y-108862857D01*
X195499142Y-109005714D01*
X195451523Y-109100952D01*
X195403904Y-109148571D01*
X195308666Y-109196190D01*
X194927714Y-109196190D01*
X195832476Y-108672380D02*
X196451523Y-108672380D01*
X196118190Y-109053333D01*
X196261047Y-109053333D01*
X196356285Y-109100952D01*
X196403904Y-109148571D01*
X196451523Y-109243809D01*
X196451523Y-109481904D01*
X196403904Y-109577142D01*
X196356285Y-109624761D01*
X196261047Y-109672380D01*
X195975333Y-109672380D01*
X195880095Y-109624761D01*
X195832476Y-109577142D01*
X197403904Y-109672380D02*
X196832476Y-109672380D01*
X197118190Y-109672380D02*
X197118190Y-108672380D01*
X197022952Y-108815238D01*
X196927714Y-108910476D01*
X196832476Y-108958095D01*
X194927714Y-96972380D02*
X194927714Y-95972380D01*
X195308666Y-95972380D01*
X195403904Y-96020000D01*
X195451523Y-96067619D01*
X195499142Y-96162857D01*
X195499142Y-96305714D01*
X195451523Y-96400952D01*
X195403904Y-96448571D01*
X195308666Y-96496190D01*
X194927714Y-96496190D01*
X196356285Y-96305714D02*
X196356285Y-96972380D01*
X196118190Y-95924761D02*
X195880095Y-96639047D01*
X196499142Y-96639047D01*
X197308666Y-96305714D02*
X197308666Y-96972380D01*
X197070571Y-95924761D02*
X196832476Y-96639047D01*
X197451523Y-96639047D01*
X194927714Y-89352380D02*
X194927714Y-88352380D01*
X195308666Y-88352380D01*
X195403904Y-88400000D01*
X195451523Y-88447619D01*
X195499142Y-88542857D01*
X195499142Y-88685714D01*
X195451523Y-88780952D01*
X195403904Y-88828571D01*
X195308666Y-88876190D01*
X194927714Y-88876190D01*
X196356285Y-88685714D02*
X196356285Y-89352380D01*
X196118190Y-88304761D02*
X195880095Y-89019047D01*
X196499142Y-89019047D01*
X196927714Y-89352380D02*
X197118190Y-89352380D01*
X197213428Y-89304761D01*
X197261047Y-89257142D01*
X197356285Y-89114285D01*
X197403904Y-88923809D01*
X197403904Y-88542857D01*
X197356285Y-88447619D01*
X197308666Y-88400000D01*
X197213428Y-88352380D01*
X197022952Y-88352380D01*
X196927714Y-88400000D01*
X196880095Y-88447619D01*
X196832476Y-88542857D01*
X196832476Y-88780952D01*
X196880095Y-88876190D01*
X196927714Y-88923809D01*
X197022952Y-88971428D01*
X197213428Y-88971428D01*
X197308666Y-88923809D01*
X197356285Y-88876190D01*
X197403904Y-88780952D01*
X194927714Y-91892380D02*
X194927714Y-90892380D01*
X195308666Y-90892380D01*
X195403904Y-90940000D01*
X195451523Y-90987619D01*
X195499142Y-91082857D01*
X195499142Y-91225714D01*
X195451523Y-91320952D01*
X195403904Y-91368571D01*
X195308666Y-91416190D01*
X194927714Y-91416190D01*
X196403904Y-90892380D02*
X195927714Y-90892380D01*
X195880095Y-91368571D01*
X195927714Y-91320952D01*
X196022952Y-91273333D01*
X196261047Y-91273333D01*
X196356285Y-91320952D01*
X196403904Y-91368571D01*
X196451523Y-91463809D01*
X196451523Y-91701904D01*
X196403904Y-91797142D01*
X196356285Y-91844761D01*
X196261047Y-91892380D01*
X196022952Y-91892380D01*
X195927714Y-91844761D01*
X195880095Y-91797142D01*
X197070571Y-90892380D02*
X197165809Y-90892380D01*
X197261047Y-90940000D01*
X197308666Y-90987619D01*
X197356285Y-91082857D01*
X197403904Y-91273333D01*
X197403904Y-91511428D01*
X197356285Y-91701904D01*
X197308666Y-91797142D01*
X197261047Y-91844761D01*
X197165809Y-91892380D01*
X197070571Y-91892380D01*
X196975333Y-91844761D01*
X196927714Y-91797142D01*
X196880095Y-91701904D01*
X196832476Y-91511428D01*
X196832476Y-91273333D01*
X196880095Y-91082857D01*
X196927714Y-90987619D01*
X196975333Y-90940000D01*
X197070571Y-90892380D01*
X194927713Y-84272380D02*
X194927713Y-83272380D01*
X195308666Y-83272380D01*
X195403904Y-83320000D01*
X195451523Y-83367619D01*
X195499142Y-83462857D01*
X195499142Y-83605714D01*
X195451523Y-83700952D01*
X195403904Y-83748571D01*
X195308666Y-83796190D01*
X194927713Y-83796190D01*
X195880094Y-83367619D02*
X195927713Y-83320000D01*
X196022951Y-83272380D01*
X196261047Y-83272380D01*
X196356285Y-83320000D01*
X196403904Y-83367619D01*
X196451523Y-83462857D01*
X196451523Y-83558095D01*
X196403904Y-83700952D01*
X195832475Y-84272380D01*
X196451523Y-84272380D01*
X194927713Y-86812380D02*
X194927713Y-85812380D01*
X195308666Y-85812380D01*
X195403904Y-85860000D01*
X195451523Y-85907619D01*
X195499142Y-86002857D01*
X195499142Y-86145714D01*
X195451523Y-86240952D01*
X195403904Y-86288571D01*
X195308666Y-86336190D01*
X194927713Y-86336190D01*
X196403904Y-85812380D02*
X195927713Y-85812380D01*
X195880094Y-86288571D01*
X195927713Y-86240952D01*
X196022951Y-86193333D01*
X196261047Y-86193333D01*
X196356285Y-86240952D01*
X196403904Y-86288571D01*
X196451523Y-86383809D01*
X196451523Y-86621904D01*
X196403904Y-86717142D01*
X196356285Y-86764761D01*
X196261047Y-86812380D01*
X196022951Y-86812380D01*
X195927713Y-86764761D01*
X195880094Y-86717142D01*
X195022952Y-79192380D02*
X195022952Y-78192380D01*
X195403904Y-78192380D01*
X195499142Y-78240000D01*
X195546761Y-78287619D01*
X195594380Y-78382857D01*
X195594380Y-78525714D01*
X195546761Y-78620952D01*
X195499142Y-78668571D01*
X195403904Y-78716190D01*
X195022952Y-78716190D01*
X196165809Y-78620952D02*
X196070571Y-78573333D01*
X196022952Y-78525714D01*
X195975333Y-78430476D01*
X195975333Y-78382857D01*
X196022952Y-78287619D01*
X196070571Y-78240000D01*
X196165809Y-78192380D01*
X196356285Y-78192380D01*
X196451523Y-78240000D01*
X196499142Y-78287619D01*
X196546761Y-78382857D01*
X196546761Y-78430476D01*
X196499142Y-78525714D01*
X196451523Y-78573333D01*
X196356285Y-78620952D01*
X196165809Y-78620952D01*
X196070571Y-78668571D01*
X196022952Y-78716190D01*
X195975333Y-78811428D01*
X195975333Y-79001904D01*
X196022952Y-79097142D01*
X196070571Y-79144761D01*
X196165809Y-79192380D01*
X196356285Y-79192380D01*
X196451523Y-79144761D01*
X196499142Y-79097142D01*
X196546761Y-79001904D01*
X196546761Y-78811428D01*
X196499142Y-78716190D01*
X196451523Y-78668571D01*
X196356285Y-78620952D01*
X194927714Y-81732380D02*
X194927714Y-80732380D01*
X195308666Y-80732380D01*
X195403904Y-80780000D01*
X195451523Y-80827619D01*
X195499142Y-80922857D01*
X195499142Y-81065714D01*
X195451523Y-81160952D01*
X195403904Y-81208571D01*
X195308666Y-81256190D01*
X194927714Y-81256190D01*
X196356285Y-80732380D02*
X196165809Y-80732380D01*
X196070571Y-80780000D01*
X196022952Y-80827619D01*
X195927714Y-80970476D01*
X195880095Y-81160952D01*
X195880095Y-81541904D01*
X195927714Y-81637142D01*
X195975333Y-81684761D01*
X196070571Y-81732380D01*
X196261047Y-81732380D01*
X196356285Y-81684761D01*
X196403904Y-81637142D01*
X196451523Y-81541904D01*
X196451523Y-81303809D01*
X196403904Y-81208571D01*
X196356285Y-81160952D01*
X196261047Y-81113333D01*
X196070571Y-81113333D01*
X195975333Y-81160952D01*
X195927714Y-81208571D01*
X195880095Y-81303809D01*
X194927714Y-76652380D02*
X194927714Y-75652380D01*
X195308666Y-75652380D01*
X195403904Y-75700000D01*
X195451523Y-75747619D01*
X195499142Y-75842857D01*
X195499142Y-75985714D01*
X195451523Y-76080952D01*
X195403904Y-76128571D01*
X195308666Y-76176190D01*
X194927714Y-76176190D01*
X196451523Y-76652380D02*
X195880095Y-76652380D01*
X196165809Y-76652380D02*
X196165809Y-75652380D01*
X196070571Y-75795238D01*
X195975333Y-75890476D01*
X195880095Y-75938095D01*
X197308666Y-75652380D02*
X197118190Y-75652380D01*
X197022952Y-75700000D01*
X196975333Y-75747619D01*
X196880095Y-75890476D01*
X196832476Y-76080952D01*
X196832476Y-76461904D01*
X196880095Y-76557142D01*
X196927714Y-76604761D01*
X197022952Y-76652380D01*
X197213428Y-76652380D01*
X197308666Y-76604761D01*
X197356285Y-76557142D01*
X197403904Y-76461904D01*
X197403904Y-76223809D01*
X197356285Y-76128571D01*
X197308666Y-76080952D01*
X197213428Y-76033333D01*
X197022952Y-76033333D01*
X196927714Y-76080952D01*
X196880095Y-76128571D01*
X196832476Y-76223809D01*
X194927714Y-74112380D02*
X194927714Y-73112380D01*
X195308666Y-73112380D01*
X195403904Y-73160000D01*
X195451523Y-73207619D01*
X195499142Y-73302857D01*
X195499142Y-73445714D01*
X195451523Y-73540952D01*
X195403904Y-73588571D01*
X195308666Y-73636190D01*
X194927714Y-73636190D01*
X195880095Y-73207619D02*
X195927714Y-73160000D01*
X196022952Y-73112380D01*
X196261047Y-73112380D01*
X196356285Y-73160000D01*
X196403904Y-73207619D01*
X196451523Y-73302857D01*
X196451523Y-73398095D01*
X196403904Y-73540952D01*
X195832476Y-74112380D01*
X196451523Y-74112380D01*
X196832476Y-73207619D02*
X196880095Y-73160000D01*
X196975333Y-73112380D01*
X197213428Y-73112380D01*
X197308666Y-73160000D01*
X197356285Y-73207619D01*
X197403904Y-73302857D01*
X197403904Y-73398095D01*
X197356285Y-73540952D01*
X196784857Y-74112380D01*
X197403904Y-74112380D01*
D12*
X141585904Y-107414190D02*
X141585904Y-106914190D01*
X141871619Y-107414190D01*
X141871619Y-106914190D01*
X142395428Y-107414190D02*
X142228761Y-107176095D01*
X142109714Y-107414190D02*
X142109714Y-106914190D01*
X142300190Y-106914190D01*
X142347809Y-106938000D01*
X142371619Y-106961809D01*
X142395428Y-107009428D01*
X142395428Y-107080857D01*
X142371619Y-107128476D01*
X142347809Y-107152285D01*
X142300190Y-107176095D01*
X142109714Y-107176095D01*
X142585904Y-107390380D02*
X142657333Y-107414190D01*
X142776380Y-107414190D01*
X142824000Y-107390380D01*
X142847809Y-107366571D01*
X142871619Y-107318952D01*
X142871619Y-107271333D01*
X142847809Y-107223714D01*
X142824000Y-107199904D01*
X142776380Y-107176095D01*
X142681142Y-107152285D01*
X142633523Y-107128476D01*
X142609714Y-107104666D01*
X142585904Y-107057047D01*
X142585904Y-107009428D01*
X142609714Y-106961809D01*
X142633523Y-106938000D01*
X142681142Y-106914190D01*
X142800190Y-106914190D01*
X142871619Y-106938000D01*
X143014476Y-106914190D02*
X143300190Y-106914190D01*
X143157333Y-107414190D02*
X143157333Y-106914190D01*
X143824000Y-107390380D02*
X143895428Y-107414190D01*
X144014476Y-107414190D01*
X144062095Y-107390380D01*
X144085904Y-107366571D01*
X144109714Y-107318952D01*
X144109714Y-107271333D01*
X144085904Y-107223714D01*
X144062095Y-107199904D01*
X144014476Y-107176095D01*
X143919238Y-107152285D01*
X143871619Y-107128476D01*
X143847809Y-107104666D01*
X143824000Y-107057047D01*
X143824000Y-107009428D01*
X143847809Y-106961809D01*
X143871619Y-106938000D01*
X143919238Y-106914190D01*
X144038285Y-106914190D01*
X144109714Y-106938000D01*
X144276380Y-106914190D02*
X144395428Y-107414190D01*
X144490666Y-107057047D01*
X144585904Y-107414190D01*
X144704952Y-106914190D01*
X144895428Y-107414190D02*
X144895428Y-106914190D01*
X145014476Y-106914190D01*
X145085904Y-106938000D01*
X145133523Y-106985619D01*
X145157333Y-107033238D01*
X145181142Y-107128476D01*
X145181142Y-107199904D01*
X145157333Y-107295142D01*
X145133523Y-107342761D01*
X145085904Y-107390380D01*
X145014476Y-107414190D01*
X144895428Y-107414190D01*
X145395428Y-107414190D02*
X145395428Y-106914190D01*
X145728761Y-106914190D02*
X145824000Y-106914190D01*
X145871619Y-106938000D01*
X145919238Y-106985619D01*
X145943047Y-107080857D01*
X145943047Y-107247523D01*
X145919238Y-107342761D01*
X145871619Y-107390380D01*
X145824000Y-107414190D01*
X145728761Y-107414190D01*
X145681142Y-107390380D01*
X145633523Y-107342761D01*
X145609714Y-107247523D01*
X145609714Y-107080857D01*
X145633523Y-106985619D01*
X145681142Y-106938000D01*
X145728761Y-106914190D01*
X147181142Y-106938000D02*
X147133523Y-106914190D01*
X147062095Y-106914190D01*
X146990666Y-106938000D01*
X146943047Y-106985619D01*
X146919238Y-107033238D01*
X146895428Y-107128476D01*
X146895428Y-107199904D01*
X146919238Y-107295142D01*
X146943047Y-107342761D01*
X146990666Y-107390380D01*
X147062095Y-107414190D01*
X147109714Y-107414190D01*
X147181142Y-107390380D01*
X147204952Y-107366571D01*
X147204952Y-107199904D01*
X147109714Y-107199904D01*
X147419238Y-107414190D02*
X147419238Y-106914190D01*
X147704952Y-107414190D01*
X147704952Y-106914190D01*
X147943047Y-107414190D02*
X147943047Y-106914190D01*
X148062095Y-106914190D01*
X148133523Y-106938000D01*
X148181142Y-106985619D01*
X148204952Y-107033238D01*
X148228761Y-107128476D01*
X148228761Y-107199904D01*
X148204952Y-107295142D01*
X148181142Y-107342761D01*
X148133523Y-107390380D01*
X148062095Y-107414190D01*
X147943047Y-107414190D01*
X149181142Y-107390380D02*
X149252571Y-107414190D01*
X149371619Y-107414190D01*
X149419238Y-107390380D01*
X149443047Y-107366571D01*
X149466857Y-107318952D01*
X149466857Y-107271333D01*
X149443047Y-107223714D01*
X149419238Y-107199904D01*
X149371619Y-107176095D01*
X149276380Y-107152285D01*
X149228761Y-107128476D01*
X149204952Y-107104666D01*
X149181142Y-107057047D01*
X149181142Y-107009428D01*
X149204952Y-106961809D01*
X149228761Y-106938000D01*
X149276380Y-106914190D01*
X149395428Y-106914190D01*
X149466857Y-106938000D01*
X149633523Y-106914190D02*
X149752571Y-107414190D01*
X149847809Y-107057047D01*
X149943047Y-107414190D01*
X150062095Y-106914190D01*
X150538285Y-107366571D02*
X150514476Y-107390380D01*
X150443047Y-107414190D01*
X150395428Y-107414190D01*
X150324000Y-107390380D01*
X150276380Y-107342761D01*
X150252571Y-107295142D01*
X150228761Y-107199904D01*
X150228761Y-107128476D01*
X150252571Y-107033238D01*
X150276380Y-106985619D01*
X150324000Y-106938000D01*
X150395428Y-106914190D01*
X150443047Y-106914190D01*
X150514476Y-106938000D01*
X150538285Y-106961809D01*
X150990666Y-107414190D02*
X150752571Y-107414190D01*
X150752571Y-106914190D01*
X151157333Y-107414190D02*
X151157333Y-106914190D01*
X151443047Y-107414190D02*
X151228761Y-107128476D01*
X151443047Y-106914190D02*
X151157333Y-107199904D01*
X152371619Y-106914190D02*
X152681142Y-106914190D01*
X152514476Y-107104666D01*
X152585904Y-107104666D01*
X152633523Y-107128476D01*
X152657333Y-107152285D01*
X152681142Y-107199904D01*
X152681142Y-107318952D01*
X152657333Y-107366571D01*
X152633523Y-107390380D01*
X152585904Y-107414190D01*
X152443047Y-107414190D01*
X152395428Y-107390380D01*
X152371619Y-107366571D01*
X152824000Y-106914190D02*
X152990666Y-107414190D01*
X153157333Y-106914190D01*
X153276380Y-106914190D02*
X153585904Y-106914190D01*
X153419238Y-107104666D01*
X153490666Y-107104666D01*
X153538285Y-107128476D01*
X153562095Y-107152285D01*
X153585904Y-107199904D01*
X153585904Y-107318952D01*
X153562095Y-107366571D01*
X153538285Y-107390380D01*
X153490666Y-107414190D01*
X153347809Y-107414190D01*
X153300190Y-107390380D01*
X153276380Y-107366571D01*
D13*
X171502605Y-82931000D02*
G75*
G03X171502605Y-82931000I-179605J0D01*
G01*
D14*
G04 #@! TO.C,TP1*
X134279600Y-90408800D02*
X134279600Y-88508800D01*
X136179600Y-90408800D02*
X134279600Y-90408800D01*
X136179600Y-88508800D02*
X136179600Y-90408800D01*
X134279600Y-88508800D02*
X136179600Y-88508800D01*
G04 #@! TO.C,TP2*
X127878800Y-84952800D02*
X129778800Y-84952800D01*
X129778800Y-84952800D02*
X129778800Y-86852800D01*
X129778800Y-86852800D02*
X127878800Y-86852800D01*
X127878800Y-86852800D02*
X127878800Y-84952800D01*
G04 #@! TO.C,U4*
X131180000Y-103718000D02*
X132980000Y-103718000D01*
X132980000Y-100498000D02*
X130530000Y-100498000D01*
G04 #@! TO.C,C18*
X176271422Y-110669000D02*
X176788578Y-110669000D01*
X176271422Y-112089000D02*
X176788578Y-112089000D01*
G04 #@! TO.C,X1*
X174630000Y-106883000D02*
X174630000Y-110033000D01*
X174630000Y-110033000D02*
X178430000Y-110033000D01*
G04 #@! TO.C,U5*
X159095000Y-100625000D02*
X156645000Y-100625000D01*
X157295000Y-103845000D02*
X159095000Y-103845000D01*
G04 #@! TO.C,C16*
X153468000Y-101976422D02*
X153468000Y-102493578D01*
X154888000Y-101976422D02*
X154888000Y-102493578D01*
G04 #@! TO.C,C14*
X128599000Y-101849422D02*
X128599000Y-102366578D01*
X127179000Y-101849422D02*
X127179000Y-102366578D01*
G04 #@! TO.C,C15*
X135434000Y-101849422D02*
X135434000Y-102366578D01*
X136854000Y-101849422D02*
X136854000Y-102366578D01*
G04 #@! TO.C,C17*
X162889000Y-101976422D02*
X162889000Y-102493578D01*
X161469000Y-101976422D02*
X161469000Y-102493578D01*
G04 #@! TO.C,D4*
X169053000Y-104669000D02*
X171938000Y-104669000D01*
X171938000Y-104669000D02*
X171938000Y-102849000D01*
X171938000Y-102849000D02*
X169053000Y-102849000D01*
G04 #@! TO.C,D3*
X169053000Y-107209000D02*
X171938000Y-107209000D01*
X171938000Y-107209000D02*
X171938000Y-105389000D01*
X171938000Y-105389000D02*
X169053000Y-105389000D01*
G04 #@! TO.C,D1*
X171938000Y-108056000D02*
X169053000Y-108056000D01*
X171938000Y-109876000D02*
X171938000Y-108056000D01*
X169053000Y-109876000D02*
X171938000Y-109876000D01*
G04 #@! TO.C,R10*
X165485578Y-104469000D02*
X164968422Y-104469000D01*
X165485578Y-103049000D02*
X164968422Y-103049000D01*
G04 #@! TO.C,R8*
X165485578Y-105703300D02*
X164968422Y-105703300D01*
X165485578Y-107123300D02*
X164968422Y-107123300D01*
G04 #@! TO.C,R7*
X165485578Y-109676000D02*
X164968422Y-109676000D01*
X165485578Y-108256000D02*
X164968422Y-108256000D01*
G04 #@! TO.C,J3*
X153984000Y-110550000D02*
X153984000Y-107890000D01*
X143764000Y-110550000D02*
X153984000Y-110550000D01*
X143764000Y-107890000D02*
X153984000Y-107890000D01*
X143764000Y-110550000D02*
X143764000Y-107890000D01*
X142494000Y-110550000D02*
X141164000Y-110550000D01*
X141164000Y-110550000D02*
X141164000Y-109220000D01*
G04 #@! TO.C,J2*
X189170000Y-110550000D02*
X194370000Y-110550000D01*
X189170000Y-69850000D02*
X189170000Y-110550000D01*
X194370000Y-67250000D02*
X194370000Y-110550000D01*
X189170000Y-69850000D02*
X191770000Y-69850000D01*
X191770000Y-69850000D02*
X191770000Y-67250000D01*
X191770000Y-67250000D02*
X194370000Y-67250000D01*
X189170000Y-68580000D02*
X189170000Y-67250000D01*
X189170000Y-67250000D02*
X190500000Y-67250000D01*
G04 #@! TO.C,U1*
X171123862Y-84812258D02*
X171123862Y-84337258D01*
X163903862Y-91557258D02*
X164378862Y-91557258D01*
X163903862Y-91082258D02*
X163903862Y-91557258D01*
X163903862Y-84337258D02*
X164378862Y-84337258D01*
X163903862Y-84812258D02*
X163903862Y-84337258D01*
X171123862Y-91557258D02*
X170648862Y-91557258D01*
X171123862Y-91082258D02*
X171123862Y-91557258D01*
D11*
G04 #@! TO.C,U3*
X140434000Y-76977000D02*
X139034000Y-76977000D01*
X140434000Y-82077000D02*
X144584000Y-82077000D01*
X140434000Y-76927000D02*
X144584000Y-76927000D01*
X140434000Y-82077000D02*
X140434000Y-81932000D01*
X144584000Y-82077000D02*
X144584000Y-81932000D01*
X144584000Y-76927000D02*
X144584000Y-77072000D01*
X140434000Y-76927000D02*
X140434000Y-76977000D01*
D14*
G04 #@! TO.C,C7*
X123470500Y-94483422D02*
X123470500Y-95000578D01*
X122050500Y-94483422D02*
X122050500Y-95000578D01*
G04 #@! TO.C,C8*
X123693422Y-79196000D02*
X124210578Y-79196000D01*
X123693422Y-77776000D02*
X124210578Y-77776000D01*
G04 #@! TO.C,C9*
X136338000Y-80767422D02*
X136338000Y-81284578D01*
X137758000Y-80767422D02*
X137758000Y-81284578D01*
G04 #@! TO.C,R1*
X152086000Y-92191578D02*
X152086000Y-91674422D01*
X153506000Y-92191578D02*
X153506000Y-91674422D01*
G04 #@! TO.C,R3*
X132028000Y-109478578D02*
X132028000Y-108961422D01*
X130608000Y-109478578D02*
X130608000Y-108961422D01*
G04 #@! TO.C,R4*
X144720000Y-91689422D02*
X144720000Y-92206578D01*
X146140000Y-91689422D02*
X146140000Y-92206578D01*
G04 #@! TO.C,R5*
X156283922Y-70156000D02*
X156801078Y-70156000D01*
X156283922Y-71576000D02*
X156801078Y-71576000D01*
G04 #@! TO.C,R6*
X150966000Y-92206578D02*
X150966000Y-91689422D01*
X149546000Y-92206578D02*
X149546000Y-91689422D01*
G04 #@! TO.C,R9*
X125932000Y-94483422D02*
X125932000Y-95000578D01*
X124512000Y-94483422D02*
X124512000Y-95000578D01*
G04 #@! TO.C,R11*
X147133000Y-91689422D02*
X147133000Y-92206578D01*
X148553000Y-91689422D02*
X148553000Y-92206578D01*
G04 #@! TO.C,R12*
X136338000Y-77601578D02*
X136338000Y-77084422D01*
X137758000Y-77601578D02*
X137758000Y-77084422D01*
D11*
G04 #@! TO.C,U2*
X144734000Y-82910000D02*
X140284000Y-82910000D01*
X146259000Y-89810000D02*
X140284000Y-89810000D01*
D14*
G04 #@! TO.C,L2*
X124225578Y-81205000D02*
X123708422Y-81205000D01*
X124225578Y-82625000D02*
X123708422Y-82625000D01*
G04 #@! TO.C,D2*
X146933000Y-94831500D02*
X146933000Y-97716500D01*
X146933000Y-97716500D02*
X148753000Y-97716500D01*
X148753000Y-97716500D02*
X148753000Y-94831500D01*
G04 #@! TO.C,J1*
X125677000Y-91757500D02*
X125677000Y-91377500D01*
X121627000Y-91757500D02*
X121367000Y-91757500D01*
X125677000Y-91757500D02*
X123907000Y-91757500D01*
X125677000Y-84137500D02*
X125677000Y-84517500D01*
X123907000Y-84137500D02*
X125677000Y-84137500D01*
X121367000Y-84137500D02*
X121627000Y-84137500D01*
G04 #@! TO.C,U4*
D10*
X131470476Y-99129904D02*
X131470476Y-99777523D01*
X131508571Y-99853714D01*
X131546666Y-99891809D01*
X131622857Y-99929904D01*
X131775238Y-99929904D01*
X131851428Y-99891809D01*
X131889523Y-99853714D01*
X131927619Y-99777523D01*
X131927619Y-99129904D01*
X132651428Y-99396571D02*
X132651428Y-99929904D01*
X132460952Y-99091809D02*
X132270476Y-99663238D01*
X132765714Y-99663238D01*
G04 #@! TO.C,C18*
X179063714Y-111791714D02*
X179025619Y-111829809D01*
X178911333Y-111867904D01*
X178835142Y-111867904D01*
X178720857Y-111829809D01*
X178644666Y-111753619D01*
X178606571Y-111677428D01*
X178568476Y-111525047D01*
X178568476Y-111410761D01*
X178606571Y-111258380D01*
X178644666Y-111182190D01*
X178720857Y-111106000D01*
X178835142Y-111067904D01*
X178911333Y-111067904D01*
X179025619Y-111106000D01*
X179063714Y-111144095D01*
X179825619Y-111867904D02*
X179368476Y-111867904D01*
X179597047Y-111867904D02*
X179597047Y-111067904D01*
X179520857Y-111182190D01*
X179444666Y-111258380D01*
X179368476Y-111296476D01*
X180282761Y-111410761D02*
X180206571Y-111372666D01*
X180168476Y-111334571D01*
X180130380Y-111258380D01*
X180130380Y-111220285D01*
X180168476Y-111144095D01*
X180206571Y-111106000D01*
X180282761Y-111067904D01*
X180435142Y-111067904D01*
X180511333Y-111106000D01*
X180549428Y-111144095D01*
X180587523Y-111220285D01*
X180587523Y-111258380D01*
X180549428Y-111334571D01*
X180511333Y-111372666D01*
X180435142Y-111410761D01*
X180282761Y-111410761D01*
X180206571Y-111448857D01*
X180168476Y-111486952D01*
X180130380Y-111563142D01*
X180130380Y-111715523D01*
X180168476Y-111791714D01*
X180206571Y-111829809D01*
X180282761Y-111867904D01*
X180435142Y-111867904D01*
X180511333Y-111829809D01*
X180549428Y-111791714D01*
X180587523Y-111715523D01*
X180587523Y-111563142D01*
X180549428Y-111486952D01*
X180511333Y-111448857D01*
X180435142Y-111410761D01*
G04 #@! TO.C,X1*
X175882380Y-105569904D02*
X176415714Y-106369904D01*
X176415714Y-105569904D02*
X175882380Y-106369904D01*
X177139523Y-106369904D02*
X176682380Y-106369904D01*
X176910952Y-106369904D02*
X176910952Y-105569904D01*
X176834761Y-105684190D01*
X176758571Y-105760380D01*
X176682380Y-105798476D01*
G04 #@! TO.C,U5*
X157378476Y-99383904D02*
X157378476Y-100031523D01*
X157416571Y-100107714D01*
X157454666Y-100145809D01*
X157530857Y-100183904D01*
X157683238Y-100183904D01*
X157759428Y-100145809D01*
X157797523Y-100107714D01*
X157835619Y-100031523D01*
X157835619Y-99383904D01*
X158597523Y-99383904D02*
X158216571Y-99383904D01*
X158178476Y-99764857D01*
X158216571Y-99726761D01*
X158292761Y-99688666D01*
X158483238Y-99688666D01*
X158559428Y-99726761D01*
X158597523Y-99764857D01*
X158635619Y-99841047D01*
X158635619Y-100031523D01*
X158597523Y-100107714D01*
X158559428Y-100145809D01*
X158483238Y-100183904D01*
X158292761Y-100183904D01*
X158216571Y-100145809D01*
X158178476Y-100107714D01*
G04 #@! TO.C,C16*
X153663714Y-100107714D02*
X153625619Y-100145809D01*
X153511333Y-100183904D01*
X153435142Y-100183904D01*
X153320857Y-100145809D01*
X153244666Y-100069619D01*
X153206571Y-99993428D01*
X153168476Y-99841047D01*
X153168476Y-99726761D01*
X153206571Y-99574380D01*
X153244666Y-99498190D01*
X153320857Y-99422000D01*
X153435142Y-99383904D01*
X153511333Y-99383904D01*
X153625619Y-99422000D01*
X153663714Y-99460095D01*
X154425619Y-100183904D02*
X153968476Y-100183904D01*
X154197047Y-100183904D02*
X154197047Y-99383904D01*
X154120857Y-99498190D01*
X154044666Y-99574380D01*
X153968476Y-99612476D01*
X155111333Y-99383904D02*
X154958952Y-99383904D01*
X154882761Y-99422000D01*
X154844666Y-99460095D01*
X154768476Y-99574380D01*
X154730380Y-99726761D01*
X154730380Y-100031523D01*
X154768476Y-100107714D01*
X154806571Y-100145809D01*
X154882761Y-100183904D01*
X155035142Y-100183904D01*
X155111333Y-100145809D01*
X155149428Y-100107714D01*
X155187523Y-100031523D01*
X155187523Y-99841047D01*
X155149428Y-99764857D01*
X155111333Y-99726761D01*
X155035142Y-99688666D01*
X154882761Y-99688666D01*
X154806571Y-99726761D01*
X154768476Y-99764857D01*
X154730380Y-99841047D01*
G04 #@! TO.C,C14*
X127247714Y-99853714D02*
X127209619Y-99891809D01*
X127095333Y-99929904D01*
X127019142Y-99929904D01*
X126904857Y-99891809D01*
X126828666Y-99815619D01*
X126790571Y-99739428D01*
X126752476Y-99587047D01*
X126752476Y-99472761D01*
X126790571Y-99320380D01*
X126828666Y-99244190D01*
X126904857Y-99168000D01*
X127019142Y-99129904D01*
X127095333Y-99129904D01*
X127209619Y-99168000D01*
X127247714Y-99206095D01*
X128009619Y-99929904D02*
X127552476Y-99929904D01*
X127781047Y-99929904D02*
X127781047Y-99129904D01*
X127704857Y-99244190D01*
X127628666Y-99320380D01*
X127552476Y-99358476D01*
X128695333Y-99396571D02*
X128695333Y-99929904D01*
X128504857Y-99091809D02*
X128314380Y-99663238D01*
X128809619Y-99663238D01*
G04 #@! TO.C,C15*
X135629714Y-99853714D02*
X135591619Y-99891809D01*
X135477333Y-99929904D01*
X135401142Y-99929904D01*
X135286857Y-99891809D01*
X135210666Y-99815619D01*
X135172571Y-99739428D01*
X135134476Y-99587047D01*
X135134476Y-99472761D01*
X135172571Y-99320380D01*
X135210666Y-99244190D01*
X135286857Y-99168000D01*
X135401142Y-99129904D01*
X135477333Y-99129904D01*
X135591619Y-99168000D01*
X135629714Y-99206095D01*
X136391619Y-99929904D02*
X135934476Y-99929904D01*
X136163047Y-99929904D02*
X136163047Y-99129904D01*
X136086857Y-99244190D01*
X136010666Y-99320380D01*
X135934476Y-99358476D01*
X137115428Y-99129904D02*
X136734476Y-99129904D01*
X136696380Y-99510857D01*
X136734476Y-99472761D01*
X136810666Y-99434666D01*
X137001142Y-99434666D01*
X137077333Y-99472761D01*
X137115428Y-99510857D01*
X137153523Y-99587047D01*
X137153523Y-99777523D01*
X137115428Y-99853714D01*
X137077333Y-99891809D01*
X137001142Y-99929904D01*
X136810666Y-99929904D01*
X136734476Y-99891809D01*
X136696380Y-99853714D01*
G04 #@! TO.C,C17*
X161791714Y-100107714D02*
X161753619Y-100145809D01*
X161639333Y-100183904D01*
X161563142Y-100183904D01*
X161448857Y-100145809D01*
X161372666Y-100069619D01*
X161334571Y-99993428D01*
X161296476Y-99841047D01*
X161296476Y-99726761D01*
X161334571Y-99574380D01*
X161372666Y-99498190D01*
X161448857Y-99422000D01*
X161563142Y-99383904D01*
X161639333Y-99383904D01*
X161753619Y-99422000D01*
X161791714Y-99460095D01*
X162553619Y-100183904D02*
X162096476Y-100183904D01*
X162325047Y-100183904D02*
X162325047Y-99383904D01*
X162248857Y-99498190D01*
X162172666Y-99574380D01*
X162096476Y-99612476D01*
X162820285Y-99383904D02*
X163353619Y-99383904D01*
X163010761Y-100183904D01*
G04 #@! TO.C,D4*
X172383523Y-104247904D02*
X172383523Y-103447904D01*
X172574000Y-103447904D01*
X172688285Y-103486000D01*
X172764476Y-103562190D01*
X172802571Y-103638380D01*
X172840666Y-103790761D01*
X172840666Y-103905047D01*
X172802571Y-104057428D01*
X172764476Y-104133619D01*
X172688285Y-104209809D01*
X172574000Y-104247904D01*
X172383523Y-104247904D01*
X173526380Y-103714571D02*
X173526380Y-104247904D01*
X173335904Y-103409809D02*
X173145428Y-103981238D01*
X173640666Y-103981238D01*
G04 #@! TO.C,D3*
X172383523Y-106787904D02*
X172383523Y-105987904D01*
X172574000Y-105987904D01*
X172688285Y-106026000D01*
X172764476Y-106102190D01*
X172802571Y-106178380D01*
X172840666Y-106330761D01*
X172840666Y-106445047D01*
X172802571Y-106597428D01*
X172764476Y-106673619D01*
X172688285Y-106749809D01*
X172574000Y-106787904D01*
X172383523Y-106787904D01*
X173107333Y-105987904D02*
X173602571Y-105987904D01*
X173335904Y-106292666D01*
X173450190Y-106292666D01*
X173526380Y-106330761D01*
X173564476Y-106368857D01*
X173602571Y-106445047D01*
X173602571Y-106635523D01*
X173564476Y-106711714D01*
X173526380Y-106749809D01*
X173450190Y-106787904D01*
X173221619Y-106787904D01*
X173145428Y-106749809D01*
X173107333Y-106711714D01*
G04 #@! TO.C,D1*
X172383523Y-109327904D02*
X172383523Y-108527904D01*
X172574000Y-108527904D01*
X172688285Y-108566000D01*
X172764476Y-108642190D01*
X172802571Y-108718380D01*
X172840666Y-108870761D01*
X172840666Y-108985047D01*
X172802571Y-109137428D01*
X172764476Y-109213619D01*
X172688285Y-109289809D01*
X172574000Y-109327904D01*
X172383523Y-109327904D01*
X173602571Y-109327904D02*
X173145428Y-109327904D01*
X173374000Y-109327904D02*
X173374000Y-108527904D01*
X173297809Y-108642190D01*
X173221619Y-108718380D01*
X173145428Y-108756476D01*
G04 #@! TO.C,R10*
X164585714Y-102469904D02*
X164319047Y-102088952D01*
X164128571Y-102469904D02*
X164128571Y-101669904D01*
X164433333Y-101669904D01*
X164509523Y-101708000D01*
X164547619Y-101746095D01*
X164585714Y-101822285D01*
X164585714Y-101936571D01*
X164547619Y-102012761D01*
X164509523Y-102050857D01*
X164433333Y-102088952D01*
X164128571Y-102088952D01*
X165347619Y-102469904D02*
X164890476Y-102469904D01*
X165119047Y-102469904D02*
X165119047Y-101669904D01*
X165042857Y-101784190D01*
X164966666Y-101860380D01*
X164890476Y-101898476D01*
X165842857Y-101669904D02*
X165919047Y-101669904D01*
X165995238Y-101708000D01*
X166033333Y-101746095D01*
X166071428Y-101822285D01*
X166109523Y-101974666D01*
X166109523Y-102165142D01*
X166071428Y-102317523D01*
X166033333Y-102393714D01*
X165995238Y-102431809D01*
X165919047Y-102469904D01*
X165842857Y-102469904D01*
X165766666Y-102431809D01*
X165728571Y-102393714D01*
X165690476Y-102317523D01*
X165652380Y-102165142D01*
X165652380Y-101974666D01*
X165690476Y-101822285D01*
X165728571Y-101746095D01*
X165766666Y-101708000D01*
X165842857Y-101669904D01*
G04 #@! TO.C,R8*
X162426666Y-106787904D02*
X162160000Y-106406952D01*
X161969523Y-106787904D02*
X161969523Y-105987904D01*
X162274285Y-105987904D01*
X162350476Y-106026000D01*
X162388571Y-106064095D01*
X162426666Y-106140285D01*
X162426666Y-106254571D01*
X162388571Y-106330761D01*
X162350476Y-106368857D01*
X162274285Y-106406952D01*
X161969523Y-106406952D01*
X162883809Y-106330761D02*
X162807619Y-106292666D01*
X162769523Y-106254571D01*
X162731428Y-106178380D01*
X162731428Y-106140285D01*
X162769523Y-106064095D01*
X162807619Y-106026000D01*
X162883809Y-105987904D01*
X163036190Y-105987904D01*
X163112380Y-106026000D01*
X163150476Y-106064095D01*
X163188571Y-106140285D01*
X163188571Y-106178380D01*
X163150476Y-106254571D01*
X163112380Y-106292666D01*
X163036190Y-106330761D01*
X162883809Y-106330761D01*
X162807619Y-106368857D01*
X162769523Y-106406952D01*
X162731428Y-106483142D01*
X162731428Y-106635523D01*
X162769523Y-106711714D01*
X162807619Y-106749809D01*
X162883809Y-106787904D01*
X163036190Y-106787904D01*
X163112380Y-106749809D01*
X163150476Y-106711714D01*
X163188571Y-106635523D01*
X163188571Y-106483142D01*
X163150476Y-106406952D01*
X163112380Y-106368857D01*
X163036190Y-106330761D01*
G04 #@! TO.C,R7*
X162426666Y-109327904D02*
X162160000Y-108946952D01*
X161969523Y-109327904D02*
X161969523Y-108527904D01*
X162274285Y-108527904D01*
X162350476Y-108566000D01*
X162388571Y-108604095D01*
X162426666Y-108680285D01*
X162426666Y-108794571D01*
X162388571Y-108870761D01*
X162350476Y-108908857D01*
X162274285Y-108946952D01*
X161969523Y-108946952D01*
X162693333Y-108527904D02*
X163226666Y-108527904D01*
X162883809Y-109327904D01*
G04 #@! TO.C,J3*
X154673333Y-108781904D02*
X154673333Y-109353333D01*
X154635238Y-109467619D01*
X154559047Y-109543809D01*
X154444761Y-109581904D01*
X154368571Y-109581904D01*
X154978095Y-108781904D02*
X155473333Y-108781904D01*
X155206666Y-109086666D01*
X155320952Y-109086666D01*
X155397142Y-109124761D01*
X155435238Y-109162857D01*
X155473333Y-109239047D01*
X155473333Y-109429523D01*
X155435238Y-109505714D01*
X155397142Y-109543809D01*
X155320952Y-109581904D01*
X155092380Y-109581904D01*
X155016190Y-109543809D01*
X154978095Y-109505714D01*
G04 #@! TO.C,J2*
X191503333Y-65811904D02*
X191503333Y-66383333D01*
X191465238Y-66497619D01*
X191389047Y-66573809D01*
X191274761Y-66611904D01*
X191198571Y-66611904D01*
X191846190Y-65888095D02*
X191884285Y-65850000D01*
X191960476Y-65811904D01*
X192150952Y-65811904D01*
X192227142Y-65850000D01*
X192265238Y-65888095D01*
X192303333Y-65964285D01*
X192303333Y-66040476D01*
X192265238Y-66154761D01*
X191808095Y-66611904D01*
X192303333Y-66611904D01*
G04 #@! TO.C,U1*
X166903476Y-82365904D02*
X166903476Y-83013523D01*
X166941571Y-83089714D01*
X166979666Y-83127809D01*
X167055857Y-83165904D01*
X167208238Y-83165904D01*
X167284428Y-83127809D01*
X167322523Y-83089714D01*
X167360619Y-83013523D01*
X167360619Y-82365904D01*
X168160619Y-83165904D02*
X167703476Y-83165904D01*
X167932047Y-83165904D02*
X167932047Y-82365904D01*
X167855857Y-82480190D01*
X167779666Y-82556380D01*
X167703476Y-82594476D01*
G04 #@! TO.C,U3*
X141630476Y-75563904D02*
X141630476Y-76211523D01*
X141668571Y-76287714D01*
X141706666Y-76325809D01*
X141782857Y-76363904D01*
X141935238Y-76363904D01*
X142011428Y-76325809D01*
X142049523Y-76287714D01*
X142087619Y-76211523D01*
X142087619Y-75563904D01*
X142392380Y-75563904D02*
X142887619Y-75563904D01*
X142620952Y-75868666D01*
X142735238Y-75868666D01*
X142811428Y-75906761D01*
X142849523Y-75944857D01*
X142887619Y-76021047D01*
X142887619Y-76211523D01*
X142849523Y-76287714D01*
X142811428Y-76325809D01*
X142735238Y-76363904D01*
X142506666Y-76363904D01*
X142430476Y-76325809D01*
X142392380Y-76287714D01*
G04 #@! TO.C,C7*
X122548666Y-97821714D02*
X122510571Y-97859809D01*
X122396285Y-97897904D01*
X122320095Y-97897904D01*
X122205809Y-97859809D01*
X122129619Y-97783619D01*
X122091523Y-97707428D01*
X122053428Y-97555047D01*
X122053428Y-97440761D01*
X122091523Y-97288380D01*
X122129619Y-97212190D01*
X122205809Y-97136000D01*
X122320095Y-97097904D01*
X122396285Y-97097904D01*
X122510571Y-97136000D01*
X122548666Y-97174095D01*
X122815333Y-97097904D02*
X123348666Y-97097904D01*
X123005809Y-97897904D01*
G04 #@! TO.C,C8*
X123818666Y-77121714D02*
X123780571Y-77159809D01*
X123666285Y-77197904D01*
X123590095Y-77197904D01*
X123475809Y-77159809D01*
X123399619Y-77083619D01*
X123361523Y-77007428D01*
X123323428Y-76855047D01*
X123323428Y-76740761D01*
X123361523Y-76588380D01*
X123399619Y-76512190D01*
X123475809Y-76436000D01*
X123590095Y-76397904D01*
X123666285Y-76397904D01*
X123780571Y-76436000D01*
X123818666Y-76474095D01*
X124275809Y-76740761D02*
X124199619Y-76702666D01*
X124161523Y-76664571D01*
X124123428Y-76588380D01*
X124123428Y-76550285D01*
X124161523Y-76474095D01*
X124199619Y-76436000D01*
X124275809Y-76397904D01*
X124428190Y-76397904D01*
X124504380Y-76436000D01*
X124542476Y-76474095D01*
X124580571Y-76550285D01*
X124580571Y-76588380D01*
X124542476Y-76664571D01*
X124504380Y-76702666D01*
X124428190Y-76740761D01*
X124275809Y-76740761D01*
X124199619Y-76778857D01*
X124161523Y-76816952D01*
X124123428Y-76893142D01*
X124123428Y-77045523D01*
X124161523Y-77121714D01*
X124199619Y-77159809D01*
X124275809Y-77197904D01*
X124428190Y-77197904D01*
X124504380Y-77159809D01*
X124542476Y-77121714D01*
X124580571Y-77045523D01*
X124580571Y-76893142D01*
X124542476Y-76816952D01*
X124504380Y-76778857D01*
X124428190Y-76740761D01*
G04 #@! TO.C,C9*
X134486666Y-81311714D02*
X134448571Y-81349809D01*
X134334285Y-81387904D01*
X134258095Y-81387904D01*
X134143809Y-81349809D01*
X134067619Y-81273619D01*
X134029523Y-81197428D01*
X133991428Y-81045047D01*
X133991428Y-80930761D01*
X134029523Y-80778380D01*
X134067619Y-80702190D01*
X134143809Y-80626000D01*
X134258095Y-80587904D01*
X134334285Y-80587904D01*
X134448571Y-80626000D01*
X134486666Y-80664095D01*
X134867619Y-81387904D02*
X135020000Y-81387904D01*
X135096190Y-81349809D01*
X135134285Y-81311714D01*
X135210476Y-81197428D01*
X135248571Y-81045047D01*
X135248571Y-80740285D01*
X135210476Y-80664095D01*
X135172380Y-80626000D01*
X135096190Y-80587904D01*
X134943809Y-80587904D01*
X134867619Y-80626000D01*
X134829523Y-80664095D01*
X134791428Y-80740285D01*
X134791428Y-80930761D01*
X134829523Y-81006952D01*
X134867619Y-81045047D01*
X134943809Y-81083142D01*
X135096190Y-81083142D01*
X135172380Y-81045047D01*
X135210476Y-81006952D01*
X135248571Y-80930761D01*
G04 #@! TO.C,R1*
X152647666Y-94722904D02*
X152381000Y-94341952D01*
X152190523Y-94722904D02*
X152190523Y-93922904D01*
X152495285Y-93922904D01*
X152571476Y-93961000D01*
X152609571Y-93999095D01*
X152647666Y-94075285D01*
X152647666Y-94189571D01*
X152609571Y-94265761D01*
X152571476Y-94303857D01*
X152495285Y-94341952D01*
X152190523Y-94341952D01*
X153409571Y-94722904D02*
X152952428Y-94722904D01*
X153181000Y-94722904D02*
X153181000Y-93922904D01*
X153104809Y-94037190D01*
X153028619Y-94113380D01*
X152952428Y-94151476D01*
G04 #@! TO.C,R3*
X131184666Y-107041904D02*
X130918000Y-106660952D01*
X130727523Y-107041904D02*
X130727523Y-106241904D01*
X131032285Y-106241904D01*
X131108476Y-106280000D01*
X131146571Y-106318095D01*
X131184666Y-106394285D01*
X131184666Y-106508571D01*
X131146571Y-106584761D01*
X131108476Y-106622857D01*
X131032285Y-106660952D01*
X130727523Y-106660952D01*
X131451333Y-106241904D02*
X131946571Y-106241904D01*
X131679904Y-106546666D01*
X131794190Y-106546666D01*
X131870380Y-106584761D01*
X131908476Y-106622857D01*
X131946571Y-106699047D01*
X131946571Y-106889523D01*
X131908476Y-106965714D01*
X131870380Y-107003809D01*
X131794190Y-107041904D01*
X131565619Y-107041904D01*
X131489428Y-107003809D01*
X131451333Y-106965714D01*
G04 #@! TO.C,R4*
X145281666Y-94722904D02*
X145015000Y-94341952D01*
X144824523Y-94722904D02*
X144824523Y-93922904D01*
X145129285Y-93922904D01*
X145205476Y-93961000D01*
X145243571Y-93999095D01*
X145281666Y-94075285D01*
X145281666Y-94189571D01*
X145243571Y-94265761D01*
X145205476Y-94303857D01*
X145129285Y-94341952D01*
X144824523Y-94341952D01*
X145967380Y-94189571D02*
X145967380Y-94722904D01*
X145776904Y-93884809D02*
X145586428Y-94456238D01*
X146081666Y-94456238D01*
G04 #@! TO.C,R5*
X156409166Y-69577904D02*
X156142500Y-69196952D01*
X155952023Y-69577904D02*
X155952023Y-68777904D01*
X156256785Y-68777904D01*
X156332976Y-68816000D01*
X156371071Y-68854095D01*
X156409166Y-68930285D01*
X156409166Y-69044571D01*
X156371071Y-69120761D01*
X156332976Y-69158857D01*
X156256785Y-69196952D01*
X155952023Y-69196952D01*
X157132976Y-68777904D02*
X156752023Y-68777904D01*
X156713928Y-69158857D01*
X156752023Y-69120761D01*
X156828214Y-69082666D01*
X157018690Y-69082666D01*
X157094880Y-69120761D01*
X157132976Y-69158857D01*
X157171071Y-69235047D01*
X157171071Y-69425523D01*
X157132976Y-69501714D01*
X157094880Y-69539809D01*
X157018690Y-69577904D01*
X156828214Y-69577904D01*
X156752023Y-69539809D01*
X156713928Y-69501714D01*
G04 #@! TO.C,R6*
X147694666Y-90023904D02*
X147428000Y-89642952D01*
X147237523Y-90023904D02*
X147237523Y-89223904D01*
X147542285Y-89223904D01*
X147618476Y-89262000D01*
X147656571Y-89300095D01*
X147694666Y-89376285D01*
X147694666Y-89490571D01*
X147656571Y-89566761D01*
X147618476Y-89604857D01*
X147542285Y-89642952D01*
X147237523Y-89642952D01*
X148380380Y-89223904D02*
X148228000Y-89223904D01*
X148151809Y-89262000D01*
X148113714Y-89300095D01*
X148037523Y-89414380D01*
X147999428Y-89566761D01*
X147999428Y-89871523D01*
X148037523Y-89947714D01*
X148075619Y-89985809D01*
X148151809Y-90023904D01*
X148304190Y-90023904D01*
X148380380Y-89985809D01*
X148418476Y-89947714D01*
X148456571Y-89871523D01*
X148456571Y-89681047D01*
X148418476Y-89604857D01*
X148380380Y-89566761D01*
X148304190Y-89528666D01*
X148151809Y-89528666D01*
X148075619Y-89566761D01*
X148037523Y-89604857D01*
X147999428Y-89681047D01*
G04 #@! TO.C,R9*
X125200666Y-97897904D02*
X124934000Y-97516952D01*
X124743523Y-97897904D02*
X124743523Y-97097904D01*
X125048285Y-97097904D01*
X125124476Y-97136000D01*
X125162571Y-97174095D01*
X125200666Y-97250285D01*
X125200666Y-97364571D01*
X125162571Y-97440761D01*
X125124476Y-97478857D01*
X125048285Y-97516952D01*
X124743523Y-97516952D01*
X125581619Y-97897904D02*
X125734000Y-97897904D01*
X125810190Y-97859809D01*
X125848285Y-97821714D01*
X125924476Y-97707428D01*
X125962571Y-97555047D01*
X125962571Y-97250285D01*
X125924476Y-97174095D01*
X125886380Y-97136000D01*
X125810190Y-97097904D01*
X125657809Y-97097904D01*
X125581619Y-97136000D01*
X125543523Y-97174095D01*
X125505428Y-97250285D01*
X125505428Y-97440761D01*
X125543523Y-97516952D01*
X125581619Y-97555047D01*
X125657809Y-97593142D01*
X125810190Y-97593142D01*
X125886380Y-97555047D01*
X125924476Y-97516952D01*
X125962571Y-97440761D01*
G04 #@! TO.C,R11*
X149853714Y-94722904D02*
X149587047Y-94341952D01*
X149396571Y-94722904D02*
X149396571Y-93922904D01*
X149701333Y-93922904D01*
X149777523Y-93961000D01*
X149815619Y-93999095D01*
X149853714Y-94075285D01*
X149853714Y-94189571D01*
X149815619Y-94265761D01*
X149777523Y-94303857D01*
X149701333Y-94341952D01*
X149396571Y-94341952D01*
X150615619Y-94722904D02*
X150158476Y-94722904D01*
X150387047Y-94722904D02*
X150387047Y-93922904D01*
X150310857Y-94037190D01*
X150234666Y-94113380D01*
X150158476Y-94151476D01*
X151377523Y-94722904D02*
X150920380Y-94722904D01*
X151148952Y-94722904D02*
X151148952Y-93922904D01*
X151072761Y-94037190D01*
X150996571Y-94113380D01*
X150920380Y-94151476D01*
G04 #@! TO.C,R12*
X133851714Y-77704904D02*
X133585047Y-77323952D01*
X133394571Y-77704904D02*
X133394571Y-76904904D01*
X133699333Y-76904904D01*
X133775523Y-76943000D01*
X133813619Y-76981095D01*
X133851714Y-77057285D01*
X133851714Y-77171571D01*
X133813619Y-77247761D01*
X133775523Y-77285857D01*
X133699333Y-77323952D01*
X133394571Y-77323952D01*
X134613619Y-77704904D02*
X134156476Y-77704904D01*
X134385047Y-77704904D02*
X134385047Y-76904904D01*
X134308857Y-77019190D01*
X134232666Y-77095380D01*
X134156476Y-77133476D01*
X134918380Y-76981095D02*
X134956476Y-76943000D01*
X135032666Y-76904904D01*
X135223142Y-76904904D01*
X135299333Y-76943000D01*
X135337428Y-76981095D01*
X135375523Y-77057285D01*
X135375523Y-77133476D01*
X135337428Y-77247761D01*
X134880285Y-77704904D01*
X135375523Y-77704904D01*
G04 #@! TO.C,U2*
X138836476Y-90493904D02*
X138836476Y-91141523D01*
X138874571Y-91217714D01*
X138912666Y-91255809D01*
X138988857Y-91293904D01*
X139141238Y-91293904D01*
X139217428Y-91255809D01*
X139255523Y-91217714D01*
X139293619Y-91141523D01*
X139293619Y-90493904D01*
X139636476Y-90570095D02*
X139674571Y-90532000D01*
X139750761Y-90493904D01*
X139941238Y-90493904D01*
X140017428Y-90532000D01*
X140055523Y-90570095D01*
X140093619Y-90646285D01*
X140093619Y-90722476D01*
X140055523Y-90836761D01*
X139598380Y-91293904D01*
X140093619Y-91293904D01*
G04 #@! TO.C,L2*
X123818666Y-80498904D02*
X123437714Y-80498904D01*
X123437714Y-79698904D01*
X124047238Y-79775095D02*
X124085333Y-79737000D01*
X124161523Y-79698904D01*
X124352000Y-79698904D01*
X124428190Y-79737000D01*
X124466285Y-79775095D01*
X124504380Y-79851285D01*
X124504380Y-79927476D01*
X124466285Y-80041761D01*
X124009142Y-80498904D01*
X124504380Y-80498904D01*
G04 #@! TO.C,D2*
X147237523Y-98913904D02*
X147237523Y-98113904D01*
X147428000Y-98113904D01*
X147542285Y-98152000D01*
X147618476Y-98228190D01*
X147656571Y-98304380D01*
X147694666Y-98456761D01*
X147694666Y-98571047D01*
X147656571Y-98723428D01*
X147618476Y-98799619D01*
X147542285Y-98875809D01*
X147428000Y-98913904D01*
X147237523Y-98913904D01*
X147999428Y-98190095D02*
X148037523Y-98152000D01*
X148113714Y-98113904D01*
X148304190Y-98113904D01*
X148380380Y-98152000D01*
X148418476Y-98190095D01*
X148456571Y-98266285D01*
X148456571Y-98342476D01*
X148418476Y-98456761D01*
X147961333Y-98913904D01*
X148456571Y-98913904D01*
G04 #@! TD*
M02*
