G04 #@! TF.GenerationSoftware,KiCad,Pcbnew,5.0.1-33cea8e~68~ubuntu18.04.1*
G04 #@! TF.CreationDate,2018-12-16T18:27:52+03:00*
G04 #@! TF.ProjectId,up5k_v0,7570356B5F76302E6B696361645F7063,rev?*
G04 #@! TF.SameCoordinates,Original*
G04 #@! TF.FileFunction,Copper,L2,Bot,Signal*
G04 #@! TF.FilePolarity,Positive*
%FSLAX46Y46*%
G04 Gerber Fmt 4.6, Leading zero omitted, Abs format (unit mm)*
G04 Created by KiCad (PCBNEW 5.0.1-33cea8e~68~ubuntu18.04.1) date Paz 16 Ara 2018 18:27:52 +03*
%MOMM*%
%LPD*%
G01*
G04 APERTURE LIST*
G04 #@! TA.AperFunction,Conductor*
%ADD10C,0.100000*%
G04 #@! TD*
G04 #@! TA.AperFunction,SMDPad,CuDef*
%ADD11C,0.975000*%
G04 #@! TD*
G04 #@! TA.AperFunction,ComponentPad*
%ADD12R,1.700000X1.700000*%
G04 #@! TD*
G04 #@! TA.AperFunction,ComponentPad*
%ADD13O,1.700000X1.700000*%
G04 #@! TD*
G04 #@! TA.AperFunction,ViaPad*
%ADD14C,0.800000*%
G04 #@! TD*
G04 #@! TA.AperFunction,Conductor*
%ADD15C,0.250000*%
G04 #@! TD*
G04 #@! TA.AperFunction,Conductor*
%ADD16C,0.504000*%
G04 #@! TD*
G04 #@! TA.AperFunction,Conductor*
%ADD17C,0.402400*%
G04 #@! TD*
G04 #@! TA.AperFunction,Conductor*
%ADD18C,0.500000*%
G04 #@! TD*
G04 #@! TA.AperFunction,Conductor*
%ADD19C,0.750000*%
G04 #@! TD*
G04 #@! TA.AperFunction,Conductor*
%ADD20C,0.254000*%
G04 #@! TD*
G04 APERTURE END LIST*
D10*
G04 #@! TO.N,GND*
G04 #@! TO.C,C13*
G36*
X134416642Y-88017674D02*
X134440303Y-88021184D01*
X134463507Y-88026996D01*
X134486029Y-88035054D01*
X134507653Y-88045282D01*
X134528170Y-88057579D01*
X134547383Y-88071829D01*
X134565107Y-88087893D01*
X134581171Y-88105617D01*
X134595421Y-88124830D01*
X134607718Y-88145347D01*
X134617946Y-88166971D01*
X134626004Y-88189493D01*
X134631816Y-88212697D01*
X134635326Y-88236358D01*
X134636500Y-88260250D01*
X134636500Y-88747750D01*
X134635326Y-88771642D01*
X134631816Y-88795303D01*
X134626004Y-88818507D01*
X134617946Y-88841029D01*
X134607718Y-88862653D01*
X134595421Y-88883170D01*
X134581171Y-88902383D01*
X134565107Y-88920107D01*
X134547383Y-88936171D01*
X134528170Y-88950421D01*
X134507653Y-88962718D01*
X134486029Y-88972946D01*
X134463507Y-88981004D01*
X134440303Y-88986816D01*
X134416642Y-88990326D01*
X134392750Y-88991500D01*
X133480250Y-88991500D01*
X133456358Y-88990326D01*
X133432697Y-88986816D01*
X133409493Y-88981004D01*
X133386971Y-88972946D01*
X133365347Y-88962718D01*
X133344830Y-88950421D01*
X133325617Y-88936171D01*
X133307893Y-88920107D01*
X133291829Y-88902383D01*
X133277579Y-88883170D01*
X133265282Y-88862653D01*
X133255054Y-88841029D01*
X133246996Y-88818507D01*
X133241184Y-88795303D01*
X133237674Y-88771642D01*
X133236500Y-88747750D01*
X133236500Y-88260250D01*
X133237674Y-88236358D01*
X133241184Y-88212697D01*
X133246996Y-88189493D01*
X133255054Y-88166971D01*
X133265282Y-88145347D01*
X133277579Y-88124830D01*
X133291829Y-88105617D01*
X133307893Y-88087893D01*
X133325617Y-88071829D01*
X133344830Y-88057579D01*
X133365347Y-88045282D01*
X133386971Y-88035054D01*
X133409493Y-88026996D01*
X133432697Y-88021184D01*
X133456358Y-88017674D01*
X133480250Y-88016500D01*
X134392750Y-88016500D01*
X134416642Y-88017674D01*
X134416642Y-88017674D01*
G37*
D11*
G04 #@! TD*
G04 #@! TO.P,C13,2*
G04 #@! TO.N,GND*
X133936500Y-88504000D03*
D10*
G04 #@! TO.N,+3V3*
G04 #@! TO.C,C13*
G36*
X134416642Y-86142674D02*
X134440303Y-86146184D01*
X134463507Y-86151996D01*
X134486029Y-86160054D01*
X134507653Y-86170282D01*
X134528170Y-86182579D01*
X134547383Y-86196829D01*
X134565107Y-86212893D01*
X134581171Y-86230617D01*
X134595421Y-86249830D01*
X134607718Y-86270347D01*
X134617946Y-86291971D01*
X134626004Y-86314493D01*
X134631816Y-86337697D01*
X134635326Y-86361358D01*
X134636500Y-86385250D01*
X134636500Y-86872750D01*
X134635326Y-86896642D01*
X134631816Y-86920303D01*
X134626004Y-86943507D01*
X134617946Y-86966029D01*
X134607718Y-86987653D01*
X134595421Y-87008170D01*
X134581171Y-87027383D01*
X134565107Y-87045107D01*
X134547383Y-87061171D01*
X134528170Y-87075421D01*
X134507653Y-87087718D01*
X134486029Y-87097946D01*
X134463507Y-87106004D01*
X134440303Y-87111816D01*
X134416642Y-87115326D01*
X134392750Y-87116500D01*
X133480250Y-87116500D01*
X133456358Y-87115326D01*
X133432697Y-87111816D01*
X133409493Y-87106004D01*
X133386971Y-87097946D01*
X133365347Y-87087718D01*
X133344830Y-87075421D01*
X133325617Y-87061171D01*
X133307893Y-87045107D01*
X133291829Y-87027383D01*
X133277579Y-87008170D01*
X133265282Y-86987653D01*
X133255054Y-86966029D01*
X133246996Y-86943507D01*
X133241184Y-86920303D01*
X133237674Y-86896642D01*
X133236500Y-86872750D01*
X133236500Y-86385250D01*
X133237674Y-86361358D01*
X133241184Y-86337697D01*
X133246996Y-86314493D01*
X133255054Y-86291971D01*
X133265282Y-86270347D01*
X133277579Y-86249830D01*
X133291829Y-86230617D01*
X133307893Y-86212893D01*
X133325617Y-86196829D01*
X133344830Y-86182579D01*
X133365347Y-86170282D01*
X133386971Y-86160054D01*
X133409493Y-86151996D01*
X133432697Y-86146184D01*
X133456358Y-86142674D01*
X133480250Y-86141500D01*
X134392750Y-86141500D01*
X134416642Y-86142674D01*
X134416642Y-86142674D01*
G37*
D11*
G04 #@! TD*
G04 #@! TO.P,C13,1*
G04 #@! TO.N,+3V3*
X133936500Y-86629000D03*
D10*
G04 #@! TO.N,GND*
G04 #@! TO.C,C12*
G36*
X136702642Y-88017674D02*
X136726303Y-88021184D01*
X136749507Y-88026996D01*
X136772029Y-88035054D01*
X136793653Y-88045282D01*
X136814170Y-88057579D01*
X136833383Y-88071829D01*
X136851107Y-88087893D01*
X136867171Y-88105617D01*
X136881421Y-88124830D01*
X136893718Y-88145347D01*
X136903946Y-88166971D01*
X136912004Y-88189493D01*
X136917816Y-88212697D01*
X136921326Y-88236358D01*
X136922500Y-88260250D01*
X136922500Y-88747750D01*
X136921326Y-88771642D01*
X136917816Y-88795303D01*
X136912004Y-88818507D01*
X136903946Y-88841029D01*
X136893718Y-88862653D01*
X136881421Y-88883170D01*
X136867171Y-88902383D01*
X136851107Y-88920107D01*
X136833383Y-88936171D01*
X136814170Y-88950421D01*
X136793653Y-88962718D01*
X136772029Y-88972946D01*
X136749507Y-88981004D01*
X136726303Y-88986816D01*
X136702642Y-88990326D01*
X136678750Y-88991500D01*
X135766250Y-88991500D01*
X135742358Y-88990326D01*
X135718697Y-88986816D01*
X135695493Y-88981004D01*
X135672971Y-88972946D01*
X135651347Y-88962718D01*
X135630830Y-88950421D01*
X135611617Y-88936171D01*
X135593893Y-88920107D01*
X135577829Y-88902383D01*
X135563579Y-88883170D01*
X135551282Y-88862653D01*
X135541054Y-88841029D01*
X135532996Y-88818507D01*
X135527184Y-88795303D01*
X135523674Y-88771642D01*
X135522500Y-88747750D01*
X135522500Y-88260250D01*
X135523674Y-88236358D01*
X135527184Y-88212697D01*
X135532996Y-88189493D01*
X135541054Y-88166971D01*
X135551282Y-88145347D01*
X135563579Y-88124830D01*
X135577829Y-88105617D01*
X135593893Y-88087893D01*
X135611617Y-88071829D01*
X135630830Y-88057579D01*
X135651347Y-88045282D01*
X135672971Y-88035054D01*
X135695493Y-88026996D01*
X135718697Y-88021184D01*
X135742358Y-88017674D01*
X135766250Y-88016500D01*
X136678750Y-88016500D01*
X136702642Y-88017674D01*
X136702642Y-88017674D01*
G37*
D11*
G04 #@! TD*
G04 #@! TO.P,C12,1*
G04 #@! TO.N,GND*
X136222500Y-88504000D03*
D10*
G04 #@! TO.N,+3V3*
G04 #@! TO.C,C12*
G36*
X136702642Y-86142674D02*
X136726303Y-86146184D01*
X136749507Y-86151996D01*
X136772029Y-86160054D01*
X136793653Y-86170282D01*
X136814170Y-86182579D01*
X136833383Y-86196829D01*
X136851107Y-86212893D01*
X136867171Y-86230617D01*
X136881421Y-86249830D01*
X136893718Y-86270347D01*
X136903946Y-86291971D01*
X136912004Y-86314493D01*
X136917816Y-86337697D01*
X136921326Y-86361358D01*
X136922500Y-86385250D01*
X136922500Y-86872750D01*
X136921326Y-86896642D01*
X136917816Y-86920303D01*
X136912004Y-86943507D01*
X136903946Y-86966029D01*
X136893718Y-86987653D01*
X136881421Y-87008170D01*
X136867171Y-87027383D01*
X136851107Y-87045107D01*
X136833383Y-87061171D01*
X136814170Y-87075421D01*
X136793653Y-87087718D01*
X136772029Y-87097946D01*
X136749507Y-87106004D01*
X136726303Y-87111816D01*
X136702642Y-87115326D01*
X136678750Y-87116500D01*
X135766250Y-87116500D01*
X135742358Y-87115326D01*
X135718697Y-87111816D01*
X135695493Y-87106004D01*
X135672971Y-87097946D01*
X135651347Y-87087718D01*
X135630830Y-87075421D01*
X135611617Y-87061171D01*
X135593893Y-87045107D01*
X135577829Y-87027383D01*
X135563579Y-87008170D01*
X135551282Y-86987653D01*
X135541054Y-86966029D01*
X135532996Y-86943507D01*
X135527184Y-86920303D01*
X135523674Y-86896642D01*
X135522500Y-86872750D01*
X135522500Y-86385250D01*
X135523674Y-86361358D01*
X135527184Y-86337697D01*
X135532996Y-86314493D01*
X135541054Y-86291971D01*
X135551282Y-86270347D01*
X135563579Y-86249830D01*
X135577829Y-86230617D01*
X135593893Y-86212893D01*
X135611617Y-86196829D01*
X135630830Y-86182579D01*
X135651347Y-86170282D01*
X135672971Y-86160054D01*
X135695493Y-86151996D01*
X135718697Y-86146184D01*
X135742358Y-86142674D01*
X135766250Y-86141500D01*
X136678750Y-86141500D01*
X136702642Y-86142674D01*
X136702642Y-86142674D01*
G37*
D11*
G04 #@! TD*
G04 #@! TO.P,C12,2*
G04 #@! TO.N,+3V3*
X136222500Y-86629000D03*
D10*
G04 #@! TO.N,+3V3*
G04 #@! TO.C,C6*
G36*
X173708142Y-85063174D02*
X173731803Y-85066684D01*
X173755007Y-85072496D01*
X173777529Y-85080554D01*
X173799153Y-85090782D01*
X173819670Y-85103079D01*
X173838883Y-85117329D01*
X173856607Y-85133393D01*
X173872671Y-85151117D01*
X173886921Y-85170330D01*
X173899218Y-85190847D01*
X173909446Y-85212471D01*
X173917504Y-85234993D01*
X173923316Y-85258197D01*
X173926826Y-85281858D01*
X173928000Y-85305750D01*
X173928000Y-85793250D01*
X173926826Y-85817142D01*
X173923316Y-85840803D01*
X173917504Y-85864007D01*
X173909446Y-85886529D01*
X173899218Y-85908153D01*
X173886921Y-85928670D01*
X173872671Y-85947883D01*
X173856607Y-85965607D01*
X173838883Y-85981671D01*
X173819670Y-85995921D01*
X173799153Y-86008218D01*
X173777529Y-86018446D01*
X173755007Y-86026504D01*
X173731803Y-86032316D01*
X173708142Y-86035826D01*
X173684250Y-86037000D01*
X172771750Y-86037000D01*
X172747858Y-86035826D01*
X172724197Y-86032316D01*
X172700993Y-86026504D01*
X172678471Y-86018446D01*
X172656847Y-86008218D01*
X172636330Y-85995921D01*
X172617117Y-85981671D01*
X172599393Y-85965607D01*
X172583329Y-85947883D01*
X172569079Y-85928670D01*
X172556782Y-85908153D01*
X172546554Y-85886529D01*
X172538496Y-85864007D01*
X172532684Y-85840803D01*
X172529174Y-85817142D01*
X172528000Y-85793250D01*
X172528000Y-85305750D01*
X172529174Y-85281858D01*
X172532684Y-85258197D01*
X172538496Y-85234993D01*
X172546554Y-85212471D01*
X172556782Y-85190847D01*
X172569079Y-85170330D01*
X172583329Y-85151117D01*
X172599393Y-85133393D01*
X172617117Y-85117329D01*
X172636330Y-85103079D01*
X172656847Y-85090782D01*
X172678471Y-85080554D01*
X172700993Y-85072496D01*
X172724197Y-85066684D01*
X172747858Y-85063174D01*
X172771750Y-85062000D01*
X173684250Y-85062000D01*
X173708142Y-85063174D01*
X173708142Y-85063174D01*
G37*
D11*
G04 #@! TD*
G04 #@! TO.P,C6,1*
G04 #@! TO.N,+3V3*
X173228000Y-85549500D03*
D10*
G04 #@! TO.N,GND*
G04 #@! TO.C,C6*
G36*
X173708142Y-86938174D02*
X173731803Y-86941684D01*
X173755007Y-86947496D01*
X173777529Y-86955554D01*
X173799153Y-86965782D01*
X173819670Y-86978079D01*
X173838883Y-86992329D01*
X173856607Y-87008393D01*
X173872671Y-87026117D01*
X173886921Y-87045330D01*
X173899218Y-87065847D01*
X173909446Y-87087471D01*
X173917504Y-87109993D01*
X173923316Y-87133197D01*
X173926826Y-87156858D01*
X173928000Y-87180750D01*
X173928000Y-87668250D01*
X173926826Y-87692142D01*
X173923316Y-87715803D01*
X173917504Y-87739007D01*
X173909446Y-87761529D01*
X173899218Y-87783153D01*
X173886921Y-87803670D01*
X173872671Y-87822883D01*
X173856607Y-87840607D01*
X173838883Y-87856671D01*
X173819670Y-87870921D01*
X173799153Y-87883218D01*
X173777529Y-87893446D01*
X173755007Y-87901504D01*
X173731803Y-87907316D01*
X173708142Y-87910826D01*
X173684250Y-87912000D01*
X172771750Y-87912000D01*
X172747858Y-87910826D01*
X172724197Y-87907316D01*
X172700993Y-87901504D01*
X172678471Y-87893446D01*
X172656847Y-87883218D01*
X172636330Y-87870921D01*
X172617117Y-87856671D01*
X172599393Y-87840607D01*
X172583329Y-87822883D01*
X172569079Y-87803670D01*
X172556782Y-87783153D01*
X172546554Y-87761529D01*
X172538496Y-87739007D01*
X172532684Y-87715803D01*
X172529174Y-87692142D01*
X172528000Y-87668250D01*
X172528000Y-87180750D01*
X172529174Y-87156858D01*
X172532684Y-87133197D01*
X172538496Y-87109993D01*
X172546554Y-87087471D01*
X172556782Y-87065847D01*
X172569079Y-87045330D01*
X172583329Y-87026117D01*
X172599393Y-87008393D01*
X172617117Y-86992329D01*
X172636330Y-86978079D01*
X172656847Y-86965782D01*
X172678471Y-86955554D01*
X172700993Y-86947496D01*
X172724197Y-86941684D01*
X172747858Y-86938174D01*
X172771750Y-86937000D01*
X173684250Y-86937000D01*
X173708142Y-86938174D01*
X173708142Y-86938174D01*
G37*
D11*
G04 #@! TD*
G04 #@! TO.P,C6,2*
G04 #@! TO.N,GND*
X173228000Y-87424500D03*
D12*
G04 #@! TO.P,J3,1*
G04 #@! TO.N,MCU_NRST*
X142494000Y-109220000D03*
D13*
G04 #@! TO.P,J3,2*
G04 #@! TO.N,SWDIO*
X145034000Y-109220000D03*
G04 #@! TO.P,J3,3*
G04 #@! TO.N,GND*
X147574000Y-109220000D03*
G04 #@! TO.P,J3,4*
G04 #@! TO.N,SWCLK*
X150114000Y-109220000D03*
G04 #@! TO.P,J3,5*
G04 #@! TO.N,+3V3*
X152654000Y-109220000D03*
G04 #@! TD*
D12*
G04 #@! TO.P,J2,1*
G04 #@! TO.N,GND*
X190500000Y-68580000D03*
D13*
G04 #@! TO.P,J2,2*
G04 #@! TO.N,+5V*
X193040000Y-68580000D03*
G04 #@! TO.P,J2,3*
G04 #@! TO.N,Net-(J2-Pad3)*
X190500000Y-71120000D03*
G04 #@! TO.P,J2,4*
G04 #@! TO.N,P24*
X193040000Y-71120000D03*
G04 #@! TO.P,J2,5*
G04 #@! TO.N,P20*
X190500000Y-73660000D03*
G04 #@! TO.P,J2,6*
G04 #@! TO.N,P22*
X193040000Y-73660000D03*
G04 #@! TO.P,J2,7*
G04 #@! TO.N,P18*
X190500000Y-76200000D03*
G04 #@! TO.P,J2,8*
G04 #@! TO.N,P16*
X193040000Y-76200000D03*
G04 #@! TO.P,J2,9*
G04 #@! TO.N,P13*
X190500000Y-78740000D03*
G04 #@! TO.P,J2,10*
G04 #@! TO.N,P8*
X193040000Y-78740000D03*
G04 #@! TO.P,J2,11*
G04 #@! TO.N,P9*
X190500000Y-81280000D03*
G04 #@! TO.P,J2,12*
G04 #@! TO.N,P6*
X193040000Y-81280000D03*
G04 #@! TO.P,J2,13*
G04 #@! TO.N,P4*
X190500000Y-83820000D03*
G04 #@! TO.P,J2,14*
G04 #@! TO.N,P2*
X193040000Y-83820000D03*
G04 #@! TO.P,J2,15*
G04 #@! TO.N,P0*
X190500000Y-86360000D03*
G04 #@! TO.P,J2,16*
G04 #@! TO.N,P5*
X193040000Y-86360000D03*
G04 #@! TO.P,J2,17*
G04 #@! TO.N,P3*
X190500000Y-88900000D03*
G04 #@! TO.P,J2,18*
G04 #@! TO.N,P49*
X193040000Y-88900000D03*
G04 #@! TO.P,J2,19*
G04 #@! TO.N,P51*
X190500000Y-91440000D03*
G04 #@! TO.P,J2,20*
G04 #@! TO.N,P50*
X193040000Y-91440000D03*
G04 #@! TO.P,J2,21*
G04 #@! TO.N,P45*
X190500000Y-93980000D03*
G04 #@! TO.P,J2,22*
G04 #@! TO.N,P48*
X193040000Y-93980000D03*
G04 #@! TO.P,J2,23*
G04 #@! TO.N,P46*
X190500000Y-96520000D03*
G04 #@! TO.P,J2,24*
G04 #@! TO.N,P44*
X193040000Y-96520000D03*
G04 #@! TO.P,J2,25*
G04 #@! TO.N,P43*
X190500000Y-99060000D03*
G04 #@! TO.P,J2,26*
G04 #@! TO.N,P42*
X193040000Y-99060000D03*
G04 #@! TO.P,J2,27*
G04 #@! TO.N,P41*
X190500000Y-101600000D03*
G04 #@! TO.P,J2,28*
G04 #@! TO.N,P38*
X193040000Y-101600000D03*
G04 #@! TO.P,J2,29*
G04 #@! TO.N,P39*
X190500000Y-104140000D03*
G04 #@! TO.P,J2,30*
G04 #@! TO.N,P36*
X193040000Y-104140000D03*
G04 #@! TO.P,J2,31*
G04 #@! TO.N,P23*
X190500000Y-106680000D03*
G04 #@! TO.P,J2,32*
G04 #@! TO.N,P25*
X193040000Y-106680000D03*
G04 #@! TO.P,J2,33*
G04 #@! TO.N,P29*
X190500000Y-109220000D03*
G04 #@! TO.P,J2,34*
G04 #@! TO.N,P31*
X193040000Y-109220000D03*
G04 #@! TD*
D10*
G04 #@! TO.N,GND*
G04 #@! TO.C,C1*
G36*
X163160142Y-96837174D02*
X163183803Y-96840684D01*
X163207007Y-96846496D01*
X163229529Y-96854554D01*
X163251153Y-96864782D01*
X163271670Y-96877079D01*
X163290883Y-96891329D01*
X163308607Y-96907393D01*
X163324671Y-96925117D01*
X163338921Y-96944330D01*
X163351218Y-96964847D01*
X163361446Y-96986471D01*
X163369504Y-97008993D01*
X163375316Y-97032197D01*
X163378826Y-97055858D01*
X163380000Y-97079750D01*
X163380000Y-97992250D01*
X163378826Y-98016142D01*
X163375316Y-98039803D01*
X163369504Y-98063007D01*
X163361446Y-98085529D01*
X163351218Y-98107153D01*
X163338921Y-98127670D01*
X163324671Y-98146883D01*
X163308607Y-98164607D01*
X163290883Y-98180671D01*
X163271670Y-98194921D01*
X163251153Y-98207218D01*
X163229529Y-98217446D01*
X163207007Y-98225504D01*
X163183803Y-98231316D01*
X163160142Y-98234826D01*
X163136250Y-98236000D01*
X162648750Y-98236000D01*
X162624858Y-98234826D01*
X162601197Y-98231316D01*
X162577993Y-98225504D01*
X162555471Y-98217446D01*
X162533847Y-98207218D01*
X162513330Y-98194921D01*
X162494117Y-98180671D01*
X162476393Y-98164607D01*
X162460329Y-98146883D01*
X162446079Y-98127670D01*
X162433782Y-98107153D01*
X162423554Y-98085529D01*
X162415496Y-98063007D01*
X162409684Y-98039803D01*
X162406174Y-98016142D01*
X162405000Y-97992250D01*
X162405000Y-97079750D01*
X162406174Y-97055858D01*
X162409684Y-97032197D01*
X162415496Y-97008993D01*
X162423554Y-96986471D01*
X162433782Y-96964847D01*
X162446079Y-96944330D01*
X162460329Y-96925117D01*
X162476393Y-96907393D01*
X162494117Y-96891329D01*
X162513330Y-96877079D01*
X162533847Y-96864782D01*
X162555471Y-96854554D01*
X162577993Y-96846496D01*
X162601197Y-96840684D01*
X162624858Y-96837174D01*
X162648750Y-96836000D01*
X163136250Y-96836000D01*
X163160142Y-96837174D01*
X163160142Y-96837174D01*
G37*
D11*
G04 #@! TD*
G04 #@! TO.P,C1,2*
G04 #@! TO.N,GND*
X162892500Y-97536000D03*
D10*
G04 #@! TO.N,Net-(C1-Pad1)*
G04 #@! TO.C,C1*
G36*
X165035142Y-96837174D02*
X165058803Y-96840684D01*
X165082007Y-96846496D01*
X165104529Y-96854554D01*
X165126153Y-96864782D01*
X165146670Y-96877079D01*
X165165883Y-96891329D01*
X165183607Y-96907393D01*
X165199671Y-96925117D01*
X165213921Y-96944330D01*
X165226218Y-96964847D01*
X165236446Y-96986471D01*
X165244504Y-97008993D01*
X165250316Y-97032197D01*
X165253826Y-97055858D01*
X165255000Y-97079750D01*
X165255000Y-97992250D01*
X165253826Y-98016142D01*
X165250316Y-98039803D01*
X165244504Y-98063007D01*
X165236446Y-98085529D01*
X165226218Y-98107153D01*
X165213921Y-98127670D01*
X165199671Y-98146883D01*
X165183607Y-98164607D01*
X165165883Y-98180671D01*
X165146670Y-98194921D01*
X165126153Y-98207218D01*
X165104529Y-98217446D01*
X165082007Y-98225504D01*
X165058803Y-98231316D01*
X165035142Y-98234826D01*
X165011250Y-98236000D01*
X164523750Y-98236000D01*
X164499858Y-98234826D01*
X164476197Y-98231316D01*
X164452993Y-98225504D01*
X164430471Y-98217446D01*
X164408847Y-98207218D01*
X164388330Y-98194921D01*
X164369117Y-98180671D01*
X164351393Y-98164607D01*
X164335329Y-98146883D01*
X164321079Y-98127670D01*
X164308782Y-98107153D01*
X164298554Y-98085529D01*
X164290496Y-98063007D01*
X164284684Y-98039803D01*
X164281174Y-98016142D01*
X164280000Y-97992250D01*
X164280000Y-97079750D01*
X164281174Y-97055858D01*
X164284684Y-97032197D01*
X164290496Y-97008993D01*
X164298554Y-96986471D01*
X164308782Y-96964847D01*
X164321079Y-96944330D01*
X164335329Y-96925117D01*
X164351393Y-96907393D01*
X164369117Y-96891329D01*
X164388330Y-96877079D01*
X164408847Y-96864782D01*
X164430471Y-96854554D01*
X164452993Y-96846496D01*
X164476197Y-96840684D01*
X164499858Y-96837174D01*
X164523750Y-96836000D01*
X165011250Y-96836000D01*
X165035142Y-96837174D01*
X165035142Y-96837174D01*
G37*
D11*
G04 #@! TD*
G04 #@! TO.P,C1,1*
G04 #@! TO.N,Net-(C1-Pad1)*
X164767500Y-97536000D03*
D10*
G04 #@! TO.N,Net-(C1-Pad1)*
G04 #@! TO.C,C2*
G36*
X165035142Y-94805174D02*
X165058803Y-94808684D01*
X165082007Y-94814496D01*
X165104529Y-94822554D01*
X165126153Y-94832782D01*
X165146670Y-94845079D01*
X165165883Y-94859329D01*
X165183607Y-94875393D01*
X165199671Y-94893117D01*
X165213921Y-94912330D01*
X165226218Y-94932847D01*
X165236446Y-94954471D01*
X165244504Y-94976993D01*
X165250316Y-95000197D01*
X165253826Y-95023858D01*
X165255000Y-95047750D01*
X165255000Y-95960250D01*
X165253826Y-95984142D01*
X165250316Y-96007803D01*
X165244504Y-96031007D01*
X165236446Y-96053529D01*
X165226218Y-96075153D01*
X165213921Y-96095670D01*
X165199671Y-96114883D01*
X165183607Y-96132607D01*
X165165883Y-96148671D01*
X165146670Y-96162921D01*
X165126153Y-96175218D01*
X165104529Y-96185446D01*
X165082007Y-96193504D01*
X165058803Y-96199316D01*
X165035142Y-96202826D01*
X165011250Y-96204000D01*
X164523750Y-96204000D01*
X164499858Y-96202826D01*
X164476197Y-96199316D01*
X164452993Y-96193504D01*
X164430471Y-96185446D01*
X164408847Y-96175218D01*
X164388330Y-96162921D01*
X164369117Y-96148671D01*
X164351393Y-96132607D01*
X164335329Y-96114883D01*
X164321079Y-96095670D01*
X164308782Y-96075153D01*
X164298554Y-96053529D01*
X164290496Y-96031007D01*
X164284684Y-96007803D01*
X164281174Y-95984142D01*
X164280000Y-95960250D01*
X164280000Y-95047750D01*
X164281174Y-95023858D01*
X164284684Y-95000197D01*
X164290496Y-94976993D01*
X164298554Y-94954471D01*
X164308782Y-94932847D01*
X164321079Y-94912330D01*
X164335329Y-94893117D01*
X164351393Y-94875393D01*
X164369117Y-94859329D01*
X164388330Y-94845079D01*
X164408847Y-94832782D01*
X164430471Y-94822554D01*
X164452993Y-94814496D01*
X164476197Y-94808684D01*
X164499858Y-94805174D01*
X164523750Y-94804000D01*
X165011250Y-94804000D01*
X165035142Y-94805174D01*
X165035142Y-94805174D01*
G37*
D11*
G04 #@! TD*
G04 #@! TO.P,C2,1*
G04 #@! TO.N,Net-(C1-Pad1)*
X164767500Y-95504000D03*
D10*
G04 #@! TO.N,GND*
G04 #@! TO.C,C2*
G36*
X163160142Y-94805174D02*
X163183803Y-94808684D01*
X163207007Y-94814496D01*
X163229529Y-94822554D01*
X163251153Y-94832782D01*
X163271670Y-94845079D01*
X163290883Y-94859329D01*
X163308607Y-94875393D01*
X163324671Y-94893117D01*
X163338921Y-94912330D01*
X163351218Y-94932847D01*
X163361446Y-94954471D01*
X163369504Y-94976993D01*
X163375316Y-95000197D01*
X163378826Y-95023858D01*
X163380000Y-95047750D01*
X163380000Y-95960250D01*
X163378826Y-95984142D01*
X163375316Y-96007803D01*
X163369504Y-96031007D01*
X163361446Y-96053529D01*
X163351218Y-96075153D01*
X163338921Y-96095670D01*
X163324671Y-96114883D01*
X163308607Y-96132607D01*
X163290883Y-96148671D01*
X163271670Y-96162921D01*
X163251153Y-96175218D01*
X163229529Y-96185446D01*
X163207007Y-96193504D01*
X163183803Y-96199316D01*
X163160142Y-96202826D01*
X163136250Y-96204000D01*
X162648750Y-96204000D01*
X162624858Y-96202826D01*
X162601197Y-96199316D01*
X162577993Y-96193504D01*
X162555471Y-96185446D01*
X162533847Y-96175218D01*
X162513330Y-96162921D01*
X162494117Y-96148671D01*
X162476393Y-96132607D01*
X162460329Y-96114883D01*
X162446079Y-96095670D01*
X162433782Y-96075153D01*
X162423554Y-96053529D01*
X162415496Y-96031007D01*
X162409684Y-96007803D01*
X162406174Y-95984142D01*
X162405000Y-95960250D01*
X162405000Y-95047750D01*
X162406174Y-95023858D01*
X162409684Y-95000197D01*
X162415496Y-94976993D01*
X162423554Y-94954471D01*
X162433782Y-94932847D01*
X162446079Y-94912330D01*
X162460329Y-94893117D01*
X162476393Y-94875393D01*
X162494117Y-94859329D01*
X162513330Y-94845079D01*
X162533847Y-94832782D01*
X162555471Y-94822554D01*
X162577993Y-94814496D01*
X162601197Y-94808684D01*
X162624858Y-94805174D01*
X162648750Y-94804000D01*
X163136250Y-94804000D01*
X163160142Y-94805174D01*
X163160142Y-94805174D01*
G37*
D11*
G04 #@! TD*
G04 #@! TO.P,C2,2*
G04 #@! TO.N,GND*
X162892500Y-95504000D03*
D10*
G04 #@! TO.N,GND*
G04 #@! TO.C,C3*
G36*
X149021642Y-82777174D02*
X149045303Y-82780684D01*
X149068507Y-82786496D01*
X149091029Y-82794554D01*
X149112653Y-82804782D01*
X149133170Y-82817079D01*
X149152383Y-82831329D01*
X149170107Y-82847393D01*
X149186171Y-82865117D01*
X149200421Y-82884330D01*
X149212718Y-82904847D01*
X149222946Y-82926471D01*
X149231004Y-82948993D01*
X149236816Y-82972197D01*
X149240326Y-82995858D01*
X149241500Y-83019750D01*
X149241500Y-83507250D01*
X149240326Y-83531142D01*
X149236816Y-83554803D01*
X149231004Y-83578007D01*
X149222946Y-83600529D01*
X149212718Y-83622153D01*
X149200421Y-83642670D01*
X149186171Y-83661883D01*
X149170107Y-83679607D01*
X149152383Y-83695671D01*
X149133170Y-83709921D01*
X149112653Y-83722218D01*
X149091029Y-83732446D01*
X149068507Y-83740504D01*
X149045303Y-83746316D01*
X149021642Y-83749826D01*
X148997750Y-83751000D01*
X148085250Y-83751000D01*
X148061358Y-83749826D01*
X148037697Y-83746316D01*
X148014493Y-83740504D01*
X147991971Y-83732446D01*
X147970347Y-83722218D01*
X147949830Y-83709921D01*
X147930617Y-83695671D01*
X147912893Y-83679607D01*
X147896829Y-83661883D01*
X147882579Y-83642670D01*
X147870282Y-83622153D01*
X147860054Y-83600529D01*
X147851996Y-83578007D01*
X147846184Y-83554803D01*
X147842674Y-83531142D01*
X147841500Y-83507250D01*
X147841500Y-83019750D01*
X147842674Y-82995858D01*
X147846184Y-82972197D01*
X147851996Y-82948993D01*
X147860054Y-82926471D01*
X147870282Y-82904847D01*
X147882579Y-82884330D01*
X147896829Y-82865117D01*
X147912893Y-82847393D01*
X147930617Y-82831329D01*
X147949830Y-82817079D01*
X147970347Y-82804782D01*
X147991971Y-82794554D01*
X148014493Y-82786496D01*
X148037697Y-82780684D01*
X148061358Y-82777174D01*
X148085250Y-82776000D01*
X148997750Y-82776000D01*
X149021642Y-82777174D01*
X149021642Y-82777174D01*
G37*
D11*
G04 #@! TD*
G04 #@! TO.P,C3,2*
G04 #@! TO.N,GND*
X148541500Y-83263500D03*
D10*
G04 #@! TO.N,Net-(C3-Pad1)*
G04 #@! TO.C,C3*
G36*
X149021642Y-84652174D02*
X149045303Y-84655684D01*
X149068507Y-84661496D01*
X149091029Y-84669554D01*
X149112653Y-84679782D01*
X149133170Y-84692079D01*
X149152383Y-84706329D01*
X149170107Y-84722393D01*
X149186171Y-84740117D01*
X149200421Y-84759330D01*
X149212718Y-84779847D01*
X149222946Y-84801471D01*
X149231004Y-84823993D01*
X149236816Y-84847197D01*
X149240326Y-84870858D01*
X149241500Y-84894750D01*
X149241500Y-85382250D01*
X149240326Y-85406142D01*
X149236816Y-85429803D01*
X149231004Y-85453007D01*
X149222946Y-85475529D01*
X149212718Y-85497153D01*
X149200421Y-85517670D01*
X149186171Y-85536883D01*
X149170107Y-85554607D01*
X149152383Y-85570671D01*
X149133170Y-85584921D01*
X149112653Y-85597218D01*
X149091029Y-85607446D01*
X149068507Y-85615504D01*
X149045303Y-85621316D01*
X149021642Y-85624826D01*
X148997750Y-85626000D01*
X148085250Y-85626000D01*
X148061358Y-85624826D01*
X148037697Y-85621316D01*
X148014493Y-85615504D01*
X147991971Y-85607446D01*
X147970347Y-85597218D01*
X147949830Y-85584921D01*
X147930617Y-85570671D01*
X147912893Y-85554607D01*
X147896829Y-85536883D01*
X147882579Y-85517670D01*
X147870282Y-85497153D01*
X147860054Y-85475529D01*
X147851996Y-85453007D01*
X147846184Y-85429803D01*
X147842674Y-85406142D01*
X147841500Y-85382250D01*
X147841500Y-84894750D01*
X147842674Y-84870858D01*
X147846184Y-84847197D01*
X147851996Y-84823993D01*
X147860054Y-84801471D01*
X147870282Y-84779847D01*
X147882579Y-84759330D01*
X147896829Y-84740117D01*
X147912893Y-84722393D01*
X147930617Y-84706329D01*
X147949830Y-84692079D01*
X147970347Y-84679782D01*
X147991971Y-84669554D01*
X148014493Y-84661496D01*
X148037697Y-84655684D01*
X148061358Y-84652174D01*
X148085250Y-84651000D01*
X148997750Y-84651000D01*
X149021642Y-84652174D01*
X149021642Y-84652174D01*
G37*
D11*
G04 #@! TD*
G04 #@! TO.P,C3,1*
G04 #@! TO.N,Net-(C3-Pad1)*
X148541500Y-85138500D03*
D10*
G04 #@! TO.N,Net-(C3-Pad1)*
G04 #@! TO.C,C4*
G36*
X151117142Y-84652174D02*
X151140803Y-84655684D01*
X151164007Y-84661496D01*
X151186529Y-84669554D01*
X151208153Y-84679782D01*
X151228670Y-84692079D01*
X151247883Y-84706329D01*
X151265607Y-84722393D01*
X151281671Y-84740117D01*
X151295921Y-84759330D01*
X151308218Y-84779847D01*
X151318446Y-84801471D01*
X151326504Y-84823993D01*
X151332316Y-84847197D01*
X151335826Y-84870858D01*
X151337000Y-84894750D01*
X151337000Y-85382250D01*
X151335826Y-85406142D01*
X151332316Y-85429803D01*
X151326504Y-85453007D01*
X151318446Y-85475529D01*
X151308218Y-85497153D01*
X151295921Y-85517670D01*
X151281671Y-85536883D01*
X151265607Y-85554607D01*
X151247883Y-85570671D01*
X151228670Y-85584921D01*
X151208153Y-85597218D01*
X151186529Y-85607446D01*
X151164007Y-85615504D01*
X151140803Y-85621316D01*
X151117142Y-85624826D01*
X151093250Y-85626000D01*
X150180750Y-85626000D01*
X150156858Y-85624826D01*
X150133197Y-85621316D01*
X150109993Y-85615504D01*
X150087471Y-85607446D01*
X150065847Y-85597218D01*
X150045330Y-85584921D01*
X150026117Y-85570671D01*
X150008393Y-85554607D01*
X149992329Y-85536883D01*
X149978079Y-85517670D01*
X149965782Y-85497153D01*
X149955554Y-85475529D01*
X149947496Y-85453007D01*
X149941684Y-85429803D01*
X149938174Y-85406142D01*
X149937000Y-85382250D01*
X149937000Y-84894750D01*
X149938174Y-84870858D01*
X149941684Y-84847197D01*
X149947496Y-84823993D01*
X149955554Y-84801471D01*
X149965782Y-84779847D01*
X149978079Y-84759330D01*
X149992329Y-84740117D01*
X150008393Y-84722393D01*
X150026117Y-84706329D01*
X150045330Y-84692079D01*
X150065847Y-84679782D01*
X150087471Y-84669554D01*
X150109993Y-84661496D01*
X150133197Y-84655684D01*
X150156858Y-84652174D01*
X150180750Y-84651000D01*
X151093250Y-84651000D01*
X151117142Y-84652174D01*
X151117142Y-84652174D01*
G37*
D11*
G04 #@! TD*
G04 #@! TO.P,C4,1*
G04 #@! TO.N,Net-(C3-Pad1)*
X150637000Y-85138500D03*
D10*
G04 #@! TO.N,GND*
G04 #@! TO.C,C4*
G36*
X151117142Y-82777174D02*
X151140803Y-82780684D01*
X151164007Y-82786496D01*
X151186529Y-82794554D01*
X151208153Y-82804782D01*
X151228670Y-82817079D01*
X151247883Y-82831329D01*
X151265607Y-82847393D01*
X151281671Y-82865117D01*
X151295921Y-82884330D01*
X151308218Y-82904847D01*
X151318446Y-82926471D01*
X151326504Y-82948993D01*
X151332316Y-82972197D01*
X151335826Y-82995858D01*
X151337000Y-83019750D01*
X151337000Y-83507250D01*
X151335826Y-83531142D01*
X151332316Y-83554803D01*
X151326504Y-83578007D01*
X151318446Y-83600529D01*
X151308218Y-83622153D01*
X151295921Y-83642670D01*
X151281671Y-83661883D01*
X151265607Y-83679607D01*
X151247883Y-83695671D01*
X151228670Y-83709921D01*
X151208153Y-83722218D01*
X151186529Y-83732446D01*
X151164007Y-83740504D01*
X151140803Y-83746316D01*
X151117142Y-83749826D01*
X151093250Y-83751000D01*
X150180750Y-83751000D01*
X150156858Y-83749826D01*
X150133197Y-83746316D01*
X150109993Y-83740504D01*
X150087471Y-83732446D01*
X150065847Y-83722218D01*
X150045330Y-83709921D01*
X150026117Y-83695671D01*
X150008393Y-83679607D01*
X149992329Y-83661883D01*
X149978079Y-83642670D01*
X149965782Y-83622153D01*
X149955554Y-83600529D01*
X149947496Y-83578007D01*
X149941684Y-83554803D01*
X149938174Y-83531142D01*
X149937000Y-83507250D01*
X149937000Y-83019750D01*
X149938174Y-82995858D01*
X149941684Y-82972197D01*
X149947496Y-82948993D01*
X149955554Y-82926471D01*
X149965782Y-82904847D01*
X149978079Y-82884330D01*
X149992329Y-82865117D01*
X150008393Y-82847393D01*
X150026117Y-82831329D01*
X150045330Y-82817079D01*
X150065847Y-82804782D01*
X150087471Y-82794554D01*
X150109993Y-82786496D01*
X150133197Y-82780684D01*
X150156858Y-82777174D01*
X150180750Y-82776000D01*
X151093250Y-82776000D01*
X151117142Y-82777174D01*
X151117142Y-82777174D01*
G37*
D11*
G04 #@! TD*
G04 #@! TO.P,C4,2*
G04 #@! TO.N,GND*
X150637000Y-83263500D03*
D10*
G04 #@! TO.N,+3V3*
G04 #@! TO.C,C5*
G36*
X170272142Y-94805174D02*
X170295803Y-94808684D01*
X170319007Y-94814496D01*
X170341529Y-94822554D01*
X170363153Y-94832782D01*
X170383670Y-94845079D01*
X170402883Y-94859329D01*
X170420607Y-94875393D01*
X170436671Y-94893117D01*
X170450921Y-94912330D01*
X170463218Y-94932847D01*
X170473446Y-94954471D01*
X170481504Y-94976993D01*
X170487316Y-95000197D01*
X170490826Y-95023858D01*
X170492000Y-95047750D01*
X170492000Y-95960250D01*
X170490826Y-95984142D01*
X170487316Y-96007803D01*
X170481504Y-96031007D01*
X170473446Y-96053529D01*
X170463218Y-96075153D01*
X170450921Y-96095670D01*
X170436671Y-96114883D01*
X170420607Y-96132607D01*
X170402883Y-96148671D01*
X170383670Y-96162921D01*
X170363153Y-96175218D01*
X170341529Y-96185446D01*
X170319007Y-96193504D01*
X170295803Y-96199316D01*
X170272142Y-96202826D01*
X170248250Y-96204000D01*
X169760750Y-96204000D01*
X169736858Y-96202826D01*
X169713197Y-96199316D01*
X169689993Y-96193504D01*
X169667471Y-96185446D01*
X169645847Y-96175218D01*
X169625330Y-96162921D01*
X169606117Y-96148671D01*
X169588393Y-96132607D01*
X169572329Y-96114883D01*
X169558079Y-96095670D01*
X169545782Y-96075153D01*
X169535554Y-96053529D01*
X169527496Y-96031007D01*
X169521684Y-96007803D01*
X169518174Y-95984142D01*
X169517000Y-95960250D01*
X169517000Y-95047750D01*
X169518174Y-95023858D01*
X169521684Y-95000197D01*
X169527496Y-94976993D01*
X169535554Y-94954471D01*
X169545782Y-94932847D01*
X169558079Y-94912330D01*
X169572329Y-94893117D01*
X169588393Y-94875393D01*
X169606117Y-94859329D01*
X169625330Y-94845079D01*
X169645847Y-94832782D01*
X169667471Y-94822554D01*
X169689993Y-94814496D01*
X169713197Y-94808684D01*
X169736858Y-94805174D01*
X169760750Y-94804000D01*
X170248250Y-94804000D01*
X170272142Y-94805174D01*
X170272142Y-94805174D01*
G37*
D11*
G04 #@! TD*
G04 #@! TO.P,C5,1*
G04 #@! TO.N,+3V3*
X170004500Y-95504000D03*
D10*
G04 #@! TO.N,GND*
G04 #@! TO.C,C5*
G36*
X172147142Y-94805174D02*
X172170803Y-94808684D01*
X172194007Y-94814496D01*
X172216529Y-94822554D01*
X172238153Y-94832782D01*
X172258670Y-94845079D01*
X172277883Y-94859329D01*
X172295607Y-94875393D01*
X172311671Y-94893117D01*
X172325921Y-94912330D01*
X172338218Y-94932847D01*
X172348446Y-94954471D01*
X172356504Y-94976993D01*
X172362316Y-95000197D01*
X172365826Y-95023858D01*
X172367000Y-95047750D01*
X172367000Y-95960250D01*
X172365826Y-95984142D01*
X172362316Y-96007803D01*
X172356504Y-96031007D01*
X172348446Y-96053529D01*
X172338218Y-96075153D01*
X172325921Y-96095670D01*
X172311671Y-96114883D01*
X172295607Y-96132607D01*
X172277883Y-96148671D01*
X172258670Y-96162921D01*
X172238153Y-96175218D01*
X172216529Y-96185446D01*
X172194007Y-96193504D01*
X172170803Y-96199316D01*
X172147142Y-96202826D01*
X172123250Y-96204000D01*
X171635750Y-96204000D01*
X171611858Y-96202826D01*
X171588197Y-96199316D01*
X171564993Y-96193504D01*
X171542471Y-96185446D01*
X171520847Y-96175218D01*
X171500330Y-96162921D01*
X171481117Y-96148671D01*
X171463393Y-96132607D01*
X171447329Y-96114883D01*
X171433079Y-96095670D01*
X171420782Y-96075153D01*
X171410554Y-96053529D01*
X171402496Y-96031007D01*
X171396684Y-96007803D01*
X171393174Y-95984142D01*
X171392000Y-95960250D01*
X171392000Y-95047750D01*
X171393174Y-95023858D01*
X171396684Y-95000197D01*
X171402496Y-94976993D01*
X171410554Y-94954471D01*
X171420782Y-94932847D01*
X171433079Y-94912330D01*
X171447329Y-94893117D01*
X171463393Y-94875393D01*
X171481117Y-94859329D01*
X171500330Y-94845079D01*
X171520847Y-94832782D01*
X171542471Y-94822554D01*
X171564993Y-94814496D01*
X171588197Y-94808684D01*
X171611858Y-94805174D01*
X171635750Y-94804000D01*
X172123250Y-94804000D01*
X172147142Y-94805174D01*
X172147142Y-94805174D01*
G37*
D11*
G04 #@! TD*
G04 #@! TO.P,C5,2*
G04 #@! TO.N,GND*
X171879500Y-95504000D03*
D10*
G04 #@! TO.N,+1V2*
G04 #@! TO.C,R2*
G36*
X168591142Y-94805174D02*
X168614803Y-94808684D01*
X168638007Y-94814496D01*
X168660529Y-94822554D01*
X168682153Y-94832782D01*
X168702670Y-94845079D01*
X168721883Y-94859329D01*
X168739607Y-94875393D01*
X168755671Y-94893117D01*
X168769921Y-94912330D01*
X168782218Y-94932847D01*
X168792446Y-94954471D01*
X168800504Y-94976993D01*
X168806316Y-95000197D01*
X168809826Y-95023858D01*
X168811000Y-95047750D01*
X168811000Y-95960250D01*
X168809826Y-95984142D01*
X168806316Y-96007803D01*
X168800504Y-96031007D01*
X168792446Y-96053529D01*
X168782218Y-96075153D01*
X168769921Y-96095670D01*
X168755671Y-96114883D01*
X168739607Y-96132607D01*
X168721883Y-96148671D01*
X168702670Y-96162921D01*
X168682153Y-96175218D01*
X168660529Y-96185446D01*
X168638007Y-96193504D01*
X168614803Y-96199316D01*
X168591142Y-96202826D01*
X168567250Y-96204000D01*
X168079750Y-96204000D01*
X168055858Y-96202826D01*
X168032197Y-96199316D01*
X168008993Y-96193504D01*
X167986471Y-96185446D01*
X167964847Y-96175218D01*
X167944330Y-96162921D01*
X167925117Y-96148671D01*
X167907393Y-96132607D01*
X167891329Y-96114883D01*
X167877079Y-96095670D01*
X167864782Y-96075153D01*
X167854554Y-96053529D01*
X167846496Y-96031007D01*
X167840684Y-96007803D01*
X167837174Y-95984142D01*
X167836000Y-95960250D01*
X167836000Y-95047750D01*
X167837174Y-95023858D01*
X167840684Y-95000197D01*
X167846496Y-94976993D01*
X167854554Y-94954471D01*
X167864782Y-94932847D01*
X167877079Y-94912330D01*
X167891329Y-94893117D01*
X167907393Y-94875393D01*
X167925117Y-94859329D01*
X167944330Y-94845079D01*
X167964847Y-94832782D01*
X167986471Y-94822554D01*
X168008993Y-94814496D01*
X168032197Y-94808684D01*
X168055858Y-94805174D01*
X168079750Y-94804000D01*
X168567250Y-94804000D01*
X168591142Y-94805174D01*
X168591142Y-94805174D01*
G37*
D11*
G04 #@! TD*
G04 #@! TO.P,R2,1*
G04 #@! TO.N,+1V2*
X168323500Y-95504000D03*
D10*
G04 #@! TO.N,Net-(C1-Pad1)*
G04 #@! TO.C,R2*
G36*
X166716142Y-94805174D02*
X166739803Y-94808684D01*
X166763007Y-94814496D01*
X166785529Y-94822554D01*
X166807153Y-94832782D01*
X166827670Y-94845079D01*
X166846883Y-94859329D01*
X166864607Y-94875393D01*
X166880671Y-94893117D01*
X166894921Y-94912330D01*
X166907218Y-94932847D01*
X166917446Y-94954471D01*
X166925504Y-94976993D01*
X166931316Y-95000197D01*
X166934826Y-95023858D01*
X166936000Y-95047750D01*
X166936000Y-95960250D01*
X166934826Y-95984142D01*
X166931316Y-96007803D01*
X166925504Y-96031007D01*
X166917446Y-96053529D01*
X166907218Y-96075153D01*
X166894921Y-96095670D01*
X166880671Y-96114883D01*
X166864607Y-96132607D01*
X166846883Y-96148671D01*
X166827670Y-96162921D01*
X166807153Y-96175218D01*
X166785529Y-96185446D01*
X166763007Y-96193504D01*
X166739803Y-96199316D01*
X166716142Y-96202826D01*
X166692250Y-96204000D01*
X166204750Y-96204000D01*
X166180858Y-96202826D01*
X166157197Y-96199316D01*
X166133993Y-96193504D01*
X166111471Y-96185446D01*
X166089847Y-96175218D01*
X166069330Y-96162921D01*
X166050117Y-96148671D01*
X166032393Y-96132607D01*
X166016329Y-96114883D01*
X166002079Y-96095670D01*
X165989782Y-96075153D01*
X165979554Y-96053529D01*
X165971496Y-96031007D01*
X165965684Y-96007803D01*
X165962174Y-95984142D01*
X165961000Y-95960250D01*
X165961000Y-95047750D01*
X165962174Y-95023858D01*
X165965684Y-95000197D01*
X165971496Y-94976993D01*
X165979554Y-94954471D01*
X165989782Y-94932847D01*
X166002079Y-94912330D01*
X166016329Y-94893117D01*
X166032393Y-94875393D01*
X166050117Y-94859329D01*
X166069330Y-94845079D01*
X166089847Y-94832782D01*
X166111471Y-94822554D01*
X166133993Y-94814496D01*
X166157197Y-94808684D01*
X166180858Y-94805174D01*
X166204750Y-94804000D01*
X166692250Y-94804000D01*
X166716142Y-94805174D01*
X166716142Y-94805174D01*
G37*
D11*
G04 #@! TD*
G04 #@! TO.P,R2,2*
G04 #@! TO.N,Net-(C1-Pad1)*
X166448500Y-95504000D03*
D10*
G04 #@! TO.N,+3V3*
G04 #@! TO.C,L1*
G36*
X153212642Y-82777174D02*
X153236303Y-82780684D01*
X153259507Y-82786496D01*
X153282029Y-82794554D01*
X153303653Y-82804782D01*
X153324170Y-82817079D01*
X153343383Y-82831329D01*
X153361107Y-82847393D01*
X153377171Y-82865117D01*
X153391421Y-82884330D01*
X153403718Y-82904847D01*
X153413946Y-82926471D01*
X153422004Y-82948993D01*
X153427816Y-82972197D01*
X153431326Y-82995858D01*
X153432500Y-83019750D01*
X153432500Y-83507250D01*
X153431326Y-83531142D01*
X153427816Y-83554803D01*
X153422004Y-83578007D01*
X153413946Y-83600529D01*
X153403718Y-83622153D01*
X153391421Y-83642670D01*
X153377171Y-83661883D01*
X153361107Y-83679607D01*
X153343383Y-83695671D01*
X153324170Y-83709921D01*
X153303653Y-83722218D01*
X153282029Y-83732446D01*
X153259507Y-83740504D01*
X153236303Y-83746316D01*
X153212642Y-83749826D01*
X153188750Y-83751000D01*
X152276250Y-83751000D01*
X152252358Y-83749826D01*
X152228697Y-83746316D01*
X152205493Y-83740504D01*
X152182971Y-83732446D01*
X152161347Y-83722218D01*
X152140830Y-83709921D01*
X152121617Y-83695671D01*
X152103893Y-83679607D01*
X152087829Y-83661883D01*
X152073579Y-83642670D01*
X152061282Y-83622153D01*
X152051054Y-83600529D01*
X152042996Y-83578007D01*
X152037184Y-83554803D01*
X152033674Y-83531142D01*
X152032500Y-83507250D01*
X152032500Y-83019750D01*
X152033674Y-82995858D01*
X152037184Y-82972197D01*
X152042996Y-82948993D01*
X152051054Y-82926471D01*
X152061282Y-82904847D01*
X152073579Y-82884330D01*
X152087829Y-82865117D01*
X152103893Y-82847393D01*
X152121617Y-82831329D01*
X152140830Y-82817079D01*
X152161347Y-82804782D01*
X152182971Y-82794554D01*
X152205493Y-82786496D01*
X152228697Y-82780684D01*
X152252358Y-82777174D01*
X152276250Y-82776000D01*
X153188750Y-82776000D01*
X153212642Y-82777174D01*
X153212642Y-82777174D01*
G37*
D11*
G04 #@! TD*
G04 #@! TO.P,L1,2*
G04 #@! TO.N,+3V3*
X152732500Y-83263500D03*
D10*
G04 #@! TO.N,Net-(C3-Pad1)*
G04 #@! TO.C,L1*
G36*
X153212642Y-84652174D02*
X153236303Y-84655684D01*
X153259507Y-84661496D01*
X153282029Y-84669554D01*
X153303653Y-84679782D01*
X153324170Y-84692079D01*
X153343383Y-84706329D01*
X153361107Y-84722393D01*
X153377171Y-84740117D01*
X153391421Y-84759330D01*
X153403718Y-84779847D01*
X153413946Y-84801471D01*
X153422004Y-84823993D01*
X153427816Y-84847197D01*
X153431326Y-84870858D01*
X153432500Y-84894750D01*
X153432500Y-85382250D01*
X153431326Y-85406142D01*
X153427816Y-85429803D01*
X153422004Y-85453007D01*
X153413946Y-85475529D01*
X153403718Y-85497153D01*
X153391421Y-85517670D01*
X153377171Y-85536883D01*
X153361107Y-85554607D01*
X153343383Y-85570671D01*
X153324170Y-85584921D01*
X153303653Y-85597218D01*
X153282029Y-85607446D01*
X153259507Y-85615504D01*
X153236303Y-85621316D01*
X153212642Y-85624826D01*
X153188750Y-85626000D01*
X152276250Y-85626000D01*
X152252358Y-85624826D01*
X152228697Y-85621316D01*
X152205493Y-85615504D01*
X152182971Y-85607446D01*
X152161347Y-85597218D01*
X152140830Y-85584921D01*
X152121617Y-85570671D01*
X152103893Y-85554607D01*
X152087829Y-85536883D01*
X152073579Y-85517670D01*
X152061282Y-85497153D01*
X152051054Y-85475529D01*
X152042996Y-85453007D01*
X152037184Y-85429803D01*
X152033674Y-85406142D01*
X152032500Y-85382250D01*
X152032500Y-84894750D01*
X152033674Y-84870858D01*
X152037184Y-84847197D01*
X152042996Y-84823993D01*
X152051054Y-84801471D01*
X152061282Y-84779847D01*
X152073579Y-84759330D01*
X152087829Y-84740117D01*
X152103893Y-84722393D01*
X152121617Y-84706329D01*
X152140830Y-84692079D01*
X152161347Y-84679782D01*
X152182971Y-84669554D01*
X152205493Y-84661496D01*
X152228697Y-84655684D01*
X152252358Y-84652174D01*
X152276250Y-84651000D01*
X153188750Y-84651000D01*
X153212642Y-84652174D01*
X153212642Y-84652174D01*
G37*
D11*
G04 #@! TD*
G04 #@! TO.P,L1,1*
G04 #@! TO.N,Net-(C3-Pad1)*
X152732500Y-85138500D03*
D10*
G04 #@! TO.N,+1V2*
G04 #@! TO.C,C10*
G36*
X166686142Y-81724174D02*
X166709803Y-81727684D01*
X166733007Y-81733496D01*
X166755529Y-81741554D01*
X166777153Y-81751782D01*
X166797670Y-81764079D01*
X166816883Y-81778329D01*
X166834607Y-81794393D01*
X166850671Y-81812117D01*
X166864921Y-81831330D01*
X166877218Y-81851847D01*
X166887446Y-81873471D01*
X166895504Y-81895993D01*
X166901316Y-81919197D01*
X166904826Y-81942858D01*
X166906000Y-81966750D01*
X166906000Y-82879250D01*
X166904826Y-82903142D01*
X166901316Y-82926803D01*
X166895504Y-82950007D01*
X166887446Y-82972529D01*
X166877218Y-82994153D01*
X166864921Y-83014670D01*
X166850671Y-83033883D01*
X166834607Y-83051607D01*
X166816883Y-83067671D01*
X166797670Y-83081921D01*
X166777153Y-83094218D01*
X166755529Y-83104446D01*
X166733007Y-83112504D01*
X166709803Y-83118316D01*
X166686142Y-83121826D01*
X166662250Y-83123000D01*
X166174750Y-83123000D01*
X166150858Y-83121826D01*
X166127197Y-83118316D01*
X166103993Y-83112504D01*
X166081471Y-83104446D01*
X166059847Y-83094218D01*
X166039330Y-83081921D01*
X166020117Y-83067671D01*
X166002393Y-83051607D01*
X165986329Y-83033883D01*
X165972079Y-83014670D01*
X165959782Y-82994153D01*
X165949554Y-82972529D01*
X165941496Y-82950007D01*
X165935684Y-82926803D01*
X165932174Y-82903142D01*
X165931000Y-82879250D01*
X165931000Y-81966750D01*
X165932174Y-81942858D01*
X165935684Y-81919197D01*
X165941496Y-81895993D01*
X165949554Y-81873471D01*
X165959782Y-81851847D01*
X165972079Y-81831330D01*
X165986329Y-81812117D01*
X166002393Y-81794393D01*
X166020117Y-81778329D01*
X166039330Y-81764079D01*
X166059847Y-81751782D01*
X166081471Y-81741554D01*
X166103993Y-81733496D01*
X166127197Y-81727684D01*
X166150858Y-81724174D01*
X166174750Y-81723000D01*
X166662250Y-81723000D01*
X166686142Y-81724174D01*
X166686142Y-81724174D01*
G37*
D11*
G04 #@! TD*
G04 #@! TO.P,C10,1*
G04 #@! TO.N,+1V2*
X166418500Y-82423000D03*
D10*
G04 #@! TO.N,GND*
G04 #@! TO.C,C10*
G36*
X164811142Y-81724174D02*
X164834803Y-81727684D01*
X164858007Y-81733496D01*
X164880529Y-81741554D01*
X164902153Y-81751782D01*
X164922670Y-81764079D01*
X164941883Y-81778329D01*
X164959607Y-81794393D01*
X164975671Y-81812117D01*
X164989921Y-81831330D01*
X165002218Y-81851847D01*
X165012446Y-81873471D01*
X165020504Y-81895993D01*
X165026316Y-81919197D01*
X165029826Y-81942858D01*
X165031000Y-81966750D01*
X165031000Y-82879250D01*
X165029826Y-82903142D01*
X165026316Y-82926803D01*
X165020504Y-82950007D01*
X165012446Y-82972529D01*
X165002218Y-82994153D01*
X164989921Y-83014670D01*
X164975671Y-83033883D01*
X164959607Y-83051607D01*
X164941883Y-83067671D01*
X164922670Y-83081921D01*
X164902153Y-83094218D01*
X164880529Y-83104446D01*
X164858007Y-83112504D01*
X164834803Y-83118316D01*
X164811142Y-83121826D01*
X164787250Y-83123000D01*
X164299750Y-83123000D01*
X164275858Y-83121826D01*
X164252197Y-83118316D01*
X164228993Y-83112504D01*
X164206471Y-83104446D01*
X164184847Y-83094218D01*
X164164330Y-83081921D01*
X164145117Y-83067671D01*
X164127393Y-83051607D01*
X164111329Y-83033883D01*
X164097079Y-83014670D01*
X164084782Y-82994153D01*
X164074554Y-82972529D01*
X164066496Y-82950007D01*
X164060684Y-82926803D01*
X164057174Y-82903142D01*
X164056000Y-82879250D01*
X164056000Y-81966750D01*
X164057174Y-81942858D01*
X164060684Y-81919197D01*
X164066496Y-81895993D01*
X164074554Y-81873471D01*
X164084782Y-81851847D01*
X164097079Y-81831330D01*
X164111329Y-81812117D01*
X164127393Y-81794393D01*
X164145117Y-81778329D01*
X164164330Y-81764079D01*
X164184847Y-81751782D01*
X164206471Y-81741554D01*
X164228993Y-81733496D01*
X164252197Y-81727684D01*
X164275858Y-81724174D01*
X164299750Y-81723000D01*
X164787250Y-81723000D01*
X164811142Y-81724174D01*
X164811142Y-81724174D01*
G37*
D11*
G04 #@! TD*
G04 #@! TO.P,C10,2*
G04 #@! TO.N,GND*
X164543500Y-82423000D03*
D10*
G04 #@! TO.N,GND*
G04 #@! TO.C,C11*
G36*
X161557642Y-94805174D02*
X161581303Y-94808684D01*
X161604507Y-94814496D01*
X161627029Y-94822554D01*
X161648653Y-94832782D01*
X161669170Y-94845079D01*
X161688383Y-94859329D01*
X161706107Y-94875393D01*
X161722171Y-94893117D01*
X161736421Y-94912330D01*
X161748718Y-94932847D01*
X161758946Y-94954471D01*
X161767004Y-94976993D01*
X161772816Y-95000197D01*
X161776326Y-95023858D01*
X161777500Y-95047750D01*
X161777500Y-95960250D01*
X161776326Y-95984142D01*
X161772816Y-96007803D01*
X161767004Y-96031007D01*
X161758946Y-96053529D01*
X161748718Y-96075153D01*
X161736421Y-96095670D01*
X161722171Y-96114883D01*
X161706107Y-96132607D01*
X161688383Y-96148671D01*
X161669170Y-96162921D01*
X161648653Y-96175218D01*
X161627029Y-96185446D01*
X161604507Y-96193504D01*
X161581303Y-96199316D01*
X161557642Y-96202826D01*
X161533750Y-96204000D01*
X161046250Y-96204000D01*
X161022358Y-96202826D01*
X160998697Y-96199316D01*
X160975493Y-96193504D01*
X160952971Y-96185446D01*
X160931347Y-96175218D01*
X160910830Y-96162921D01*
X160891617Y-96148671D01*
X160873893Y-96132607D01*
X160857829Y-96114883D01*
X160843579Y-96095670D01*
X160831282Y-96075153D01*
X160821054Y-96053529D01*
X160812996Y-96031007D01*
X160807184Y-96007803D01*
X160803674Y-95984142D01*
X160802500Y-95960250D01*
X160802500Y-95047750D01*
X160803674Y-95023858D01*
X160807184Y-95000197D01*
X160812996Y-94976993D01*
X160821054Y-94954471D01*
X160831282Y-94932847D01*
X160843579Y-94912330D01*
X160857829Y-94893117D01*
X160873893Y-94875393D01*
X160891617Y-94859329D01*
X160910830Y-94845079D01*
X160931347Y-94832782D01*
X160952971Y-94822554D01*
X160975493Y-94814496D01*
X160998697Y-94808684D01*
X161022358Y-94805174D01*
X161046250Y-94804000D01*
X161533750Y-94804000D01*
X161557642Y-94805174D01*
X161557642Y-94805174D01*
G37*
D11*
G04 #@! TD*
G04 #@! TO.P,C11,1*
G04 #@! TO.N,GND*
X161290000Y-95504000D03*
D10*
G04 #@! TO.N,+3V3*
G04 #@! TO.C,C11*
G36*
X159682642Y-94805174D02*
X159706303Y-94808684D01*
X159729507Y-94814496D01*
X159752029Y-94822554D01*
X159773653Y-94832782D01*
X159794170Y-94845079D01*
X159813383Y-94859329D01*
X159831107Y-94875393D01*
X159847171Y-94893117D01*
X159861421Y-94912330D01*
X159873718Y-94932847D01*
X159883946Y-94954471D01*
X159892004Y-94976993D01*
X159897816Y-95000197D01*
X159901326Y-95023858D01*
X159902500Y-95047750D01*
X159902500Y-95960250D01*
X159901326Y-95984142D01*
X159897816Y-96007803D01*
X159892004Y-96031007D01*
X159883946Y-96053529D01*
X159873718Y-96075153D01*
X159861421Y-96095670D01*
X159847171Y-96114883D01*
X159831107Y-96132607D01*
X159813383Y-96148671D01*
X159794170Y-96162921D01*
X159773653Y-96175218D01*
X159752029Y-96185446D01*
X159729507Y-96193504D01*
X159706303Y-96199316D01*
X159682642Y-96202826D01*
X159658750Y-96204000D01*
X159171250Y-96204000D01*
X159147358Y-96202826D01*
X159123697Y-96199316D01*
X159100493Y-96193504D01*
X159077971Y-96185446D01*
X159056347Y-96175218D01*
X159035830Y-96162921D01*
X159016617Y-96148671D01*
X158998893Y-96132607D01*
X158982829Y-96114883D01*
X158968579Y-96095670D01*
X158956282Y-96075153D01*
X158946054Y-96053529D01*
X158937996Y-96031007D01*
X158932184Y-96007803D01*
X158928674Y-95984142D01*
X158927500Y-95960250D01*
X158927500Y-95047750D01*
X158928674Y-95023858D01*
X158932184Y-95000197D01*
X158937996Y-94976993D01*
X158946054Y-94954471D01*
X158956282Y-94932847D01*
X158968579Y-94912330D01*
X158982829Y-94893117D01*
X158998893Y-94875393D01*
X159016617Y-94859329D01*
X159035830Y-94845079D01*
X159056347Y-94832782D01*
X159077971Y-94822554D01*
X159100493Y-94814496D01*
X159123697Y-94808684D01*
X159147358Y-94805174D01*
X159171250Y-94804000D01*
X159658750Y-94804000D01*
X159682642Y-94805174D01*
X159682642Y-94805174D01*
G37*
D11*
G04 #@! TD*
G04 #@! TO.P,C11,2*
G04 #@! TO.N,+3V3*
X159415000Y-95504000D03*
D14*
G04 #@! TO.N,GND*
X162306000Y-72009000D03*
X166827200Y-85902800D03*
X168097200Y-85902800D03*
X165557200Y-87223600D03*
X165557200Y-85902798D03*
X166878000Y-87223600D03*
X168097200Y-87274400D03*
X168097200Y-88442800D03*
X166827200Y-88442800D03*
X165557200Y-88442798D03*
X168097200Y-89814400D03*
X166878000Y-89763600D03*
X165557200Y-89763600D03*
X169316400Y-85902800D03*
X169316400Y-89814400D03*
X169316400Y-88442800D03*
X169316400Y-87274400D03*
X135206500Y-81280000D03*
X161861500Y-92773500D03*
X162433000Y-78105000D03*
X126873000Y-78486000D03*
X136398000Y-110236000D03*
X127381000Y-89281000D03*
X128651000Y-89281000D03*
X155829000Y-89281000D03*
X140208000Y-93980000D03*
X140335000Y-92329000D03*
X137033000Y-96393000D03*
X138430000Y-94869000D03*
X136398000Y-97536000D03*
X128016000Y-95123000D03*
X123952000Y-100076000D03*
X149352000Y-81153000D03*
X127000000Y-73660000D03*
X149098000Y-76200000D03*
X158369000Y-109220000D03*
X160147000Y-70231000D03*
X131064000Y-73914000D03*
X124460000Y-74168000D03*
X128524000Y-75946000D03*
X123571000Y-104521000D03*
X126365000Y-104902000D03*
X133858000Y-104775000D03*
X150749000Y-98552000D03*
X154559000Y-96266000D03*
X153543000Y-105537000D03*
X147701000Y-105918000D03*
X145923000Y-97790000D03*
X139319000Y-98425000D03*
X138176000Y-91948000D03*
X135509000Y-94234000D03*
X132080000Y-97917000D03*
X131953000Y-92202000D03*
X159639000Y-111252000D03*
X156464000Y-111506000D03*
X162052000Y-82169000D03*
X153416000Y-75692000D03*
X155321000Y-80772000D03*
X144526000Y-75438000D03*
X157734000Y-98044000D03*
X128905000Y-82423000D03*
X141351000Y-83947000D03*
X141986000Y-87630000D03*
X141478000Y-85725000D03*
X160782000Y-107950000D03*
X159131000Y-106045000D03*
X175514000Y-104394000D03*
X179578000Y-109982000D03*
X185166000Y-111506000D03*
X155575000Y-94488000D03*
X178562000Y-103759000D03*
X152654000Y-68072000D03*
X153416000Y-70358000D03*
X183642000Y-68834000D03*
X179070000Y-68326000D03*
X167894000Y-68580000D03*
X162814000Y-68072000D03*
X173736000Y-68326000D03*
G04 #@! TO.N,Net-(C1-Pad1)*
X166395248Y-93977648D03*
G04 #@! TO.N,Net-(C3-Pad1)*
X148478000Y-86994972D03*
G04 #@! TO.N,+3V3*
X169232160Y-93149840D03*
X160655000Y-90169980D03*
X172466000Y-83439000D03*
X157734000Y-90170000D03*
X137873486Y-86609976D03*
X170053006Y-99060000D03*
X167005012Y-99060000D03*
X140462000Y-101219000D03*
X144653000Y-101219000D03*
X135001000Y-78486000D03*
X131445000Y-78613030D03*
X152654000Y-81660964D03*
X131953000Y-86487000D03*
X131826000Y-89027000D03*
G04 #@! TO.N,+5V*
X130556000Y-86487000D03*
X130556000Y-88773000D03*
G04 #@! TO.N,ICE40_NRST*
X152796000Y-87122000D03*
X167005000Y-78232000D03*
X157590459Y-75852653D03*
X152781000Y-88773000D03*
G04 #@! TO.N,+1V2*
X167385648Y-94115967D03*
X168960800Y-82245200D03*
X165354000Y-101092000D03*
G04 #@! TO.N,BOOT0*
X142240000Y-105664000D03*
X143764000Y-105664000D03*
G04 #@! TO.N,ICE40_CDONE*
X168147988Y-78232000D03*
X156591000Y-75818968D03*
X153670000Y-87985000D03*
X153670000Y-86360000D03*
G04 #@! TO.N,FLASH_CS*
X142382000Y-81788000D03*
X142382000Y-77660500D03*
G04 #@! TO.N,ICE40_MISO*
X159131000Y-84455000D03*
X161671000Y-84536879D03*
G04 #@! TO.N,FLASH_MISO*
X141366000Y-80962500D03*
X141366000Y-78867000D03*
G04 #@! TO.N,RGB2*
X175387000Y-99187000D03*
X175807516Y-89002340D03*
G04 #@! TO.N,RGB1*
X176657000Y-90043000D03*
X176530000Y-99186992D03*
G04 #@! TO.N,RGB0*
X177546000Y-90932000D03*
X177546000Y-100076000D03*
G04 #@! TO.N,P25*
X179451000Y-107696000D03*
X181864000Y-107950000D03*
G04 #@! TO.N,ICE40_SCK*
X159131000Y-85471000D03*
X161671000Y-85725000D03*
G04 #@! TO.N,SWDIO*
X144907000Y-103759000D03*
X142113000Y-103759000D03*
G04 #@! TO.N,SWCLK*
X144907000Y-102362000D03*
X141224000Y-102362000D03*
G04 #@! TD*
D15*
G04 #@! TO.N,Net-(C1-Pad1)*
X166448500Y-95504000D02*
X166395248Y-95450748D01*
D16*
X166395248Y-93977648D02*
X166395248Y-95450748D01*
X166448500Y-95504000D02*
X164767500Y-95504000D01*
X164767500Y-97536000D02*
X164767500Y-95504000D01*
D15*
G04 #@! TO.N,Net-(C3-Pad1)*
X150637000Y-85138500D02*
X148541500Y-85138500D01*
X148526500Y-85153500D02*
X148541500Y-85138500D01*
X150637000Y-85138500D02*
X152796000Y-85138500D01*
X148478000Y-85202000D02*
X148478000Y-86994972D01*
X148541500Y-85138500D02*
X148478000Y-85202000D01*
G04 #@! TO.N,+3V3*
X160472001Y-89986981D02*
X160655000Y-90169980D01*
D16*
X170004500Y-93922180D02*
X169232160Y-93149840D01*
X170004500Y-95504000D02*
X170004500Y-93922180D01*
D17*
X157734020Y-90169980D02*
X157734000Y-90170000D01*
D16*
X173228000Y-84201000D02*
X172466000Y-83439000D01*
X173228000Y-85549500D02*
X173228000Y-84201000D01*
D17*
X133936500Y-86629000D02*
X136222500Y-86629000D01*
X136241524Y-86609976D02*
X136222500Y-86629000D01*
X137873486Y-86609976D02*
X136241524Y-86609976D01*
D18*
X160655000Y-90169980D02*
X157734020Y-90169980D01*
X160654980Y-90170000D02*
X160655000Y-90169980D01*
X159415000Y-95504000D02*
X159415000Y-90200000D01*
X159385000Y-90170000D02*
X160654980Y-90170000D01*
X159415000Y-90200000D02*
X159385000Y-90170000D01*
X159893000Y-99060000D02*
X167005012Y-99060000D01*
X159415000Y-95504000D02*
X159415000Y-98582000D01*
X159415000Y-98582000D02*
X159893000Y-99060000D01*
D16*
X170942000Y-101092000D02*
X170053000Y-100203000D01*
X178308000Y-101092000D02*
X170942000Y-101092000D01*
X178746989Y-84004989D02*
X178746989Y-100653011D01*
X172466000Y-83439000D02*
X178181000Y-83439000D01*
X178746989Y-100653011D02*
X178308000Y-101092000D01*
X178181000Y-83439000D02*
X178746989Y-84004989D01*
X170053000Y-100203000D02*
X170053000Y-95552500D01*
X170053000Y-95552500D02*
X170004500Y-95504000D01*
D18*
X140462000Y-101219000D02*
X144653000Y-101219000D01*
X131572030Y-78486000D02*
X131445000Y-78613030D01*
X135001000Y-78486000D02*
X131572030Y-78486000D01*
X152732500Y-81739464D02*
X152654000Y-81660964D01*
X152732500Y-83263500D02*
X152732500Y-81739464D01*
X131953000Y-86360000D02*
X131953000Y-86487000D01*
D15*
X132095000Y-86629000D02*
X131953000Y-86487000D01*
X133936500Y-86629000D02*
X132095000Y-86629000D01*
D18*
X131826000Y-86614000D02*
X131953000Y-86487000D01*
X131826000Y-89027000D02*
X131826000Y-86614000D01*
D19*
G04 #@! TO.N,+5V*
X130556000Y-86487000D02*
X130556000Y-88773000D01*
D15*
G04 #@! TO.N,ICE40_NRST*
X152796000Y-87376000D02*
X152796000Y-87122000D01*
X166802173Y-78434827D02*
X167005000Y-78232000D01*
X157624112Y-75819000D02*
X157590459Y-75852653D01*
X166624000Y-75819000D02*
X157624112Y-75819000D01*
X167005000Y-78232000D02*
X167005000Y-76200000D01*
X167005000Y-76200000D02*
X166624000Y-75819000D01*
X152796000Y-87122000D02*
X152796000Y-88758000D01*
X152796000Y-88758000D02*
X152781000Y-88773000D01*
G04 #@! TO.N,+1V2*
X168323500Y-95870000D02*
X168323500Y-95504000D01*
X168960800Y-82194400D02*
X168960800Y-82245200D01*
X168960800Y-82245200D02*
X169164000Y-82042000D01*
D16*
X168323500Y-95504000D02*
X168323500Y-94282500D01*
X168156967Y-94115967D02*
X167385648Y-94115967D01*
X168323500Y-94282500D02*
X168156967Y-94115967D01*
X166801800Y-82245200D02*
X168960800Y-82245200D01*
X166497000Y-82550000D02*
X166801800Y-82245200D01*
X168323500Y-95504000D02*
X168275000Y-95552500D01*
X180086000Y-83185000D02*
X180086000Y-101346000D01*
X180086000Y-101346000D02*
X179324000Y-102108000D01*
X168960800Y-82245200D02*
X179146200Y-82245200D01*
X179146200Y-82245200D02*
X180086000Y-83185000D01*
X179324000Y-102108000D02*
X171069000Y-102108000D01*
X171069000Y-102108000D02*
X170688000Y-102108000D01*
D18*
X171069000Y-102108000D02*
X168910000Y-102108000D01*
X168910000Y-102108000D02*
X168323500Y-101521500D01*
X167894000Y-101092000D02*
X168323500Y-101521500D01*
X165354000Y-101092000D02*
X167894000Y-101092000D01*
X168275000Y-101473000D02*
X168275000Y-95552500D01*
X168323500Y-101521500D02*
X168275000Y-101473000D01*
D15*
G04 #@! TO.N,BOOT0*
X142240000Y-105664000D02*
X143764000Y-105664000D01*
G04 #@! TO.N,ICE40_CDONE*
X156591000Y-75311000D02*
X156591000Y-75818968D01*
X156845000Y-75057000D02*
X156591000Y-75311000D01*
X167386000Y-75057000D02*
X156845000Y-75057000D01*
X168147988Y-78232000D02*
X168147988Y-75818988D01*
X168147988Y-75818988D02*
X167386000Y-75057000D01*
X153670000Y-87985000D02*
X153670000Y-86360000D01*
G04 #@! TO.N,FLASH_CS*
X142382000Y-81788000D02*
X142382000Y-77660500D01*
G04 #@! TO.N,ICE40_MISO*
X161668610Y-84534489D02*
X161671000Y-84536879D01*
X159210489Y-84534489D02*
X161668610Y-84534489D01*
X159131000Y-84455000D02*
X159210489Y-84534489D01*
G04 #@! TO.N,FLASH_MISO*
X141366000Y-80962500D02*
X141366000Y-78867000D01*
G04 #@! TO.N,RGB2*
X175768000Y-89041856D02*
X175768000Y-98806000D01*
X175807516Y-89002340D02*
X175768000Y-89041856D01*
X175768000Y-98806000D02*
X175387000Y-99187000D01*
G04 #@! TO.N,RGB1*
X176657000Y-90043000D02*
X176530000Y-90170000D01*
X176530000Y-90170000D02*
X176530000Y-99186992D01*
G04 #@! TO.N,RGB0*
X177546000Y-90932000D02*
X177292000Y-91186000D01*
X177292000Y-91186000D02*
X177292000Y-99822000D01*
X177292000Y-99822000D02*
X177546000Y-100076000D01*
G04 #@! TO.N,P25*
X179451000Y-107696000D02*
X181610000Y-107696000D01*
X181610000Y-107696000D02*
X181864000Y-107950000D01*
G04 #@! TO.N,ICE40_SCK*
X159131000Y-85471000D02*
X159385000Y-85725000D01*
X159385000Y-85725000D02*
X161671000Y-85725000D01*
G04 #@! TO.N,SWDIO*
X144907000Y-103759000D02*
X142113000Y-103759000D01*
G04 #@! TO.N,SWCLK*
X144907000Y-102362000D02*
X141224000Y-102362000D01*
G04 #@! TD*
D20*
G04 #@! TO.N,GND*
G36*
X196033698Y-65542958D02*
X196458893Y-65711305D01*
X196828858Y-65980101D01*
X197120356Y-66332462D01*
X197315067Y-66746244D01*
X197407093Y-67228662D01*
X197410000Y-67321164D01*
X197410001Y-110445326D01*
X197347042Y-110943699D01*
X197178697Y-111368889D01*
X196909899Y-111738859D01*
X196557541Y-112030355D01*
X196143756Y-112225067D01*
X195661339Y-112317093D01*
X195568836Y-112320000D01*
X123884667Y-112320000D01*
X123386301Y-112257042D01*
X122961111Y-112088697D01*
X122591141Y-111819899D01*
X122299645Y-111467541D01*
X122104933Y-111053756D01*
X122012907Y-110571339D01*
X122010000Y-110478836D01*
X122010000Y-108370000D01*
X140996560Y-108370000D01*
X140996560Y-110070000D01*
X141045843Y-110317765D01*
X141186191Y-110527809D01*
X141396235Y-110668157D01*
X141644000Y-110717440D01*
X143344000Y-110717440D01*
X143591765Y-110668157D01*
X143801809Y-110527809D01*
X143942157Y-110317765D01*
X143951184Y-110272381D01*
X143963375Y-110290625D01*
X144454582Y-110618839D01*
X144887744Y-110705000D01*
X145180256Y-110705000D01*
X145613418Y-110618839D01*
X146104625Y-110290625D01*
X146317843Y-109971522D01*
X146378817Y-110101358D01*
X146807076Y-110491645D01*
X147217110Y-110661476D01*
X147447000Y-110540155D01*
X147447000Y-109347000D01*
X147427000Y-109347000D01*
X147427000Y-109093000D01*
X147447000Y-109093000D01*
X147447000Y-107899845D01*
X147701000Y-107899845D01*
X147701000Y-109093000D01*
X147721000Y-109093000D01*
X147721000Y-109347000D01*
X147701000Y-109347000D01*
X147701000Y-110540155D01*
X147930890Y-110661476D01*
X148340924Y-110491645D01*
X148769183Y-110101358D01*
X148830157Y-109971522D01*
X149043375Y-110290625D01*
X149534582Y-110618839D01*
X149967744Y-110705000D01*
X150260256Y-110705000D01*
X150693418Y-110618839D01*
X151184625Y-110290625D01*
X151384000Y-109992239D01*
X151583375Y-110290625D01*
X152074582Y-110618839D01*
X152507744Y-110705000D01*
X152800256Y-110705000D01*
X153233418Y-110618839D01*
X153724625Y-110290625D01*
X154052839Y-109799418D01*
X154168092Y-109220000D01*
X154052839Y-108640582D01*
X153724625Y-108149375D01*
X153233418Y-107821161D01*
X152800256Y-107735000D01*
X152507744Y-107735000D01*
X152074582Y-107821161D01*
X151583375Y-108149375D01*
X151384000Y-108447761D01*
X151184625Y-108149375D01*
X150693418Y-107821161D01*
X150260256Y-107735000D01*
X149967744Y-107735000D01*
X149534582Y-107821161D01*
X149043375Y-108149375D01*
X148830157Y-108468478D01*
X148769183Y-108338642D01*
X148340924Y-107948355D01*
X147930890Y-107778524D01*
X147701000Y-107899845D01*
X147447000Y-107899845D01*
X147217110Y-107778524D01*
X146807076Y-107948355D01*
X146378817Y-108338642D01*
X146317843Y-108468478D01*
X146104625Y-108149375D01*
X145613418Y-107821161D01*
X145180256Y-107735000D01*
X144887744Y-107735000D01*
X144454582Y-107821161D01*
X143963375Y-108149375D01*
X143951184Y-108167619D01*
X143942157Y-108122235D01*
X143801809Y-107912191D01*
X143591765Y-107771843D01*
X143344000Y-107722560D01*
X141644000Y-107722560D01*
X141396235Y-107771843D01*
X141186191Y-107912191D01*
X141045843Y-108122235D01*
X140996560Y-108370000D01*
X122010000Y-108370000D01*
X122010000Y-107490126D01*
X178416000Y-107490126D01*
X178416000Y-107901874D01*
X178573569Y-108282280D01*
X178864720Y-108573431D01*
X179245126Y-108731000D01*
X179656874Y-108731000D01*
X180037280Y-108573431D01*
X180154711Y-108456000D01*
X180953316Y-108456000D01*
X180986569Y-108536280D01*
X181277720Y-108827431D01*
X181658126Y-108985000D01*
X182069874Y-108985000D01*
X182450280Y-108827431D01*
X182741431Y-108536280D01*
X182899000Y-108155874D01*
X182899000Y-107744126D01*
X182741431Y-107363720D01*
X182450280Y-107072569D01*
X182069874Y-106915000D01*
X181658126Y-106915000D01*
X181632544Y-106925596D01*
X181610000Y-106921112D01*
X181535153Y-106936000D01*
X180154711Y-106936000D01*
X180037280Y-106818569D01*
X179656874Y-106661000D01*
X179245126Y-106661000D01*
X178864720Y-106818569D01*
X178573569Y-107109720D01*
X178416000Y-107490126D01*
X122010000Y-107490126D01*
X122010000Y-101013126D01*
X139427000Y-101013126D01*
X139427000Y-101424874D01*
X139584569Y-101805280D01*
X139875720Y-102096431D01*
X140189000Y-102226196D01*
X140189000Y-102567874D01*
X140346569Y-102948280D01*
X140637720Y-103239431D01*
X141018126Y-103397000D01*
X141142669Y-103397000D01*
X141078000Y-103553126D01*
X141078000Y-103964874D01*
X141235569Y-104345280D01*
X141526720Y-104636431D01*
X141771453Y-104737803D01*
X141653720Y-104786569D01*
X141362569Y-105077720D01*
X141205000Y-105458126D01*
X141205000Y-105869874D01*
X141362569Y-106250280D01*
X141653720Y-106541431D01*
X142034126Y-106699000D01*
X142445874Y-106699000D01*
X142826280Y-106541431D01*
X142943711Y-106424000D01*
X143060289Y-106424000D01*
X143177720Y-106541431D01*
X143558126Y-106699000D01*
X143969874Y-106699000D01*
X144350280Y-106541431D01*
X144641431Y-106250280D01*
X144799000Y-105869874D01*
X144799000Y-105458126D01*
X144641431Y-105077720D01*
X144350280Y-104786569D01*
X143969874Y-104629000D01*
X143558126Y-104629000D01*
X143177720Y-104786569D01*
X143060289Y-104904000D01*
X142943711Y-104904000D01*
X142826280Y-104786569D01*
X142581547Y-104685197D01*
X142699280Y-104636431D01*
X142816711Y-104519000D01*
X144203289Y-104519000D01*
X144320720Y-104636431D01*
X144701126Y-104794000D01*
X145112874Y-104794000D01*
X145493280Y-104636431D01*
X145784431Y-104345280D01*
X145942000Y-103964874D01*
X145942000Y-103553126D01*
X145784431Y-103172720D01*
X145672211Y-103060500D01*
X145784431Y-102948280D01*
X145942000Y-102567874D01*
X145942000Y-102156126D01*
X145784431Y-101775720D01*
X145613484Y-101604773D01*
X145688000Y-101424874D01*
X145688000Y-101013126D01*
X145530431Y-100632720D01*
X145239280Y-100341569D01*
X144858874Y-100184000D01*
X144447126Y-100184000D01*
X144084993Y-100334000D01*
X141030007Y-100334000D01*
X140667874Y-100184000D01*
X140256126Y-100184000D01*
X139875720Y-100341569D01*
X139584569Y-100632720D01*
X139427000Y-101013126D01*
X122010000Y-101013126D01*
X122010000Y-86281126D01*
X129521000Y-86281126D01*
X129521000Y-86692874D01*
X129546000Y-86753230D01*
X129546001Y-88506768D01*
X129521000Y-88567126D01*
X129521000Y-88978874D01*
X129678569Y-89359280D01*
X129969720Y-89650431D01*
X130350126Y-89808000D01*
X130761874Y-89808000D01*
X131031575Y-89696286D01*
X131239720Y-89904431D01*
X131620126Y-90062000D01*
X132031874Y-90062000D01*
X132268163Y-89964126D01*
X156699000Y-89964126D01*
X156699000Y-90375874D01*
X156856569Y-90756280D01*
X157147720Y-91047431D01*
X157528126Y-91205000D01*
X157939874Y-91205000D01*
X158302055Y-91054980D01*
X158530001Y-91054980D01*
X158530000Y-94434172D01*
X158347898Y-94706706D01*
X158280060Y-95047750D01*
X158280060Y-95960250D01*
X158347898Y-96301294D01*
X158530000Y-96573828D01*
X158530001Y-98494835D01*
X158512663Y-98582000D01*
X158581348Y-98927309D01*
X158727576Y-99146154D01*
X158727578Y-99146156D01*
X158776952Y-99220049D01*
X158850845Y-99269423D01*
X159205575Y-99624153D01*
X159254951Y-99698049D01*
X159547690Y-99893652D01*
X159805835Y-99945000D01*
X159805840Y-99945000D01*
X159892999Y-99962337D01*
X159980159Y-99945000D01*
X166437005Y-99945000D01*
X166799138Y-100095000D01*
X167210886Y-100095000D01*
X167390000Y-100020809D01*
X167390000Y-100207000D01*
X165922007Y-100207000D01*
X165559874Y-100057000D01*
X165148126Y-100057000D01*
X164767720Y-100214569D01*
X164476569Y-100505720D01*
X164319000Y-100886126D01*
X164319000Y-101297874D01*
X164476569Y-101678280D01*
X164767720Y-101969431D01*
X165148126Y-102127000D01*
X165559874Y-102127000D01*
X165922007Y-101977000D01*
X167527422Y-101977000D01*
X167587576Y-102037154D01*
X167636951Y-102111049D01*
X167710847Y-102160425D01*
X168222577Y-102672156D01*
X168271951Y-102746049D01*
X168345844Y-102795423D01*
X168345845Y-102795424D01*
X168348168Y-102796976D01*
X168564690Y-102941652D01*
X168822835Y-102993000D01*
X168822839Y-102993000D01*
X168909999Y-103010337D01*
X168997159Y-102993000D01*
X170590585Y-102993000D01*
X170600640Y-102995000D01*
X179236644Y-102995000D01*
X179324000Y-103012376D01*
X179411356Y-102995000D01*
X179411360Y-102995000D01*
X179670090Y-102943535D01*
X179963491Y-102747491D01*
X180012978Y-102673428D01*
X180651430Y-102034977D01*
X180725491Y-101985491D01*
X180921535Y-101692090D01*
X180973000Y-101433360D01*
X180990377Y-101346000D01*
X180973000Y-101258640D01*
X180973000Y-83272356D01*
X180990376Y-83185000D01*
X180973000Y-83097644D01*
X180973000Y-83097640D01*
X180921535Y-82838910D01*
X180725491Y-82545509D01*
X180651430Y-82496024D01*
X179835179Y-81679772D01*
X179785691Y-81605709D01*
X179492290Y-81409665D01*
X179233560Y-81358200D01*
X179233556Y-81358200D01*
X179146200Y-81340824D01*
X179058844Y-81358200D01*
X169523978Y-81358200D01*
X169483473Y-81341422D01*
X169460537Y-81326097D01*
X169433483Y-81320716D01*
X169166674Y-81210200D01*
X168754926Y-81210200D01*
X168397622Y-81358200D01*
X167306859Y-81358200D01*
X167292416Y-81336584D01*
X167003294Y-81143398D01*
X166662250Y-81075560D01*
X166174750Y-81075560D01*
X165833706Y-81143398D01*
X165544584Y-81336584D01*
X165543793Y-81337767D01*
X165390698Y-81184673D01*
X165157309Y-81088000D01*
X164829250Y-81088000D01*
X164670500Y-81246750D01*
X164670500Y-82296000D01*
X164690500Y-82296000D01*
X164690500Y-82550000D01*
X164670500Y-82550000D01*
X164670500Y-83599250D01*
X164829250Y-83758000D01*
X165157309Y-83758000D01*
X165390698Y-83661327D01*
X165543793Y-83508233D01*
X165544584Y-83509416D01*
X165833706Y-83702602D01*
X166174750Y-83770440D01*
X166662250Y-83770440D01*
X167003294Y-83702602D01*
X167292416Y-83509416D01*
X167485602Y-83220294D01*
X167503125Y-83132200D01*
X168397622Y-83132200D01*
X168754926Y-83280200D01*
X169166674Y-83280200D01*
X169523978Y-83132200D01*
X171472805Y-83132200D01*
X171431000Y-83233126D01*
X171431000Y-83644874D01*
X171588569Y-84025280D01*
X171879720Y-84316431D01*
X172237025Y-84464431D01*
X172325373Y-84552780D01*
X172141584Y-84675584D01*
X171948398Y-84964706D01*
X171880560Y-85305750D01*
X171880560Y-85793250D01*
X171948398Y-86134294D01*
X172141584Y-86423416D01*
X172142767Y-86424207D01*
X171989673Y-86577302D01*
X171893000Y-86810691D01*
X171893000Y-87138750D01*
X172051750Y-87297500D01*
X173101000Y-87297500D01*
X173101000Y-87277500D01*
X173355000Y-87277500D01*
X173355000Y-87297500D01*
X174404250Y-87297500D01*
X174563000Y-87138750D01*
X174563000Y-86810691D01*
X174466327Y-86577302D01*
X174313233Y-86424207D01*
X174314416Y-86423416D01*
X174507602Y-86134294D01*
X174575440Y-85793250D01*
X174575440Y-85305750D01*
X174507602Y-84964706D01*
X174314416Y-84675584D01*
X174115000Y-84542338D01*
X174115000Y-84326000D01*
X177813593Y-84326000D01*
X177859989Y-84372396D01*
X177859989Y-89941783D01*
X177751874Y-89897000D01*
X177692000Y-89897000D01*
X177692000Y-89837126D01*
X177534431Y-89456720D01*
X177243280Y-89165569D01*
X176862874Y-89008000D01*
X176842516Y-89008000D01*
X176842516Y-88796466D01*
X176684947Y-88416060D01*
X176393796Y-88124909D01*
X176013390Y-87967340D01*
X175601642Y-87967340D01*
X175221236Y-88124909D01*
X174930085Y-88416060D01*
X174772516Y-88796466D01*
X174772516Y-89208214D01*
X174930085Y-89588620D01*
X175008000Y-89666535D01*
X175008001Y-98223711D01*
X174800720Y-98309569D01*
X174509569Y-98600720D01*
X174352000Y-98981126D01*
X174352000Y-99392874D01*
X174509569Y-99773280D01*
X174800720Y-100064431D01*
X175140084Y-100205000D01*
X171309407Y-100205000D01*
X170940000Y-99835594D01*
X170940000Y-99623193D01*
X171088006Y-99265874D01*
X171088006Y-98854126D01*
X170940000Y-98496807D01*
X170940000Y-96650026D01*
X171032302Y-96742327D01*
X171265691Y-96839000D01*
X171593750Y-96839000D01*
X171752500Y-96680250D01*
X171752500Y-95631000D01*
X172006500Y-95631000D01*
X172006500Y-96680250D01*
X172165250Y-96839000D01*
X172493309Y-96839000D01*
X172726698Y-96742327D01*
X172905327Y-96563699D01*
X173002000Y-96330310D01*
X173002000Y-95789750D01*
X172843250Y-95631000D01*
X172006500Y-95631000D01*
X171752500Y-95631000D01*
X171732500Y-95631000D01*
X171732500Y-95377000D01*
X171752500Y-95377000D01*
X171752500Y-94327750D01*
X172006500Y-94327750D01*
X172006500Y-95377000D01*
X172843250Y-95377000D01*
X173002000Y-95218250D01*
X173002000Y-94677690D01*
X172905327Y-94444301D01*
X172726698Y-94265673D01*
X172493309Y-94169000D01*
X172165250Y-94169000D01*
X172006500Y-94327750D01*
X171752500Y-94327750D01*
X171593750Y-94169000D01*
X171265691Y-94169000D01*
X171032302Y-94265673D01*
X170891500Y-94406474D01*
X170891500Y-94009540D01*
X170908877Y-93922180D01*
X170840035Y-93576090D01*
X170773475Y-93476476D01*
X170643991Y-93282689D01*
X170569930Y-93233203D01*
X170257591Y-92920865D01*
X170109591Y-92563560D01*
X169818440Y-92272409D01*
X169438034Y-92114840D01*
X169026286Y-92114840D01*
X168645880Y-92272409D01*
X168354729Y-92563560D01*
X168197160Y-92943966D01*
X168197160Y-93219586D01*
X168156967Y-93211591D01*
X168069611Y-93228967D01*
X167948826Y-93228967D01*
X167591522Y-93080967D01*
X167179774Y-93080967D01*
X167025981Y-93144670D01*
X166981528Y-93100217D01*
X166601122Y-92942648D01*
X166189374Y-92942648D01*
X165808968Y-93100217D01*
X165517817Y-93391368D01*
X165360248Y-93771774D01*
X165360248Y-94183522D01*
X165386703Y-94247389D01*
X165352294Y-94224398D01*
X165011250Y-94156560D01*
X164523750Y-94156560D01*
X164182706Y-94224398D01*
X163893584Y-94417584D01*
X163892793Y-94418767D01*
X163739698Y-94265673D01*
X163506309Y-94169000D01*
X163178250Y-94169000D01*
X163019500Y-94327750D01*
X163019500Y-95377000D01*
X163039500Y-95377000D01*
X163039500Y-95631000D01*
X163019500Y-95631000D01*
X163019500Y-97409000D01*
X163039500Y-97409000D01*
X163039500Y-97663000D01*
X163019500Y-97663000D01*
X163019500Y-97683000D01*
X162765500Y-97683000D01*
X162765500Y-97663000D01*
X161928750Y-97663000D01*
X161770000Y-97821750D01*
X161770000Y-98175000D01*
X160300000Y-98175000D01*
X160300000Y-96599526D01*
X160442802Y-96742327D01*
X160676191Y-96839000D01*
X161004250Y-96839000D01*
X161163000Y-96680250D01*
X161163000Y-95631000D01*
X161417000Y-95631000D01*
X161417000Y-96680250D01*
X161575750Y-96839000D01*
X161770000Y-96839000D01*
X161770000Y-97250250D01*
X161928750Y-97409000D01*
X162765500Y-97409000D01*
X162765500Y-95631000D01*
X161417000Y-95631000D01*
X161163000Y-95631000D01*
X161143000Y-95631000D01*
X161143000Y-95377000D01*
X161163000Y-95377000D01*
X161163000Y-94327750D01*
X161417000Y-94327750D01*
X161417000Y-95377000D01*
X162765500Y-95377000D01*
X162765500Y-94327750D01*
X162606750Y-94169000D01*
X162278691Y-94169000D01*
X162091250Y-94246641D01*
X161903809Y-94169000D01*
X161575750Y-94169000D01*
X161417000Y-94327750D01*
X161163000Y-94327750D01*
X161004250Y-94169000D01*
X160676191Y-94169000D01*
X160442802Y-94265673D01*
X160300000Y-94408474D01*
X160300000Y-91143210D01*
X160449126Y-91204980D01*
X160860874Y-91204980D01*
X161241280Y-91047411D01*
X161532431Y-90756260D01*
X161690000Y-90375854D01*
X161690000Y-89964106D01*
X161532431Y-89583700D01*
X161241280Y-89292549D01*
X160860874Y-89134980D01*
X160449126Y-89134980D01*
X160086993Y-89284980D01*
X159472060Y-89284980D01*
X159385000Y-89267663D01*
X159297940Y-89284980D01*
X158301958Y-89284980D01*
X157939874Y-89135000D01*
X157528126Y-89135000D01*
X157147720Y-89292569D01*
X156856569Y-89583720D01*
X156699000Y-89964126D01*
X132268163Y-89964126D01*
X132412280Y-89904431D01*
X132703431Y-89613280D01*
X132778653Y-89431678D01*
X132876801Y-89529827D01*
X133110190Y-89626500D01*
X133650750Y-89626500D01*
X133809500Y-89467750D01*
X133809500Y-88631000D01*
X134063500Y-88631000D01*
X134063500Y-89467750D01*
X134222250Y-89626500D01*
X134762810Y-89626500D01*
X134996199Y-89529827D01*
X135079500Y-89446526D01*
X135162801Y-89529827D01*
X135396190Y-89626500D01*
X135936750Y-89626500D01*
X136095500Y-89467750D01*
X136095500Y-88631000D01*
X136349500Y-88631000D01*
X136349500Y-89467750D01*
X136508250Y-89626500D01*
X137048810Y-89626500D01*
X137282199Y-89529827D01*
X137460827Y-89351198D01*
X137557500Y-89117809D01*
X137557500Y-88789750D01*
X137398750Y-88631000D01*
X136349500Y-88631000D01*
X136095500Y-88631000D01*
X134063500Y-88631000D01*
X133809500Y-88631000D01*
X133789500Y-88631000D01*
X133789500Y-88377000D01*
X133809500Y-88377000D01*
X133809500Y-88357000D01*
X134063500Y-88357000D01*
X134063500Y-88377000D01*
X136095500Y-88377000D01*
X136095500Y-88357000D01*
X136349500Y-88357000D01*
X136349500Y-88377000D01*
X137398750Y-88377000D01*
X137557500Y-88218250D01*
X137557500Y-87890191D01*
X137460827Y-87656802D01*
X137307733Y-87503707D01*
X137308916Y-87502916D01*
X137312326Y-87497812D01*
X137667612Y-87644976D01*
X138079360Y-87644976D01*
X138459766Y-87487407D01*
X138750917Y-87196256D01*
X138908486Y-86815850D01*
X138908486Y-86404102D01*
X138750917Y-86023696D01*
X138459766Y-85732545D01*
X138079360Y-85574976D01*
X137667612Y-85574976D01*
X137287206Y-85732545D01*
X137282391Y-85737360D01*
X137019794Y-85561898D01*
X136678750Y-85494060D01*
X135766250Y-85494060D01*
X135425206Y-85561898D01*
X135136084Y-85755084D01*
X135110883Y-85792800D01*
X135048117Y-85792800D01*
X135022916Y-85755084D01*
X134733794Y-85561898D01*
X134392750Y-85494060D01*
X133480250Y-85494060D01*
X133139206Y-85561898D01*
X132850084Y-85755084D01*
X132783878Y-85854167D01*
X132539280Y-85609569D01*
X132158874Y-85452000D01*
X131747126Y-85452000D01*
X131366720Y-85609569D01*
X131254500Y-85721789D01*
X131142280Y-85609569D01*
X130761874Y-85452000D01*
X130350126Y-85452000D01*
X129969720Y-85609569D01*
X129678569Y-85900720D01*
X129521000Y-86281126D01*
X122010000Y-86281126D01*
X122010000Y-84894750D01*
X147194060Y-84894750D01*
X147194060Y-85382250D01*
X147261898Y-85723294D01*
X147455084Y-86012416D01*
X147718001Y-86188092D01*
X147718001Y-86291260D01*
X147600569Y-86408692D01*
X147443000Y-86789098D01*
X147443000Y-87200846D01*
X147600569Y-87581252D01*
X147891720Y-87872403D01*
X148272126Y-88029972D01*
X148683874Y-88029972D01*
X149064280Y-87872403D01*
X149355431Y-87581252D01*
X149513000Y-87200846D01*
X149513000Y-86789098D01*
X149355431Y-86408692D01*
X149238000Y-86291261D01*
X149238000Y-86225651D01*
X149338794Y-86205602D01*
X149589250Y-86038252D01*
X149839706Y-86205602D01*
X150180750Y-86273440D01*
X151093250Y-86273440D01*
X151434294Y-86205602D01*
X151684750Y-86038252D01*
X151935206Y-86205602D01*
X152196677Y-86257612D01*
X151918569Y-86535720D01*
X151761000Y-86916126D01*
X151761000Y-87327874D01*
X151918569Y-87708280D01*
X152036000Y-87825711D01*
X152036001Y-88054288D01*
X151903569Y-88186720D01*
X151746000Y-88567126D01*
X151746000Y-88978874D01*
X151903569Y-89359280D01*
X152194720Y-89650431D01*
X152575126Y-89808000D01*
X152986874Y-89808000D01*
X153367280Y-89650431D01*
X153658431Y-89359280D01*
X153798965Y-89020000D01*
X153875874Y-89020000D01*
X154256280Y-88862431D01*
X154547431Y-88571280D01*
X154705000Y-88190874D01*
X154705000Y-87779126D01*
X154676471Y-87710250D01*
X171893000Y-87710250D01*
X171893000Y-88038309D01*
X171989673Y-88271698D01*
X172168301Y-88450327D01*
X172401690Y-88547000D01*
X172942250Y-88547000D01*
X173101000Y-88388250D01*
X173101000Y-87551500D01*
X173355000Y-87551500D01*
X173355000Y-88388250D01*
X173513750Y-88547000D01*
X174054310Y-88547000D01*
X174287699Y-88450327D01*
X174466327Y-88271698D01*
X174563000Y-88038309D01*
X174563000Y-87710250D01*
X174404250Y-87551500D01*
X173355000Y-87551500D01*
X173101000Y-87551500D01*
X172051750Y-87551500D01*
X171893000Y-87710250D01*
X154676471Y-87710250D01*
X154547431Y-87398720D01*
X154430000Y-87281289D01*
X154430000Y-87063711D01*
X154547431Y-86946280D01*
X154705000Y-86565874D01*
X154705000Y-86154126D01*
X154547431Y-85773720D01*
X154256280Y-85482569D01*
X154074927Y-85407450D01*
X154079940Y-85382250D01*
X154079940Y-84894750D01*
X154012102Y-84553706D01*
X153818916Y-84264584D01*
X153795782Y-84249126D01*
X158096000Y-84249126D01*
X158096000Y-84660874D01*
X158221144Y-84963000D01*
X158096000Y-85265126D01*
X158096000Y-85676874D01*
X158253569Y-86057280D01*
X158544720Y-86348431D01*
X158925126Y-86506000D01*
X159336874Y-86506000D01*
X159362456Y-86495404D01*
X159384999Y-86499888D01*
X159459846Y-86485000D01*
X160967289Y-86485000D01*
X161084720Y-86602431D01*
X161465126Y-86760000D01*
X161876874Y-86760000D01*
X162257280Y-86602431D01*
X162548431Y-86311280D01*
X162706000Y-85930874D01*
X162706000Y-85519126D01*
X162548431Y-85138720D01*
X162540651Y-85130940D01*
X162548431Y-85123159D01*
X162706000Y-84742753D01*
X162706000Y-84331005D01*
X162548431Y-83950599D01*
X162257280Y-83659448D01*
X161876874Y-83501879D01*
X161465126Y-83501879D01*
X161084720Y-83659448D01*
X160969679Y-83774489D01*
X159914200Y-83774489D01*
X159717280Y-83577569D01*
X159336874Y-83420000D01*
X158925126Y-83420000D01*
X158544720Y-83577569D01*
X158253569Y-83868720D01*
X158096000Y-84249126D01*
X153795782Y-84249126D01*
X153723756Y-84201000D01*
X153818916Y-84137416D01*
X154012102Y-83848294D01*
X154079940Y-83507250D01*
X154079940Y-83019750D01*
X154018079Y-82708750D01*
X163421000Y-82708750D01*
X163421000Y-83249310D01*
X163517673Y-83482699D01*
X163696302Y-83661327D01*
X163929691Y-83758000D01*
X164257750Y-83758000D01*
X164416500Y-83599250D01*
X164416500Y-82550000D01*
X163579750Y-82550000D01*
X163421000Y-82708750D01*
X154018079Y-82708750D01*
X154012102Y-82678706D01*
X153818916Y-82389584D01*
X153617500Y-82255002D01*
X153617500Y-82039455D01*
X153689000Y-81866838D01*
X153689000Y-81596690D01*
X163421000Y-81596690D01*
X163421000Y-82137250D01*
X163579750Y-82296000D01*
X164416500Y-82296000D01*
X164416500Y-81246750D01*
X164257750Y-81088000D01*
X163929691Y-81088000D01*
X163696302Y-81184673D01*
X163517673Y-81363301D01*
X163421000Y-81596690D01*
X153689000Y-81596690D01*
X153689000Y-81455090D01*
X153531431Y-81074684D01*
X153240280Y-80783533D01*
X152859874Y-80625964D01*
X152448126Y-80625964D01*
X152067720Y-80783533D01*
X151776569Y-81074684D01*
X151619000Y-81455090D01*
X151619000Y-81866838D01*
X151776569Y-82247244D01*
X151809630Y-82280305D01*
X151767489Y-82308463D01*
X151696699Y-82237673D01*
X151463310Y-82141000D01*
X150922750Y-82141000D01*
X150764000Y-82299750D01*
X150764000Y-83136500D01*
X150784000Y-83136500D01*
X150784000Y-83390500D01*
X150764000Y-83390500D01*
X150764000Y-83410500D01*
X150510000Y-83410500D01*
X150510000Y-83390500D01*
X148668500Y-83390500D01*
X148668500Y-83410500D01*
X148414500Y-83410500D01*
X148414500Y-83390500D01*
X147365250Y-83390500D01*
X147206500Y-83549250D01*
X147206500Y-83877309D01*
X147303173Y-84110698D01*
X147456267Y-84263793D01*
X147455084Y-84264584D01*
X147261898Y-84553706D01*
X147194060Y-84894750D01*
X122010000Y-84894750D01*
X122010000Y-78407156D01*
X130410000Y-78407156D01*
X130410000Y-78818904D01*
X130567569Y-79199310D01*
X130858720Y-79490461D01*
X131239126Y-79648030D01*
X131650874Y-79648030D01*
X132031280Y-79490461D01*
X132150741Y-79371000D01*
X134432993Y-79371000D01*
X134795126Y-79521000D01*
X135206874Y-79521000D01*
X135587280Y-79363431D01*
X135878431Y-79072280D01*
X136036000Y-78691874D01*
X136036000Y-78661126D01*
X140331000Y-78661126D01*
X140331000Y-79072874D01*
X140488569Y-79453280D01*
X140606001Y-79570712D01*
X140606000Y-80258789D01*
X140488569Y-80376220D01*
X140331000Y-80756626D01*
X140331000Y-81168374D01*
X140488569Y-81548780D01*
X140779720Y-81839931D01*
X141160126Y-81997500D01*
X141348502Y-81997500D01*
X141504569Y-82374280D01*
X141795720Y-82665431D01*
X142176126Y-82823000D01*
X142587874Y-82823000D01*
X142968280Y-82665431D01*
X142984020Y-82649691D01*
X147206500Y-82649691D01*
X147206500Y-82977750D01*
X147365250Y-83136500D01*
X148414500Y-83136500D01*
X148414500Y-82299750D01*
X148668500Y-82299750D01*
X148668500Y-83136500D01*
X150510000Y-83136500D01*
X150510000Y-82299750D01*
X150351250Y-82141000D01*
X149810690Y-82141000D01*
X149589250Y-82232724D01*
X149367810Y-82141000D01*
X148827250Y-82141000D01*
X148668500Y-82299750D01*
X148414500Y-82299750D01*
X148255750Y-82141000D01*
X147715190Y-82141000D01*
X147481801Y-82237673D01*
X147303173Y-82416302D01*
X147206500Y-82649691D01*
X142984020Y-82649691D01*
X143259431Y-82374280D01*
X143417000Y-81993874D01*
X143417000Y-81582126D01*
X143259431Y-81201720D01*
X143142000Y-81084289D01*
X143142000Y-78364211D01*
X143259431Y-78246780D01*
X143417000Y-77866374D01*
X143417000Y-77454626D01*
X143259431Y-77074220D01*
X142968280Y-76783069D01*
X142587874Y-76625500D01*
X142176126Y-76625500D01*
X141795720Y-76783069D01*
X141504569Y-77074220D01*
X141347000Y-77454626D01*
X141347000Y-77832000D01*
X141160126Y-77832000D01*
X140779720Y-77989569D01*
X140488569Y-78280720D01*
X140331000Y-78661126D01*
X136036000Y-78661126D01*
X136036000Y-78280126D01*
X135878431Y-77899720D01*
X135587280Y-77608569D01*
X135206874Y-77451000D01*
X134795126Y-77451000D01*
X134432993Y-77601000D01*
X131706329Y-77601000D01*
X131650874Y-77578030D01*
X131239126Y-77578030D01*
X130858720Y-77735599D01*
X130567569Y-78026750D01*
X130410000Y-78407156D01*
X122010000Y-78407156D01*
X122010000Y-75613094D01*
X155556000Y-75613094D01*
X155556000Y-76024842D01*
X155713569Y-76405248D01*
X156004720Y-76696399D01*
X156385126Y-76853968D01*
X156796874Y-76853968D01*
X157050068Y-76749092D01*
X157384585Y-76887653D01*
X157796333Y-76887653D01*
X158176739Y-76730084D01*
X158327823Y-76579000D01*
X166245001Y-76579000D01*
X166245000Y-77528289D01*
X166127569Y-77645720D01*
X165970000Y-78026126D01*
X165970000Y-78437874D01*
X166081376Y-78706760D01*
X166086270Y-78731364D01*
X166100207Y-78752223D01*
X166127569Y-78818280D01*
X166178126Y-78868837D01*
X166254244Y-78982756D01*
X166368163Y-79058874D01*
X166418720Y-79109431D01*
X166484777Y-79136793D01*
X166505636Y-79150730D01*
X166530240Y-79155624D01*
X166799126Y-79267000D01*
X167210874Y-79267000D01*
X167576494Y-79115556D01*
X167942114Y-79267000D01*
X168353862Y-79267000D01*
X168734268Y-79109431D01*
X169025419Y-78818280D01*
X169182988Y-78437874D01*
X169182988Y-78026126D01*
X169025419Y-77645720D01*
X168907988Y-77528289D01*
X168907988Y-75893836D01*
X168922876Y-75818988D01*
X168907988Y-75744140D01*
X168907988Y-75744136D01*
X168867676Y-75541472D01*
X168863892Y-75522450D01*
X168738317Y-75334515D01*
X168695917Y-75271059D01*
X168632461Y-75228659D01*
X167976331Y-74572530D01*
X167933929Y-74509071D01*
X167682537Y-74341096D01*
X167460852Y-74297000D01*
X167460847Y-74297000D01*
X167386000Y-74282112D01*
X167311153Y-74297000D01*
X156919846Y-74297000D01*
X156844999Y-74282112D01*
X156770152Y-74297000D01*
X156770148Y-74297000D01*
X156548463Y-74341096D01*
X156297071Y-74509071D01*
X156254669Y-74572530D01*
X156106530Y-74720669D01*
X156043071Y-74763071D01*
X155875096Y-75014464D01*
X155861018Y-75085239D01*
X155713569Y-75232688D01*
X155556000Y-75613094D01*
X122010000Y-75613094D01*
X122010000Y-71120000D01*
X188985908Y-71120000D01*
X189101161Y-71699418D01*
X189429375Y-72190625D01*
X189727761Y-72390000D01*
X189429375Y-72589375D01*
X189101161Y-73080582D01*
X188985908Y-73660000D01*
X189101161Y-74239418D01*
X189429375Y-74730625D01*
X189727761Y-74930000D01*
X189429375Y-75129375D01*
X189101161Y-75620582D01*
X188985908Y-76200000D01*
X189101161Y-76779418D01*
X189429375Y-77270625D01*
X189727761Y-77470000D01*
X189429375Y-77669375D01*
X189101161Y-78160582D01*
X188985908Y-78740000D01*
X189101161Y-79319418D01*
X189429375Y-79810625D01*
X189727761Y-80010000D01*
X189429375Y-80209375D01*
X189101161Y-80700582D01*
X188985908Y-81280000D01*
X189101161Y-81859418D01*
X189429375Y-82350625D01*
X189727761Y-82550000D01*
X189429375Y-82749375D01*
X189101161Y-83240582D01*
X188985908Y-83820000D01*
X189101161Y-84399418D01*
X189429375Y-84890625D01*
X189727761Y-85090000D01*
X189429375Y-85289375D01*
X189101161Y-85780582D01*
X188985908Y-86360000D01*
X189101161Y-86939418D01*
X189429375Y-87430625D01*
X189727761Y-87630000D01*
X189429375Y-87829375D01*
X189101161Y-88320582D01*
X188985908Y-88900000D01*
X189101161Y-89479418D01*
X189429375Y-89970625D01*
X189727761Y-90170000D01*
X189429375Y-90369375D01*
X189101161Y-90860582D01*
X188985908Y-91440000D01*
X189101161Y-92019418D01*
X189429375Y-92510625D01*
X189727761Y-92710000D01*
X189429375Y-92909375D01*
X189101161Y-93400582D01*
X188985908Y-93980000D01*
X189101161Y-94559418D01*
X189429375Y-95050625D01*
X189727761Y-95250000D01*
X189429375Y-95449375D01*
X189101161Y-95940582D01*
X188985908Y-96520000D01*
X189101161Y-97099418D01*
X189429375Y-97590625D01*
X189727761Y-97790000D01*
X189429375Y-97989375D01*
X189101161Y-98480582D01*
X188985908Y-99060000D01*
X189101161Y-99639418D01*
X189429375Y-100130625D01*
X189727761Y-100330000D01*
X189429375Y-100529375D01*
X189101161Y-101020582D01*
X188985908Y-101600000D01*
X189101161Y-102179418D01*
X189429375Y-102670625D01*
X189727761Y-102870000D01*
X189429375Y-103069375D01*
X189101161Y-103560582D01*
X188985908Y-104140000D01*
X189101161Y-104719418D01*
X189429375Y-105210625D01*
X189727761Y-105410000D01*
X189429375Y-105609375D01*
X189101161Y-106100582D01*
X188985908Y-106680000D01*
X189101161Y-107259418D01*
X189429375Y-107750625D01*
X189727761Y-107950000D01*
X189429375Y-108149375D01*
X189101161Y-108640582D01*
X188985908Y-109220000D01*
X189101161Y-109799418D01*
X189429375Y-110290625D01*
X189920582Y-110618839D01*
X190353744Y-110705000D01*
X190646256Y-110705000D01*
X191079418Y-110618839D01*
X191570625Y-110290625D01*
X191770000Y-109992239D01*
X191969375Y-110290625D01*
X192460582Y-110618839D01*
X192893744Y-110705000D01*
X193186256Y-110705000D01*
X193619418Y-110618839D01*
X194110625Y-110290625D01*
X194438839Y-109799418D01*
X194554092Y-109220000D01*
X194438839Y-108640582D01*
X194110625Y-108149375D01*
X193812239Y-107950000D01*
X194110625Y-107750625D01*
X194438839Y-107259418D01*
X194554092Y-106680000D01*
X194438839Y-106100582D01*
X194110625Y-105609375D01*
X193812239Y-105410000D01*
X194110625Y-105210625D01*
X194438839Y-104719418D01*
X194554092Y-104140000D01*
X194438839Y-103560582D01*
X194110625Y-103069375D01*
X193812239Y-102870000D01*
X194110625Y-102670625D01*
X194438839Y-102179418D01*
X194554092Y-101600000D01*
X194438839Y-101020582D01*
X194110625Y-100529375D01*
X193812239Y-100330000D01*
X194110625Y-100130625D01*
X194438839Y-99639418D01*
X194554092Y-99060000D01*
X194438839Y-98480582D01*
X194110625Y-97989375D01*
X193812239Y-97790000D01*
X194110625Y-97590625D01*
X194438839Y-97099418D01*
X194554092Y-96520000D01*
X194438839Y-95940582D01*
X194110625Y-95449375D01*
X193812239Y-95250000D01*
X194110625Y-95050625D01*
X194438839Y-94559418D01*
X194554092Y-93980000D01*
X194438839Y-93400582D01*
X194110625Y-92909375D01*
X193812239Y-92710000D01*
X194110625Y-92510625D01*
X194438839Y-92019418D01*
X194554092Y-91440000D01*
X194438839Y-90860582D01*
X194110625Y-90369375D01*
X193812239Y-90170000D01*
X194110625Y-89970625D01*
X194438839Y-89479418D01*
X194554092Y-88900000D01*
X194438839Y-88320582D01*
X194110625Y-87829375D01*
X193812239Y-87630000D01*
X194110625Y-87430625D01*
X194438839Y-86939418D01*
X194554092Y-86360000D01*
X194438839Y-85780582D01*
X194110625Y-85289375D01*
X193812239Y-85090000D01*
X194110625Y-84890625D01*
X194438839Y-84399418D01*
X194554092Y-83820000D01*
X194438839Y-83240582D01*
X194110625Y-82749375D01*
X193812239Y-82550000D01*
X194110625Y-82350625D01*
X194438839Y-81859418D01*
X194554092Y-81280000D01*
X194438839Y-80700582D01*
X194110625Y-80209375D01*
X193812239Y-80010000D01*
X194110625Y-79810625D01*
X194438839Y-79319418D01*
X194554092Y-78740000D01*
X194438839Y-78160582D01*
X194110625Y-77669375D01*
X193812239Y-77470000D01*
X194110625Y-77270625D01*
X194438839Y-76779418D01*
X194554092Y-76200000D01*
X194438839Y-75620582D01*
X194110625Y-75129375D01*
X193812239Y-74930000D01*
X194110625Y-74730625D01*
X194438839Y-74239418D01*
X194554092Y-73660000D01*
X194438839Y-73080582D01*
X194110625Y-72589375D01*
X193812239Y-72390000D01*
X194110625Y-72190625D01*
X194438839Y-71699418D01*
X194554092Y-71120000D01*
X194438839Y-70540582D01*
X194110625Y-70049375D01*
X193812239Y-69850000D01*
X194110625Y-69650625D01*
X194438839Y-69159418D01*
X194554092Y-68580000D01*
X194438839Y-68000582D01*
X194110625Y-67509375D01*
X193619418Y-67181161D01*
X193186256Y-67095000D01*
X192893744Y-67095000D01*
X192460582Y-67181161D01*
X191969375Y-67509375D01*
X191954904Y-67531032D01*
X191888327Y-67370301D01*
X191709698Y-67191673D01*
X191476309Y-67095000D01*
X190785750Y-67095000D01*
X190627000Y-67253750D01*
X190627000Y-68453000D01*
X190647000Y-68453000D01*
X190647000Y-68707000D01*
X190627000Y-68707000D01*
X190627000Y-68727000D01*
X190373000Y-68727000D01*
X190373000Y-68707000D01*
X189173750Y-68707000D01*
X189015000Y-68865750D01*
X189015000Y-69556310D01*
X189111673Y-69789699D01*
X189290302Y-69968327D01*
X189451033Y-70034904D01*
X189429375Y-70049375D01*
X189101161Y-70540582D01*
X188985908Y-71120000D01*
X122010000Y-71120000D01*
X122010000Y-67603690D01*
X189015000Y-67603690D01*
X189015000Y-68294250D01*
X189173750Y-68453000D01*
X190373000Y-68453000D01*
X190373000Y-67253750D01*
X190214250Y-67095000D01*
X189523691Y-67095000D01*
X189290302Y-67191673D01*
X189111673Y-67370301D01*
X189015000Y-67603690D01*
X122010000Y-67603690D01*
X122010000Y-67354666D01*
X122072958Y-66856302D01*
X122241305Y-66431107D01*
X122510101Y-66061142D01*
X122862462Y-65769644D01*
X123276244Y-65574933D01*
X123758662Y-65482907D01*
X123851164Y-65480000D01*
X195535334Y-65480000D01*
X196033698Y-65542958D01*
X196033698Y-65542958D01*
G37*
X196033698Y-65542958D02*
X196458893Y-65711305D01*
X196828858Y-65980101D01*
X197120356Y-66332462D01*
X197315067Y-66746244D01*
X197407093Y-67228662D01*
X197410000Y-67321164D01*
X197410001Y-110445326D01*
X197347042Y-110943699D01*
X197178697Y-111368889D01*
X196909899Y-111738859D01*
X196557541Y-112030355D01*
X196143756Y-112225067D01*
X195661339Y-112317093D01*
X195568836Y-112320000D01*
X123884667Y-112320000D01*
X123386301Y-112257042D01*
X122961111Y-112088697D01*
X122591141Y-111819899D01*
X122299645Y-111467541D01*
X122104933Y-111053756D01*
X122012907Y-110571339D01*
X122010000Y-110478836D01*
X122010000Y-108370000D01*
X140996560Y-108370000D01*
X140996560Y-110070000D01*
X141045843Y-110317765D01*
X141186191Y-110527809D01*
X141396235Y-110668157D01*
X141644000Y-110717440D01*
X143344000Y-110717440D01*
X143591765Y-110668157D01*
X143801809Y-110527809D01*
X143942157Y-110317765D01*
X143951184Y-110272381D01*
X143963375Y-110290625D01*
X144454582Y-110618839D01*
X144887744Y-110705000D01*
X145180256Y-110705000D01*
X145613418Y-110618839D01*
X146104625Y-110290625D01*
X146317843Y-109971522D01*
X146378817Y-110101358D01*
X146807076Y-110491645D01*
X147217110Y-110661476D01*
X147447000Y-110540155D01*
X147447000Y-109347000D01*
X147427000Y-109347000D01*
X147427000Y-109093000D01*
X147447000Y-109093000D01*
X147447000Y-107899845D01*
X147701000Y-107899845D01*
X147701000Y-109093000D01*
X147721000Y-109093000D01*
X147721000Y-109347000D01*
X147701000Y-109347000D01*
X147701000Y-110540155D01*
X147930890Y-110661476D01*
X148340924Y-110491645D01*
X148769183Y-110101358D01*
X148830157Y-109971522D01*
X149043375Y-110290625D01*
X149534582Y-110618839D01*
X149967744Y-110705000D01*
X150260256Y-110705000D01*
X150693418Y-110618839D01*
X151184625Y-110290625D01*
X151384000Y-109992239D01*
X151583375Y-110290625D01*
X152074582Y-110618839D01*
X152507744Y-110705000D01*
X152800256Y-110705000D01*
X153233418Y-110618839D01*
X153724625Y-110290625D01*
X154052839Y-109799418D01*
X154168092Y-109220000D01*
X154052839Y-108640582D01*
X153724625Y-108149375D01*
X153233418Y-107821161D01*
X152800256Y-107735000D01*
X152507744Y-107735000D01*
X152074582Y-107821161D01*
X151583375Y-108149375D01*
X151384000Y-108447761D01*
X151184625Y-108149375D01*
X150693418Y-107821161D01*
X150260256Y-107735000D01*
X149967744Y-107735000D01*
X149534582Y-107821161D01*
X149043375Y-108149375D01*
X148830157Y-108468478D01*
X148769183Y-108338642D01*
X148340924Y-107948355D01*
X147930890Y-107778524D01*
X147701000Y-107899845D01*
X147447000Y-107899845D01*
X147217110Y-107778524D01*
X146807076Y-107948355D01*
X146378817Y-108338642D01*
X146317843Y-108468478D01*
X146104625Y-108149375D01*
X145613418Y-107821161D01*
X145180256Y-107735000D01*
X144887744Y-107735000D01*
X144454582Y-107821161D01*
X143963375Y-108149375D01*
X143951184Y-108167619D01*
X143942157Y-108122235D01*
X143801809Y-107912191D01*
X143591765Y-107771843D01*
X143344000Y-107722560D01*
X141644000Y-107722560D01*
X141396235Y-107771843D01*
X141186191Y-107912191D01*
X141045843Y-108122235D01*
X140996560Y-108370000D01*
X122010000Y-108370000D01*
X122010000Y-107490126D01*
X178416000Y-107490126D01*
X178416000Y-107901874D01*
X178573569Y-108282280D01*
X178864720Y-108573431D01*
X179245126Y-108731000D01*
X179656874Y-108731000D01*
X180037280Y-108573431D01*
X180154711Y-108456000D01*
X180953316Y-108456000D01*
X180986569Y-108536280D01*
X181277720Y-108827431D01*
X181658126Y-108985000D01*
X182069874Y-108985000D01*
X182450280Y-108827431D01*
X182741431Y-108536280D01*
X182899000Y-108155874D01*
X182899000Y-107744126D01*
X182741431Y-107363720D01*
X182450280Y-107072569D01*
X182069874Y-106915000D01*
X181658126Y-106915000D01*
X181632544Y-106925596D01*
X181610000Y-106921112D01*
X181535153Y-106936000D01*
X180154711Y-106936000D01*
X180037280Y-106818569D01*
X179656874Y-106661000D01*
X179245126Y-106661000D01*
X178864720Y-106818569D01*
X178573569Y-107109720D01*
X178416000Y-107490126D01*
X122010000Y-107490126D01*
X122010000Y-101013126D01*
X139427000Y-101013126D01*
X139427000Y-101424874D01*
X139584569Y-101805280D01*
X139875720Y-102096431D01*
X140189000Y-102226196D01*
X140189000Y-102567874D01*
X140346569Y-102948280D01*
X140637720Y-103239431D01*
X141018126Y-103397000D01*
X141142669Y-103397000D01*
X141078000Y-103553126D01*
X141078000Y-103964874D01*
X141235569Y-104345280D01*
X141526720Y-104636431D01*
X141771453Y-104737803D01*
X141653720Y-104786569D01*
X141362569Y-105077720D01*
X141205000Y-105458126D01*
X141205000Y-105869874D01*
X141362569Y-106250280D01*
X141653720Y-106541431D01*
X142034126Y-106699000D01*
X142445874Y-106699000D01*
X142826280Y-106541431D01*
X142943711Y-106424000D01*
X143060289Y-106424000D01*
X143177720Y-106541431D01*
X143558126Y-106699000D01*
X143969874Y-106699000D01*
X144350280Y-106541431D01*
X144641431Y-106250280D01*
X144799000Y-105869874D01*
X144799000Y-105458126D01*
X144641431Y-105077720D01*
X144350280Y-104786569D01*
X143969874Y-104629000D01*
X143558126Y-104629000D01*
X143177720Y-104786569D01*
X143060289Y-104904000D01*
X142943711Y-104904000D01*
X142826280Y-104786569D01*
X142581547Y-104685197D01*
X142699280Y-104636431D01*
X142816711Y-104519000D01*
X144203289Y-104519000D01*
X144320720Y-104636431D01*
X144701126Y-104794000D01*
X145112874Y-104794000D01*
X145493280Y-104636431D01*
X145784431Y-104345280D01*
X145942000Y-103964874D01*
X145942000Y-103553126D01*
X145784431Y-103172720D01*
X145672211Y-103060500D01*
X145784431Y-102948280D01*
X145942000Y-102567874D01*
X145942000Y-102156126D01*
X145784431Y-101775720D01*
X145613484Y-101604773D01*
X145688000Y-101424874D01*
X145688000Y-101013126D01*
X145530431Y-100632720D01*
X145239280Y-100341569D01*
X144858874Y-100184000D01*
X144447126Y-100184000D01*
X144084993Y-100334000D01*
X141030007Y-100334000D01*
X140667874Y-100184000D01*
X140256126Y-100184000D01*
X139875720Y-100341569D01*
X139584569Y-100632720D01*
X139427000Y-101013126D01*
X122010000Y-101013126D01*
X122010000Y-86281126D01*
X129521000Y-86281126D01*
X129521000Y-86692874D01*
X129546000Y-86753230D01*
X129546001Y-88506768D01*
X129521000Y-88567126D01*
X129521000Y-88978874D01*
X129678569Y-89359280D01*
X129969720Y-89650431D01*
X130350126Y-89808000D01*
X130761874Y-89808000D01*
X131031575Y-89696286D01*
X131239720Y-89904431D01*
X131620126Y-90062000D01*
X132031874Y-90062000D01*
X132268163Y-89964126D01*
X156699000Y-89964126D01*
X156699000Y-90375874D01*
X156856569Y-90756280D01*
X157147720Y-91047431D01*
X157528126Y-91205000D01*
X157939874Y-91205000D01*
X158302055Y-91054980D01*
X158530001Y-91054980D01*
X158530000Y-94434172D01*
X158347898Y-94706706D01*
X158280060Y-95047750D01*
X158280060Y-95960250D01*
X158347898Y-96301294D01*
X158530000Y-96573828D01*
X158530001Y-98494835D01*
X158512663Y-98582000D01*
X158581348Y-98927309D01*
X158727576Y-99146154D01*
X158727578Y-99146156D01*
X158776952Y-99220049D01*
X158850845Y-99269423D01*
X159205575Y-99624153D01*
X159254951Y-99698049D01*
X159547690Y-99893652D01*
X159805835Y-99945000D01*
X159805840Y-99945000D01*
X159892999Y-99962337D01*
X159980159Y-99945000D01*
X166437005Y-99945000D01*
X166799138Y-100095000D01*
X167210886Y-100095000D01*
X167390000Y-100020809D01*
X167390000Y-100207000D01*
X165922007Y-100207000D01*
X165559874Y-100057000D01*
X165148126Y-100057000D01*
X164767720Y-100214569D01*
X164476569Y-100505720D01*
X164319000Y-100886126D01*
X164319000Y-101297874D01*
X164476569Y-101678280D01*
X164767720Y-101969431D01*
X165148126Y-102127000D01*
X165559874Y-102127000D01*
X165922007Y-101977000D01*
X167527422Y-101977000D01*
X167587576Y-102037154D01*
X167636951Y-102111049D01*
X167710847Y-102160425D01*
X168222577Y-102672156D01*
X168271951Y-102746049D01*
X168345844Y-102795423D01*
X168345845Y-102795424D01*
X168348168Y-102796976D01*
X168564690Y-102941652D01*
X168822835Y-102993000D01*
X168822839Y-102993000D01*
X168909999Y-103010337D01*
X168997159Y-102993000D01*
X170590585Y-102993000D01*
X170600640Y-102995000D01*
X179236644Y-102995000D01*
X179324000Y-103012376D01*
X179411356Y-102995000D01*
X179411360Y-102995000D01*
X179670090Y-102943535D01*
X179963491Y-102747491D01*
X180012978Y-102673428D01*
X180651430Y-102034977D01*
X180725491Y-101985491D01*
X180921535Y-101692090D01*
X180973000Y-101433360D01*
X180990377Y-101346000D01*
X180973000Y-101258640D01*
X180973000Y-83272356D01*
X180990376Y-83185000D01*
X180973000Y-83097644D01*
X180973000Y-83097640D01*
X180921535Y-82838910D01*
X180725491Y-82545509D01*
X180651430Y-82496024D01*
X179835179Y-81679772D01*
X179785691Y-81605709D01*
X179492290Y-81409665D01*
X179233560Y-81358200D01*
X179233556Y-81358200D01*
X179146200Y-81340824D01*
X179058844Y-81358200D01*
X169523978Y-81358200D01*
X169483473Y-81341422D01*
X169460537Y-81326097D01*
X169433483Y-81320716D01*
X169166674Y-81210200D01*
X168754926Y-81210200D01*
X168397622Y-81358200D01*
X167306859Y-81358200D01*
X167292416Y-81336584D01*
X167003294Y-81143398D01*
X166662250Y-81075560D01*
X166174750Y-81075560D01*
X165833706Y-81143398D01*
X165544584Y-81336584D01*
X165543793Y-81337767D01*
X165390698Y-81184673D01*
X165157309Y-81088000D01*
X164829250Y-81088000D01*
X164670500Y-81246750D01*
X164670500Y-82296000D01*
X164690500Y-82296000D01*
X164690500Y-82550000D01*
X164670500Y-82550000D01*
X164670500Y-83599250D01*
X164829250Y-83758000D01*
X165157309Y-83758000D01*
X165390698Y-83661327D01*
X165543793Y-83508233D01*
X165544584Y-83509416D01*
X165833706Y-83702602D01*
X166174750Y-83770440D01*
X166662250Y-83770440D01*
X167003294Y-83702602D01*
X167292416Y-83509416D01*
X167485602Y-83220294D01*
X167503125Y-83132200D01*
X168397622Y-83132200D01*
X168754926Y-83280200D01*
X169166674Y-83280200D01*
X169523978Y-83132200D01*
X171472805Y-83132200D01*
X171431000Y-83233126D01*
X171431000Y-83644874D01*
X171588569Y-84025280D01*
X171879720Y-84316431D01*
X172237025Y-84464431D01*
X172325373Y-84552780D01*
X172141584Y-84675584D01*
X171948398Y-84964706D01*
X171880560Y-85305750D01*
X171880560Y-85793250D01*
X171948398Y-86134294D01*
X172141584Y-86423416D01*
X172142767Y-86424207D01*
X171989673Y-86577302D01*
X171893000Y-86810691D01*
X171893000Y-87138750D01*
X172051750Y-87297500D01*
X173101000Y-87297500D01*
X173101000Y-87277500D01*
X173355000Y-87277500D01*
X173355000Y-87297500D01*
X174404250Y-87297500D01*
X174563000Y-87138750D01*
X174563000Y-86810691D01*
X174466327Y-86577302D01*
X174313233Y-86424207D01*
X174314416Y-86423416D01*
X174507602Y-86134294D01*
X174575440Y-85793250D01*
X174575440Y-85305750D01*
X174507602Y-84964706D01*
X174314416Y-84675584D01*
X174115000Y-84542338D01*
X174115000Y-84326000D01*
X177813593Y-84326000D01*
X177859989Y-84372396D01*
X177859989Y-89941783D01*
X177751874Y-89897000D01*
X177692000Y-89897000D01*
X177692000Y-89837126D01*
X177534431Y-89456720D01*
X177243280Y-89165569D01*
X176862874Y-89008000D01*
X176842516Y-89008000D01*
X176842516Y-88796466D01*
X176684947Y-88416060D01*
X176393796Y-88124909D01*
X176013390Y-87967340D01*
X175601642Y-87967340D01*
X175221236Y-88124909D01*
X174930085Y-88416060D01*
X174772516Y-88796466D01*
X174772516Y-89208214D01*
X174930085Y-89588620D01*
X175008000Y-89666535D01*
X175008001Y-98223711D01*
X174800720Y-98309569D01*
X174509569Y-98600720D01*
X174352000Y-98981126D01*
X174352000Y-99392874D01*
X174509569Y-99773280D01*
X174800720Y-100064431D01*
X175140084Y-100205000D01*
X171309407Y-100205000D01*
X170940000Y-99835594D01*
X170940000Y-99623193D01*
X171088006Y-99265874D01*
X171088006Y-98854126D01*
X170940000Y-98496807D01*
X170940000Y-96650026D01*
X171032302Y-96742327D01*
X171265691Y-96839000D01*
X171593750Y-96839000D01*
X171752500Y-96680250D01*
X171752500Y-95631000D01*
X172006500Y-95631000D01*
X172006500Y-96680250D01*
X172165250Y-96839000D01*
X172493309Y-96839000D01*
X172726698Y-96742327D01*
X172905327Y-96563699D01*
X173002000Y-96330310D01*
X173002000Y-95789750D01*
X172843250Y-95631000D01*
X172006500Y-95631000D01*
X171752500Y-95631000D01*
X171732500Y-95631000D01*
X171732500Y-95377000D01*
X171752500Y-95377000D01*
X171752500Y-94327750D01*
X172006500Y-94327750D01*
X172006500Y-95377000D01*
X172843250Y-95377000D01*
X173002000Y-95218250D01*
X173002000Y-94677690D01*
X172905327Y-94444301D01*
X172726698Y-94265673D01*
X172493309Y-94169000D01*
X172165250Y-94169000D01*
X172006500Y-94327750D01*
X171752500Y-94327750D01*
X171593750Y-94169000D01*
X171265691Y-94169000D01*
X171032302Y-94265673D01*
X170891500Y-94406474D01*
X170891500Y-94009540D01*
X170908877Y-93922180D01*
X170840035Y-93576090D01*
X170773475Y-93476476D01*
X170643991Y-93282689D01*
X170569930Y-93233203D01*
X170257591Y-92920865D01*
X170109591Y-92563560D01*
X169818440Y-92272409D01*
X169438034Y-92114840D01*
X169026286Y-92114840D01*
X168645880Y-92272409D01*
X168354729Y-92563560D01*
X168197160Y-92943966D01*
X168197160Y-93219586D01*
X168156967Y-93211591D01*
X168069611Y-93228967D01*
X167948826Y-93228967D01*
X167591522Y-93080967D01*
X167179774Y-93080967D01*
X167025981Y-93144670D01*
X166981528Y-93100217D01*
X166601122Y-92942648D01*
X166189374Y-92942648D01*
X165808968Y-93100217D01*
X165517817Y-93391368D01*
X165360248Y-93771774D01*
X165360248Y-94183522D01*
X165386703Y-94247389D01*
X165352294Y-94224398D01*
X165011250Y-94156560D01*
X164523750Y-94156560D01*
X164182706Y-94224398D01*
X163893584Y-94417584D01*
X163892793Y-94418767D01*
X163739698Y-94265673D01*
X163506309Y-94169000D01*
X163178250Y-94169000D01*
X163019500Y-94327750D01*
X163019500Y-95377000D01*
X163039500Y-95377000D01*
X163039500Y-95631000D01*
X163019500Y-95631000D01*
X163019500Y-97409000D01*
X163039500Y-97409000D01*
X163039500Y-97663000D01*
X163019500Y-97663000D01*
X163019500Y-97683000D01*
X162765500Y-97683000D01*
X162765500Y-97663000D01*
X161928750Y-97663000D01*
X161770000Y-97821750D01*
X161770000Y-98175000D01*
X160300000Y-98175000D01*
X160300000Y-96599526D01*
X160442802Y-96742327D01*
X160676191Y-96839000D01*
X161004250Y-96839000D01*
X161163000Y-96680250D01*
X161163000Y-95631000D01*
X161417000Y-95631000D01*
X161417000Y-96680250D01*
X161575750Y-96839000D01*
X161770000Y-96839000D01*
X161770000Y-97250250D01*
X161928750Y-97409000D01*
X162765500Y-97409000D01*
X162765500Y-95631000D01*
X161417000Y-95631000D01*
X161163000Y-95631000D01*
X161143000Y-95631000D01*
X161143000Y-95377000D01*
X161163000Y-95377000D01*
X161163000Y-94327750D01*
X161417000Y-94327750D01*
X161417000Y-95377000D01*
X162765500Y-95377000D01*
X162765500Y-94327750D01*
X162606750Y-94169000D01*
X162278691Y-94169000D01*
X162091250Y-94246641D01*
X161903809Y-94169000D01*
X161575750Y-94169000D01*
X161417000Y-94327750D01*
X161163000Y-94327750D01*
X161004250Y-94169000D01*
X160676191Y-94169000D01*
X160442802Y-94265673D01*
X160300000Y-94408474D01*
X160300000Y-91143210D01*
X160449126Y-91204980D01*
X160860874Y-91204980D01*
X161241280Y-91047411D01*
X161532431Y-90756260D01*
X161690000Y-90375854D01*
X161690000Y-89964106D01*
X161532431Y-89583700D01*
X161241280Y-89292549D01*
X160860874Y-89134980D01*
X160449126Y-89134980D01*
X160086993Y-89284980D01*
X159472060Y-89284980D01*
X159385000Y-89267663D01*
X159297940Y-89284980D01*
X158301958Y-89284980D01*
X157939874Y-89135000D01*
X157528126Y-89135000D01*
X157147720Y-89292569D01*
X156856569Y-89583720D01*
X156699000Y-89964126D01*
X132268163Y-89964126D01*
X132412280Y-89904431D01*
X132703431Y-89613280D01*
X132778653Y-89431678D01*
X132876801Y-89529827D01*
X133110190Y-89626500D01*
X133650750Y-89626500D01*
X133809500Y-89467750D01*
X133809500Y-88631000D01*
X134063500Y-88631000D01*
X134063500Y-89467750D01*
X134222250Y-89626500D01*
X134762810Y-89626500D01*
X134996199Y-89529827D01*
X135079500Y-89446526D01*
X135162801Y-89529827D01*
X135396190Y-89626500D01*
X135936750Y-89626500D01*
X136095500Y-89467750D01*
X136095500Y-88631000D01*
X136349500Y-88631000D01*
X136349500Y-89467750D01*
X136508250Y-89626500D01*
X137048810Y-89626500D01*
X137282199Y-89529827D01*
X137460827Y-89351198D01*
X137557500Y-89117809D01*
X137557500Y-88789750D01*
X137398750Y-88631000D01*
X136349500Y-88631000D01*
X136095500Y-88631000D01*
X134063500Y-88631000D01*
X133809500Y-88631000D01*
X133789500Y-88631000D01*
X133789500Y-88377000D01*
X133809500Y-88377000D01*
X133809500Y-88357000D01*
X134063500Y-88357000D01*
X134063500Y-88377000D01*
X136095500Y-88377000D01*
X136095500Y-88357000D01*
X136349500Y-88357000D01*
X136349500Y-88377000D01*
X137398750Y-88377000D01*
X137557500Y-88218250D01*
X137557500Y-87890191D01*
X137460827Y-87656802D01*
X137307733Y-87503707D01*
X137308916Y-87502916D01*
X137312326Y-87497812D01*
X137667612Y-87644976D01*
X138079360Y-87644976D01*
X138459766Y-87487407D01*
X138750917Y-87196256D01*
X138908486Y-86815850D01*
X138908486Y-86404102D01*
X138750917Y-86023696D01*
X138459766Y-85732545D01*
X138079360Y-85574976D01*
X137667612Y-85574976D01*
X137287206Y-85732545D01*
X137282391Y-85737360D01*
X137019794Y-85561898D01*
X136678750Y-85494060D01*
X135766250Y-85494060D01*
X135425206Y-85561898D01*
X135136084Y-85755084D01*
X135110883Y-85792800D01*
X135048117Y-85792800D01*
X135022916Y-85755084D01*
X134733794Y-85561898D01*
X134392750Y-85494060D01*
X133480250Y-85494060D01*
X133139206Y-85561898D01*
X132850084Y-85755084D01*
X132783878Y-85854167D01*
X132539280Y-85609569D01*
X132158874Y-85452000D01*
X131747126Y-85452000D01*
X131366720Y-85609569D01*
X131254500Y-85721789D01*
X131142280Y-85609569D01*
X130761874Y-85452000D01*
X130350126Y-85452000D01*
X129969720Y-85609569D01*
X129678569Y-85900720D01*
X129521000Y-86281126D01*
X122010000Y-86281126D01*
X122010000Y-84894750D01*
X147194060Y-84894750D01*
X147194060Y-85382250D01*
X147261898Y-85723294D01*
X147455084Y-86012416D01*
X147718001Y-86188092D01*
X147718001Y-86291260D01*
X147600569Y-86408692D01*
X147443000Y-86789098D01*
X147443000Y-87200846D01*
X147600569Y-87581252D01*
X147891720Y-87872403D01*
X148272126Y-88029972D01*
X148683874Y-88029972D01*
X149064280Y-87872403D01*
X149355431Y-87581252D01*
X149513000Y-87200846D01*
X149513000Y-86789098D01*
X149355431Y-86408692D01*
X149238000Y-86291261D01*
X149238000Y-86225651D01*
X149338794Y-86205602D01*
X149589250Y-86038252D01*
X149839706Y-86205602D01*
X150180750Y-86273440D01*
X151093250Y-86273440D01*
X151434294Y-86205602D01*
X151684750Y-86038252D01*
X151935206Y-86205602D01*
X152196677Y-86257612D01*
X151918569Y-86535720D01*
X151761000Y-86916126D01*
X151761000Y-87327874D01*
X151918569Y-87708280D01*
X152036000Y-87825711D01*
X152036001Y-88054288D01*
X151903569Y-88186720D01*
X151746000Y-88567126D01*
X151746000Y-88978874D01*
X151903569Y-89359280D01*
X152194720Y-89650431D01*
X152575126Y-89808000D01*
X152986874Y-89808000D01*
X153367280Y-89650431D01*
X153658431Y-89359280D01*
X153798965Y-89020000D01*
X153875874Y-89020000D01*
X154256280Y-88862431D01*
X154547431Y-88571280D01*
X154705000Y-88190874D01*
X154705000Y-87779126D01*
X154676471Y-87710250D01*
X171893000Y-87710250D01*
X171893000Y-88038309D01*
X171989673Y-88271698D01*
X172168301Y-88450327D01*
X172401690Y-88547000D01*
X172942250Y-88547000D01*
X173101000Y-88388250D01*
X173101000Y-87551500D01*
X173355000Y-87551500D01*
X173355000Y-88388250D01*
X173513750Y-88547000D01*
X174054310Y-88547000D01*
X174287699Y-88450327D01*
X174466327Y-88271698D01*
X174563000Y-88038309D01*
X174563000Y-87710250D01*
X174404250Y-87551500D01*
X173355000Y-87551500D01*
X173101000Y-87551500D01*
X172051750Y-87551500D01*
X171893000Y-87710250D01*
X154676471Y-87710250D01*
X154547431Y-87398720D01*
X154430000Y-87281289D01*
X154430000Y-87063711D01*
X154547431Y-86946280D01*
X154705000Y-86565874D01*
X154705000Y-86154126D01*
X154547431Y-85773720D01*
X154256280Y-85482569D01*
X154074927Y-85407450D01*
X154079940Y-85382250D01*
X154079940Y-84894750D01*
X154012102Y-84553706D01*
X153818916Y-84264584D01*
X153795782Y-84249126D01*
X158096000Y-84249126D01*
X158096000Y-84660874D01*
X158221144Y-84963000D01*
X158096000Y-85265126D01*
X158096000Y-85676874D01*
X158253569Y-86057280D01*
X158544720Y-86348431D01*
X158925126Y-86506000D01*
X159336874Y-86506000D01*
X159362456Y-86495404D01*
X159384999Y-86499888D01*
X159459846Y-86485000D01*
X160967289Y-86485000D01*
X161084720Y-86602431D01*
X161465126Y-86760000D01*
X161876874Y-86760000D01*
X162257280Y-86602431D01*
X162548431Y-86311280D01*
X162706000Y-85930874D01*
X162706000Y-85519126D01*
X162548431Y-85138720D01*
X162540651Y-85130940D01*
X162548431Y-85123159D01*
X162706000Y-84742753D01*
X162706000Y-84331005D01*
X162548431Y-83950599D01*
X162257280Y-83659448D01*
X161876874Y-83501879D01*
X161465126Y-83501879D01*
X161084720Y-83659448D01*
X160969679Y-83774489D01*
X159914200Y-83774489D01*
X159717280Y-83577569D01*
X159336874Y-83420000D01*
X158925126Y-83420000D01*
X158544720Y-83577569D01*
X158253569Y-83868720D01*
X158096000Y-84249126D01*
X153795782Y-84249126D01*
X153723756Y-84201000D01*
X153818916Y-84137416D01*
X154012102Y-83848294D01*
X154079940Y-83507250D01*
X154079940Y-83019750D01*
X154018079Y-82708750D01*
X163421000Y-82708750D01*
X163421000Y-83249310D01*
X163517673Y-83482699D01*
X163696302Y-83661327D01*
X163929691Y-83758000D01*
X164257750Y-83758000D01*
X164416500Y-83599250D01*
X164416500Y-82550000D01*
X163579750Y-82550000D01*
X163421000Y-82708750D01*
X154018079Y-82708750D01*
X154012102Y-82678706D01*
X153818916Y-82389584D01*
X153617500Y-82255002D01*
X153617500Y-82039455D01*
X153689000Y-81866838D01*
X153689000Y-81596690D01*
X163421000Y-81596690D01*
X163421000Y-82137250D01*
X163579750Y-82296000D01*
X164416500Y-82296000D01*
X164416500Y-81246750D01*
X164257750Y-81088000D01*
X163929691Y-81088000D01*
X163696302Y-81184673D01*
X163517673Y-81363301D01*
X163421000Y-81596690D01*
X153689000Y-81596690D01*
X153689000Y-81455090D01*
X153531431Y-81074684D01*
X153240280Y-80783533D01*
X152859874Y-80625964D01*
X152448126Y-80625964D01*
X152067720Y-80783533D01*
X151776569Y-81074684D01*
X151619000Y-81455090D01*
X151619000Y-81866838D01*
X151776569Y-82247244D01*
X151809630Y-82280305D01*
X151767489Y-82308463D01*
X151696699Y-82237673D01*
X151463310Y-82141000D01*
X150922750Y-82141000D01*
X150764000Y-82299750D01*
X150764000Y-83136500D01*
X150784000Y-83136500D01*
X150784000Y-83390500D01*
X150764000Y-83390500D01*
X150764000Y-83410500D01*
X150510000Y-83410500D01*
X150510000Y-83390500D01*
X148668500Y-83390500D01*
X148668500Y-83410500D01*
X148414500Y-83410500D01*
X148414500Y-83390500D01*
X147365250Y-83390500D01*
X147206500Y-83549250D01*
X147206500Y-83877309D01*
X147303173Y-84110698D01*
X147456267Y-84263793D01*
X147455084Y-84264584D01*
X147261898Y-84553706D01*
X147194060Y-84894750D01*
X122010000Y-84894750D01*
X122010000Y-78407156D01*
X130410000Y-78407156D01*
X130410000Y-78818904D01*
X130567569Y-79199310D01*
X130858720Y-79490461D01*
X131239126Y-79648030D01*
X131650874Y-79648030D01*
X132031280Y-79490461D01*
X132150741Y-79371000D01*
X134432993Y-79371000D01*
X134795126Y-79521000D01*
X135206874Y-79521000D01*
X135587280Y-79363431D01*
X135878431Y-79072280D01*
X136036000Y-78691874D01*
X136036000Y-78661126D01*
X140331000Y-78661126D01*
X140331000Y-79072874D01*
X140488569Y-79453280D01*
X140606001Y-79570712D01*
X140606000Y-80258789D01*
X140488569Y-80376220D01*
X140331000Y-80756626D01*
X140331000Y-81168374D01*
X140488569Y-81548780D01*
X140779720Y-81839931D01*
X141160126Y-81997500D01*
X141348502Y-81997500D01*
X141504569Y-82374280D01*
X141795720Y-82665431D01*
X142176126Y-82823000D01*
X142587874Y-82823000D01*
X142968280Y-82665431D01*
X142984020Y-82649691D01*
X147206500Y-82649691D01*
X147206500Y-82977750D01*
X147365250Y-83136500D01*
X148414500Y-83136500D01*
X148414500Y-82299750D01*
X148668500Y-82299750D01*
X148668500Y-83136500D01*
X150510000Y-83136500D01*
X150510000Y-82299750D01*
X150351250Y-82141000D01*
X149810690Y-82141000D01*
X149589250Y-82232724D01*
X149367810Y-82141000D01*
X148827250Y-82141000D01*
X148668500Y-82299750D01*
X148414500Y-82299750D01*
X148255750Y-82141000D01*
X147715190Y-82141000D01*
X147481801Y-82237673D01*
X147303173Y-82416302D01*
X147206500Y-82649691D01*
X142984020Y-82649691D01*
X143259431Y-82374280D01*
X143417000Y-81993874D01*
X143417000Y-81582126D01*
X143259431Y-81201720D01*
X143142000Y-81084289D01*
X143142000Y-78364211D01*
X143259431Y-78246780D01*
X143417000Y-77866374D01*
X143417000Y-77454626D01*
X143259431Y-77074220D01*
X142968280Y-76783069D01*
X142587874Y-76625500D01*
X142176126Y-76625500D01*
X141795720Y-76783069D01*
X141504569Y-77074220D01*
X141347000Y-77454626D01*
X141347000Y-77832000D01*
X141160126Y-77832000D01*
X140779720Y-77989569D01*
X140488569Y-78280720D01*
X140331000Y-78661126D01*
X136036000Y-78661126D01*
X136036000Y-78280126D01*
X135878431Y-77899720D01*
X135587280Y-77608569D01*
X135206874Y-77451000D01*
X134795126Y-77451000D01*
X134432993Y-77601000D01*
X131706329Y-77601000D01*
X131650874Y-77578030D01*
X131239126Y-77578030D01*
X130858720Y-77735599D01*
X130567569Y-78026750D01*
X130410000Y-78407156D01*
X122010000Y-78407156D01*
X122010000Y-75613094D01*
X155556000Y-75613094D01*
X155556000Y-76024842D01*
X155713569Y-76405248D01*
X156004720Y-76696399D01*
X156385126Y-76853968D01*
X156796874Y-76853968D01*
X157050068Y-76749092D01*
X157384585Y-76887653D01*
X157796333Y-76887653D01*
X158176739Y-76730084D01*
X158327823Y-76579000D01*
X166245001Y-76579000D01*
X166245000Y-77528289D01*
X166127569Y-77645720D01*
X165970000Y-78026126D01*
X165970000Y-78437874D01*
X166081376Y-78706760D01*
X166086270Y-78731364D01*
X166100207Y-78752223D01*
X166127569Y-78818280D01*
X166178126Y-78868837D01*
X166254244Y-78982756D01*
X166368163Y-79058874D01*
X166418720Y-79109431D01*
X166484777Y-79136793D01*
X166505636Y-79150730D01*
X166530240Y-79155624D01*
X166799126Y-79267000D01*
X167210874Y-79267000D01*
X167576494Y-79115556D01*
X167942114Y-79267000D01*
X168353862Y-79267000D01*
X168734268Y-79109431D01*
X169025419Y-78818280D01*
X169182988Y-78437874D01*
X169182988Y-78026126D01*
X169025419Y-77645720D01*
X168907988Y-77528289D01*
X168907988Y-75893836D01*
X168922876Y-75818988D01*
X168907988Y-75744140D01*
X168907988Y-75744136D01*
X168867676Y-75541472D01*
X168863892Y-75522450D01*
X168738317Y-75334515D01*
X168695917Y-75271059D01*
X168632461Y-75228659D01*
X167976331Y-74572530D01*
X167933929Y-74509071D01*
X167682537Y-74341096D01*
X167460852Y-74297000D01*
X167460847Y-74297000D01*
X167386000Y-74282112D01*
X167311153Y-74297000D01*
X156919846Y-74297000D01*
X156844999Y-74282112D01*
X156770152Y-74297000D01*
X156770148Y-74297000D01*
X156548463Y-74341096D01*
X156297071Y-74509071D01*
X156254669Y-74572530D01*
X156106530Y-74720669D01*
X156043071Y-74763071D01*
X155875096Y-75014464D01*
X155861018Y-75085239D01*
X155713569Y-75232688D01*
X155556000Y-75613094D01*
X122010000Y-75613094D01*
X122010000Y-71120000D01*
X188985908Y-71120000D01*
X189101161Y-71699418D01*
X189429375Y-72190625D01*
X189727761Y-72390000D01*
X189429375Y-72589375D01*
X189101161Y-73080582D01*
X188985908Y-73660000D01*
X189101161Y-74239418D01*
X189429375Y-74730625D01*
X189727761Y-74930000D01*
X189429375Y-75129375D01*
X189101161Y-75620582D01*
X188985908Y-76200000D01*
X189101161Y-76779418D01*
X189429375Y-77270625D01*
X189727761Y-77470000D01*
X189429375Y-77669375D01*
X189101161Y-78160582D01*
X188985908Y-78740000D01*
X189101161Y-79319418D01*
X189429375Y-79810625D01*
X189727761Y-80010000D01*
X189429375Y-80209375D01*
X189101161Y-80700582D01*
X188985908Y-81280000D01*
X189101161Y-81859418D01*
X189429375Y-82350625D01*
X189727761Y-82550000D01*
X189429375Y-82749375D01*
X189101161Y-83240582D01*
X188985908Y-83820000D01*
X189101161Y-84399418D01*
X189429375Y-84890625D01*
X189727761Y-85090000D01*
X189429375Y-85289375D01*
X189101161Y-85780582D01*
X188985908Y-86360000D01*
X189101161Y-86939418D01*
X189429375Y-87430625D01*
X189727761Y-87630000D01*
X189429375Y-87829375D01*
X189101161Y-88320582D01*
X188985908Y-88900000D01*
X189101161Y-89479418D01*
X189429375Y-89970625D01*
X189727761Y-90170000D01*
X189429375Y-90369375D01*
X189101161Y-90860582D01*
X188985908Y-91440000D01*
X189101161Y-92019418D01*
X189429375Y-92510625D01*
X189727761Y-92710000D01*
X189429375Y-92909375D01*
X189101161Y-93400582D01*
X188985908Y-93980000D01*
X189101161Y-94559418D01*
X189429375Y-95050625D01*
X189727761Y-95250000D01*
X189429375Y-95449375D01*
X189101161Y-95940582D01*
X188985908Y-96520000D01*
X189101161Y-97099418D01*
X189429375Y-97590625D01*
X189727761Y-97790000D01*
X189429375Y-97989375D01*
X189101161Y-98480582D01*
X188985908Y-99060000D01*
X189101161Y-99639418D01*
X189429375Y-100130625D01*
X189727761Y-100330000D01*
X189429375Y-100529375D01*
X189101161Y-101020582D01*
X188985908Y-101600000D01*
X189101161Y-102179418D01*
X189429375Y-102670625D01*
X189727761Y-102870000D01*
X189429375Y-103069375D01*
X189101161Y-103560582D01*
X188985908Y-104140000D01*
X189101161Y-104719418D01*
X189429375Y-105210625D01*
X189727761Y-105410000D01*
X189429375Y-105609375D01*
X189101161Y-106100582D01*
X188985908Y-106680000D01*
X189101161Y-107259418D01*
X189429375Y-107750625D01*
X189727761Y-107950000D01*
X189429375Y-108149375D01*
X189101161Y-108640582D01*
X188985908Y-109220000D01*
X189101161Y-109799418D01*
X189429375Y-110290625D01*
X189920582Y-110618839D01*
X190353744Y-110705000D01*
X190646256Y-110705000D01*
X191079418Y-110618839D01*
X191570625Y-110290625D01*
X191770000Y-109992239D01*
X191969375Y-110290625D01*
X192460582Y-110618839D01*
X192893744Y-110705000D01*
X193186256Y-110705000D01*
X193619418Y-110618839D01*
X194110625Y-110290625D01*
X194438839Y-109799418D01*
X194554092Y-109220000D01*
X194438839Y-108640582D01*
X194110625Y-108149375D01*
X193812239Y-107950000D01*
X194110625Y-107750625D01*
X194438839Y-107259418D01*
X194554092Y-106680000D01*
X194438839Y-106100582D01*
X194110625Y-105609375D01*
X193812239Y-105410000D01*
X194110625Y-105210625D01*
X194438839Y-104719418D01*
X194554092Y-104140000D01*
X194438839Y-103560582D01*
X194110625Y-103069375D01*
X193812239Y-102870000D01*
X194110625Y-102670625D01*
X194438839Y-102179418D01*
X194554092Y-101600000D01*
X194438839Y-101020582D01*
X194110625Y-100529375D01*
X193812239Y-100330000D01*
X194110625Y-100130625D01*
X194438839Y-99639418D01*
X194554092Y-99060000D01*
X194438839Y-98480582D01*
X194110625Y-97989375D01*
X193812239Y-97790000D01*
X194110625Y-97590625D01*
X194438839Y-97099418D01*
X194554092Y-96520000D01*
X194438839Y-95940582D01*
X194110625Y-95449375D01*
X193812239Y-95250000D01*
X194110625Y-95050625D01*
X194438839Y-94559418D01*
X194554092Y-93980000D01*
X194438839Y-93400582D01*
X194110625Y-92909375D01*
X193812239Y-92710000D01*
X194110625Y-92510625D01*
X194438839Y-92019418D01*
X194554092Y-91440000D01*
X194438839Y-90860582D01*
X194110625Y-90369375D01*
X193812239Y-90170000D01*
X194110625Y-89970625D01*
X194438839Y-89479418D01*
X194554092Y-88900000D01*
X194438839Y-88320582D01*
X194110625Y-87829375D01*
X193812239Y-87630000D01*
X194110625Y-87430625D01*
X194438839Y-86939418D01*
X194554092Y-86360000D01*
X194438839Y-85780582D01*
X194110625Y-85289375D01*
X193812239Y-85090000D01*
X194110625Y-84890625D01*
X194438839Y-84399418D01*
X194554092Y-83820000D01*
X194438839Y-83240582D01*
X194110625Y-82749375D01*
X193812239Y-82550000D01*
X194110625Y-82350625D01*
X194438839Y-81859418D01*
X194554092Y-81280000D01*
X194438839Y-80700582D01*
X194110625Y-80209375D01*
X193812239Y-80010000D01*
X194110625Y-79810625D01*
X194438839Y-79319418D01*
X194554092Y-78740000D01*
X194438839Y-78160582D01*
X194110625Y-77669375D01*
X193812239Y-77470000D01*
X194110625Y-77270625D01*
X194438839Y-76779418D01*
X194554092Y-76200000D01*
X194438839Y-75620582D01*
X194110625Y-75129375D01*
X193812239Y-74930000D01*
X194110625Y-74730625D01*
X194438839Y-74239418D01*
X194554092Y-73660000D01*
X194438839Y-73080582D01*
X194110625Y-72589375D01*
X193812239Y-72390000D01*
X194110625Y-72190625D01*
X194438839Y-71699418D01*
X194554092Y-71120000D01*
X194438839Y-70540582D01*
X194110625Y-70049375D01*
X193812239Y-69850000D01*
X194110625Y-69650625D01*
X194438839Y-69159418D01*
X194554092Y-68580000D01*
X194438839Y-68000582D01*
X194110625Y-67509375D01*
X193619418Y-67181161D01*
X193186256Y-67095000D01*
X192893744Y-67095000D01*
X192460582Y-67181161D01*
X191969375Y-67509375D01*
X191954904Y-67531032D01*
X191888327Y-67370301D01*
X191709698Y-67191673D01*
X191476309Y-67095000D01*
X190785750Y-67095000D01*
X190627000Y-67253750D01*
X190627000Y-68453000D01*
X190647000Y-68453000D01*
X190647000Y-68707000D01*
X190627000Y-68707000D01*
X190627000Y-68727000D01*
X190373000Y-68727000D01*
X190373000Y-68707000D01*
X189173750Y-68707000D01*
X189015000Y-68865750D01*
X189015000Y-69556310D01*
X189111673Y-69789699D01*
X189290302Y-69968327D01*
X189451033Y-70034904D01*
X189429375Y-70049375D01*
X189101161Y-70540582D01*
X188985908Y-71120000D01*
X122010000Y-71120000D01*
X122010000Y-67603690D01*
X189015000Y-67603690D01*
X189015000Y-68294250D01*
X189173750Y-68453000D01*
X190373000Y-68453000D01*
X190373000Y-67253750D01*
X190214250Y-67095000D01*
X189523691Y-67095000D01*
X189290302Y-67191673D01*
X189111673Y-67370301D01*
X189015000Y-67603690D01*
X122010000Y-67603690D01*
X122010000Y-67354666D01*
X122072958Y-66856302D01*
X122241305Y-66431107D01*
X122510101Y-66061142D01*
X122862462Y-65769644D01*
X123276244Y-65574933D01*
X123758662Y-65482907D01*
X123851164Y-65480000D01*
X195535334Y-65480000D01*
X196033698Y-65542958D01*
G04 #@! TD*
M02*
