G04 #@! TF.GenerationSoftware,KiCad,Pcbnew,5.0.1-33cea8e~68~ubuntu18.04.1*
G04 #@! TF.CreationDate,2018-12-16T18:27:52+03:00*
G04 #@! TF.ProjectId,up5k_v0,7570356B5F76302E6B696361645F7063,rev?*
G04 #@! TF.SameCoordinates,Original*
G04 #@! TF.FileFunction,Soldermask,Top*
G04 #@! TF.FilePolarity,Negative*
%FSLAX46Y46*%
G04 Gerber Fmt 4.6, Leading zero omitted, Abs format (unit mm)*
G04 Created by KiCad (PCBNEW 5.0.1-33cea8e~68~ubuntu18.04.1) date Paz 16 Ara 2018 18:27:52 +03*
%MOMM*%
%LPD*%
G01*
G04 APERTURE LIST*
%ADD10C,0.100000*%
G04 APERTURE END LIST*
D10*
G36*
X177839466Y-110632565D02*
X177878137Y-110644296D01*
X177913779Y-110663348D01*
X177945017Y-110688983D01*
X177970652Y-110720221D01*
X177989704Y-110755863D01*
X178001435Y-110794534D01*
X178006000Y-110840888D01*
X178006000Y-111917112D01*
X178001435Y-111963466D01*
X177989704Y-112002137D01*
X177970652Y-112037779D01*
X177945017Y-112069017D01*
X177913779Y-112094652D01*
X177878137Y-112113704D01*
X177839466Y-112125435D01*
X177793112Y-112130000D01*
X177141888Y-112130000D01*
X177095534Y-112125435D01*
X177056863Y-112113704D01*
X177021221Y-112094652D01*
X176989983Y-112069017D01*
X176964348Y-112037779D01*
X176945296Y-112002137D01*
X176933565Y-111963466D01*
X176929000Y-111917112D01*
X176929000Y-110840888D01*
X176933565Y-110794534D01*
X176945296Y-110755863D01*
X176964348Y-110720221D01*
X176989983Y-110688983D01*
X177021221Y-110663348D01*
X177056863Y-110644296D01*
X177095534Y-110632565D01*
X177141888Y-110628000D01*
X177793112Y-110628000D01*
X177839466Y-110632565D01*
X177839466Y-110632565D01*
G37*
G36*
X175964466Y-110632565D02*
X176003137Y-110644296D01*
X176038779Y-110663348D01*
X176070017Y-110688983D01*
X176095652Y-110720221D01*
X176114704Y-110755863D01*
X176126435Y-110794534D01*
X176131000Y-110840888D01*
X176131000Y-111917112D01*
X176126435Y-111963466D01*
X176114704Y-112002137D01*
X176095652Y-112037779D01*
X176070017Y-112069017D01*
X176038779Y-112094652D01*
X176003137Y-112113704D01*
X175964466Y-112125435D01*
X175918112Y-112130000D01*
X175266888Y-112130000D01*
X175220534Y-112125435D01*
X175181863Y-112113704D01*
X175146221Y-112094652D01*
X175114983Y-112069017D01*
X175089348Y-112037779D01*
X175070296Y-112002137D01*
X175058565Y-111963466D01*
X175054000Y-111917112D01*
X175054000Y-110840888D01*
X175058565Y-110794534D01*
X175070296Y-110755863D01*
X175089348Y-110720221D01*
X175114983Y-110688983D01*
X175146221Y-110663348D01*
X175181863Y-110644296D01*
X175220534Y-110632565D01*
X175266888Y-110628000D01*
X175918112Y-110628000D01*
X175964466Y-110632565D01*
X175964466Y-110632565D01*
G37*
G36*
X131902466Y-109623565D02*
X131941137Y-109635296D01*
X131976779Y-109654348D01*
X132008017Y-109679983D01*
X132033652Y-109711221D01*
X132052704Y-109746863D01*
X132064435Y-109785534D01*
X132069000Y-109831888D01*
X132069000Y-110483112D01*
X132064435Y-110529466D01*
X132052704Y-110568137D01*
X132033652Y-110603779D01*
X132008017Y-110635017D01*
X131976779Y-110660652D01*
X131941137Y-110679704D01*
X131902466Y-110691435D01*
X131856112Y-110696000D01*
X130779888Y-110696000D01*
X130733534Y-110691435D01*
X130694863Y-110679704D01*
X130659221Y-110660652D01*
X130627983Y-110635017D01*
X130602348Y-110603779D01*
X130583296Y-110568137D01*
X130571565Y-110529466D01*
X130567000Y-110483112D01*
X130567000Y-109831888D01*
X130571565Y-109785534D01*
X130583296Y-109746863D01*
X130602348Y-109711221D01*
X130627983Y-109679983D01*
X130659221Y-109654348D01*
X130694863Y-109635296D01*
X130733534Y-109623565D01*
X130779888Y-109619000D01*
X131856112Y-109619000D01*
X131902466Y-109623565D01*
X131902466Y-109623565D01*
G37*
G36*
X128787400Y-110671000D02*
X127635400Y-110671000D01*
X127635400Y-109919000D01*
X128787400Y-109919000D01*
X128787400Y-110671000D01*
X128787400Y-110671000D01*
G37*
G36*
X124637400Y-110671000D02*
X123485400Y-110671000D01*
X123485400Y-109919000D01*
X124637400Y-109919000D01*
X124637400Y-110671000D01*
X124637400Y-110671000D01*
G37*
G36*
X134848200Y-110620200D02*
X133696200Y-110620200D01*
X133696200Y-109868200D01*
X134848200Y-109868200D01*
X134848200Y-110620200D01*
X134848200Y-110620200D01*
G37*
G36*
X138998200Y-110620200D02*
X137846200Y-110620200D01*
X137846200Y-109868200D01*
X138998200Y-109868200D01*
X138998200Y-110620200D01*
X138998200Y-110620200D01*
G37*
G36*
X143395000Y-110121000D02*
X141593000Y-110121000D01*
X141593000Y-108319000D01*
X143395000Y-108319000D01*
X143395000Y-110121000D01*
X143395000Y-110121000D01*
G37*
G36*
X190610443Y-108325519D02*
X190676627Y-108332037D01*
X190739047Y-108350972D01*
X190846467Y-108383557D01*
X190936576Y-108431722D01*
X191002991Y-108467222D01*
X191038729Y-108496552D01*
X191140186Y-108579814D01*
X191223448Y-108681271D01*
X191252778Y-108717009D01*
X191252779Y-108717011D01*
X191336443Y-108873533D01*
X191336443Y-108873534D01*
X191387963Y-109043373D01*
X191405359Y-109220000D01*
X191387963Y-109396627D01*
X191356521Y-109500278D01*
X191336443Y-109566467D01*
X191274874Y-109681652D01*
X191252778Y-109722991D01*
X191223448Y-109758729D01*
X191140186Y-109860186D01*
X191038729Y-109943448D01*
X191002991Y-109972778D01*
X191002989Y-109972779D01*
X190846467Y-110056443D01*
X190789853Y-110073616D01*
X190676627Y-110107963D01*
X190610443Y-110114481D01*
X190544260Y-110121000D01*
X190455740Y-110121000D01*
X190389557Y-110114481D01*
X190323373Y-110107963D01*
X190210147Y-110073616D01*
X190153533Y-110056443D01*
X189997011Y-109972779D01*
X189997009Y-109972778D01*
X189961271Y-109943448D01*
X189859814Y-109860186D01*
X189776552Y-109758729D01*
X189747222Y-109722991D01*
X189725126Y-109681652D01*
X189663557Y-109566467D01*
X189643479Y-109500278D01*
X189612037Y-109396627D01*
X189594641Y-109220000D01*
X189612037Y-109043373D01*
X189663557Y-108873534D01*
X189663557Y-108873533D01*
X189747221Y-108717011D01*
X189747222Y-108717009D01*
X189776552Y-108681271D01*
X189859814Y-108579814D01*
X189961271Y-108496552D01*
X189997009Y-108467222D01*
X190063424Y-108431722D01*
X190153533Y-108383557D01*
X190260953Y-108350972D01*
X190323373Y-108332037D01*
X190389557Y-108325519D01*
X190455740Y-108319000D01*
X190544260Y-108319000D01*
X190610443Y-108325519D01*
X190610443Y-108325519D01*
G37*
G36*
X152764443Y-108325519D02*
X152830627Y-108332037D01*
X152893047Y-108350972D01*
X153000467Y-108383557D01*
X153090576Y-108431722D01*
X153156991Y-108467222D01*
X153192729Y-108496552D01*
X153294186Y-108579814D01*
X153377448Y-108681271D01*
X153406778Y-108717009D01*
X153406779Y-108717011D01*
X153490443Y-108873533D01*
X153490443Y-108873534D01*
X153541963Y-109043373D01*
X153559359Y-109220000D01*
X153541963Y-109396627D01*
X153510521Y-109500278D01*
X153490443Y-109566467D01*
X153428874Y-109681652D01*
X153406778Y-109722991D01*
X153377448Y-109758729D01*
X153294186Y-109860186D01*
X153192729Y-109943448D01*
X153156991Y-109972778D01*
X153156989Y-109972779D01*
X153000467Y-110056443D01*
X152943853Y-110073616D01*
X152830627Y-110107963D01*
X152764443Y-110114481D01*
X152698260Y-110121000D01*
X152609740Y-110121000D01*
X152543557Y-110114481D01*
X152477373Y-110107963D01*
X152364147Y-110073616D01*
X152307533Y-110056443D01*
X152151011Y-109972779D01*
X152151009Y-109972778D01*
X152115271Y-109943448D01*
X152013814Y-109860186D01*
X151930552Y-109758729D01*
X151901222Y-109722991D01*
X151879126Y-109681652D01*
X151817557Y-109566467D01*
X151797479Y-109500278D01*
X151766037Y-109396627D01*
X151748641Y-109220000D01*
X151766037Y-109043373D01*
X151817557Y-108873534D01*
X151817557Y-108873533D01*
X151901221Y-108717011D01*
X151901222Y-108717009D01*
X151930552Y-108681271D01*
X152013814Y-108579814D01*
X152115271Y-108496552D01*
X152151009Y-108467222D01*
X152217424Y-108431722D01*
X152307533Y-108383557D01*
X152414953Y-108350972D01*
X152477373Y-108332037D01*
X152543557Y-108325519D01*
X152609740Y-108319000D01*
X152698260Y-108319000D01*
X152764443Y-108325519D01*
X152764443Y-108325519D01*
G37*
G36*
X150224443Y-108325519D02*
X150290627Y-108332037D01*
X150353047Y-108350972D01*
X150460467Y-108383557D01*
X150550576Y-108431722D01*
X150616991Y-108467222D01*
X150652729Y-108496552D01*
X150754186Y-108579814D01*
X150837448Y-108681271D01*
X150866778Y-108717009D01*
X150866779Y-108717011D01*
X150950443Y-108873533D01*
X150950443Y-108873534D01*
X151001963Y-109043373D01*
X151019359Y-109220000D01*
X151001963Y-109396627D01*
X150970521Y-109500278D01*
X150950443Y-109566467D01*
X150888874Y-109681652D01*
X150866778Y-109722991D01*
X150837448Y-109758729D01*
X150754186Y-109860186D01*
X150652729Y-109943448D01*
X150616991Y-109972778D01*
X150616989Y-109972779D01*
X150460467Y-110056443D01*
X150403853Y-110073616D01*
X150290627Y-110107963D01*
X150224443Y-110114481D01*
X150158260Y-110121000D01*
X150069740Y-110121000D01*
X150003557Y-110114481D01*
X149937373Y-110107963D01*
X149824147Y-110073616D01*
X149767533Y-110056443D01*
X149611011Y-109972779D01*
X149611009Y-109972778D01*
X149575271Y-109943448D01*
X149473814Y-109860186D01*
X149390552Y-109758729D01*
X149361222Y-109722991D01*
X149339126Y-109681652D01*
X149277557Y-109566467D01*
X149257479Y-109500278D01*
X149226037Y-109396627D01*
X149208641Y-109220000D01*
X149226037Y-109043373D01*
X149277557Y-108873534D01*
X149277557Y-108873533D01*
X149361221Y-108717011D01*
X149361222Y-108717009D01*
X149390552Y-108681271D01*
X149473814Y-108579814D01*
X149575271Y-108496552D01*
X149611009Y-108467222D01*
X149677424Y-108431722D01*
X149767533Y-108383557D01*
X149874953Y-108350972D01*
X149937373Y-108332037D01*
X150003557Y-108325519D01*
X150069740Y-108319000D01*
X150158260Y-108319000D01*
X150224443Y-108325519D01*
X150224443Y-108325519D01*
G37*
G36*
X193150443Y-108325519D02*
X193216627Y-108332037D01*
X193279047Y-108350972D01*
X193386467Y-108383557D01*
X193476576Y-108431722D01*
X193542991Y-108467222D01*
X193578729Y-108496552D01*
X193680186Y-108579814D01*
X193763448Y-108681271D01*
X193792778Y-108717009D01*
X193792779Y-108717011D01*
X193876443Y-108873533D01*
X193876443Y-108873534D01*
X193927963Y-109043373D01*
X193945359Y-109220000D01*
X193927963Y-109396627D01*
X193896521Y-109500278D01*
X193876443Y-109566467D01*
X193814874Y-109681652D01*
X193792778Y-109722991D01*
X193763448Y-109758729D01*
X193680186Y-109860186D01*
X193578729Y-109943448D01*
X193542991Y-109972778D01*
X193542989Y-109972779D01*
X193386467Y-110056443D01*
X193329853Y-110073616D01*
X193216627Y-110107963D01*
X193150443Y-110114481D01*
X193084260Y-110121000D01*
X192995740Y-110121000D01*
X192929557Y-110114481D01*
X192863373Y-110107963D01*
X192750147Y-110073616D01*
X192693533Y-110056443D01*
X192537011Y-109972779D01*
X192537009Y-109972778D01*
X192501271Y-109943448D01*
X192399814Y-109860186D01*
X192316552Y-109758729D01*
X192287222Y-109722991D01*
X192265126Y-109681652D01*
X192203557Y-109566467D01*
X192183479Y-109500278D01*
X192152037Y-109396627D01*
X192134641Y-109220000D01*
X192152037Y-109043373D01*
X192203557Y-108873534D01*
X192203557Y-108873533D01*
X192287221Y-108717011D01*
X192287222Y-108717009D01*
X192316552Y-108681271D01*
X192399814Y-108579814D01*
X192501271Y-108496552D01*
X192537009Y-108467222D01*
X192603424Y-108431722D01*
X192693533Y-108383557D01*
X192800953Y-108350972D01*
X192863373Y-108332037D01*
X192929557Y-108325519D01*
X192995740Y-108319000D01*
X193084260Y-108319000D01*
X193150443Y-108325519D01*
X193150443Y-108325519D01*
G37*
G36*
X145144443Y-108325519D02*
X145210627Y-108332037D01*
X145273047Y-108350972D01*
X145380467Y-108383557D01*
X145470576Y-108431722D01*
X145536991Y-108467222D01*
X145572729Y-108496552D01*
X145674186Y-108579814D01*
X145757448Y-108681271D01*
X145786778Y-108717009D01*
X145786779Y-108717011D01*
X145870443Y-108873533D01*
X145870443Y-108873534D01*
X145921963Y-109043373D01*
X145939359Y-109220000D01*
X145921963Y-109396627D01*
X145890521Y-109500278D01*
X145870443Y-109566467D01*
X145808874Y-109681652D01*
X145786778Y-109722991D01*
X145757448Y-109758729D01*
X145674186Y-109860186D01*
X145572729Y-109943448D01*
X145536991Y-109972778D01*
X145536989Y-109972779D01*
X145380467Y-110056443D01*
X145323853Y-110073616D01*
X145210627Y-110107963D01*
X145144443Y-110114481D01*
X145078260Y-110121000D01*
X144989740Y-110121000D01*
X144923557Y-110114481D01*
X144857373Y-110107963D01*
X144744147Y-110073616D01*
X144687533Y-110056443D01*
X144531011Y-109972779D01*
X144531009Y-109972778D01*
X144495271Y-109943448D01*
X144393814Y-109860186D01*
X144310552Y-109758729D01*
X144281222Y-109722991D01*
X144259126Y-109681652D01*
X144197557Y-109566467D01*
X144177479Y-109500278D01*
X144146037Y-109396627D01*
X144128641Y-109220000D01*
X144146037Y-109043373D01*
X144197557Y-108873534D01*
X144197557Y-108873533D01*
X144281221Y-108717011D01*
X144281222Y-108717009D01*
X144310552Y-108681271D01*
X144393814Y-108579814D01*
X144495271Y-108496552D01*
X144531009Y-108467222D01*
X144597424Y-108431722D01*
X144687533Y-108383557D01*
X144794953Y-108350972D01*
X144857373Y-108332037D01*
X144923557Y-108325519D01*
X144989740Y-108319000D01*
X145078260Y-108319000D01*
X145144443Y-108325519D01*
X145144443Y-108325519D01*
G37*
G36*
X147684443Y-108325519D02*
X147750627Y-108332037D01*
X147813047Y-108350972D01*
X147920467Y-108383557D01*
X148010576Y-108431722D01*
X148076991Y-108467222D01*
X148112729Y-108496552D01*
X148214186Y-108579814D01*
X148297448Y-108681271D01*
X148326778Y-108717009D01*
X148326779Y-108717011D01*
X148410443Y-108873533D01*
X148410443Y-108873534D01*
X148461963Y-109043373D01*
X148479359Y-109220000D01*
X148461963Y-109396627D01*
X148430521Y-109500278D01*
X148410443Y-109566467D01*
X148348874Y-109681652D01*
X148326778Y-109722991D01*
X148297448Y-109758729D01*
X148214186Y-109860186D01*
X148112729Y-109943448D01*
X148076991Y-109972778D01*
X148076989Y-109972779D01*
X147920467Y-110056443D01*
X147863853Y-110073616D01*
X147750627Y-110107963D01*
X147684443Y-110114481D01*
X147618260Y-110121000D01*
X147529740Y-110121000D01*
X147463557Y-110114481D01*
X147397373Y-110107963D01*
X147284147Y-110073616D01*
X147227533Y-110056443D01*
X147071011Y-109972779D01*
X147071009Y-109972778D01*
X147035271Y-109943448D01*
X146933814Y-109860186D01*
X146850552Y-109758729D01*
X146821222Y-109722991D01*
X146799126Y-109681652D01*
X146737557Y-109566467D01*
X146717479Y-109500278D01*
X146686037Y-109396627D01*
X146668641Y-109220000D01*
X146686037Y-109043373D01*
X146737557Y-108873534D01*
X146737557Y-108873533D01*
X146821221Y-108717011D01*
X146821222Y-108717009D01*
X146850552Y-108681271D01*
X146933814Y-108579814D01*
X147035271Y-108496552D01*
X147071009Y-108467222D01*
X147137424Y-108431722D01*
X147227533Y-108383557D01*
X147334953Y-108350972D01*
X147397373Y-108332037D01*
X147463557Y-108325519D01*
X147529740Y-108319000D01*
X147618260Y-108319000D01*
X147684443Y-108325519D01*
X147684443Y-108325519D01*
G37*
G36*
X178281000Y-109884000D02*
X176879000Y-109884000D01*
X176879000Y-108682000D01*
X178281000Y-108682000D01*
X178281000Y-109884000D01*
X178281000Y-109884000D01*
G37*
G36*
X176181000Y-109884000D02*
X174779000Y-109884000D01*
X174779000Y-108682000D01*
X176181000Y-108682000D01*
X176181000Y-109884000D01*
X176181000Y-109884000D01*
G37*
G36*
X164661466Y-108219565D02*
X164700137Y-108231296D01*
X164735779Y-108250348D01*
X164767017Y-108275983D01*
X164792652Y-108307221D01*
X164811704Y-108342863D01*
X164823435Y-108381534D01*
X164828000Y-108427888D01*
X164828000Y-109504112D01*
X164823435Y-109550466D01*
X164811704Y-109589137D01*
X164792652Y-109624779D01*
X164767017Y-109656017D01*
X164735779Y-109681652D01*
X164700137Y-109700704D01*
X164661466Y-109712435D01*
X164615112Y-109717000D01*
X163963888Y-109717000D01*
X163917534Y-109712435D01*
X163878863Y-109700704D01*
X163843221Y-109681652D01*
X163811983Y-109656017D01*
X163786348Y-109624779D01*
X163767296Y-109589137D01*
X163755565Y-109550466D01*
X163751000Y-109504112D01*
X163751000Y-108427888D01*
X163755565Y-108381534D01*
X163767296Y-108342863D01*
X163786348Y-108307221D01*
X163811983Y-108275983D01*
X163843221Y-108250348D01*
X163878863Y-108231296D01*
X163917534Y-108219565D01*
X163963888Y-108215000D01*
X164615112Y-108215000D01*
X164661466Y-108219565D01*
X164661466Y-108219565D01*
G37*
G36*
X166536466Y-108219565D02*
X166575137Y-108231296D01*
X166610779Y-108250348D01*
X166642017Y-108275983D01*
X166667652Y-108307221D01*
X166686704Y-108342863D01*
X166698435Y-108381534D01*
X166703000Y-108427888D01*
X166703000Y-109504112D01*
X166698435Y-109550466D01*
X166686704Y-109589137D01*
X166667652Y-109624779D01*
X166642017Y-109656017D01*
X166610779Y-109681652D01*
X166575137Y-109700704D01*
X166536466Y-109712435D01*
X166490112Y-109717000D01*
X165838888Y-109717000D01*
X165792534Y-109712435D01*
X165753863Y-109700704D01*
X165718221Y-109681652D01*
X165686983Y-109656017D01*
X165661348Y-109624779D01*
X165642296Y-109589137D01*
X165630565Y-109550466D01*
X165626000Y-109504112D01*
X165626000Y-108427888D01*
X165630565Y-108381534D01*
X165642296Y-108342863D01*
X165661348Y-108307221D01*
X165686983Y-108275983D01*
X165718221Y-108250348D01*
X165753863Y-108231296D01*
X165792534Y-108219565D01*
X165838888Y-108215000D01*
X166490112Y-108215000D01*
X166536466Y-108219565D01*
X166536466Y-108219565D01*
G37*
G36*
X169648782Y-108269295D02*
X169684815Y-108280226D01*
X169718028Y-108297979D01*
X169747134Y-108321866D01*
X169771021Y-108350972D01*
X169788774Y-108384185D01*
X169799705Y-108420218D01*
X169804000Y-108463830D01*
X169804000Y-109468170D01*
X169799705Y-109511782D01*
X169788774Y-109547815D01*
X169771021Y-109581028D01*
X169747134Y-109610134D01*
X169718028Y-109634021D01*
X169684815Y-109651774D01*
X169648782Y-109662705D01*
X169605170Y-109667000D01*
X168575830Y-109667000D01*
X168532218Y-109662705D01*
X168496185Y-109651774D01*
X168462972Y-109634021D01*
X168433866Y-109610134D01*
X168409979Y-109581028D01*
X168392226Y-109547815D01*
X168381295Y-109511782D01*
X168377000Y-109468170D01*
X168377000Y-108463830D01*
X168381295Y-108420218D01*
X168392226Y-108384185D01*
X168409979Y-108350972D01*
X168433866Y-108321866D01*
X168462972Y-108297979D01*
X168496185Y-108280226D01*
X168532218Y-108269295D01*
X168575830Y-108265000D01*
X169605170Y-108265000D01*
X169648782Y-108269295D01*
X169648782Y-108269295D01*
G37*
G36*
X171573782Y-108269295D02*
X171609815Y-108280226D01*
X171643028Y-108297979D01*
X171672134Y-108321866D01*
X171696021Y-108350972D01*
X171713774Y-108384185D01*
X171724705Y-108420218D01*
X171729000Y-108463830D01*
X171729000Y-109468170D01*
X171724705Y-109511782D01*
X171713774Y-109547815D01*
X171696021Y-109581028D01*
X171672134Y-109610134D01*
X171643028Y-109634021D01*
X171609815Y-109651774D01*
X171573782Y-109662705D01*
X171530170Y-109667000D01*
X170500830Y-109667000D01*
X170457218Y-109662705D01*
X170421185Y-109651774D01*
X170387972Y-109634021D01*
X170358866Y-109610134D01*
X170334979Y-109581028D01*
X170317226Y-109547815D01*
X170306295Y-109511782D01*
X170302000Y-109468170D01*
X170302000Y-108463830D01*
X170306295Y-108420218D01*
X170317226Y-108384185D01*
X170334979Y-108350972D01*
X170358866Y-108321866D01*
X170387972Y-108297979D01*
X170421185Y-108280226D01*
X170457218Y-108269295D01*
X170500830Y-108265000D01*
X171530170Y-108265000D01*
X171573782Y-108269295D01*
X171573782Y-108269295D01*
G37*
G36*
X131902466Y-107748565D02*
X131941137Y-107760296D01*
X131976779Y-107779348D01*
X132008017Y-107804983D01*
X132033652Y-107836221D01*
X132052704Y-107871863D01*
X132064435Y-107910534D01*
X132069000Y-107956888D01*
X132069000Y-108608112D01*
X132064435Y-108654466D01*
X132052704Y-108693137D01*
X132033652Y-108728779D01*
X132008017Y-108760017D01*
X131976779Y-108785652D01*
X131941137Y-108804704D01*
X131902466Y-108816435D01*
X131856112Y-108821000D01*
X130779888Y-108821000D01*
X130733534Y-108816435D01*
X130694863Y-108804704D01*
X130659221Y-108785652D01*
X130627983Y-108760017D01*
X130602348Y-108728779D01*
X130583296Y-108693137D01*
X130571565Y-108654466D01*
X130567000Y-108608112D01*
X130567000Y-107956888D01*
X130571565Y-107910534D01*
X130583296Y-107871863D01*
X130602348Y-107836221D01*
X130627983Y-107804983D01*
X130659221Y-107779348D01*
X130694863Y-107760296D01*
X130733534Y-107748565D01*
X130779888Y-107744000D01*
X131856112Y-107744000D01*
X131902466Y-107748565D01*
X131902466Y-107748565D01*
G37*
G36*
X124637400Y-108521000D02*
X123485400Y-108521000D01*
X123485400Y-107769000D01*
X124637400Y-107769000D01*
X124637400Y-108521000D01*
X124637400Y-108521000D01*
G37*
G36*
X128787400Y-108521000D02*
X127635400Y-108521000D01*
X127635400Y-107769000D01*
X128787400Y-107769000D01*
X128787400Y-108521000D01*
X128787400Y-108521000D01*
G37*
G36*
X138998200Y-108470200D02*
X137846200Y-108470200D01*
X137846200Y-107718200D01*
X138998200Y-107718200D01*
X138998200Y-108470200D01*
X138998200Y-108470200D01*
G37*
G36*
X134848200Y-108470200D02*
X133696200Y-108470200D01*
X133696200Y-107718200D01*
X134848200Y-107718200D01*
X134848200Y-108470200D01*
X134848200Y-108470200D01*
G37*
G36*
X176181000Y-108234000D02*
X174779000Y-108234000D01*
X174779000Y-107032000D01*
X176181000Y-107032000D01*
X176181000Y-108234000D01*
X176181000Y-108234000D01*
G37*
G36*
X178281000Y-108234000D02*
X176879000Y-108234000D01*
X176879000Y-107032000D01*
X178281000Y-107032000D01*
X178281000Y-108234000D01*
X178281000Y-108234000D01*
G37*
G36*
X193150443Y-105785519D02*
X193216627Y-105792037D01*
X193329853Y-105826384D01*
X193386467Y-105843557D01*
X193452816Y-105879022D01*
X193542991Y-105927222D01*
X193578729Y-105956552D01*
X193680186Y-106039814D01*
X193763448Y-106141271D01*
X193792778Y-106177009D01*
X193792779Y-106177011D01*
X193876443Y-106333533D01*
X193876443Y-106333534D01*
X193927963Y-106503373D01*
X193945359Y-106680000D01*
X193927963Y-106856627D01*
X193908426Y-106921032D01*
X193876443Y-107026467D01*
X193821663Y-107128952D01*
X193792778Y-107182991D01*
X193763448Y-107218729D01*
X193680186Y-107320186D01*
X193578729Y-107403448D01*
X193542991Y-107432778D01*
X193542989Y-107432779D01*
X193386467Y-107516443D01*
X193329853Y-107533616D01*
X193216627Y-107567963D01*
X193150443Y-107574481D01*
X193084260Y-107581000D01*
X192995740Y-107581000D01*
X192929557Y-107574481D01*
X192863373Y-107567963D01*
X192750147Y-107533616D01*
X192693533Y-107516443D01*
X192537011Y-107432779D01*
X192537009Y-107432778D01*
X192501271Y-107403448D01*
X192399814Y-107320186D01*
X192316552Y-107218729D01*
X192287222Y-107182991D01*
X192258337Y-107128952D01*
X192203557Y-107026467D01*
X192171574Y-106921032D01*
X192152037Y-106856627D01*
X192134641Y-106680000D01*
X192152037Y-106503373D01*
X192203557Y-106333534D01*
X192203557Y-106333533D01*
X192287221Y-106177011D01*
X192287222Y-106177009D01*
X192316552Y-106141271D01*
X192399814Y-106039814D01*
X192501271Y-105956552D01*
X192537009Y-105927222D01*
X192627184Y-105879022D01*
X192693533Y-105843557D01*
X192750147Y-105826384D01*
X192863373Y-105792037D01*
X192929557Y-105785519D01*
X192995740Y-105779000D01*
X193084260Y-105779000D01*
X193150443Y-105785519D01*
X193150443Y-105785519D01*
G37*
G36*
X190610443Y-105785519D02*
X190676627Y-105792037D01*
X190789853Y-105826384D01*
X190846467Y-105843557D01*
X190912816Y-105879022D01*
X191002991Y-105927222D01*
X191038729Y-105956552D01*
X191140186Y-106039814D01*
X191223448Y-106141271D01*
X191252778Y-106177009D01*
X191252779Y-106177011D01*
X191336443Y-106333533D01*
X191336443Y-106333534D01*
X191387963Y-106503373D01*
X191405359Y-106680000D01*
X191387963Y-106856627D01*
X191368426Y-106921032D01*
X191336443Y-107026467D01*
X191281663Y-107128952D01*
X191252778Y-107182991D01*
X191223448Y-107218729D01*
X191140186Y-107320186D01*
X191038729Y-107403448D01*
X191002991Y-107432778D01*
X191002989Y-107432779D01*
X190846467Y-107516443D01*
X190789853Y-107533616D01*
X190676627Y-107567963D01*
X190610443Y-107574481D01*
X190544260Y-107581000D01*
X190455740Y-107581000D01*
X190389557Y-107574481D01*
X190323373Y-107567963D01*
X190210147Y-107533616D01*
X190153533Y-107516443D01*
X189997011Y-107432779D01*
X189997009Y-107432778D01*
X189961271Y-107403448D01*
X189859814Y-107320186D01*
X189776552Y-107218729D01*
X189747222Y-107182991D01*
X189718337Y-107128952D01*
X189663557Y-107026467D01*
X189631574Y-106921032D01*
X189612037Y-106856627D01*
X189594641Y-106680000D01*
X189612037Y-106503373D01*
X189663557Y-106333534D01*
X189663557Y-106333533D01*
X189747221Y-106177011D01*
X189747222Y-106177009D01*
X189776552Y-106141271D01*
X189859814Y-106039814D01*
X189961271Y-105956552D01*
X189997009Y-105927222D01*
X190087184Y-105879022D01*
X190153533Y-105843557D01*
X190210147Y-105826384D01*
X190323373Y-105792037D01*
X190389557Y-105785519D01*
X190455740Y-105779000D01*
X190544260Y-105779000D01*
X190610443Y-105785519D01*
X190610443Y-105785519D01*
G37*
G36*
X166536466Y-105666865D02*
X166575137Y-105678596D01*
X166610779Y-105697648D01*
X166642017Y-105723283D01*
X166667652Y-105754521D01*
X166686704Y-105790163D01*
X166698435Y-105828834D01*
X166703000Y-105875188D01*
X166703000Y-106951412D01*
X166698435Y-106997766D01*
X166686704Y-107036437D01*
X166667652Y-107072079D01*
X166642017Y-107103317D01*
X166610779Y-107128952D01*
X166575137Y-107148004D01*
X166536466Y-107159735D01*
X166490112Y-107164300D01*
X165838888Y-107164300D01*
X165792534Y-107159735D01*
X165753863Y-107148004D01*
X165718221Y-107128952D01*
X165686983Y-107103317D01*
X165661348Y-107072079D01*
X165642296Y-107036437D01*
X165630565Y-106997766D01*
X165626000Y-106951412D01*
X165626000Y-105875188D01*
X165630565Y-105828834D01*
X165642296Y-105790163D01*
X165661348Y-105754521D01*
X165686983Y-105723283D01*
X165718221Y-105697648D01*
X165753863Y-105678596D01*
X165792534Y-105666865D01*
X165838888Y-105662300D01*
X166490112Y-105662300D01*
X166536466Y-105666865D01*
X166536466Y-105666865D01*
G37*
G36*
X164661466Y-105666865D02*
X164700137Y-105678596D01*
X164735779Y-105697648D01*
X164767017Y-105723283D01*
X164792652Y-105754521D01*
X164811704Y-105790163D01*
X164823435Y-105828834D01*
X164828000Y-105875188D01*
X164828000Y-106951412D01*
X164823435Y-106997766D01*
X164811704Y-107036437D01*
X164792652Y-107072079D01*
X164767017Y-107103317D01*
X164735779Y-107128952D01*
X164700137Y-107148004D01*
X164661466Y-107159735D01*
X164615112Y-107164300D01*
X163963888Y-107164300D01*
X163917534Y-107159735D01*
X163878863Y-107148004D01*
X163843221Y-107128952D01*
X163811983Y-107103317D01*
X163786348Y-107072079D01*
X163767296Y-107036437D01*
X163755565Y-106997766D01*
X163751000Y-106951412D01*
X163751000Y-105875188D01*
X163755565Y-105828834D01*
X163767296Y-105790163D01*
X163786348Y-105754521D01*
X163811983Y-105723283D01*
X163843221Y-105697648D01*
X163878863Y-105678596D01*
X163917534Y-105666865D01*
X163963888Y-105662300D01*
X164615112Y-105662300D01*
X164661466Y-105666865D01*
X164661466Y-105666865D01*
G37*
G36*
X171573782Y-105602295D02*
X171609815Y-105613226D01*
X171643028Y-105630979D01*
X171672134Y-105654866D01*
X171696021Y-105683972D01*
X171713774Y-105717185D01*
X171724705Y-105753218D01*
X171729000Y-105796830D01*
X171729000Y-106801170D01*
X171724705Y-106844782D01*
X171713774Y-106880815D01*
X171696021Y-106914028D01*
X171672134Y-106943134D01*
X171643028Y-106967021D01*
X171609815Y-106984774D01*
X171573782Y-106995705D01*
X171530170Y-107000000D01*
X170500830Y-107000000D01*
X170457218Y-106995705D01*
X170421185Y-106984774D01*
X170387972Y-106967021D01*
X170358866Y-106943134D01*
X170334979Y-106914028D01*
X170317226Y-106880815D01*
X170306295Y-106844782D01*
X170302000Y-106801170D01*
X170302000Y-105796830D01*
X170306295Y-105753218D01*
X170317226Y-105717185D01*
X170334979Y-105683972D01*
X170358866Y-105654866D01*
X170387972Y-105630979D01*
X170421185Y-105613226D01*
X170457218Y-105602295D01*
X170500830Y-105598000D01*
X171530170Y-105598000D01*
X171573782Y-105602295D01*
X171573782Y-105602295D01*
G37*
G36*
X169648782Y-105602295D02*
X169684815Y-105613226D01*
X169718028Y-105630979D01*
X169747134Y-105654866D01*
X169771021Y-105683972D01*
X169788774Y-105717185D01*
X169799705Y-105753218D01*
X169804000Y-105796830D01*
X169804000Y-106801170D01*
X169799705Y-106844782D01*
X169788774Y-106880815D01*
X169771021Y-106914028D01*
X169747134Y-106943134D01*
X169718028Y-106967021D01*
X169684815Y-106984774D01*
X169648782Y-106995705D01*
X169605170Y-107000000D01*
X168575830Y-107000000D01*
X168532218Y-106995705D01*
X168496185Y-106984774D01*
X168462972Y-106967021D01*
X168433866Y-106943134D01*
X168409979Y-106914028D01*
X168392226Y-106880815D01*
X168381295Y-106844782D01*
X168377000Y-106801170D01*
X168377000Y-105796830D01*
X168381295Y-105753218D01*
X168392226Y-105717185D01*
X168409979Y-105683972D01*
X168433866Y-105654866D01*
X168462972Y-105630979D01*
X168496185Y-105613226D01*
X168532218Y-105602295D01*
X168575830Y-105598000D01*
X169605170Y-105598000D01*
X169648782Y-105602295D01*
X169648782Y-105602295D01*
G37*
G36*
X193150443Y-103245519D02*
X193216627Y-103252037D01*
X193299743Y-103277250D01*
X193386467Y-103303557D01*
X193505679Y-103367278D01*
X193542991Y-103387222D01*
X193578729Y-103416552D01*
X193680186Y-103499814D01*
X193755296Y-103591337D01*
X193792778Y-103637009D01*
X193792779Y-103637011D01*
X193876443Y-103793533D01*
X193876443Y-103793534D01*
X193927963Y-103963373D01*
X193945359Y-104140000D01*
X193927963Y-104316627D01*
X193908426Y-104381032D01*
X193876443Y-104486467D01*
X193866304Y-104505435D01*
X193792778Y-104642991D01*
X193763448Y-104678729D01*
X193680186Y-104780186D01*
X193578729Y-104863448D01*
X193542991Y-104892778D01*
X193542989Y-104892779D01*
X193386467Y-104976443D01*
X193329853Y-104993616D01*
X193216627Y-105027963D01*
X193150442Y-105034482D01*
X193084260Y-105041000D01*
X192995740Y-105041000D01*
X192929557Y-105034481D01*
X192863373Y-105027963D01*
X192750147Y-104993616D01*
X192693533Y-104976443D01*
X192537011Y-104892779D01*
X192537009Y-104892778D01*
X192501271Y-104863448D01*
X192399814Y-104780186D01*
X192316552Y-104678729D01*
X192287222Y-104642991D01*
X192213696Y-104505435D01*
X192203557Y-104486467D01*
X192171574Y-104381032D01*
X192152037Y-104316627D01*
X192134641Y-104140000D01*
X192152037Y-103963373D01*
X192203557Y-103793534D01*
X192203557Y-103793533D01*
X192287221Y-103637011D01*
X192287222Y-103637009D01*
X192324704Y-103591337D01*
X192399814Y-103499814D01*
X192501271Y-103416552D01*
X192537009Y-103387222D01*
X192574321Y-103367278D01*
X192693533Y-103303557D01*
X192780257Y-103277250D01*
X192863373Y-103252037D01*
X192929558Y-103245518D01*
X192995740Y-103239000D01*
X193084260Y-103239000D01*
X193150443Y-103245519D01*
X193150443Y-103245519D01*
G37*
G36*
X190610443Y-103245519D02*
X190676627Y-103252037D01*
X190759743Y-103277250D01*
X190846467Y-103303557D01*
X190965679Y-103367278D01*
X191002991Y-103387222D01*
X191038729Y-103416552D01*
X191140186Y-103499814D01*
X191215296Y-103591337D01*
X191252778Y-103637009D01*
X191252779Y-103637011D01*
X191336443Y-103793533D01*
X191336443Y-103793534D01*
X191387963Y-103963373D01*
X191405359Y-104140000D01*
X191387963Y-104316627D01*
X191368426Y-104381032D01*
X191336443Y-104486467D01*
X191326304Y-104505435D01*
X191252778Y-104642991D01*
X191223448Y-104678729D01*
X191140186Y-104780186D01*
X191038729Y-104863448D01*
X191002991Y-104892778D01*
X191002989Y-104892779D01*
X190846467Y-104976443D01*
X190789853Y-104993616D01*
X190676627Y-105027963D01*
X190610442Y-105034482D01*
X190544260Y-105041000D01*
X190455740Y-105041000D01*
X190389557Y-105034481D01*
X190323373Y-105027963D01*
X190210147Y-104993616D01*
X190153533Y-104976443D01*
X189997011Y-104892779D01*
X189997009Y-104892778D01*
X189961271Y-104863448D01*
X189859814Y-104780186D01*
X189776552Y-104678729D01*
X189747222Y-104642991D01*
X189673696Y-104505435D01*
X189663557Y-104486467D01*
X189631574Y-104381032D01*
X189612037Y-104316627D01*
X189594641Y-104140000D01*
X189612037Y-103963373D01*
X189663557Y-103793534D01*
X189663557Y-103793533D01*
X189747221Y-103637011D01*
X189747222Y-103637009D01*
X189784704Y-103591337D01*
X189859814Y-103499814D01*
X189961271Y-103416552D01*
X189997009Y-103387222D01*
X190034321Y-103367278D01*
X190153533Y-103303557D01*
X190240257Y-103277250D01*
X190323373Y-103252037D01*
X190389558Y-103245518D01*
X190455740Y-103239000D01*
X190544260Y-103239000D01*
X190610443Y-103245519D01*
X190610443Y-103245519D01*
G37*
G36*
X164661466Y-103012565D02*
X164700137Y-103024296D01*
X164735779Y-103043348D01*
X164767017Y-103068983D01*
X164792652Y-103100221D01*
X164811704Y-103135863D01*
X164823435Y-103174534D01*
X164828000Y-103220888D01*
X164828000Y-104297112D01*
X164823435Y-104343466D01*
X164811704Y-104382137D01*
X164792652Y-104417779D01*
X164767017Y-104449017D01*
X164735779Y-104474652D01*
X164700137Y-104493704D01*
X164661466Y-104505435D01*
X164615112Y-104510000D01*
X163963888Y-104510000D01*
X163917534Y-104505435D01*
X163878863Y-104493704D01*
X163843221Y-104474652D01*
X163811983Y-104449017D01*
X163786348Y-104417779D01*
X163767296Y-104382137D01*
X163755565Y-104343466D01*
X163751000Y-104297112D01*
X163751000Y-103220888D01*
X163755565Y-103174534D01*
X163767296Y-103135863D01*
X163786348Y-103100221D01*
X163811983Y-103068983D01*
X163843221Y-103043348D01*
X163878863Y-103024296D01*
X163917534Y-103012565D01*
X163963888Y-103008000D01*
X164615112Y-103008000D01*
X164661466Y-103012565D01*
X164661466Y-103012565D01*
G37*
G36*
X166536466Y-103012565D02*
X166575137Y-103024296D01*
X166610779Y-103043348D01*
X166642017Y-103068983D01*
X166667652Y-103100221D01*
X166686704Y-103135863D01*
X166698435Y-103174534D01*
X166703000Y-103220888D01*
X166703000Y-104297112D01*
X166698435Y-104343466D01*
X166686704Y-104382137D01*
X166667652Y-104417779D01*
X166642017Y-104449017D01*
X166610779Y-104474652D01*
X166575137Y-104493704D01*
X166536466Y-104505435D01*
X166490112Y-104510000D01*
X165838888Y-104510000D01*
X165792534Y-104505435D01*
X165753863Y-104493704D01*
X165718221Y-104474652D01*
X165686983Y-104449017D01*
X165661348Y-104417779D01*
X165642296Y-104382137D01*
X165630565Y-104343466D01*
X165626000Y-104297112D01*
X165626000Y-103220888D01*
X165630565Y-103174534D01*
X165642296Y-103135863D01*
X165661348Y-103100221D01*
X165686983Y-103068983D01*
X165718221Y-103043348D01*
X165753863Y-103024296D01*
X165792534Y-103012565D01*
X165838888Y-103008000D01*
X166490112Y-103008000D01*
X166536466Y-103012565D01*
X166536466Y-103012565D01*
G37*
G36*
X169648782Y-103062295D02*
X169684815Y-103073226D01*
X169718028Y-103090979D01*
X169747134Y-103114866D01*
X169771021Y-103143972D01*
X169788774Y-103177185D01*
X169799705Y-103213218D01*
X169804000Y-103256830D01*
X169804000Y-104261170D01*
X169799705Y-104304782D01*
X169788774Y-104340815D01*
X169771021Y-104374028D01*
X169747134Y-104403134D01*
X169718028Y-104427021D01*
X169684815Y-104444774D01*
X169648782Y-104455705D01*
X169605170Y-104460000D01*
X168575830Y-104460000D01*
X168532218Y-104455705D01*
X168496185Y-104444774D01*
X168462972Y-104427021D01*
X168433866Y-104403134D01*
X168409979Y-104374028D01*
X168392226Y-104340815D01*
X168381295Y-104304782D01*
X168377000Y-104261170D01*
X168377000Y-103256830D01*
X168381295Y-103213218D01*
X168392226Y-103177185D01*
X168409979Y-103143972D01*
X168433866Y-103114866D01*
X168462972Y-103090979D01*
X168496185Y-103073226D01*
X168532218Y-103062295D01*
X168575830Y-103058000D01*
X169605170Y-103058000D01*
X169648782Y-103062295D01*
X169648782Y-103062295D01*
G37*
G36*
X171573782Y-103062295D02*
X171609815Y-103073226D01*
X171643028Y-103090979D01*
X171672134Y-103114866D01*
X171696021Y-103143972D01*
X171713774Y-103177185D01*
X171724705Y-103213218D01*
X171729000Y-103256830D01*
X171729000Y-104261170D01*
X171724705Y-104304782D01*
X171713774Y-104340815D01*
X171696021Y-104374028D01*
X171672134Y-104403134D01*
X171643028Y-104427021D01*
X171609815Y-104444774D01*
X171573782Y-104455705D01*
X171530170Y-104460000D01*
X170500830Y-104460000D01*
X170457218Y-104455705D01*
X170421185Y-104444774D01*
X170387972Y-104427021D01*
X170358866Y-104403134D01*
X170334979Y-104374028D01*
X170317226Y-104340815D01*
X170306295Y-104304782D01*
X170302000Y-104261170D01*
X170302000Y-103256830D01*
X170306295Y-103213218D01*
X170317226Y-103177185D01*
X170334979Y-103143972D01*
X170358866Y-103114866D01*
X170387972Y-103090979D01*
X170421185Y-103073226D01*
X170457218Y-103062295D01*
X170500830Y-103058000D01*
X171530170Y-103058000D01*
X171573782Y-103062295D01*
X171573782Y-103062295D01*
G37*
G36*
X162763466Y-102638565D02*
X162802137Y-102650296D01*
X162837779Y-102669348D01*
X162869017Y-102694983D01*
X162894652Y-102726221D01*
X162913704Y-102761863D01*
X162925435Y-102800534D01*
X162930000Y-102846888D01*
X162930000Y-103498112D01*
X162925435Y-103544466D01*
X162913704Y-103583137D01*
X162894652Y-103618779D01*
X162869017Y-103650017D01*
X162837779Y-103675652D01*
X162802137Y-103694704D01*
X162763466Y-103706435D01*
X162717112Y-103711000D01*
X161640888Y-103711000D01*
X161594534Y-103706435D01*
X161555863Y-103694704D01*
X161520221Y-103675652D01*
X161488983Y-103650017D01*
X161463348Y-103618779D01*
X161444296Y-103583137D01*
X161432565Y-103544466D01*
X161428000Y-103498112D01*
X161428000Y-102846888D01*
X161432565Y-102800534D01*
X161444296Y-102761863D01*
X161463348Y-102726221D01*
X161488983Y-102694983D01*
X161520221Y-102669348D01*
X161555863Y-102650296D01*
X161594534Y-102638565D01*
X161640888Y-102634000D01*
X162717112Y-102634000D01*
X162763466Y-102638565D01*
X162763466Y-102638565D01*
G37*
G36*
X154762466Y-102638565D02*
X154801137Y-102650296D01*
X154836779Y-102669348D01*
X154868017Y-102694983D01*
X154893652Y-102726221D01*
X154912704Y-102761863D01*
X154924435Y-102800534D01*
X154929000Y-102846888D01*
X154929000Y-103498112D01*
X154924435Y-103544466D01*
X154912704Y-103583137D01*
X154893652Y-103618779D01*
X154868017Y-103650017D01*
X154836779Y-103675652D01*
X154801137Y-103694704D01*
X154762466Y-103706435D01*
X154716112Y-103711000D01*
X153639888Y-103711000D01*
X153593534Y-103706435D01*
X153554863Y-103694704D01*
X153519221Y-103675652D01*
X153487983Y-103650017D01*
X153462348Y-103618779D01*
X153443296Y-103583137D01*
X153431565Y-103544466D01*
X153427000Y-103498112D01*
X153427000Y-102846888D01*
X153431565Y-102800534D01*
X153443296Y-102761863D01*
X153462348Y-102726221D01*
X153487983Y-102694983D01*
X153519221Y-102669348D01*
X153554863Y-102650296D01*
X153593534Y-102638565D01*
X153639888Y-102634000D01*
X154716112Y-102634000D01*
X154762466Y-102638565D01*
X154762466Y-102638565D01*
G37*
G36*
X136728466Y-102511565D02*
X136767137Y-102523296D01*
X136802779Y-102542348D01*
X136834017Y-102567983D01*
X136859652Y-102599221D01*
X136878704Y-102634863D01*
X136890435Y-102673534D01*
X136895000Y-102719888D01*
X136895000Y-103371112D01*
X136890435Y-103417466D01*
X136878704Y-103456137D01*
X136859652Y-103491779D01*
X136834017Y-103523017D01*
X136802779Y-103548652D01*
X136767137Y-103567704D01*
X136728466Y-103579435D01*
X136682112Y-103584000D01*
X135605888Y-103584000D01*
X135559534Y-103579435D01*
X135520863Y-103567704D01*
X135485221Y-103548652D01*
X135453983Y-103523017D01*
X135428348Y-103491779D01*
X135409296Y-103456137D01*
X135397565Y-103417466D01*
X135393000Y-103371112D01*
X135393000Y-102719888D01*
X135397565Y-102673534D01*
X135409296Y-102634863D01*
X135428348Y-102599221D01*
X135453983Y-102567983D01*
X135485221Y-102542348D01*
X135520863Y-102523296D01*
X135559534Y-102511565D01*
X135605888Y-102507000D01*
X136682112Y-102507000D01*
X136728466Y-102511565D01*
X136728466Y-102511565D01*
G37*
G36*
X128473466Y-102511565D02*
X128512137Y-102523296D01*
X128547779Y-102542348D01*
X128579017Y-102567983D01*
X128604652Y-102599221D01*
X128623704Y-102634863D01*
X128635435Y-102673534D01*
X128640000Y-102719888D01*
X128640000Y-103371112D01*
X128635435Y-103417466D01*
X128623704Y-103456137D01*
X128604652Y-103491779D01*
X128579017Y-103523017D01*
X128547779Y-103548652D01*
X128512137Y-103567704D01*
X128473466Y-103579435D01*
X128427112Y-103584000D01*
X127350888Y-103584000D01*
X127304534Y-103579435D01*
X127265863Y-103567704D01*
X127230221Y-103548652D01*
X127198983Y-103523017D01*
X127173348Y-103491779D01*
X127154296Y-103456137D01*
X127142565Y-103417466D01*
X127138000Y-103371112D01*
X127138000Y-102719888D01*
X127142565Y-102673534D01*
X127154296Y-102634863D01*
X127173348Y-102599221D01*
X127198983Y-102567983D01*
X127230221Y-102542348D01*
X127265863Y-102523296D01*
X127304534Y-102511565D01*
X127350888Y-102507000D01*
X128427112Y-102507000D01*
X128473466Y-102511565D01*
X128473466Y-102511565D01*
G37*
G36*
X157676000Y-103561000D02*
X156014000Y-103561000D01*
X156014000Y-100909000D01*
X157676000Y-100909000D01*
X157676000Y-103561000D01*
X157676000Y-103561000D01*
G37*
G36*
X160376000Y-103561000D02*
X158714000Y-103561000D01*
X158714000Y-102809000D01*
X160376000Y-102809000D01*
X160376000Y-103561000D01*
X160376000Y-103561000D01*
G37*
G36*
X131561000Y-103434000D02*
X129899000Y-103434000D01*
X129899000Y-100782000D01*
X131561000Y-100782000D01*
X131561000Y-103434000D01*
X131561000Y-103434000D01*
G37*
G36*
X134261000Y-103434000D02*
X132599000Y-103434000D01*
X132599000Y-102682000D01*
X134261000Y-102682000D01*
X134261000Y-103434000D01*
X134261000Y-103434000D01*
G37*
G36*
X193150443Y-100705519D02*
X193216627Y-100712037D01*
X193329853Y-100746384D01*
X193386467Y-100763557D01*
X193492031Y-100819983D01*
X193542991Y-100847222D01*
X193578729Y-100876552D01*
X193680186Y-100959814D01*
X193736349Y-101028250D01*
X193792778Y-101097009D01*
X193792779Y-101097011D01*
X193876443Y-101253533D01*
X193876443Y-101253534D01*
X193927963Y-101423373D01*
X193945359Y-101600000D01*
X193927963Y-101776627D01*
X193911522Y-101830826D01*
X193876443Y-101946467D01*
X193802348Y-102085087D01*
X193792778Y-102102991D01*
X193763448Y-102138729D01*
X193680186Y-102240186D01*
X193578729Y-102323448D01*
X193542991Y-102352778D01*
X193542989Y-102352779D01*
X193386467Y-102436443D01*
X193329853Y-102453616D01*
X193216627Y-102487963D01*
X193150442Y-102494482D01*
X193084260Y-102501000D01*
X192995740Y-102501000D01*
X192929558Y-102494482D01*
X192863373Y-102487963D01*
X192750147Y-102453616D01*
X192693533Y-102436443D01*
X192537011Y-102352779D01*
X192537009Y-102352778D01*
X192501271Y-102323448D01*
X192399814Y-102240186D01*
X192316552Y-102138729D01*
X192287222Y-102102991D01*
X192277652Y-102085087D01*
X192203557Y-101946467D01*
X192168478Y-101830826D01*
X192152037Y-101776627D01*
X192134641Y-101600000D01*
X192152037Y-101423373D01*
X192203557Y-101253534D01*
X192203557Y-101253533D01*
X192287221Y-101097011D01*
X192287222Y-101097009D01*
X192343651Y-101028250D01*
X192399814Y-100959814D01*
X192501271Y-100876552D01*
X192537009Y-100847222D01*
X192587969Y-100819983D01*
X192693533Y-100763557D01*
X192750147Y-100746384D01*
X192863373Y-100712037D01*
X192929557Y-100705519D01*
X192995740Y-100699000D01*
X193084260Y-100699000D01*
X193150443Y-100705519D01*
X193150443Y-100705519D01*
G37*
G36*
X190610443Y-100705519D02*
X190676627Y-100712037D01*
X190789853Y-100746384D01*
X190846467Y-100763557D01*
X190952031Y-100819983D01*
X191002991Y-100847222D01*
X191038729Y-100876552D01*
X191140186Y-100959814D01*
X191196349Y-101028250D01*
X191252778Y-101097009D01*
X191252779Y-101097011D01*
X191336443Y-101253533D01*
X191336443Y-101253534D01*
X191387963Y-101423373D01*
X191405359Y-101600000D01*
X191387963Y-101776627D01*
X191371522Y-101830826D01*
X191336443Y-101946467D01*
X191262348Y-102085087D01*
X191252778Y-102102991D01*
X191223448Y-102138729D01*
X191140186Y-102240186D01*
X191038729Y-102323448D01*
X191002991Y-102352778D01*
X191002989Y-102352779D01*
X190846467Y-102436443D01*
X190789853Y-102453616D01*
X190676627Y-102487963D01*
X190610442Y-102494482D01*
X190544260Y-102501000D01*
X190455740Y-102501000D01*
X190389558Y-102494482D01*
X190323373Y-102487963D01*
X190210147Y-102453616D01*
X190153533Y-102436443D01*
X189997011Y-102352779D01*
X189997009Y-102352778D01*
X189961271Y-102323448D01*
X189859814Y-102240186D01*
X189776552Y-102138729D01*
X189747222Y-102102991D01*
X189737652Y-102085087D01*
X189663557Y-101946467D01*
X189628478Y-101830826D01*
X189612037Y-101776627D01*
X189594641Y-101600000D01*
X189612037Y-101423373D01*
X189663557Y-101253534D01*
X189663557Y-101253533D01*
X189747221Y-101097011D01*
X189747222Y-101097009D01*
X189803651Y-101028250D01*
X189859814Y-100959814D01*
X189961271Y-100876552D01*
X189997009Y-100847222D01*
X190047969Y-100819983D01*
X190153533Y-100763557D01*
X190210147Y-100746384D01*
X190323373Y-100712037D01*
X190389557Y-100705519D01*
X190455740Y-100699000D01*
X190544260Y-100699000D01*
X190610443Y-100705519D01*
X190610443Y-100705519D01*
G37*
G36*
X154762466Y-100763565D02*
X154801137Y-100775296D01*
X154836779Y-100794348D01*
X154868017Y-100819983D01*
X154893652Y-100851221D01*
X154912704Y-100886863D01*
X154924435Y-100925534D01*
X154929000Y-100971888D01*
X154929000Y-101623112D01*
X154924435Y-101669466D01*
X154912704Y-101708137D01*
X154893652Y-101743779D01*
X154868017Y-101775017D01*
X154836779Y-101800652D01*
X154801137Y-101819704D01*
X154762466Y-101831435D01*
X154716112Y-101836000D01*
X153639888Y-101836000D01*
X153593534Y-101831435D01*
X153554863Y-101819704D01*
X153519221Y-101800652D01*
X153487983Y-101775017D01*
X153462348Y-101743779D01*
X153443296Y-101708137D01*
X153431565Y-101669466D01*
X153427000Y-101623112D01*
X153427000Y-100971888D01*
X153431565Y-100925534D01*
X153443296Y-100886863D01*
X153462348Y-100851221D01*
X153487983Y-100819983D01*
X153519221Y-100794348D01*
X153554863Y-100775296D01*
X153593534Y-100763565D01*
X153639888Y-100759000D01*
X154716112Y-100759000D01*
X154762466Y-100763565D01*
X154762466Y-100763565D01*
G37*
G36*
X162763466Y-100763565D02*
X162802137Y-100775296D01*
X162837779Y-100794348D01*
X162869017Y-100819983D01*
X162894652Y-100851221D01*
X162913704Y-100886863D01*
X162925435Y-100925534D01*
X162930000Y-100971888D01*
X162930000Y-101623112D01*
X162925435Y-101669466D01*
X162913704Y-101708137D01*
X162894652Y-101743779D01*
X162869017Y-101775017D01*
X162837779Y-101800652D01*
X162802137Y-101819704D01*
X162763466Y-101831435D01*
X162717112Y-101836000D01*
X161640888Y-101836000D01*
X161594534Y-101831435D01*
X161555863Y-101819704D01*
X161520221Y-101800652D01*
X161488983Y-101775017D01*
X161463348Y-101743779D01*
X161444296Y-101708137D01*
X161432565Y-101669466D01*
X161428000Y-101623112D01*
X161428000Y-100971888D01*
X161432565Y-100925534D01*
X161444296Y-100886863D01*
X161463348Y-100851221D01*
X161488983Y-100819983D01*
X161520221Y-100794348D01*
X161555863Y-100775296D01*
X161594534Y-100763565D01*
X161640888Y-100759000D01*
X162717112Y-100759000D01*
X162763466Y-100763565D01*
X162763466Y-100763565D01*
G37*
G36*
X136728466Y-100636565D02*
X136767137Y-100648296D01*
X136802779Y-100667348D01*
X136834017Y-100692983D01*
X136859652Y-100724221D01*
X136878704Y-100759863D01*
X136890435Y-100798534D01*
X136895000Y-100844888D01*
X136895000Y-101496112D01*
X136890435Y-101542466D01*
X136878704Y-101581137D01*
X136859652Y-101616779D01*
X136834017Y-101648017D01*
X136802779Y-101673652D01*
X136767137Y-101692704D01*
X136728466Y-101704435D01*
X136682112Y-101709000D01*
X135605888Y-101709000D01*
X135559534Y-101704435D01*
X135520863Y-101692704D01*
X135485221Y-101673652D01*
X135453983Y-101648017D01*
X135428348Y-101616779D01*
X135409296Y-101581137D01*
X135397565Y-101542466D01*
X135393000Y-101496112D01*
X135393000Y-100844888D01*
X135397565Y-100798534D01*
X135409296Y-100759863D01*
X135428348Y-100724221D01*
X135453983Y-100692983D01*
X135485221Y-100667348D01*
X135520863Y-100648296D01*
X135559534Y-100636565D01*
X135605888Y-100632000D01*
X136682112Y-100632000D01*
X136728466Y-100636565D01*
X136728466Y-100636565D01*
G37*
G36*
X128473466Y-100636565D02*
X128512137Y-100648296D01*
X128547779Y-100667348D01*
X128579017Y-100692983D01*
X128604652Y-100724221D01*
X128623704Y-100759863D01*
X128635435Y-100798534D01*
X128640000Y-100844888D01*
X128640000Y-101496112D01*
X128635435Y-101542466D01*
X128623704Y-101581137D01*
X128604652Y-101616779D01*
X128579017Y-101648017D01*
X128547779Y-101673652D01*
X128512137Y-101692704D01*
X128473466Y-101704435D01*
X128427112Y-101709000D01*
X127350888Y-101709000D01*
X127304534Y-101704435D01*
X127265863Y-101692704D01*
X127230221Y-101673652D01*
X127198983Y-101648017D01*
X127173348Y-101616779D01*
X127154296Y-101581137D01*
X127142565Y-101542466D01*
X127138000Y-101496112D01*
X127138000Y-100844888D01*
X127142565Y-100798534D01*
X127154296Y-100759863D01*
X127173348Y-100724221D01*
X127198983Y-100692983D01*
X127230221Y-100667348D01*
X127265863Y-100648296D01*
X127304534Y-100636565D01*
X127350888Y-100632000D01*
X128427112Y-100632000D01*
X128473466Y-100636565D01*
X128473466Y-100636565D01*
G37*
G36*
X160376000Y-101661000D02*
X158714000Y-101661000D01*
X158714000Y-100909000D01*
X160376000Y-100909000D01*
X160376000Y-101661000D01*
X160376000Y-101661000D01*
G37*
G36*
X134261000Y-101534000D02*
X132599000Y-101534000D01*
X132599000Y-100782000D01*
X134261000Y-100782000D01*
X134261000Y-101534000D01*
X134261000Y-101534000D01*
G37*
G36*
X190610443Y-98165519D02*
X190676627Y-98172037D01*
X190789853Y-98206384D01*
X190846467Y-98223557D01*
X190985087Y-98297652D01*
X191002991Y-98307222D01*
X191038729Y-98336552D01*
X191140186Y-98419814D01*
X191223448Y-98521271D01*
X191252778Y-98557009D01*
X191252779Y-98557011D01*
X191336443Y-98713533D01*
X191336443Y-98713534D01*
X191387963Y-98883373D01*
X191405359Y-99060000D01*
X191387963Y-99236627D01*
X191353616Y-99349853D01*
X191336443Y-99406467D01*
X191262348Y-99545087D01*
X191252778Y-99562991D01*
X191223448Y-99598729D01*
X191140186Y-99700186D01*
X191038729Y-99783448D01*
X191002991Y-99812778D01*
X191002989Y-99812779D01*
X190846467Y-99896443D01*
X190789853Y-99913616D01*
X190676627Y-99947963D01*
X190610443Y-99954481D01*
X190544260Y-99961000D01*
X190455740Y-99961000D01*
X190389557Y-99954481D01*
X190323373Y-99947963D01*
X190210147Y-99913616D01*
X190153533Y-99896443D01*
X189997011Y-99812779D01*
X189997009Y-99812778D01*
X189961271Y-99783448D01*
X189859814Y-99700186D01*
X189776552Y-99598729D01*
X189747222Y-99562991D01*
X189737652Y-99545087D01*
X189663557Y-99406467D01*
X189646384Y-99349853D01*
X189612037Y-99236627D01*
X189594641Y-99060000D01*
X189612037Y-98883373D01*
X189663557Y-98713534D01*
X189663557Y-98713533D01*
X189747221Y-98557011D01*
X189747222Y-98557009D01*
X189776552Y-98521271D01*
X189859814Y-98419814D01*
X189961271Y-98336552D01*
X189997009Y-98307222D01*
X190014913Y-98297652D01*
X190153533Y-98223557D01*
X190210147Y-98206384D01*
X190323373Y-98172037D01*
X190389557Y-98165519D01*
X190455740Y-98159000D01*
X190544260Y-98159000D01*
X190610443Y-98165519D01*
X190610443Y-98165519D01*
G37*
G36*
X193150443Y-98165519D02*
X193216627Y-98172037D01*
X193329853Y-98206384D01*
X193386467Y-98223557D01*
X193525087Y-98297652D01*
X193542991Y-98307222D01*
X193578729Y-98336552D01*
X193680186Y-98419814D01*
X193763448Y-98521271D01*
X193792778Y-98557009D01*
X193792779Y-98557011D01*
X193876443Y-98713533D01*
X193876443Y-98713534D01*
X193927963Y-98883373D01*
X193945359Y-99060000D01*
X193927963Y-99236627D01*
X193893616Y-99349853D01*
X193876443Y-99406467D01*
X193802348Y-99545087D01*
X193792778Y-99562991D01*
X193763448Y-99598729D01*
X193680186Y-99700186D01*
X193578729Y-99783448D01*
X193542991Y-99812778D01*
X193542989Y-99812779D01*
X193386467Y-99896443D01*
X193329853Y-99913616D01*
X193216627Y-99947963D01*
X193150443Y-99954481D01*
X193084260Y-99961000D01*
X192995740Y-99961000D01*
X192929557Y-99954481D01*
X192863373Y-99947963D01*
X192750147Y-99913616D01*
X192693533Y-99896443D01*
X192537011Y-99812779D01*
X192537009Y-99812778D01*
X192501271Y-99783448D01*
X192399814Y-99700186D01*
X192316552Y-99598729D01*
X192287222Y-99562991D01*
X192277652Y-99545087D01*
X192203557Y-99406467D01*
X192186384Y-99349853D01*
X192152037Y-99236627D01*
X192134641Y-99060000D01*
X192152037Y-98883373D01*
X192203557Y-98713534D01*
X192203557Y-98713533D01*
X192287221Y-98557011D01*
X192287222Y-98557009D01*
X192316552Y-98521271D01*
X192399814Y-98419814D01*
X192501271Y-98336552D01*
X192537009Y-98307222D01*
X192554913Y-98297652D01*
X192693533Y-98223557D01*
X192750147Y-98206384D01*
X192863373Y-98172037D01*
X192929557Y-98165519D01*
X192995740Y-98159000D01*
X193084260Y-98159000D01*
X193150443Y-98165519D01*
X193150443Y-98165519D01*
G37*
G36*
X148388782Y-96084795D02*
X148424815Y-96095726D01*
X148458028Y-96113479D01*
X148487134Y-96137366D01*
X148511021Y-96166472D01*
X148528774Y-96199685D01*
X148539705Y-96235718D01*
X148544000Y-96279330D01*
X148544000Y-97308670D01*
X148539705Y-97352282D01*
X148528774Y-97388315D01*
X148511021Y-97421528D01*
X148487134Y-97450634D01*
X148458028Y-97474521D01*
X148424815Y-97492274D01*
X148388782Y-97503205D01*
X148345170Y-97507500D01*
X147340830Y-97507500D01*
X147297218Y-97503205D01*
X147261185Y-97492274D01*
X147227972Y-97474521D01*
X147198866Y-97450634D01*
X147174979Y-97421528D01*
X147157226Y-97388315D01*
X147146295Y-97352282D01*
X147142000Y-97308670D01*
X147142000Y-96279330D01*
X147146295Y-96235718D01*
X147157226Y-96199685D01*
X147174979Y-96166472D01*
X147198866Y-96137366D01*
X147227972Y-96113479D01*
X147261185Y-96095726D01*
X147297218Y-96084795D01*
X147340830Y-96080500D01*
X148345170Y-96080500D01*
X148388782Y-96084795D01*
X148388782Y-96084795D01*
G37*
G36*
X190610442Y-95625518D02*
X190676627Y-95632037D01*
X190789853Y-95666384D01*
X190846467Y-95683557D01*
X190985087Y-95757652D01*
X191002991Y-95767222D01*
X191038729Y-95796552D01*
X191140186Y-95879814D01*
X191196759Y-95948750D01*
X191252778Y-96017009D01*
X191252779Y-96017011D01*
X191336443Y-96173533D01*
X191336443Y-96173534D01*
X191387963Y-96343373D01*
X191405359Y-96520000D01*
X191387963Y-96696627D01*
X191353616Y-96809853D01*
X191336443Y-96866467D01*
X191262348Y-97005087D01*
X191252778Y-97022991D01*
X191223448Y-97058729D01*
X191140186Y-97160186D01*
X191045508Y-97237885D01*
X191002991Y-97272778D01*
X191002989Y-97272779D01*
X190846467Y-97356443D01*
X190789853Y-97373616D01*
X190676627Y-97407963D01*
X190610442Y-97414482D01*
X190544260Y-97421000D01*
X190455740Y-97421000D01*
X190389558Y-97414482D01*
X190323373Y-97407963D01*
X190210147Y-97373616D01*
X190153533Y-97356443D01*
X189997011Y-97272779D01*
X189997009Y-97272778D01*
X189954492Y-97237885D01*
X189859814Y-97160186D01*
X189776552Y-97058729D01*
X189747222Y-97022991D01*
X189737652Y-97005087D01*
X189663557Y-96866467D01*
X189646384Y-96809853D01*
X189612037Y-96696627D01*
X189594641Y-96520000D01*
X189612037Y-96343373D01*
X189663557Y-96173534D01*
X189663557Y-96173533D01*
X189747221Y-96017011D01*
X189747222Y-96017009D01*
X189803241Y-95948750D01*
X189859814Y-95879814D01*
X189961271Y-95796552D01*
X189997009Y-95767222D01*
X190014913Y-95757652D01*
X190153533Y-95683557D01*
X190210147Y-95666384D01*
X190323373Y-95632037D01*
X190389558Y-95625518D01*
X190455740Y-95619000D01*
X190544260Y-95619000D01*
X190610442Y-95625518D01*
X190610442Y-95625518D01*
G37*
G36*
X193150442Y-95625518D02*
X193216627Y-95632037D01*
X193329853Y-95666384D01*
X193386467Y-95683557D01*
X193525087Y-95757652D01*
X193542991Y-95767222D01*
X193578729Y-95796552D01*
X193680186Y-95879814D01*
X193736759Y-95948750D01*
X193792778Y-96017009D01*
X193792779Y-96017011D01*
X193876443Y-96173533D01*
X193876443Y-96173534D01*
X193927963Y-96343373D01*
X193945359Y-96520000D01*
X193927963Y-96696627D01*
X193893616Y-96809853D01*
X193876443Y-96866467D01*
X193802348Y-97005087D01*
X193792778Y-97022991D01*
X193763448Y-97058729D01*
X193680186Y-97160186D01*
X193585508Y-97237885D01*
X193542991Y-97272778D01*
X193542989Y-97272779D01*
X193386467Y-97356443D01*
X193329853Y-97373616D01*
X193216627Y-97407963D01*
X193150442Y-97414482D01*
X193084260Y-97421000D01*
X192995740Y-97421000D01*
X192929558Y-97414482D01*
X192863373Y-97407963D01*
X192750147Y-97373616D01*
X192693533Y-97356443D01*
X192537011Y-97272779D01*
X192537009Y-97272778D01*
X192494492Y-97237885D01*
X192399814Y-97160186D01*
X192316552Y-97058729D01*
X192287222Y-97022991D01*
X192277652Y-97005087D01*
X192203557Y-96866467D01*
X192186384Y-96809853D01*
X192152037Y-96696627D01*
X192134641Y-96520000D01*
X192152037Y-96343373D01*
X192203557Y-96173534D01*
X192203557Y-96173533D01*
X192287221Y-96017011D01*
X192287222Y-96017009D01*
X192343241Y-95948750D01*
X192399814Y-95879814D01*
X192501271Y-95796552D01*
X192537009Y-95767222D01*
X192554913Y-95757652D01*
X192693533Y-95683557D01*
X192750147Y-95666384D01*
X192863373Y-95632037D01*
X192929558Y-95625518D01*
X192995740Y-95619000D01*
X193084260Y-95619000D01*
X193150442Y-95625518D01*
X193150442Y-95625518D01*
G37*
G36*
X125806466Y-95145565D02*
X125845137Y-95157296D01*
X125880779Y-95176348D01*
X125912017Y-95201983D01*
X125937652Y-95233221D01*
X125956704Y-95268863D01*
X125968435Y-95307534D01*
X125973000Y-95353888D01*
X125973000Y-96005112D01*
X125968435Y-96051466D01*
X125956704Y-96090137D01*
X125937652Y-96125779D01*
X125912017Y-96157017D01*
X125880779Y-96182652D01*
X125845137Y-96201704D01*
X125806466Y-96213435D01*
X125760112Y-96218000D01*
X124683888Y-96218000D01*
X124637534Y-96213435D01*
X124598863Y-96201704D01*
X124563221Y-96182652D01*
X124531983Y-96157017D01*
X124506348Y-96125779D01*
X124487296Y-96090137D01*
X124475565Y-96051466D01*
X124471000Y-96005112D01*
X124471000Y-95353888D01*
X124475565Y-95307534D01*
X124487296Y-95268863D01*
X124506348Y-95233221D01*
X124531983Y-95201983D01*
X124563221Y-95176348D01*
X124598863Y-95157296D01*
X124637534Y-95145565D01*
X124683888Y-95141000D01*
X125760112Y-95141000D01*
X125806466Y-95145565D01*
X125806466Y-95145565D01*
G37*
G36*
X123344966Y-95145565D02*
X123383637Y-95157296D01*
X123419279Y-95176348D01*
X123450517Y-95201983D01*
X123476152Y-95233221D01*
X123495204Y-95268863D01*
X123506935Y-95307534D01*
X123511500Y-95353888D01*
X123511500Y-96005112D01*
X123506935Y-96051466D01*
X123495204Y-96090137D01*
X123476152Y-96125779D01*
X123450517Y-96157017D01*
X123419279Y-96182652D01*
X123383637Y-96201704D01*
X123344966Y-96213435D01*
X123298612Y-96218000D01*
X122222388Y-96218000D01*
X122176034Y-96213435D01*
X122137363Y-96201704D01*
X122101721Y-96182652D01*
X122070483Y-96157017D01*
X122044848Y-96125779D01*
X122025796Y-96090137D01*
X122014065Y-96051466D01*
X122009500Y-96005112D01*
X122009500Y-95353888D01*
X122014065Y-95307534D01*
X122025796Y-95268863D01*
X122044848Y-95233221D01*
X122070483Y-95201983D01*
X122101721Y-95176348D01*
X122137363Y-95157296D01*
X122176034Y-95145565D01*
X122222388Y-95141000D01*
X123298612Y-95141000D01*
X123344966Y-95145565D01*
X123344966Y-95145565D01*
G37*
G36*
X148388782Y-94159795D02*
X148424815Y-94170726D01*
X148458028Y-94188479D01*
X148487134Y-94212366D01*
X148511021Y-94241472D01*
X148528774Y-94274685D01*
X148539705Y-94310718D01*
X148544000Y-94354330D01*
X148544000Y-95383670D01*
X148539705Y-95427282D01*
X148528774Y-95463315D01*
X148511021Y-95496528D01*
X148487134Y-95525634D01*
X148458028Y-95549521D01*
X148424815Y-95567274D01*
X148388782Y-95578205D01*
X148345170Y-95582500D01*
X147340830Y-95582500D01*
X147297218Y-95578205D01*
X147261185Y-95567274D01*
X147227972Y-95549521D01*
X147198866Y-95525634D01*
X147174979Y-95496528D01*
X147157226Y-95463315D01*
X147146295Y-95427282D01*
X147142000Y-95383670D01*
X147142000Y-94354330D01*
X147146295Y-94310718D01*
X147157226Y-94274685D01*
X147174979Y-94241472D01*
X147198866Y-94212366D01*
X147227972Y-94188479D01*
X147261185Y-94170726D01*
X147297218Y-94159795D01*
X147340830Y-94155500D01*
X148345170Y-94155500D01*
X148388782Y-94159795D01*
X148388782Y-94159795D01*
G37*
G36*
X193150443Y-93085519D02*
X193216627Y-93092037D01*
X193329853Y-93126384D01*
X193386467Y-93143557D01*
X193477616Y-93192278D01*
X193542991Y-93227222D01*
X193561958Y-93242788D01*
X193680186Y-93339814D01*
X193756014Y-93432212D01*
X193792778Y-93477009D01*
X193792779Y-93477011D01*
X193876443Y-93633533D01*
X193876443Y-93633534D01*
X193927963Y-93803373D01*
X193945359Y-93980000D01*
X193927963Y-94156627D01*
X193899402Y-94250779D01*
X193876443Y-94326467D01*
X193851829Y-94372516D01*
X193792778Y-94482991D01*
X193763448Y-94518729D01*
X193680186Y-94620186D01*
X193578729Y-94703448D01*
X193542991Y-94732778D01*
X193542989Y-94732779D01*
X193386467Y-94816443D01*
X193329853Y-94833616D01*
X193216627Y-94867963D01*
X193150443Y-94874481D01*
X193084260Y-94881000D01*
X192995740Y-94881000D01*
X192929557Y-94874481D01*
X192863373Y-94867963D01*
X192750147Y-94833616D01*
X192693533Y-94816443D01*
X192537011Y-94732779D01*
X192537009Y-94732778D01*
X192501271Y-94703448D01*
X192399814Y-94620186D01*
X192316552Y-94518729D01*
X192287222Y-94482991D01*
X192228171Y-94372516D01*
X192203557Y-94326467D01*
X192180598Y-94250779D01*
X192152037Y-94156627D01*
X192134641Y-93980000D01*
X192152037Y-93803373D01*
X192203557Y-93633534D01*
X192203557Y-93633533D01*
X192287221Y-93477011D01*
X192287222Y-93477009D01*
X192323986Y-93432212D01*
X192399814Y-93339814D01*
X192518042Y-93242788D01*
X192537009Y-93227222D01*
X192602384Y-93192278D01*
X192693533Y-93143557D01*
X192750147Y-93126384D01*
X192863373Y-93092037D01*
X192929557Y-93085519D01*
X192995740Y-93079000D01*
X193084260Y-93079000D01*
X193150443Y-93085519D01*
X193150443Y-93085519D01*
G37*
G36*
X190610443Y-93085519D02*
X190676627Y-93092037D01*
X190789853Y-93126384D01*
X190846467Y-93143557D01*
X190937616Y-93192278D01*
X191002991Y-93227222D01*
X191021958Y-93242788D01*
X191140186Y-93339814D01*
X191216014Y-93432212D01*
X191252778Y-93477009D01*
X191252779Y-93477011D01*
X191336443Y-93633533D01*
X191336443Y-93633534D01*
X191387963Y-93803373D01*
X191405359Y-93980000D01*
X191387963Y-94156627D01*
X191359402Y-94250779D01*
X191336443Y-94326467D01*
X191311829Y-94372516D01*
X191252778Y-94482991D01*
X191223448Y-94518729D01*
X191140186Y-94620186D01*
X191038729Y-94703448D01*
X191002991Y-94732778D01*
X191002989Y-94732779D01*
X190846467Y-94816443D01*
X190789853Y-94833616D01*
X190676627Y-94867963D01*
X190610443Y-94874481D01*
X190544260Y-94881000D01*
X190455740Y-94881000D01*
X190389557Y-94874481D01*
X190323373Y-94867963D01*
X190210147Y-94833616D01*
X190153533Y-94816443D01*
X189997011Y-94732779D01*
X189997009Y-94732778D01*
X189961271Y-94703448D01*
X189859814Y-94620186D01*
X189776552Y-94518729D01*
X189747222Y-94482991D01*
X189688171Y-94372516D01*
X189663557Y-94326467D01*
X189640598Y-94250779D01*
X189612037Y-94156627D01*
X189594641Y-93980000D01*
X189612037Y-93803373D01*
X189663557Y-93633534D01*
X189663557Y-93633533D01*
X189747221Y-93477011D01*
X189747222Y-93477009D01*
X189783986Y-93432212D01*
X189859814Y-93339814D01*
X189978042Y-93242788D01*
X189997009Y-93227222D01*
X190062384Y-93192278D01*
X190153533Y-93143557D01*
X190210147Y-93126384D01*
X190323373Y-93092037D01*
X190389557Y-93085519D01*
X190455740Y-93079000D01*
X190544260Y-93079000D01*
X190610443Y-93085519D01*
X190610443Y-93085519D01*
G37*
G36*
X123344966Y-93270565D02*
X123383637Y-93282296D01*
X123419279Y-93301348D01*
X123450517Y-93326983D01*
X123476152Y-93358221D01*
X123495204Y-93393863D01*
X123506935Y-93432534D01*
X123511500Y-93478888D01*
X123511500Y-94130112D01*
X123506935Y-94176466D01*
X123495204Y-94215137D01*
X123476152Y-94250779D01*
X123450517Y-94282017D01*
X123419279Y-94307652D01*
X123383637Y-94326704D01*
X123344966Y-94338435D01*
X123298612Y-94343000D01*
X122222388Y-94343000D01*
X122176034Y-94338435D01*
X122137363Y-94326704D01*
X122101721Y-94307652D01*
X122070483Y-94282017D01*
X122044848Y-94250779D01*
X122025796Y-94215137D01*
X122014065Y-94176466D01*
X122009500Y-94130112D01*
X122009500Y-93478888D01*
X122014065Y-93432534D01*
X122025796Y-93393863D01*
X122044848Y-93358221D01*
X122070483Y-93326983D01*
X122101721Y-93301348D01*
X122137363Y-93282296D01*
X122176034Y-93270565D01*
X122222388Y-93266000D01*
X123298612Y-93266000D01*
X123344966Y-93270565D01*
X123344966Y-93270565D01*
G37*
G36*
X125806466Y-93270565D02*
X125845137Y-93282296D01*
X125880779Y-93301348D01*
X125912017Y-93326983D01*
X125937652Y-93358221D01*
X125956704Y-93393863D01*
X125968435Y-93432534D01*
X125973000Y-93478888D01*
X125973000Y-94130112D01*
X125968435Y-94176466D01*
X125956704Y-94215137D01*
X125937652Y-94250779D01*
X125912017Y-94282017D01*
X125880779Y-94307652D01*
X125845137Y-94326704D01*
X125806466Y-94338435D01*
X125760112Y-94343000D01*
X124683888Y-94343000D01*
X124637534Y-94338435D01*
X124598863Y-94326704D01*
X124563221Y-94307652D01*
X124531983Y-94282017D01*
X124506348Y-94250779D01*
X124487296Y-94215137D01*
X124475565Y-94176466D01*
X124471000Y-94130112D01*
X124471000Y-93478888D01*
X124475565Y-93432534D01*
X124487296Y-93393863D01*
X124506348Y-93358221D01*
X124531983Y-93326983D01*
X124563221Y-93301348D01*
X124598863Y-93282296D01*
X124637534Y-93270565D01*
X124683888Y-93266000D01*
X125760112Y-93266000D01*
X125806466Y-93270565D01*
X125806466Y-93270565D01*
G37*
G36*
X150840466Y-92351565D02*
X150879137Y-92363296D01*
X150914779Y-92382348D01*
X150946017Y-92407983D01*
X150971652Y-92439221D01*
X150990704Y-92474863D01*
X151002435Y-92513534D01*
X151007000Y-92559888D01*
X151007000Y-93211112D01*
X151002435Y-93257466D01*
X150990704Y-93296137D01*
X150971652Y-93331779D01*
X150946017Y-93363017D01*
X150914779Y-93388652D01*
X150879137Y-93407704D01*
X150840466Y-93419435D01*
X150794112Y-93424000D01*
X149717888Y-93424000D01*
X149671534Y-93419435D01*
X149632863Y-93407704D01*
X149597221Y-93388652D01*
X149565983Y-93363017D01*
X149540348Y-93331779D01*
X149521296Y-93296137D01*
X149509565Y-93257466D01*
X149505000Y-93211112D01*
X149505000Y-92559888D01*
X149509565Y-92513534D01*
X149521296Y-92474863D01*
X149540348Y-92439221D01*
X149565983Y-92407983D01*
X149597221Y-92382348D01*
X149632863Y-92363296D01*
X149671534Y-92351565D01*
X149717888Y-92347000D01*
X150794112Y-92347000D01*
X150840466Y-92351565D01*
X150840466Y-92351565D01*
G37*
G36*
X146014466Y-92351565D02*
X146053137Y-92363296D01*
X146088779Y-92382348D01*
X146120017Y-92407983D01*
X146145652Y-92439221D01*
X146164704Y-92474863D01*
X146176435Y-92513534D01*
X146181000Y-92559888D01*
X146181000Y-93211112D01*
X146176435Y-93257466D01*
X146164704Y-93296137D01*
X146145652Y-93331779D01*
X146120017Y-93363017D01*
X146088779Y-93388652D01*
X146053137Y-93407704D01*
X146014466Y-93419435D01*
X145968112Y-93424000D01*
X144891888Y-93424000D01*
X144845534Y-93419435D01*
X144806863Y-93407704D01*
X144771221Y-93388652D01*
X144739983Y-93363017D01*
X144714348Y-93331779D01*
X144695296Y-93296137D01*
X144683565Y-93257466D01*
X144679000Y-93211112D01*
X144679000Y-92559888D01*
X144683565Y-92513534D01*
X144695296Y-92474863D01*
X144714348Y-92439221D01*
X144739983Y-92407983D01*
X144771221Y-92382348D01*
X144806863Y-92363296D01*
X144845534Y-92351565D01*
X144891888Y-92347000D01*
X145968112Y-92347000D01*
X146014466Y-92351565D01*
X146014466Y-92351565D01*
G37*
G36*
X148427466Y-92351565D02*
X148466137Y-92363296D01*
X148501779Y-92382348D01*
X148533017Y-92407983D01*
X148558652Y-92439221D01*
X148577704Y-92474863D01*
X148589435Y-92513534D01*
X148594000Y-92559888D01*
X148594000Y-93211112D01*
X148589435Y-93257466D01*
X148577704Y-93296137D01*
X148558652Y-93331779D01*
X148533017Y-93363017D01*
X148501779Y-93388652D01*
X148466137Y-93407704D01*
X148427466Y-93419435D01*
X148381112Y-93424000D01*
X147304888Y-93424000D01*
X147258534Y-93419435D01*
X147219863Y-93407704D01*
X147184221Y-93388652D01*
X147152983Y-93363017D01*
X147127348Y-93331779D01*
X147108296Y-93296137D01*
X147096565Y-93257466D01*
X147092000Y-93211112D01*
X147092000Y-92559888D01*
X147096565Y-92513534D01*
X147108296Y-92474863D01*
X147127348Y-92439221D01*
X147152983Y-92407983D01*
X147184221Y-92382348D01*
X147219863Y-92363296D01*
X147258534Y-92351565D01*
X147304888Y-92347000D01*
X148381112Y-92347000D01*
X148427466Y-92351565D01*
X148427466Y-92351565D01*
G37*
G36*
X153380466Y-92336565D02*
X153419137Y-92348296D01*
X153454779Y-92367348D01*
X153486017Y-92392983D01*
X153511652Y-92424221D01*
X153530704Y-92459863D01*
X153542435Y-92498534D01*
X153547000Y-92544888D01*
X153547000Y-93196112D01*
X153542435Y-93242466D01*
X153530704Y-93281137D01*
X153511652Y-93316779D01*
X153486017Y-93348017D01*
X153454779Y-93373652D01*
X153419137Y-93392704D01*
X153380466Y-93404435D01*
X153334112Y-93409000D01*
X152257888Y-93409000D01*
X152211534Y-93404435D01*
X152172863Y-93392704D01*
X152137221Y-93373652D01*
X152105983Y-93348017D01*
X152080348Y-93316779D01*
X152061296Y-93281137D01*
X152049565Y-93242466D01*
X152045000Y-93196112D01*
X152045000Y-92544888D01*
X152049565Y-92498534D01*
X152061296Y-92459863D01*
X152080348Y-92424221D01*
X152105983Y-92392983D01*
X152137221Y-92367348D01*
X152172863Y-92348296D01*
X152211534Y-92336565D01*
X152257888Y-92332000D01*
X153334112Y-92332000D01*
X153380466Y-92336565D01*
X153380466Y-92336565D01*
G37*
G36*
X193150443Y-90545519D02*
X193216627Y-90552037D01*
X193297808Y-90576663D01*
X193386467Y-90603557D01*
X193525087Y-90677652D01*
X193542991Y-90687222D01*
X193578729Y-90716552D01*
X193680186Y-90799814D01*
X193757747Y-90894324D01*
X193792778Y-90937009D01*
X193792779Y-90937011D01*
X193876443Y-91093533D01*
X193876443Y-91093534D01*
X193927963Y-91263373D01*
X193945359Y-91440000D01*
X193927963Y-91616627D01*
X193893616Y-91729853D01*
X193876443Y-91786467D01*
X193802348Y-91925087D01*
X193792778Y-91942991D01*
X193763448Y-91978729D01*
X193680186Y-92080186D01*
X193578729Y-92163448D01*
X193542991Y-92192778D01*
X193542989Y-92192779D01*
X193386467Y-92276443D01*
X193329853Y-92293616D01*
X193216627Y-92327963D01*
X193150443Y-92334481D01*
X193084260Y-92341000D01*
X192995740Y-92341000D01*
X192929557Y-92334481D01*
X192863373Y-92327963D01*
X192750147Y-92293616D01*
X192693533Y-92276443D01*
X192537011Y-92192779D01*
X192537009Y-92192778D01*
X192501271Y-92163448D01*
X192399814Y-92080186D01*
X192316552Y-91978729D01*
X192287222Y-91942991D01*
X192277652Y-91925087D01*
X192203557Y-91786467D01*
X192186384Y-91729853D01*
X192152037Y-91616627D01*
X192134641Y-91440000D01*
X192152037Y-91263373D01*
X192203557Y-91093534D01*
X192203557Y-91093533D01*
X192287221Y-90937011D01*
X192287222Y-90937009D01*
X192322253Y-90894324D01*
X192399814Y-90799814D01*
X192501271Y-90716552D01*
X192537009Y-90687222D01*
X192554913Y-90677652D01*
X192693533Y-90603557D01*
X192782192Y-90576663D01*
X192863373Y-90552037D01*
X192929558Y-90545518D01*
X192995740Y-90539000D01*
X193084260Y-90539000D01*
X193150443Y-90545519D01*
X193150443Y-90545519D01*
G37*
G36*
X190610443Y-90545519D02*
X190676627Y-90552037D01*
X190757808Y-90576663D01*
X190846467Y-90603557D01*
X190985087Y-90677652D01*
X191002991Y-90687222D01*
X191038729Y-90716552D01*
X191140186Y-90799814D01*
X191217747Y-90894324D01*
X191252778Y-90937009D01*
X191252779Y-90937011D01*
X191336443Y-91093533D01*
X191336443Y-91093534D01*
X191387963Y-91263373D01*
X191405359Y-91440000D01*
X191387963Y-91616627D01*
X191353616Y-91729853D01*
X191336443Y-91786467D01*
X191262348Y-91925087D01*
X191252778Y-91942991D01*
X191223448Y-91978729D01*
X191140186Y-92080186D01*
X191038729Y-92163448D01*
X191002991Y-92192778D01*
X191002989Y-92192779D01*
X190846467Y-92276443D01*
X190789853Y-92293616D01*
X190676627Y-92327963D01*
X190610443Y-92334481D01*
X190544260Y-92341000D01*
X190455740Y-92341000D01*
X190389557Y-92334481D01*
X190323373Y-92327963D01*
X190210147Y-92293616D01*
X190153533Y-92276443D01*
X189997011Y-92192779D01*
X189997009Y-92192778D01*
X189961271Y-92163448D01*
X189859814Y-92080186D01*
X189776552Y-91978729D01*
X189747222Y-91942991D01*
X189737652Y-91925087D01*
X189663557Y-91786467D01*
X189646384Y-91729853D01*
X189612037Y-91616627D01*
X189594641Y-91440000D01*
X189612037Y-91263373D01*
X189663557Y-91093534D01*
X189663557Y-91093533D01*
X189747221Y-90937011D01*
X189747222Y-90937009D01*
X189782253Y-90894324D01*
X189859814Y-90799814D01*
X189961271Y-90716552D01*
X189997009Y-90687222D01*
X190014913Y-90677652D01*
X190153533Y-90603557D01*
X190242192Y-90576663D01*
X190323373Y-90552037D01*
X190389558Y-90545518D01*
X190455740Y-90539000D01*
X190544260Y-90539000D01*
X190610443Y-90545519D01*
X190610443Y-90545519D01*
G37*
G36*
X123768000Y-84571500D02*
X123770402Y-84595886D01*
X123777515Y-84619335D01*
X123789066Y-84640946D01*
X123804612Y-84659888D01*
X123823554Y-84675434D01*
X123845165Y-84686985D01*
X123868614Y-84694098D01*
X123893000Y-84696500D01*
X126168000Y-84696500D01*
X126168000Y-91198500D01*
X123893000Y-91198500D01*
X123868614Y-91200902D01*
X123845165Y-91208015D01*
X123823554Y-91219566D01*
X123804612Y-91235112D01*
X123789066Y-91254054D01*
X123777515Y-91275665D01*
X123770402Y-91299114D01*
X123768000Y-91323500D01*
X123768000Y-92096000D01*
X121766000Y-92096000D01*
X121766000Y-88149000D01*
X123768000Y-88149000D01*
X123768000Y-89496500D01*
X123770402Y-89520886D01*
X123777515Y-89544335D01*
X123789066Y-89565946D01*
X123804612Y-89584888D01*
X123823554Y-89600434D01*
X123845165Y-89611985D01*
X123868614Y-89619098D01*
X123893000Y-89621500D01*
X124561000Y-89621500D01*
X124585386Y-89619098D01*
X124608835Y-89611985D01*
X124630446Y-89600434D01*
X124649388Y-89584888D01*
X124664934Y-89565946D01*
X124676485Y-89544335D01*
X124683598Y-89520886D01*
X124686000Y-89496500D01*
X124686000Y-86398500D01*
X124683598Y-86374114D01*
X124676485Y-86350665D01*
X124664934Y-86329054D01*
X124649388Y-86310112D01*
X124630446Y-86294566D01*
X124608835Y-86283015D01*
X124585386Y-86275902D01*
X124561000Y-86273500D01*
X123893000Y-86273500D01*
X123868614Y-86275902D01*
X123845165Y-86283015D01*
X123823554Y-86294566D01*
X123804612Y-86310112D01*
X123789066Y-86329054D01*
X123777515Y-86350665D01*
X123770402Y-86374114D01*
X123768000Y-86398500D01*
X123768000Y-87746000D01*
X121766000Y-87746000D01*
X121766000Y-83799000D01*
X123768000Y-83799000D01*
X123768000Y-84571500D01*
X123768000Y-84571500D01*
G37*
G36*
X164919219Y-84022341D02*
X164923890Y-84023758D01*
X164928192Y-84026058D01*
X164934567Y-84031289D01*
X164954942Y-84044902D01*
X164977581Y-84054278D01*
X165001615Y-84059058D01*
X165026119Y-84059057D01*
X165050153Y-84054275D01*
X165072791Y-84044897D01*
X165093157Y-84031289D01*
X165099532Y-84026058D01*
X165103834Y-84023758D01*
X165108505Y-84022341D01*
X165119503Y-84021258D01*
X165408221Y-84021258D01*
X165419219Y-84022341D01*
X165423890Y-84023758D01*
X165428192Y-84026058D01*
X165434567Y-84031289D01*
X165454942Y-84044902D01*
X165477581Y-84054278D01*
X165501615Y-84059058D01*
X165526119Y-84059057D01*
X165550153Y-84054275D01*
X165572791Y-84044897D01*
X165593157Y-84031289D01*
X165599532Y-84026058D01*
X165603834Y-84023758D01*
X165608505Y-84022341D01*
X165619503Y-84021258D01*
X165908221Y-84021258D01*
X165919219Y-84022341D01*
X165923890Y-84023758D01*
X165928192Y-84026058D01*
X165934567Y-84031289D01*
X165954942Y-84044902D01*
X165977581Y-84054278D01*
X166001615Y-84059058D01*
X166026119Y-84059057D01*
X166050153Y-84054275D01*
X166072791Y-84044897D01*
X166093157Y-84031289D01*
X166099532Y-84026058D01*
X166103834Y-84023758D01*
X166108505Y-84022341D01*
X166119503Y-84021258D01*
X166408221Y-84021258D01*
X166419219Y-84022341D01*
X166423890Y-84023758D01*
X166428192Y-84026058D01*
X166434567Y-84031289D01*
X166454942Y-84044902D01*
X166477581Y-84054278D01*
X166501615Y-84059058D01*
X166526119Y-84059057D01*
X166550153Y-84054275D01*
X166572791Y-84044897D01*
X166593157Y-84031289D01*
X166599532Y-84026058D01*
X166603834Y-84023758D01*
X166608505Y-84022341D01*
X166619503Y-84021258D01*
X166908221Y-84021258D01*
X166919219Y-84022341D01*
X166923890Y-84023758D01*
X166928192Y-84026058D01*
X166934567Y-84031289D01*
X166954942Y-84044902D01*
X166977581Y-84054278D01*
X167001615Y-84059058D01*
X167026119Y-84059057D01*
X167050153Y-84054275D01*
X167072791Y-84044897D01*
X167093157Y-84031289D01*
X167099532Y-84026058D01*
X167103834Y-84023758D01*
X167108505Y-84022341D01*
X167119503Y-84021258D01*
X167408221Y-84021258D01*
X167419219Y-84022341D01*
X167423890Y-84023758D01*
X167428192Y-84026058D01*
X167434567Y-84031289D01*
X167454942Y-84044902D01*
X167477581Y-84054278D01*
X167501615Y-84059058D01*
X167526119Y-84059057D01*
X167550153Y-84054275D01*
X167572791Y-84044897D01*
X167593157Y-84031289D01*
X167599532Y-84026058D01*
X167603834Y-84023758D01*
X167608505Y-84022341D01*
X167619503Y-84021258D01*
X167908221Y-84021258D01*
X167919219Y-84022341D01*
X167923890Y-84023758D01*
X167928192Y-84026058D01*
X167934567Y-84031289D01*
X167954942Y-84044902D01*
X167977581Y-84054278D01*
X168001615Y-84059058D01*
X168026119Y-84059057D01*
X168050153Y-84054275D01*
X168072791Y-84044897D01*
X168093157Y-84031289D01*
X168099532Y-84026058D01*
X168103834Y-84023758D01*
X168108505Y-84022341D01*
X168119503Y-84021258D01*
X168408221Y-84021258D01*
X168419219Y-84022341D01*
X168423890Y-84023758D01*
X168428192Y-84026058D01*
X168434567Y-84031289D01*
X168454942Y-84044902D01*
X168477581Y-84054278D01*
X168501615Y-84059058D01*
X168526119Y-84059057D01*
X168550153Y-84054275D01*
X168572791Y-84044897D01*
X168593157Y-84031289D01*
X168599532Y-84026058D01*
X168603834Y-84023758D01*
X168608505Y-84022341D01*
X168619503Y-84021258D01*
X168908221Y-84021258D01*
X168919219Y-84022341D01*
X168923890Y-84023758D01*
X168928192Y-84026058D01*
X168934567Y-84031289D01*
X168954942Y-84044902D01*
X168977581Y-84054278D01*
X169001615Y-84059058D01*
X169026119Y-84059057D01*
X169050153Y-84054275D01*
X169072791Y-84044897D01*
X169093157Y-84031289D01*
X169099532Y-84026058D01*
X169103834Y-84023758D01*
X169108505Y-84022341D01*
X169119503Y-84021258D01*
X169408221Y-84021258D01*
X169419219Y-84022341D01*
X169423890Y-84023758D01*
X169428192Y-84026058D01*
X169434567Y-84031289D01*
X169454942Y-84044902D01*
X169477581Y-84054278D01*
X169501615Y-84059058D01*
X169526119Y-84059057D01*
X169550153Y-84054275D01*
X169572791Y-84044897D01*
X169593157Y-84031289D01*
X169599532Y-84026058D01*
X169603834Y-84023758D01*
X169608505Y-84022341D01*
X169619503Y-84021258D01*
X169908221Y-84021258D01*
X169919219Y-84022341D01*
X169923890Y-84023758D01*
X169928192Y-84026058D01*
X169934567Y-84031289D01*
X169954942Y-84044902D01*
X169977581Y-84054278D01*
X170001615Y-84059058D01*
X170026119Y-84059057D01*
X170050153Y-84054275D01*
X170072791Y-84044897D01*
X170093157Y-84031289D01*
X170099532Y-84026058D01*
X170103834Y-84023758D01*
X170108505Y-84022341D01*
X170119503Y-84021258D01*
X170408221Y-84021258D01*
X170419219Y-84022341D01*
X170423890Y-84023758D01*
X170428192Y-84026058D01*
X170431966Y-84029154D01*
X170435062Y-84032928D01*
X170437362Y-84037230D01*
X170438779Y-84041901D01*
X170439862Y-84052899D01*
X170439862Y-84896258D01*
X170442264Y-84920644D01*
X170449377Y-84944093D01*
X170460928Y-84965704D01*
X170476474Y-84984646D01*
X170495416Y-85000192D01*
X170517027Y-85011743D01*
X170540476Y-85018856D01*
X170564862Y-85021258D01*
X171408221Y-85021258D01*
X171419219Y-85022341D01*
X171423890Y-85023758D01*
X171428192Y-85026058D01*
X171431966Y-85029154D01*
X171435062Y-85032928D01*
X171437362Y-85037230D01*
X171438779Y-85041901D01*
X171439862Y-85052899D01*
X171439862Y-85341617D01*
X171438779Y-85352615D01*
X171437362Y-85357286D01*
X171435062Y-85361588D01*
X171429831Y-85367963D01*
X171416218Y-85388338D01*
X171406842Y-85410977D01*
X171402062Y-85435011D01*
X171402063Y-85459515D01*
X171406845Y-85483549D01*
X171416223Y-85506187D01*
X171429831Y-85526553D01*
X171435062Y-85532928D01*
X171437362Y-85537230D01*
X171438779Y-85541901D01*
X171439862Y-85552899D01*
X171439862Y-85841617D01*
X171438779Y-85852615D01*
X171437362Y-85857286D01*
X171435062Y-85861588D01*
X171429831Y-85867963D01*
X171416218Y-85888338D01*
X171406842Y-85910977D01*
X171402062Y-85935011D01*
X171402063Y-85959515D01*
X171406845Y-85983549D01*
X171416223Y-86006187D01*
X171429831Y-86026553D01*
X171435062Y-86032928D01*
X171437362Y-86037230D01*
X171438779Y-86041901D01*
X171439862Y-86052899D01*
X171439862Y-86341617D01*
X171438779Y-86352615D01*
X171437362Y-86357286D01*
X171435062Y-86361588D01*
X171429831Y-86367963D01*
X171416218Y-86388338D01*
X171406842Y-86410977D01*
X171402062Y-86435011D01*
X171402063Y-86459515D01*
X171406845Y-86483549D01*
X171416223Y-86506187D01*
X171429831Y-86526553D01*
X171435062Y-86532928D01*
X171437362Y-86537230D01*
X171438779Y-86541901D01*
X171439862Y-86552899D01*
X171439862Y-86841617D01*
X171438779Y-86852615D01*
X171437362Y-86857286D01*
X171435062Y-86861588D01*
X171429831Y-86867963D01*
X171416218Y-86888338D01*
X171406842Y-86910977D01*
X171402062Y-86935011D01*
X171402063Y-86959515D01*
X171406845Y-86983549D01*
X171416223Y-87006187D01*
X171429831Y-87026553D01*
X171435062Y-87032928D01*
X171437362Y-87037230D01*
X171438779Y-87041901D01*
X171439862Y-87052899D01*
X171439862Y-87341617D01*
X171438779Y-87352615D01*
X171437362Y-87357286D01*
X171435062Y-87361588D01*
X171429831Y-87367963D01*
X171416218Y-87388338D01*
X171406842Y-87410977D01*
X171402062Y-87435011D01*
X171402063Y-87459515D01*
X171406845Y-87483549D01*
X171416223Y-87506187D01*
X171429831Y-87526553D01*
X171435062Y-87532928D01*
X171437362Y-87537230D01*
X171438779Y-87541901D01*
X171439862Y-87552899D01*
X171439862Y-87841617D01*
X171438779Y-87852615D01*
X171437362Y-87857286D01*
X171435062Y-87861588D01*
X171429831Y-87867963D01*
X171416218Y-87888338D01*
X171406842Y-87910977D01*
X171402062Y-87935011D01*
X171402063Y-87959515D01*
X171406845Y-87983549D01*
X171416223Y-88006187D01*
X171429831Y-88026553D01*
X171435062Y-88032928D01*
X171437362Y-88037230D01*
X171438779Y-88041901D01*
X171439862Y-88052899D01*
X171439862Y-88341617D01*
X171438779Y-88352615D01*
X171437362Y-88357286D01*
X171435062Y-88361588D01*
X171429831Y-88367963D01*
X171416218Y-88388338D01*
X171406842Y-88410977D01*
X171402062Y-88435011D01*
X171402063Y-88459515D01*
X171406845Y-88483549D01*
X171416223Y-88506187D01*
X171429831Y-88526553D01*
X171435062Y-88532928D01*
X171437362Y-88537230D01*
X171438779Y-88541901D01*
X171439862Y-88552899D01*
X171439862Y-88841617D01*
X171438779Y-88852615D01*
X171437362Y-88857286D01*
X171435062Y-88861588D01*
X171429831Y-88867963D01*
X171416218Y-88888338D01*
X171406842Y-88910977D01*
X171402062Y-88935011D01*
X171402063Y-88959515D01*
X171406845Y-88983549D01*
X171416223Y-89006187D01*
X171429831Y-89026553D01*
X171435062Y-89032928D01*
X171437362Y-89037230D01*
X171438779Y-89041901D01*
X171439862Y-89052899D01*
X171439862Y-89341617D01*
X171438779Y-89352615D01*
X171437362Y-89357286D01*
X171435062Y-89361588D01*
X171429831Y-89367963D01*
X171416218Y-89388338D01*
X171406842Y-89410977D01*
X171402062Y-89435011D01*
X171402063Y-89459515D01*
X171406845Y-89483549D01*
X171416223Y-89506187D01*
X171429831Y-89526553D01*
X171435062Y-89532928D01*
X171437362Y-89537230D01*
X171438779Y-89541901D01*
X171439862Y-89552899D01*
X171439862Y-89841617D01*
X171438779Y-89852615D01*
X171437362Y-89857286D01*
X171435062Y-89861588D01*
X171429831Y-89867963D01*
X171416218Y-89888338D01*
X171406842Y-89910977D01*
X171402062Y-89935011D01*
X171402063Y-89959515D01*
X171406845Y-89983549D01*
X171416223Y-90006187D01*
X171429831Y-90026553D01*
X171435062Y-90032928D01*
X171437362Y-90037230D01*
X171438779Y-90041901D01*
X171439862Y-90052899D01*
X171439862Y-90341617D01*
X171438779Y-90352615D01*
X171437362Y-90357286D01*
X171435062Y-90361588D01*
X171429831Y-90367963D01*
X171416218Y-90388338D01*
X171406842Y-90410977D01*
X171402062Y-90435011D01*
X171402063Y-90459515D01*
X171406845Y-90483549D01*
X171416223Y-90506187D01*
X171429831Y-90526553D01*
X171435062Y-90532928D01*
X171437362Y-90537230D01*
X171438779Y-90541901D01*
X171439862Y-90552899D01*
X171439862Y-90841617D01*
X171438779Y-90852615D01*
X171437362Y-90857286D01*
X171435062Y-90861588D01*
X171431966Y-90865362D01*
X171428192Y-90868458D01*
X171423890Y-90870758D01*
X171419219Y-90872175D01*
X171408221Y-90873258D01*
X170564862Y-90873258D01*
X170540476Y-90875660D01*
X170517027Y-90882773D01*
X170495416Y-90894324D01*
X170476474Y-90909870D01*
X170460928Y-90928812D01*
X170449377Y-90950423D01*
X170442264Y-90973872D01*
X170439862Y-90998258D01*
X170439862Y-91841617D01*
X170438779Y-91852615D01*
X170437362Y-91857286D01*
X170435062Y-91861588D01*
X170431966Y-91865362D01*
X170428192Y-91868458D01*
X170423890Y-91870758D01*
X170419219Y-91872175D01*
X170408221Y-91873258D01*
X170119503Y-91873258D01*
X170108505Y-91872175D01*
X170103834Y-91870758D01*
X170099532Y-91868458D01*
X170093157Y-91863227D01*
X170072782Y-91849614D01*
X170050143Y-91840238D01*
X170026109Y-91835458D01*
X170001605Y-91835459D01*
X169977571Y-91840241D01*
X169954933Y-91849619D01*
X169934567Y-91863227D01*
X169928192Y-91868458D01*
X169923890Y-91870758D01*
X169919219Y-91872175D01*
X169908221Y-91873258D01*
X169619503Y-91873258D01*
X169608505Y-91872175D01*
X169603834Y-91870758D01*
X169599532Y-91868458D01*
X169593157Y-91863227D01*
X169572782Y-91849614D01*
X169550143Y-91840238D01*
X169526109Y-91835458D01*
X169501605Y-91835459D01*
X169477571Y-91840241D01*
X169454933Y-91849619D01*
X169434567Y-91863227D01*
X169428192Y-91868458D01*
X169423890Y-91870758D01*
X169419219Y-91872175D01*
X169408221Y-91873258D01*
X169119503Y-91873258D01*
X169108505Y-91872175D01*
X169103834Y-91870758D01*
X169099532Y-91868458D01*
X169093157Y-91863227D01*
X169072782Y-91849614D01*
X169050143Y-91840238D01*
X169026109Y-91835458D01*
X169001605Y-91835459D01*
X168977571Y-91840241D01*
X168954933Y-91849619D01*
X168934567Y-91863227D01*
X168928192Y-91868458D01*
X168923890Y-91870758D01*
X168919219Y-91872175D01*
X168908221Y-91873258D01*
X168619503Y-91873258D01*
X168608505Y-91872175D01*
X168603834Y-91870758D01*
X168599532Y-91868458D01*
X168593157Y-91863227D01*
X168572782Y-91849614D01*
X168550143Y-91840238D01*
X168526109Y-91835458D01*
X168501605Y-91835459D01*
X168477571Y-91840241D01*
X168454933Y-91849619D01*
X168434567Y-91863227D01*
X168428192Y-91868458D01*
X168423890Y-91870758D01*
X168419219Y-91872175D01*
X168408221Y-91873258D01*
X168119503Y-91873258D01*
X168108505Y-91872175D01*
X168103834Y-91870758D01*
X168099532Y-91868458D01*
X168093157Y-91863227D01*
X168072782Y-91849614D01*
X168050143Y-91840238D01*
X168026109Y-91835458D01*
X168001605Y-91835459D01*
X167977571Y-91840241D01*
X167954933Y-91849619D01*
X167934567Y-91863227D01*
X167928192Y-91868458D01*
X167923890Y-91870758D01*
X167919219Y-91872175D01*
X167908221Y-91873258D01*
X167619503Y-91873258D01*
X167608505Y-91872175D01*
X167603834Y-91870758D01*
X167599532Y-91868458D01*
X167593157Y-91863227D01*
X167572782Y-91849614D01*
X167550143Y-91840238D01*
X167526109Y-91835458D01*
X167501605Y-91835459D01*
X167477571Y-91840241D01*
X167454933Y-91849619D01*
X167434567Y-91863227D01*
X167428192Y-91868458D01*
X167423890Y-91870758D01*
X167419219Y-91872175D01*
X167408221Y-91873258D01*
X167119503Y-91873258D01*
X167108505Y-91872175D01*
X167103834Y-91870758D01*
X167099532Y-91868458D01*
X167093157Y-91863227D01*
X167072782Y-91849614D01*
X167050143Y-91840238D01*
X167026109Y-91835458D01*
X167001605Y-91835459D01*
X166977571Y-91840241D01*
X166954933Y-91849619D01*
X166934567Y-91863227D01*
X166928192Y-91868458D01*
X166923890Y-91870758D01*
X166919219Y-91872175D01*
X166908221Y-91873258D01*
X166619503Y-91873258D01*
X166608505Y-91872175D01*
X166603834Y-91870758D01*
X166599532Y-91868458D01*
X166593157Y-91863227D01*
X166572782Y-91849614D01*
X166550143Y-91840238D01*
X166526109Y-91835458D01*
X166501605Y-91835459D01*
X166477571Y-91840241D01*
X166454933Y-91849619D01*
X166434567Y-91863227D01*
X166428192Y-91868458D01*
X166423890Y-91870758D01*
X166419219Y-91872175D01*
X166408221Y-91873258D01*
X166119503Y-91873258D01*
X166108505Y-91872175D01*
X166103834Y-91870758D01*
X166099532Y-91868458D01*
X166093157Y-91863227D01*
X166072782Y-91849614D01*
X166050143Y-91840238D01*
X166026109Y-91835458D01*
X166001605Y-91835459D01*
X165977571Y-91840241D01*
X165954933Y-91849619D01*
X165934567Y-91863227D01*
X165928192Y-91868458D01*
X165923890Y-91870758D01*
X165919219Y-91872175D01*
X165908221Y-91873258D01*
X165619503Y-91873258D01*
X165608505Y-91872175D01*
X165603834Y-91870758D01*
X165599532Y-91868458D01*
X165593157Y-91863227D01*
X165572782Y-91849614D01*
X165550143Y-91840238D01*
X165526109Y-91835458D01*
X165501605Y-91835459D01*
X165477571Y-91840241D01*
X165454933Y-91849619D01*
X165434567Y-91863227D01*
X165428192Y-91868458D01*
X165423890Y-91870758D01*
X165419219Y-91872175D01*
X165408221Y-91873258D01*
X165119503Y-91873258D01*
X165108505Y-91872175D01*
X165103834Y-91870758D01*
X165099532Y-91868458D01*
X165093157Y-91863227D01*
X165072782Y-91849614D01*
X165050143Y-91840238D01*
X165026109Y-91835458D01*
X165001605Y-91835459D01*
X164977571Y-91840241D01*
X164954933Y-91849619D01*
X164934567Y-91863227D01*
X164928192Y-91868458D01*
X164923890Y-91870758D01*
X164919219Y-91872175D01*
X164908221Y-91873258D01*
X164619503Y-91873258D01*
X164608505Y-91872175D01*
X164603834Y-91870758D01*
X164599532Y-91868458D01*
X164595758Y-91865362D01*
X164592662Y-91861588D01*
X164590362Y-91857286D01*
X164588945Y-91852615D01*
X164587862Y-91841617D01*
X164587862Y-90998258D01*
X164585460Y-90973872D01*
X164578347Y-90950423D01*
X164566796Y-90928812D01*
X164551250Y-90909870D01*
X164532308Y-90894324D01*
X164510697Y-90882773D01*
X164487248Y-90875660D01*
X164462862Y-90873258D01*
X163619503Y-90873258D01*
X163608505Y-90872175D01*
X163603834Y-90870758D01*
X163599532Y-90868458D01*
X163595758Y-90865362D01*
X163592662Y-90861588D01*
X163590362Y-90857286D01*
X163588945Y-90852615D01*
X163587862Y-90841617D01*
X163587862Y-90552899D01*
X163588945Y-90541901D01*
X163590362Y-90537230D01*
X163592662Y-90532928D01*
X163597893Y-90526553D01*
X163611506Y-90506178D01*
X163620882Y-90483539D01*
X163625662Y-90459505D01*
X163625661Y-90435001D01*
X163620879Y-90410967D01*
X163611501Y-90388329D01*
X163597893Y-90367963D01*
X163592662Y-90361588D01*
X163590362Y-90357286D01*
X163588945Y-90352615D01*
X163587862Y-90341617D01*
X163587862Y-90052899D01*
X163588945Y-90041901D01*
X163590362Y-90037230D01*
X163592662Y-90032928D01*
X163597893Y-90026553D01*
X163611506Y-90006178D01*
X163620882Y-89983539D01*
X163625662Y-89959505D01*
X163625661Y-89935001D01*
X163620879Y-89910967D01*
X163611501Y-89888329D01*
X163597893Y-89867963D01*
X163592662Y-89861588D01*
X163590362Y-89857286D01*
X163588945Y-89852615D01*
X163587862Y-89841617D01*
X163587862Y-89552899D01*
X163588945Y-89541901D01*
X163590362Y-89537230D01*
X163592662Y-89532928D01*
X163597893Y-89526553D01*
X163611506Y-89506178D01*
X163620882Y-89483539D01*
X163625662Y-89459505D01*
X163625661Y-89435001D01*
X163620879Y-89410967D01*
X163611501Y-89388329D01*
X163597893Y-89367963D01*
X163592662Y-89361588D01*
X163590362Y-89357286D01*
X163588945Y-89352615D01*
X163587862Y-89341617D01*
X163587862Y-89052899D01*
X163588945Y-89041901D01*
X163590362Y-89037230D01*
X163592662Y-89032928D01*
X163597893Y-89026553D01*
X163611506Y-89006178D01*
X163620882Y-88983539D01*
X163625662Y-88959505D01*
X163625661Y-88935001D01*
X163620879Y-88910967D01*
X163611501Y-88888329D01*
X163597893Y-88867963D01*
X163592662Y-88861588D01*
X163590362Y-88857286D01*
X163588945Y-88852615D01*
X163587862Y-88841617D01*
X163587862Y-88552899D01*
X163588945Y-88541901D01*
X163590362Y-88537230D01*
X163592662Y-88532928D01*
X163597893Y-88526553D01*
X163611506Y-88506178D01*
X163620882Y-88483539D01*
X163625662Y-88459505D01*
X163625661Y-88435001D01*
X163620879Y-88410967D01*
X163611501Y-88388329D01*
X163597893Y-88367963D01*
X163592662Y-88361588D01*
X163590362Y-88357286D01*
X163588945Y-88352615D01*
X163587862Y-88341617D01*
X163587862Y-88052899D01*
X163588945Y-88041901D01*
X163590362Y-88037230D01*
X163592662Y-88032928D01*
X163597893Y-88026553D01*
X163611506Y-88006178D01*
X163620882Y-87983539D01*
X163625662Y-87959505D01*
X163625661Y-87935001D01*
X163620879Y-87910967D01*
X163611501Y-87888329D01*
X163597893Y-87867963D01*
X163592662Y-87861588D01*
X163590362Y-87857286D01*
X163588945Y-87852615D01*
X163587862Y-87841617D01*
X163587862Y-87552899D01*
X163588945Y-87541901D01*
X163590362Y-87537230D01*
X163592662Y-87532928D01*
X163597893Y-87526553D01*
X163611506Y-87506178D01*
X163620882Y-87483539D01*
X163625662Y-87459505D01*
X163625661Y-87435001D01*
X163620879Y-87410967D01*
X163611501Y-87388329D01*
X163597893Y-87367963D01*
X163592662Y-87361588D01*
X163590362Y-87357286D01*
X163588945Y-87352615D01*
X163587862Y-87341617D01*
X163587862Y-87052899D01*
X163588945Y-87041901D01*
X163590362Y-87037230D01*
X163592662Y-87032928D01*
X163597893Y-87026553D01*
X163611506Y-87006178D01*
X163620882Y-86983539D01*
X163625662Y-86959505D01*
X163625661Y-86935001D01*
X163620879Y-86910967D01*
X163611501Y-86888329D01*
X163597893Y-86867963D01*
X163592662Y-86861588D01*
X163590362Y-86857286D01*
X163588945Y-86852615D01*
X163587862Y-86841617D01*
X163587862Y-86552899D01*
X163588945Y-86541901D01*
X163590362Y-86537230D01*
X163592662Y-86532928D01*
X163597893Y-86526553D01*
X163611506Y-86506178D01*
X163620882Y-86483539D01*
X163625662Y-86459505D01*
X163625661Y-86435001D01*
X163620879Y-86410967D01*
X163611501Y-86388329D01*
X163597893Y-86367963D01*
X163592662Y-86361588D01*
X163590362Y-86357286D01*
X163588945Y-86352615D01*
X163587862Y-86341617D01*
X163587862Y-86052899D01*
X163588945Y-86041901D01*
X163590362Y-86037230D01*
X163592662Y-86032928D01*
X163597893Y-86026553D01*
X163611506Y-86006178D01*
X163620882Y-85983539D01*
X163625662Y-85959505D01*
X163625661Y-85935001D01*
X163620879Y-85910967D01*
X163611501Y-85888329D01*
X163597893Y-85867963D01*
X163592662Y-85861588D01*
X163590362Y-85857286D01*
X163588945Y-85852615D01*
X163587862Y-85841617D01*
X163587862Y-85552899D01*
X163588945Y-85541901D01*
X163590362Y-85537230D01*
X163592662Y-85532928D01*
X163597893Y-85526553D01*
X163611506Y-85506178D01*
X163620882Y-85483539D01*
X163625662Y-85459505D01*
X163625661Y-85435001D01*
X163620879Y-85410967D01*
X163611501Y-85388329D01*
X163597893Y-85367963D01*
X163592662Y-85361588D01*
X163590362Y-85357286D01*
X163588945Y-85352615D01*
X163587862Y-85341617D01*
X163587862Y-85052899D01*
X163588945Y-85041901D01*
X163590362Y-85037230D01*
X163592662Y-85032928D01*
X163595758Y-85029154D01*
X163599532Y-85026058D01*
X163603834Y-85023758D01*
X163608505Y-85022341D01*
X163619503Y-85021258D01*
X164462862Y-85021258D01*
X164487248Y-85018856D01*
X164510697Y-85011743D01*
X164532308Y-85000192D01*
X164551250Y-84984646D01*
X164566796Y-84965704D01*
X164578347Y-84944093D01*
X164585460Y-84920644D01*
X164587862Y-84896258D01*
X164587862Y-84052899D01*
X164588945Y-84041901D01*
X164590362Y-84037230D01*
X164592662Y-84032928D01*
X164595758Y-84029154D01*
X164599532Y-84026058D01*
X164603834Y-84023758D01*
X164608505Y-84022341D01*
X164619503Y-84021258D01*
X164908221Y-84021258D01*
X164919219Y-84022341D01*
X164919219Y-84022341D01*
G37*
G36*
X148427466Y-90476565D02*
X148466137Y-90488296D01*
X148501779Y-90507348D01*
X148533017Y-90532983D01*
X148558652Y-90564221D01*
X148577704Y-90599863D01*
X148589435Y-90638534D01*
X148594000Y-90684888D01*
X148594000Y-91336112D01*
X148589435Y-91382466D01*
X148577704Y-91421137D01*
X148558652Y-91456779D01*
X148533017Y-91488017D01*
X148501779Y-91513652D01*
X148466137Y-91532704D01*
X148427466Y-91544435D01*
X148381112Y-91549000D01*
X147304888Y-91549000D01*
X147258534Y-91544435D01*
X147219863Y-91532704D01*
X147184221Y-91513652D01*
X147152983Y-91488017D01*
X147127348Y-91456779D01*
X147108296Y-91421137D01*
X147096565Y-91382466D01*
X147092000Y-91336112D01*
X147092000Y-90684888D01*
X147096565Y-90638534D01*
X147108296Y-90599863D01*
X147127348Y-90564221D01*
X147152983Y-90532983D01*
X147184221Y-90507348D01*
X147219863Y-90488296D01*
X147258534Y-90476565D01*
X147304888Y-90472000D01*
X148381112Y-90472000D01*
X148427466Y-90476565D01*
X148427466Y-90476565D01*
G37*
G36*
X146014466Y-90476565D02*
X146053137Y-90488296D01*
X146088779Y-90507348D01*
X146120017Y-90532983D01*
X146145652Y-90564221D01*
X146164704Y-90599863D01*
X146176435Y-90638534D01*
X146181000Y-90684888D01*
X146181000Y-91336112D01*
X146176435Y-91382466D01*
X146164704Y-91421137D01*
X146145652Y-91456779D01*
X146120017Y-91488017D01*
X146088779Y-91513652D01*
X146053137Y-91532704D01*
X146014466Y-91544435D01*
X145968112Y-91549000D01*
X144891888Y-91549000D01*
X144845534Y-91544435D01*
X144806863Y-91532704D01*
X144771221Y-91513652D01*
X144739983Y-91488017D01*
X144714348Y-91456779D01*
X144695296Y-91421137D01*
X144683565Y-91382466D01*
X144679000Y-91336112D01*
X144679000Y-90684888D01*
X144683565Y-90638534D01*
X144695296Y-90599863D01*
X144714348Y-90564221D01*
X144739983Y-90532983D01*
X144771221Y-90507348D01*
X144806863Y-90488296D01*
X144845534Y-90476565D01*
X144891888Y-90472000D01*
X145968112Y-90472000D01*
X146014466Y-90476565D01*
X146014466Y-90476565D01*
G37*
G36*
X150840466Y-90476565D02*
X150879137Y-90488296D01*
X150914779Y-90507348D01*
X150946017Y-90532983D01*
X150971652Y-90564221D01*
X150990704Y-90599863D01*
X151002435Y-90638534D01*
X151007000Y-90684888D01*
X151007000Y-91336112D01*
X151002435Y-91382466D01*
X150990704Y-91421137D01*
X150971652Y-91456779D01*
X150946017Y-91488017D01*
X150914779Y-91513652D01*
X150879137Y-91532704D01*
X150840466Y-91544435D01*
X150794112Y-91549000D01*
X149717888Y-91549000D01*
X149671534Y-91544435D01*
X149632863Y-91532704D01*
X149597221Y-91513652D01*
X149565983Y-91488017D01*
X149540348Y-91456779D01*
X149521296Y-91421137D01*
X149509565Y-91382466D01*
X149505000Y-91336112D01*
X149505000Y-90684888D01*
X149509565Y-90638534D01*
X149521296Y-90599863D01*
X149540348Y-90564221D01*
X149565983Y-90532983D01*
X149597221Y-90507348D01*
X149632863Y-90488296D01*
X149671534Y-90476565D01*
X149717888Y-90472000D01*
X150794112Y-90472000D01*
X150840466Y-90476565D01*
X150840466Y-90476565D01*
G37*
G36*
X153380466Y-90461565D02*
X153419137Y-90473296D01*
X153454779Y-90492348D01*
X153486017Y-90517983D01*
X153511652Y-90549221D01*
X153530704Y-90584863D01*
X153542435Y-90623534D01*
X153547000Y-90669888D01*
X153547000Y-91321112D01*
X153542435Y-91367466D01*
X153530704Y-91406137D01*
X153511652Y-91441779D01*
X153486017Y-91473017D01*
X153454779Y-91498652D01*
X153419137Y-91517704D01*
X153380466Y-91529435D01*
X153334112Y-91534000D01*
X152257888Y-91534000D01*
X152211534Y-91529435D01*
X152172863Y-91517704D01*
X152137221Y-91498652D01*
X152105983Y-91473017D01*
X152080348Y-91441779D01*
X152061296Y-91406137D01*
X152049565Y-91367466D01*
X152045000Y-91321112D01*
X152045000Y-90669888D01*
X152049565Y-90623534D01*
X152061296Y-90584863D01*
X152080348Y-90549221D01*
X152105983Y-90517983D01*
X152137221Y-90492348D01*
X152172863Y-90473296D01*
X152211534Y-90461565D01*
X152257888Y-90457000D01*
X153334112Y-90457000D01*
X153380466Y-90461565D01*
X153380466Y-90461565D01*
G37*
G36*
X136030600Y-90259800D02*
X134428600Y-90259800D01*
X134428600Y-88657800D01*
X136030600Y-88657800D01*
X136030600Y-90259800D01*
X136030600Y-90259800D01*
G37*
G36*
X193150443Y-88005519D02*
X193216627Y-88012037D01*
X193329853Y-88046384D01*
X193386467Y-88063557D01*
X193471966Y-88109258D01*
X193542991Y-88147222D01*
X193545157Y-88149000D01*
X193680186Y-88259814D01*
X193741189Y-88334148D01*
X193792778Y-88397009D01*
X193792779Y-88397011D01*
X193876443Y-88553533D01*
X193876443Y-88553534D01*
X193927963Y-88723373D01*
X193945359Y-88900000D01*
X193927963Y-89076627D01*
X193893616Y-89189853D01*
X193876443Y-89246467D01*
X193811501Y-89367963D01*
X193792778Y-89402991D01*
X193786232Y-89410967D01*
X193680186Y-89540186D01*
X193596020Y-89609258D01*
X193542991Y-89652778D01*
X193542989Y-89652779D01*
X193386467Y-89736443D01*
X193329853Y-89753616D01*
X193216627Y-89787963D01*
X193150443Y-89794481D01*
X193084260Y-89801000D01*
X192995740Y-89801000D01*
X192929557Y-89794481D01*
X192863373Y-89787963D01*
X192750147Y-89753616D01*
X192693533Y-89736443D01*
X192537011Y-89652779D01*
X192537009Y-89652778D01*
X192483980Y-89609258D01*
X192399814Y-89540186D01*
X192293768Y-89410967D01*
X192287222Y-89402991D01*
X192268499Y-89367963D01*
X192203557Y-89246467D01*
X192186384Y-89189853D01*
X192152037Y-89076627D01*
X192134641Y-88900000D01*
X192152037Y-88723373D01*
X192203557Y-88553534D01*
X192203557Y-88553533D01*
X192287221Y-88397011D01*
X192287222Y-88397009D01*
X192338811Y-88334148D01*
X192399814Y-88259814D01*
X192534843Y-88149000D01*
X192537009Y-88147222D01*
X192608034Y-88109258D01*
X192693533Y-88063557D01*
X192750147Y-88046384D01*
X192863373Y-88012037D01*
X192929558Y-88005518D01*
X192995740Y-87999000D01*
X193084260Y-87999000D01*
X193150443Y-88005519D01*
X193150443Y-88005519D01*
G37*
G36*
X190610443Y-88005519D02*
X190676627Y-88012037D01*
X190789853Y-88046384D01*
X190846467Y-88063557D01*
X190931966Y-88109258D01*
X191002991Y-88147222D01*
X191005157Y-88149000D01*
X191140186Y-88259814D01*
X191201189Y-88334148D01*
X191252778Y-88397009D01*
X191252779Y-88397011D01*
X191336443Y-88553533D01*
X191336443Y-88553534D01*
X191387963Y-88723373D01*
X191405359Y-88900000D01*
X191387963Y-89076627D01*
X191353616Y-89189853D01*
X191336443Y-89246467D01*
X191271501Y-89367963D01*
X191252778Y-89402991D01*
X191246232Y-89410967D01*
X191140186Y-89540186D01*
X191056020Y-89609258D01*
X191002991Y-89652778D01*
X191002989Y-89652779D01*
X190846467Y-89736443D01*
X190789853Y-89753616D01*
X190676627Y-89787963D01*
X190610443Y-89794481D01*
X190544260Y-89801000D01*
X190455740Y-89801000D01*
X190389557Y-89794481D01*
X190323373Y-89787963D01*
X190210147Y-89753616D01*
X190153533Y-89736443D01*
X189997011Y-89652779D01*
X189997009Y-89652778D01*
X189943980Y-89609258D01*
X189859814Y-89540186D01*
X189753768Y-89410967D01*
X189747222Y-89402991D01*
X189728499Y-89367963D01*
X189663557Y-89246467D01*
X189646384Y-89189853D01*
X189612037Y-89076627D01*
X189594641Y-88900000D01*
X189612037Y-88723373D01*
X189663557Y-88553534D01*
X189663557Y-88553533D01*
X189747221Y-88397011D01*
X189747222Y-88397009D01*
X189798811Y-88334148D01*
X189859814Y-88259814D01*
X189994843Y-88149000D01*
X189997009Y-88147222D01*
X190068034Y-88109258D01*
X190153533Y-88063557D01*
X190210147Y-88046384D01*
X190323373Y-88012037D01*
X190389558Y-88005518D01*
X190455740Y-87999000D01*
X190544260Y-87999000D01*
X190610443Y-88005519D01*
X190610443Y-88005519D01*
G37*
G36*
X140335000Y-89561000D02*
X138783000Y-89561000D01*
X138783000Y-83159000D01*
X140335000Y-83159000D01*
X140335000Y-89561000D01*
X140335000Y-89561000D01*
G37*
G36*
X146235000Y-89561000D02*
X144683000Y-89561000D01*
X144683000Y-83159000D01*
X146235000Y-83159000D01*
X146235000Y-89561000D01*
X146235000Y-89561000D01*
G37*
G36*
X190610442Y-85465518D02*
X190676627Y-85472037D01*
X190789175Y-85506178D01*
X190846467Y-85523557D01*
X190943797Y-85575582D01*
X191002991Y-85607222D01*
X191038729Y-85636552D01*
X191140186Y-85719814D01*
X191207983Y-85802426D01*
X191252778Y-85857009D01*
X191257883Y-85866559D01*
X191336443Y-86013533D01*
X191336443Y-86013534D01*
X191387963Y-86183373D01*
X191405359Y-86360000D01*
X191387963Y-86536627D01*
X191353616Y-86649853D01*
X191336443Y-86706467D01*
X191285151Y-86802426D01*
X191252778Y-86862991D01*
X191244352Y-86873258D01*
X191140186Y-87000186D01*
X191048314Y-87075582D01*
X191002991Y-87112778D01*
X191002989Y-87112779D01*
X190846467Y-87196443D01*
X190789853Y-87213616D01*
X190676627Y-87247963D01*
X190610442Y-87254482D01*
X190544260Y-87261000D01*
X190455740Y-87261000D01*
X190389558Y-87254482D01*
X190323373Y-87247963D01*
X190210147Y-87213616D01*
X190153533Y-87196443D01*
X189997011Y-87112779D01*
X189997009Y-87112778D01*
X189951686Y-87075582D01*
X189859814Y-87000186D01*
X189755648Y-86873258D01*
X189747222Y-86862991D01*
X189714849Y-86802426D01*
X189663557Y-86706467D01*
X189646384Y-86649853D01*
X189612037Y-86536627D01*
X189594641Y-86360000D01*
X189612037Y-86183373D01*
X189663557Y-86013534D01*
X189663557Y-86013533D01*
X189742117Y-85866559D01*
X189747222Y-85857009D01*
X189792017Y-85802426D01*
X189859814Y-85719814D01*
X189961271Y-85636552D01*
X189997009Y-85607222D01*
X190056203Y-85575582D01*
X190153533Y-85523557D01*
X190210825Y-85506178D01*
X190323373Y-85472037D01*
X190389558Y-85465518D01*
X190455740Y-85459000D01*
X190544260Y-85459000D01*
X190610442Y-85465518D01*
X190610442Y-85465518D01*
G37*
G36*
X193150442Y-85465518D02*
X193216627Y-85472037D01*
X193329175Y-85506178D01*
X193386467Y-85523557D01*
X193483797Y-85575582D01*
X193542991Y-85607222D01*
X193578729Y-85636552D01*
X193680186Y-85719814D01*
X193747983Y-85802426D01*
X193792778Y-85857009D01*
X193797883Y-85866559D01*
X193876443Y-86013533D01*
X193876443Y-86013534D01*
X193927963Y-86183373D01*
X193945359Y-86360000D01*
X193927963Y-86536627D01*
X193893616Y-86649853D01*
X193876443Y-86706467D01*
X193825151Y-86802426D01*
X193792778Y-86862991D01*
X193784352Y-86873258D01*
X193680186Y-87000186D01*
X193588314Y-87075582D01*
X193542991Y-87112778D01*
X193542989Y-87112779D01*
X193386467Y-87196443D01*
X193329853Y-87213616D01*
X193216627Y-87247963D01*
X193150442Y-87254482D01*
X193084260Y-87261000D01*
X192995740Y-87261000D01*
X192929558Y-87254482D01*
X192863373Y-87247963D01*
X192750147Y-87213616D01*
X192693533Y-87196443D01*
X192537011Y-87112779D01*
X192537009Y-87112778D01*
X192491686Y-87075582D01*
X192399814Y-87000186D01*
X192295648Y-86873258D01*
X192287222Y-86862991D01*
X192254849Y-86802426D01*
X192203557Y-86706467D01*
X192186384Y-86649853D01*
X192152037Y-86536627D01*
X192134641Y-86360000D01*
X192152037Y-86183373D01*
X192203557Y-86013534D01*
X192203557Y-86013533D01*
X192282117Y-85866559D01*
X192287222Y-85857009D01*
X192332017Y-85802426D01*
X192399814Y-85719814D01*
X192501271Y-85636552D01*
X192537009Y-85607222D01*
X192596203Y-85575582D01*
X192693533Y-85523557D01*
X192750825Y-85506178D01*
X192863373Y-85472037D01*
X192929558Y-85465518D01*
X192995740Y-85459000D01*
X193084260Y-85459000D01*
X193150442Y-85465518D01*
X193150442Y-85465518D01*
G37*
G36*
X129629800Y-86703800D02*
X128027800Y-86703800D01*
X128027800Y-85101800D01*
X129629800Y-85101800D01*
X129629800Y-86703800D01*
X129629800Y-86703800D01*
G37*
G36*
X193150443Y-82925519D02*
X193216627Y-82932037D01*
X193329853Y-82966384D01*
X193386467Y-82983557D01*
X193525087Y-83057652D01*
X193542991Y-83067222D01*
X193578729Y-83096552D01*
X193680186Y-83179814D01*
X193763448Y-83281271D01*
X193792778Y-83317009D01*
X193792779Y-83317011D01*
X193876443Y-83473533D01*
X193876443Y-83473534D01*
X193927963Y-83643373D01*
X193945359Y-83820000D01*
X193927963Y-83996627D01*
X193909025Y-84059057D01*
X193876443Y-84166467D01*
X193802348Y-84305087D01*
X193792778Y-84322991D01*
X193763448Y-84358729D01*
X193680186Y-84460186D01*
X193578729Y-84543448D01*
X193542991Y-84572778D01*
X193542989Y-84572779D01*
X193386467Y-84656443D01*
X193329853Y-84673616D01*
X193216627Y-84707963D01*
X193150443Y-84714481D01*
X193084260Y-84721000D01*
X192995740Y-84721000D01*
X192929557Y-84714481D01*
X192863373Y-84707963D01*
X192750147Y-84673616D01*
X192693533Y-84656443D01*
X192537011Y-84572779D01*
X192537009Y-84572778D01*
X192501271Y-84543448D01*
X192399814Y-84460186D01*
X192316552Y-84358729D01*
X192287222Y-84322991D01*
X192277652Y-84305087D01*
X192203557Y-84166467D01*
X192170975Y-84059057D01*
X192152037Y-83996627D01*
X192134641Y-83820000D01*
X192152037Y-83643373D01*
X192203557Y-83473534D01*
X192203557Y-83473533D01*
X192287221Y-83317011D01*
X192287222Y-83317009D01*
X192316552Y-83281271D01*
X192399814Y-83179814D01*
X192501271Y-83096552D01*
X192537009Y-83067222D01*
X192554913Y-83057652D01*
X192693533Y-82983557D01*
X192750147Y-82966384D01*
X192863373Y-82932037D01*
X192929557Y-82925519D01*
X192995740Y-82919000D01*
X193084260Y-82919000D01*
X193150443Y-82925519D01*
X193150443Y-82925519D01*
G37*
G36*
X190610443Y-82925519D02*
X190676627Y-82932037D01*
X190789853Y-82966384D01*
X190846467Y-82983557D01*
X190985087Y-83057652D01*
X191002991Y-83067222D01*
X191038729Y-83096552D01*
X191140186Y-83179814D01*
X191223448Y-83281271D01*
X191252778Y-83317009D01*
X191252779Y-83317011D01*
X191336443Y-83473533D01*
X191336443Y-83473534D01*
X191387963Y-83643373D01*
X191405359Y-83820000D01*
X191387963Y-83996627D01*
X191369025Y-84059057D01*
X191336443Y-84166467D01*
X191262348Y-84305087D01*
X191252778Y-84322991D01*
X191223448Y-84358729D01*
X191140186Y-84460186D01*
X191038729Y-84543448D01*
X191002991Y-84572778D01*
X191002989Y-84572779D01*
X190846467Y-84656443D01*
X190789853Y-84673616D01*
X190676627Y-84707963D01*
X190610443Y-84714481D01*
X190544260Y-84721000D01*
X190455740Y-84721000D01*
X190389557Y-84714481D01*
X190323373Y-84707963D01*
X190210147Y-84673616D01*
X190153533Y-84656443D01*
X189997011Y-84572779D01*
X189997009Y-84572778D01*
X189961271Y-84543448D01*
X189859814Y-84460186D01*
X189776552Y-84358729D01*
X189747222Y-84322991D01*
X189737652Y-84305087D01*
X189663557Y-84166467D01*
X189630975Y-84059057D01*
X189612037Y-83996627D01*
X189594641Y-83820000D01*
X189612037Y-83643373D01*
X189663557Y-83473534D01*
X189663557Y-83473533D01*
X189747221Y-83317011D01*
X189747222Y-83317009D01*
X189776552Y-83281271D01*
X189859814Y-83179814D01*
X189961271Y-83096552D01*
X189997009Y-83067222D01*
X190014913Y-83057652D01*
X190153533Y-82983557D01*
X190210147Y-82966384D01*
X190323373Y-82932037D01*
X190389557Y-82925519D01*
X190455740Y-82919000D01*
X190544260Y-82919000D01*
X190610443Y-82925519D01*
X190610443Y-82925519D01*
G37*
G36*
X123401466Y-81168565D02*
X123440137Y-81180296D01*
X123475779Y-81199348D01*
X123507017Y-81224983D01*
X123532652Y-81256221D01*
X123551704Y-81291863D01*
X123563435Y-81330534D01*
X123568000Y-81376888D01*
X123568000Y-82453112D01*
X123563435Y-82499466D01*
X123551704Y-82538137D01*
X123532652Y-82573779D01*
X123507017Y-82605017D01*
X123475779Y-82630652D01*
X123440137Y-82649704D01*
X123401466Y-82661435D01*
X123355112Y-82666000D01*
X122703888Y-82666000D01*
X122657534Y-82661435D01*
X122618863Y-82649704D01*
X122583221Y-82630652D01*
X122551983Y-82605017D01*
X122526348Y-82573779D01*
X122507296Y-82538137D01*
X122495565Y-82499466D01*
X122491000Y-82453112D01*
X122491000Y-81376888D01*
X122495565Y-81330534D01*
X122507296Y-81291863D01*
X122526348Y-81256221D01*
X122551983Y-81224983D01*
X122583221Y-81199348D01*
X122618863Y-81180296D01*
X122657534Y-81168565D01*
X122703888Y-81164000D01*
X123355112Y-81164000D01*
X123401466Y-81168565D01*
X123401466Y-81168565D01*
G37*
G36*
X125276466Y-81168565D02*
X125315137Y-81180296D01*
X125350779Y-81199348D01*
X125382017Y-81224983D01*
X125407652Y-81256221D01*
X125426704Y-81291863D01*
X125438435Y-81330534D01*
X125443000Y-81376888D01*
X125443000Y-82453112D01*
X125438435Y-82499466D01*
X125426704Y-82538137D01*
X125407652Y-82573779D01*
X125382017Y-82605017D01*
X125350779Y-82630652D01*
X125315137Y-82649704D01*
X125276466Y-82661435D01*
X125230112Y-82666000D01*
X124578888Y-82666000D01*
X124532534Y-82661435D01*
X124493863Y-82649704D01*
X124458221Y-82630652D01*
X124426983Y-82605017D01*
X124401348Y-82573779D01*
X124382296Y-82538137D01*
X124370565Y-82499466D01*
X124366000Y-82453112D01*
X124366000Y-81376888D01*
X124370565Y-81330534D01*
X124382296Y-81291863D01*
X124401348Y-81256221D01*
X124426983Y-81224983D01*
X124458221Y-81199348D01*
X124493863Y-81180296D01*
X124532534Y-81168565D01*
X124578888Y-81164000D01*
X125230112Y-81164000D01*
X125276466Y-81168565D01*
X125276466Y-81168565D01*
G37*
G36*
X137632466Y-81429565D02*
X137671137Y-81441296D01*
X137706779Y-81460348D01*
X137738017Y-81485983D01*
X137763652Y-81517221D01*
X137782704Y-81552863D01*
X137794435Y-81591534D01*
X137799000Y-81637888D01*
X137799000Y-82289112D01*
X137794435Y-82335466D01*
X137782704Y-82374137D01*
X137763652Y-82409779D01*
X137738017Y-82441017D01*
X137706779Y-82466652D01*
X137671137Y-82485704D01*
X137632466Y-82497435D01*
X137586112Y-82502000D01*
X136509888Y-82502000D01*
X136463534Y-82497435D01*
X136424863Y-82485704D01*
X136389221Y-82466652D01*
X136357983Y-82441017D01*
X136332348Y-82409779D01*
X136313296Y-82374137D01*
X136301565Y-82335466D01*
X136297000Y-82289112D01*
X136297000Y-81637888D01*
X136301565Y-81591534D01*
X136313296Y-81552863D01*
X136332348Y-81517221D01*
X136357983Y-81485983D01*
X136389221Y-81460348D01*
X136424863Y-81441296D01*
X136463534Y-81429565D01*
X136509888Y-81425000D01*
X137586112Y-81425000D01*
X137632466Y-81429565D01*
X137632466Y-81429565D01*
G37*
G36*
X193150442Y-80385518D02*
X193216627Y-80392037D01*
X193329853Y-80426384D01*
X193386467Y-80443557D01*
X193490448Y-80499137D01*
X193542991Y-80527222D01*
X193552199Y-80534779D01*
X193680186Y-80639814D01*
X193763448Y-80741271D01*
X193792778Y-80777009D01*
X193792779Y-80777011D01*
X193876443Y-80933533D01*
X193876443Y-80933534D01*
X193927963Y-81103373D01*
X193945359Y-81280000D01*
X193927963Y-81456627D01*
X193898770Y-81552863D01*
X193876443Y-81626467D01*
X193806136Y-81758000D01*
X193792778Y-81782991D01*
X193763448Y-81818729D01*
X193680186Y-81920186D01*
X193578729Y-82003448D01*
X193542991Y-82032778D01*
X193542989Y-82032779D01*
X193386467Y-82116443D01*
X193329853Y-82133616D01*
X193216627Y-82167963D01*
X193150443Y-82174481D01*
X193084260Y-82181000D01*
X192995740Y-82181000D01*
X192929557Y-82174481D01*
X192863373Y-82167963D01*
X192750147Y-82133616D01*
X192693533Y-82116443D01*
X192537011Y-82032779D01*
X192537009Y-82032778D01*
X192501271Y-82003448D01*
X192399814Y-81920186D01*
X192316552Y-81818729D01*
X192287222Y-81782991D01*
X192273864Y-81758000D01*
X192203557Y-81626467D01*
X192181230Y-81552863D01*
X192152037Y-81456627D01*
X192134641Y-81280000D01*
X192152037Y-81103373D01*
X192203557Y-80933534D01*
X192203557Y-80933533D01*
X192287221Y-80777011D01*
X192287222Y-80777009D01*
X192316552Y-80741271D01*
X192399814Y-80639814D01*
X192527801Y-80534779D01*
X192537009Y-80527222D01*
X192589552Y-80499137D01*
X192693533Y-80443557D01*
X192750147Y-80426384D01*
X192863373Y-80392037D01*
X192929558Y-80385518D01*
X192995740Y-80379000D01*
X193084260Y-80379000D01*
X193150442Y-80385518D01*
X193150442Y-80385518D01*
G37*
G36*
X190610442Y-80385518D02*
X190676627Y-80392037D01*
X190789853Y-80426384D01*
X190846467Y-80443557D01*
X190950448Y-80499137D01*
X191002991Y-80527222D01*
X191012199Y-80534779D01*
X191140186Y-80639814D01*
X191223448Y-80741271D01*
X191252778Y-80777009D01*
X191252779Y-80777011D01*
X191336443Y-80933533D01*
X191336443Y-80933534D01*
X191387963Y-81103373D01*
X191405359Y-81280000D01*
X191387963Y-81456627D01*
X191358770Y-81552863D01*
X191336443Y-81626467D01*
X191266136Y-81758000D01*
X191252778Y-81782991D01*
X191223448Y-81818729D01*
X191140186Y-81920186D01*
X191038729Y-82003448D01*
X191002991Y-82032778D01*
X191002989Y-82032779D01*
X190846467Y-82116443D01*
X190789853Y-82133616D01*
X190676627Y-82167963D01*
X190610443Y-82174481D01*
X190544260Y-82181000D01*
X190455740Y-82181000D01*
X190389557Y-82174481D01*
X190323373Y-82167963D01*
X190210147Y-82133616D01*
X190153533Y-82116443D01*
X189997011Y-82032779D01*
X189997009Y-82032778D01*
X189961271Y-82003448D01*
X189859814Y-81920186D01*
X189776552Y-81818729D01*
X189747222Y-81782991D01*
X189733864Y-81758000D01*
X189663557Y-81626467D01*
X189641230Y-81552863D01*
X189612037Y-81456627D01*
X189594641Y-81280000D01*
X189612037Y-81103373D01*
X189663557Y-80933534D01*
X189663557Y-80933533D01*
X189747221Y-80777011D01*
X189747222Y-80777009D01*
X189776552Y-80741271D01*
X189859814Y-80639814D01*
X189987801Y-80534779D01*
X189997009Y-80527222D01*
X190049552Y-80499137D01*
X190153533Y-80443557D01*
X190210147Y-80426384D01*
X190323373Y-80392037D01*
X190389558Y-80385518D01*
X190455740Y-80379000D01*
X190544260Y-80379000D01*
X190610442Y-80385518D01*
X190610442Y-80385518D01*
G37*
G36*
X146035000Y-81758000D02*
X144383000Y-81758000D01*
X144383000Y-81056000D01*
X146035000Y-81056000D01*
X146035000Y-81758000D01*
X146035000Y-81758000D01*
G37*
G36*
X140635000Y-81758000D02*
X138983000Y-81758000D01*
X138983000Y-81056000D01*
X140635000Y-81056000D01*
X140635000Y-81758000D01*
X140635000Y-81758000D01*
G37*
G36*
X137632466Y-79554565D02*
X137671137Y-79566296D01*
X137706779Y-79585348D01*
X137738017Y-79610983D01*
X137763652Y-79642221D01*
X137782704Y-79677863D01*
X137794435Y-79716534D01*
X137799000Y-79762888D01*
X137799000Y-80414112D01*
X137794435Y-80460466D01*
X137782704Y-80499137D01*
X137763652Y-80534779D01*
X137738017Y-80566017D01*
X137706779Y-80591652D01*
X137671137Y-80610704D01*
X137632466Y-80622435D01*
X137586112Y-80627000D01*
X136509888Y-80627000D01*
X136463534Y-80622435D01*
X136424863Y-80610704D01*
X136389221Y-80591652D01*
X136357983Y-80566017D01*
X136332348Y-80534779D01*
X136313296Y-80499137D01*
X136301565Y-80460466D01*
X136297000Y-80414112D01*
X136297000Y-79762888D01*
X136301565Y-79716534D01*
X136313296Y-79677863D01*
X136332348Y-79642221D01*
X136357983Y-79610983D01*
X136389221Y-79585348D01*
X136424863Y-79566296D01*
X136463534Y-79554565D01*
X136509888Y-79550000D01*
X137586112Y-79550000D01*
X137632466Y-79554565D01*
X137632466Y-79554565D01*
G37*
G36*
X140635000Y-80488000D02*
X138983000Y-80488000D01*
X138983000Y-79786000D01*
X140635000Y-79786000D01*
X140635000Y-80488000D01*
X140635000Y-80488000D01*
G37*
G36*
X146035000Y-80488000D02*
X144383000Y-80488000D01*
X144383000Y-79786000D01*
X146035000Y-79786000D01*
X146035000Y-80488000D01*
X146035000Y-80488000D01*
G37*
G36*
X193150443Y-77845519D02*
X193216627Y-77852037D01*
X193329853Y-77886384D01*
X193386467Y-77903557D01*
X193476576Y-77951722D01*
X193542991Y-77987222D01*
X193572269Y-78011250D01*
X193680186Y-78099814D01*
X193763448Y-78201271D01*
X193792778Y-78237009D01*
X193792779Y-78237011D01*
X193876443Y-78393533D01*
X193876443Y-78393534D01*
X193927963Y-78563373D01*
X193945359Y-78740000D01*
X193927963Y-78916627D01*
X193912455Y-78967750D01*
X193876443Y-79086467D01*
X193864325Y-79109137D01*
X193792778Y-79242991D01*
X193763448Y-79278729D01*
X193680186Y-79380186D01*
X193578729Y-79463448D01*
X193542991Y-79492778D01*
X193542989Y-79492779D01*
X193386467Y-79576443D01*
X193329853Y-79593616D01*
X193216627Y-79627963D01*
X193150442Y-79634482D01*
X193084260Y-79641000D01*
X192995740Y-79641000D01*
X192929558Y-79634482D01*
X192863373Y-79627963D01*
X192750147Y-79593616D01*
X192693533Y-79576443D01*
X192537011Y-79492779D01*
X192537009Y-79492778D01*
X192501271Y-79463448D01*
X192399814Y-79380186D01*
X192316552Y-79278729D01*
X192287222Y-79242991D01*
X192215675Y-79109137D01*
X192203557Y-79086467D01*
X192167545Y-78967750D01*
X192152037Y-78916627D01*
X192134641Y-78740000D01*
X192152037Y-78563373D01*
X192203557Y-78393534D01*
X192203557Y-78393533D01*
X192287221Y-78237011D01*
X192287222Y-78237009D01*
X192316552Y-78201271D01*
X192399814Y-78099814D01*
X192507731Y-78011250D01*
X192537009Y-77987222D01*
X192603424Y-77951722D01*
X192693533Y-77903557D01*
X192750147Y-77886384D01*
X192863373Y-77852037D01*
X192929557Y-77845519D01*
X192995740Y-77839000D01*
X193084260Y-77839000D01*
X193150443Y-77845519D01*
X193150443Y-77845519D01*
G37*
G36*
X190610443Y-77845519D02*
X190676627Y-77852037D01*
X190789853Y-77886384D01*
X190846467Y-77903557D01*
X190936576Y-77951722D01*
X191002991Y-77987222D01*
X191032269Y-78011250D01*
X191140186Y-78099814D01*
X191223448Y-78201271D01*
X191252778Y-78237009D01*
X191252779Y-78237011D01*
X191336443Y-78393533D01*
X191336443Y-78393534D01*
X191387963Y-78563373D01*
X191405359Y-78740000D01*
X191387963Y-78916627D01*
X191372455Y-78967750D01*
X191336443Y-79086467D01*
X191324325Y-79109137D01*
X191252778Y-79242991D01*
X191223448Y-79278729D01*
X191140186Y-79380186D01*
X191038729Y-79463448D01*
X191002991Y-79492778D01*
X191002989Y-79492779D01*
X190846467Y-79576443D01*
X190789853Y-79593616D01*
X190676627Y-79627963D01*
X190610442Y-79634482D01*
X190544260Y-79641000D01*
X190455740Y-79641000D01*
X190389558Y-79634482D01*
X190323373Y-79627963D01*
X190210147Y-79593616D01*
X190153533Y-79576443D01*
X189997011Y-79492779D01*
X189997009Y-79492778D01*
X189961271Y-79463448D01*
X189859814Y-79380186D01*
X189776552Y-79278729D01*
X189747222Y-79242991D01*
X189675675Y-79109137D01*
X189663557Y-79086467D01*
X189627545Y-78967750D01*
X189612037Y-78916627D01*
X189594641Y-78740000D01*
X189612037Y-78563373D01*
X189663557Y-78393534D01*
X189663557Y-78393533D01*
X189747221Y-78237011D01*
X189747222Y-78237009D01*
X189776552Y-78201271D01*
X189859814Y-78099814D01*
X189967731Y-78011250D01*
X189997009Y-77987222D01*
X190063424Y-77951722D01*
X190153533Y-77903557D01*
X190210147Y-77886384D01*
X190323373Y-77852037D01*
X190389557Y-77845519D01*
X190455740Y-77839000D01*
X190544260Y-77839000D01*
X190610443Y-77845519D01*
X190610443Y-77845519D01*
G37*
G36*
X123386466Y-77739565D02*
X123425137Y-77751296D01*
X123460779Y-77770348D01*
X123492017Y-77795983D01*
X123517652Y-77827221D01*
X123536704Y-77862863D01*
X123548435Y-77901534D01*
X123553000Y-77947888D01*
X123553000Y-79024112D01*
X123548435Y-79070466D01*
X123536704Y-79109137D01*
X123517652Y-79144779D01*
X123492017Y-79176017D01*
X123460779Y-79201652D01*
X123425137Y-79220704D01*
X123386466Y-79232435D01*
X123340112Y-79237000D01*
X122688888Y-79237000D01*
X122642534Y-79232435D01*
X122603863Y-79220704D01*
X122568221Y-79201652D01*
X122536983Y-79176017D01*
X122511348Y-79144779D01*
X122492296Y-79109137D01*
X122480565Y-79070466D01*
X122476000Y-79024112D01*
X122476000Y-77947888D01*
X122480565Y-77901534D01*
X122492296Y-77862863D01*
X122511348Y-77827221D01*
X122536983Y-77795983D01*
X122568221Y-77770348D01*
X122603863Y-77751296D01*
X122642534Y-77739565D01*
X122688888Y-77735000D01*
X123340112Y-77735000D01*
X123386466Y-77739565D01*
X123386466Y-77739565D01*
G37*
G36*
X125261466Y-77739565D02*
X125300137Y-77751296D01*
X125335779Y-77770348D01*
X125367017Y-77795983D01*
X125392652Y-77827221D01*
X125411704Y-77862863D01*
X125423435Y-77901534D01*
X125428000Y-77947888D01*
X125428000Y-79024112D01*
X125423435Y-79070466D01*
X125411704Y-79109137D01*
X125392652Y-79144779D01*
X125367017Y-79176017D01*
X125335779Y-79201652D01*
X125300137Y-79220704D01*
X125261466Y-79232435D01*
X125215112Y-79237000D01*
X124563888Y-79237000D01*
X124517534Y-79232435D01*
X124478863Y-79220704D01*
X124443221Y-79201652D01*
X124411983Y-79176017D01*
X124386348Y-79144779D01*
X124367296Y-79109137D01*
X124355565Y-79070466D01*
X124351000Y-79024112D01*
X124351000Y-77947888D01*
X124355565Y-77901534D01*
X124367296Y-77862863D01*
X124386348Y-77827221D01*
X124411983Y-77795983D01*
X124443221Y-77770348D01*
X124478863Y-77751296D01*
X124517534Y-77739565D01*
X124563888Y-77735000D01*
X125215112Y-77735000D01*
X125261466Y-77739565D01*
X125261466Y-77739565D01*
G37*
G36*
X140635000Y-79218000D02*
X138983000Y-79218000D01*
X138983000Y-78516000D01*
X140635000Y-78516000D01*
X140635000Y-79218000D01*
X140635000Y-79218000D01*
G37*
G36*
X146035000Y-79218000D02*
X144383000Y-79218000D01*
X144383000Y-78516000D01*
X146035000Y-78516000D01*
X146035000Y-79218000D01*
X146035000Y-79218000D01*
G37*
G36*
X137632466Y-77746565D02*
X137671137Y-77758296D01*
X137706779Y-77777348D01*
X137738017Y-77802983D01*
X137763652Y-77834221D01*
X137782704Y-77869863D01*
X137794435Y-77908534D01*
X137799000Y-77954888D01*
X137799000Y-78606112D01*
X137794435Y-78652466D01*
X137782704Y-78691137D01*
X137763652Y-78726779D01*
X137738017Y-78758017D01*
X137706779Y-78783652D01*
X137671137Y-78802704D01*
X137632466Y-78814435D01*
X137586112Y-78819000D01*
X136509888Y-78819000D01*
X136463534Y-78814435D01*
X136424863Y-78802704D01*
X136389221Y-78783652D01*
X136357983Y-78758017D01*
X136332348Y-78726779D01*
X136313296Y-78691137D01*
X136301565Y-78652466D01*
X136297000Y-78606112D01*
X136297000Y-77954888D01*
X136301565Y-77908534D01*
X136313296Y-77869863D01*
X136332348Y-77834221D01*
X136357983Y-77802983D01*
X136389221Y-77777348D01*
X136424863Y-77758296D01*
X136463534Y-77746565D01*
X136509888Y-77742000D01*
X137586112Y-77742000D01*
X137632466Y-77746565D01*
X137632466Y-77746565D01*
G37*
G36*
X140635000Y-77948000D02*
X138983000Y-77948000D01*
X138983000Y-77246000D01*
X140635000Y-77246000D01*
X140635000Y-77948000D01*
X140635000Y-77948000D01*
G37*
G36*
X146035000Y-77948000D02*
X144383000Y-77948000D01*
X144383000Y-77246000D01*
X146035000Y-77246000D01*
X146035000Y-77948000D01*
X146035000Y-77948000D01*
G37*
G36*
X190610442Y-75305518D02*
X190676627Y-75312037D01*
X190789853Y-75346384D01*
X190846467Y-75363557D01*
X190985087Y-75437652D01*
X191002991Y-75447222D01*
X191038729Y-75476552D01*
X191140186Y-75559814D01*
X191223448Y-75661271D01*
X191252778Y-75697009D01*
X191252779Y-75697011D01*
X191336443Y-75853533D01*
X191345471Y-75883296D01*
X191387963Y-76023373D01*
X191405359Y-76200000D01*
X191387963Y-76376627D01*
X191353616Y-76489853D01*
X191336443Y-76546467D01*
X191267873Y-76674750D01*
X191252778Y-76702991D01*
X191223448Y-76738729D01*
X191140186Y-76840186D01*
X191038729Y-76923448D01*
X191002991Y-76952778D01*
X191002989Y-76952779D01*
X190846467Y-77036443D01*
X190789853Y-77053616D01*
X190676627Y-77087963D01*
X190610442Y-77094482D01*
X190544260Y-77101000D01*
X190455740Y-77101000D01*
X190389558Y-77094482D01*
X190323373Y-77087963D01*
X190210147Y-77053616D01*
X190153533Y-77036443D01*
X189997011Y-76952779D01*
X189997009Y-76952778D01*
X189961271Y-76923448D01*
X189859814Y-76840186D01*
X189776552Y-76738729D01*
X189747222Y-76702991D01*
X189732127Y-76674750D01*
X189663557Y-76546467D01*
X189646384Y-76489853D01*
X189612037Y-76376627D01*
X189594641Y-76200000D01*
X189612037Y-76023373D01*
X189654529Y-75883296D01*
X189663557Y-75853533D01*
X189747221Y-75697011D01*
X189747222Y-75697009D01*
X189776552Y-75661271D01*
X189859814Y-75559814D01*
X189961271Y-75476552D01*
X189997009Y-75447222D01*
X190014913Y-75437652D01*
X190153533Y-75363557D01*
X190210147Y-75346384D01*
X190323373Y-75312037D01*
X190389558Y-75305518D01*
X190455740Y-75299000D01*
X190544260Y-75299000D01*
X190610442Y-75305518D01*
X190610442Y-75305518D01*
G37*
G36*
X193150442Y-75305518D02*
X193216627Y-75312037D01*
X193329853Y-75346384D01*
X193386467Y-75363557D01*
X193525087Y-75437652D01*
X193542991Y-75447222D01*
X193578729Y-75476552D01*
X193680186Y-75559814D01*
X193763448Y-75661271D01*
X193792778Y-75697009D01*
X193792779Y-75697011D01*
X193876443Y-75853533D01*
X193885471Y-75883296D01*
X193927963Y-76023373D01*
X193945359Y-76200000D01*
X193927963Y-76376627D01*
X193893616Y-76489853D01*
X193876443Y-76546467D01*
X193807873Y-76674750D01*
X193792778Y-76702991D01*
X193763448Y-76738729D01*
X193680186Y-76840186D01*
X193578729Y-76923448D01*
X193542991Y-76952778D01*
X193542989Y-76952779D01*
X193386467Y-77036443D01*
X193329853Y-77053616D01*
X193216627Y-77087963D01*
X193150442Y-77094482D01*
X193084260Y-77101000D01*
X192995740Y-77101000D01*
X192929558Y-77094482D01*
X192863373Y-77087963D01*
X192750147Y-77053616D01*
X192693533Y-77036443D01*
X192537011Y-76952779D01*
X192537009Y-76952778D01*
X192501271Y-76923448D01*
X192399814Y-76840186D01*
X192316552Y-76738729D01*
X192287222Y-76702991D01*
X192272127Y-76674750D01*
X192203557Y-76546467D01*
X192186384Y-76489853D01*
X192152037Y-76376627D01*
X192134641Y-76200000D01*
X192152037Y-76023373D01*
X192194529Y-75883296D01*
X192203557Y-75853533D01*
X192287221Y-75697011D01*
X192287222Y-75697009D01*
X192316552Y-75661271D01*
X192399814Y-75559814D01*
X192501271Y-75476552D01*
X192537009Y-75447222D01*
X192554913Y-75437652D01*
X192693533Y-75363557D01*
X192750147Y-75346384D01*
X192863373Y-75312037D01*
X192929558Y-75305518D01*
X192995740Y-75299000D01*
X193084260Y-75299000D01*
X193150442Y-75305518D01*
X193150442Y-75305518D01*
G37*
G36*
X137632466Y-75871565D02*
X137671137Y-75883296D01*
X137706779Y-75902348D01*
X137738017Y-75927983D01*
X137763652Y-75959221D01*
X137782704Y-75994863D01*
X137794435Y-76033534D01*
X137799000Y-76079888D01*
X137799000Y-76731112D01*
X137794435Y-76777466D01*
X137782704Y-76816137D01*
X137763652Y-76851779D01*
X137738017Y-76883017D01*
X137706779Y-76908652D01*
X137671137Y-76927704D01*
X137632466Y-76939435D01*
X137586112Y-76944000D01*
X136509888Y-76944000D01*
X136463534Y-76939435D01*
X136424863Y-76927704D01*
X136389221Y-76908652D01*
X136357983Y-76883017D01*
X136332348Y-76851779D01*
X136313296Y-76816137D01*
X136301565Y-76777466D01*
X136297000Y-76731112D01*
X136297000Y-76079888D01*
X136301565Y-76033534D01*
X136313296Y-75994863D01*
X136332348Y-75959221D01*
X136357983Y-75927983D01*
X136389221Y-75902348D01*
X136424863Y-75883296D01*
X136463534Y-75871565D01*
X136509888Y-75867000D01*
X137586112Y-75867000D01*
X137632466Y-75871565D01*
X137632466Y-75871565D01*
G37*
G36*
X190610442Y-72765518D02*
X190676627Y-72772037D01*
X190789853Y-72806384D01*
X190846467Y-72823557D01*
X190985087Y-72897652D01*
X191002991Y-72907222D01*
X191038729Y-72936552D01*
X191140186Y-73019814D01*
X191223448Y-73121271D01*
X191252778Y-73157009D01*
X191252779Y-73157011D01*
X191336443Y-73313533D01*
X191336443Y-73313534D01*
X191387963Y-73483373D01*
X191405359Y-73660000D01*
X191387963Y-73836627D01*
X191353616Y-73949853D01*
X191336443Y-74006467D01*
X191262348Y-74145087D01*
X191252778Y-74162991D01*
X191223448Y-74198729D01*
X191140186Y-74300186D01*
X191038729Y-74383448D01*
X191002991Y-74412778D01*
X191002989Y-74412779D01*
X190846467Y-74496443D01*
X190789853Y-74513616D01*
X190676627Y-74547963D01*
X190610442Y-74554482D01*
X190544260Y-74561000D01*
X190455740Y-74561000D01*
X190389558Y-74554482D01*
X190323373Y-74547963D01*
X190210147Y-74513616D01*
X190153533Y-74496443D01*
X189997011Y-74412779D01*
X189997009Y-74412778D01*
X189961271Y-74383448D01*
X189859814Y-74300186D01*
X189776552Y-74198729D01*
X189747222Y-74162991D01*
X189737652Y-74145087D01*
X189663557Y-74006467D01*
X189646384Y-73949853D01*
X189612037Y-73836627D01*
X189594641Y-73660000D01*
X189612037Y-73483373D01*
X189663557Y-73313534D01*
X189663557Y-73313533D01*
X189747221Y-73157011D01*
X189747222Y-73157009D01*
X189776552Y-73121271D01*
X189859814Y-73019814D01*
X189961271Y-72936552D01*
X189997009Y-72907222D01*
X190014913Y-72897652D01*
X190153533Y-72823557D01*
X190210147Y-72806384D01*
X190323373Y-72772037D01*
X190389558Y-72765518D01*
X190455740Y-72759000D01*
X190544260Y-72759000D01*
X190610442Y-72765518D01*
X190610442Y-72765518D01*
G37*
G36*
X193150442Y-72765518D02*
X193216627Y-72772037D01*
X193329853Y-72806384D01*
X193386467Y-72823557D01*
X193525087Y-72897652D01*
X193542991Y-72907222D01*
X193578729Y-72936552D01*
X193680186Y-73019814D01*
X193763448Y-73121271D01*
X193792778Y-73157009D01*
X193792779Y-73157011D01*
X193876443Y-73313533D01*
X193876443Y-73313534D01*
X193927963Y-73483373D01*
X193945359Y-73660000D01*
X193927963Y-73836627D01*
X193893616Y-73949853D01*
X193876443Y-74006467D01*
X193802348Y-74145087D01*
X193792778Y-74162991D01*
X193763448Y-74198729D01*
X193680186Y-74300186D01*
X193578729Y-74383448D01*
X193542991Y-74412778D01*
X193542989Y-74412779D01*
X193386467Y-74496443D01*
X193329853Y-74513616D01*
X193216627Y-74547963D01*
X193150442Y-74554482D01*
X193084260Y-74561000D01*
X192995740Y-74561000D01*
X192929558Y-74554482D01*
X192863373Y-74547963D01*
X192750147Y-74513616D01*
X192693533Y-74496443D01*
X192537011Y-74412779D01*
X192537009Y-74412778D01*
X192501271Y-74383448D01*
X192399814Y-74300186D01*
X192316552Y-74198729D01*
X192287222Y-74162991D01*
X192277652Y-74145087D01*
X192203557Y-74006467D01*
X192186384Y-73949853D01*
X192152037Y-73836627D01*
X192134641Y-73660000D01*
X192152037Y-73483373D01*
X192203557Y-73313534D01*
X192203557Y-73313533D01*
X192287221Y-73157011D01*
X192287222Y-73157009D01*
X192316552Y-73121271D01*
X192399814Y-73019814D01*
X192501271Y-72936552D01*
X192537009Y-72907222D01*
X192554913Y-72897652D01*
X192693533Y-72823557D01*
X192750147Y-72806384D01*
X192863373Y-72772037D01*
X192929558Y-72765518D01*
X192995740Y-72759000D01*
X193084260Y-72759000D01*
X193150442Y-72765518D01*
X193150442Y-72765518D01*
G37*
G36*
X190610442Y-70225518D02*
X190676627Y-70232037D01*
X190789853Y-70266384D01*
X190846467Y-70283557D01*
X190929403Y-70327888D01*
X191002991Y-70367222D01*
X191038729Y-70396552D01*
X191140186Y-70479814D01*
X191223448Y-70581271D01*
X191252778Y-70617009D01*
X191252779Y-70617011D01*
X191336443Y-70773533D01*
X191336443Y-70773534D01*
X191387963Y-70943373D01*
X191405359Y-71120000D01*
X191387963Y-71296627D01*
X191372455Y-71347750D01*
X191336443Y-71466467D01*
X191324325Y-71489137D01*
X191252778Y-71622991D01*
X191223448Y-71658729D01*
X191140186Y-71760186D01*
X191038729Y-71843448D01*
X191002991Y-71872778D01*
X191002989Y-71872779D01*
X190846467Y-71956443D01*
X190789853Y-71973616D01*
X190676627Y-72007963D01*
X190610443Y-72014481D01*
X190544260Y-72021000D01*
X190455740Y-72021000D01*
X190389557Y-72014481D01*
X190323373Y-72007963D01*
X190210147Y-71973616D01*
X190153533Y-71956443D01*
X189997011Y-71872779D01*
X189997009Y-71872778D01*
X189961271Y-71843448D01*
X189859814Y-71760186D01*
X189776552Y-71658729D01*
X189747222Y-71622991D01*
X189675675Y-71489137D01*
X189663557Y-71466467D01*
X189627545Y-71347750D01*
X189612037Y-71296627D01*
X189594641Y-71120000D01*
X189612037Y-70943373D01*
X189663557Y-70773534D01*
X189663557Y-70773533D01*
X189747221Y-70617011D01*
X189747222Y-70617009D01*
X189776552Y-70581271D01*
X189859814Y-70479814D01*
X189961271Y-70396552D01*
X189997009Y-70367222D01*
X190070597Y-70327888D01*
X190153533Y-70283557D01*
X190210147Y-70266384D01*
X190323373Y-70232037D01*
X190389558Y-70225518D01*
X190455740Y-70219000D01*
X190544260Y-70219000D01*
X190610442Y-70225518D01*
X190610442Y-70225518D01*
G37*
G36*
X193150442Y-70225518D02*
X193216627Y-70232037D01*
X193329853Y-70266384D01*
X193386467Y-70283557D01*
X193469403Y-70327888D01*
X193542991Y-70367222D01*
X193578729Y-70396552D01*
X193680186Y-70479814D01*
X193763448Y-70581271D01*
X193792778Y-70617009D01*
X193792779Y-70617011D01*
X193876443Y-70773533D01*
X193876443Y-70773534D01*
X193927963Y-70943373D01*
X193945359Y-71120000D01*
X193927963Y-71296627D01*
X193912455Y-71347750D01*
X193876443Y-71466467D01*
X193864325Y-71489137D01*
X193792778Y-71622991D01*
X193763448Y-71658729D01*
X193680186Y-71760186D01*
X193578729Y-71843448D01*
X193542991Y-71872778D01*
X193542989Y-71872779D01*
X193386467Y-71956443D01*
X193329853Y-71973616D01*
X193216627Y-72007963D01*
X193150443Y-72014481D01*
X193084260Y-72021000D01*
X192995740Y-72021000D01*
X192929557Y-72014481D01*
X192863373Y-72007963D01*
X192750147Y-71973616D01*
X192693533Y-71956443D01*
X192537011Y-71872779D01*
X192537009Y-71872778D01*
X192501271Y-71843448D01*
X192399814Y-71760186D01*
X192316552Y-71658729D01*
X192287222Y-71622991D01*
X192215675Y-71489137D01*
X192203557Y-71466467D01*
X192167545Y-71347750D01*
X192152037Y-71296627D01*
X192134641Y-71120000D01*
X192152037Y-70943373D01*
X192203557Y-70773534D01*
X192203557Y-70773533D01*
X192287221Y-70617011D01*
X192287222Y-70617009D01*
X192316552Y-70581271D01*
X192399814Y-70479814D01*
X192501271Y-70396552D01*
X192537009Y-70367222D01*
X192610597Y-70327888D01*
X192693533Y-70283557D01*
X192750147Y-70266384D01*
X192863373Y-70232037D01*
X192929558Y-70225518D01*
X192995740Y-70219000D01*
X193084260Y-70219000D01*
X193150442Y-70225518D01*
X193150442Y-70225518D01*
G37*
G36*
X157851966Y-70119565D02*
X157890637Y-70131296D01*
X157926279Y-70150348D01*
X157957517Y-70175983D01*
X157983152Y-70207221D01*
X158002204Y-70242863D01*
X158013935Y-70281534D01*
X158018500Y-70327888D01*
X158018500Y-71404112D01*
X158013935Y-71450466D01*
X158002204Y-71489137D01*
X157983152Y-71524779D01*
X157957517Y-71556017D01*
X157926279Y-71581652D01*
X157890637Y-71600704D01*
X157851966Y-71612435D01*
X157805612Y-71617000D01*
X157154388Y-71617000D01*
X157108034Y-71612435D01*
X157069363Y-71600704D01*
X157033721Y-71581652D01*
X157002483Y-71556017D01*
X156976848Y-71524779D01*
X156957796Y-71489137D01*
X156946065Y-71450466D01*
X156941500Y-71404112D01*
X156941500Y-70327888D01*
X156946065Y-70281534D01*
X156957796Y-70242863D01*
X156976848Y-70207221D01*
X157002483Y-70175983D01*
X157033721Y-70150348D01*
X157069363Y-70131296D01*
X157108034Y-70119565D01*
X157154388Y-70115000D01*
X157805612Y-70115000D01*
X157851966Y-70119565D01*
X157851966Y-70119565D01*
G37*
G36*
X155976966Y-70119565D02*
X156015637Y-70131296D01*
X156051279Y-70150348D01*
X156082517Y-70175983D01*
X156108152Y-70207221D01*
X156127204Y-70242863D01*
X156138935Y-70281534D01*
X156143500Y-70327888D01*
X156143500Y-71404112D01*
X156138935Y-71450466D01*
X156127204Y-71489137D01*
X156108152Y-71524779D01*
X156082517Y-71556017D01*
X156051279Y-71581652D01*
X156015637Y-71600704D01*
X155976966Y-71612435D01*
X155930612Y-71617000D01*
X155279388Y-71617000D01*
X155233034Y-71612435D01*
X155194363Y-71600704D01*
X155158721Y-71581652D01*
X155127483Y-71556017D01*
X155101848Y-71524779D01*
X155082796Y-71489137D01*
X155071065Y-71450466D01*
X155066500Y-71404112D01*
X155066500Y-70327888D01*
X155071065Y-70281534D01*
X155082796Y-70242863D01*
X155101848Y-70207221D01*
X155127483Y-70175983D01*
X155158721Y-70150348D01*
X155194363Y-70131296D01*
X155233034Y-70119565D01*
X155279388Y-70115000D01*
X155930612Y-70115000D01*
X155976966Y-70119565D01*
X155976966Y-70119565D01*
G37*
G36*
X193150443Y-67685519D02*
X193216627Y-67692037D01*
X193329853Y-67726384D01*
X193386467Y-67743557D01*
X193525087Y-67817652D01*
X193542991Y-67827222D01*
X193578729Y-67856552D01*
X193680186Y-67939814D01*
X193763448Y-68041271D01*
X193792778Y-68077009D01*
X193792779Y-68077011D01*
X193876443Y-68233533D01*
X193876443Y-68233534D01*
X193927963Y-68403373D01*
X193945359Y-68580000D01*
X193927963Y-68756627D01*
X193893616Y-68869853D01*
X193876443Y-68926467D01*
X193802348Y-69065087D01*
X193792778Y-69082991D01*
X193763448Y-69118729D01*
X193680186Y-69220186D01*
X193578729Y-69303448D01*
X193542991Y-69332778D01*
X193542989Y-69332779D01*
X193386467Y-69416443D01*
X193329853Y-69433616D01*
X193216627Y-69467963D01*
X193150442Y-69474482D01*
X193084260Y-69481000D01*
X192995740Y-69481000D01*
X192929558Y-69474482D01*
X192863373Y-69467963D01*
X192750147Y-69433616D01*
X192693533Y-69416443D01*
X192537011Y-69332779D01*
X192537009Y-69332778D01*
X192501271Y-69303448D01*
X192399814Y-69220186D01*
X192316552Y-69118729D01*
X192287222Y-69082991D01*
X192277652Y-69065087D01*
X192203557Y-68926467D01*
X192186384Y-68869853D01*
X192152037Y-68756627D01*
X192134641Y-68580000D01*
X192152037Y-68403373D01*
X192203557Y-68233534D01*
X192203557Y-68233533D01*
X192287221Y-68077011D01*
X192287222Y-68077009D01*
X192316552Y-68041271D01*
X192399814Y-67939814D01*
X192501271Y-67856552D01*
X192537009Y-67827222D01*
X192554913Y-67817652D01*
X192693533Y-67743557D01*
X192750147Y-67726384D01*
X192863373Y-67692037D01*
X192929557Y-67685519D01*
X192995740Y-67679000D01*
X193084260Y-67679000D01*
X193150443Y-67685519D01*
X193150443Y-67685519D01*
G37*
G36*
X191401000Y-69481000D02*
X189599000Y-69481000D01*
X189599000Y-67679000D01*
X191401000Y-67679000D01*
X191401000Y-69481000D01*
X191401000Y-69481000D01*
G37*
M02*
