G04 #@! TF.GenerationSoftware,KiCad,Pcbnew,5.0.1-33cea8e~68~ubuntu18.04.1*
G04 #@! TF.CreationDate,2018-12-16T18:27:52+03:00*
G04 #@! TF.ProjectId,up5k_v0,7570356B5F76302E6B696361645F7063,rev?*
G04 #@! TF.SameCoordinates,Original*
G04 #@! TF.FileFunction,Paste,Bot*
G04 #@! TF.FilePolarity,Positive*
%FSLAX46Y46*%
G04 Gerber Fmt 4.6, Leading zero omitted, Abs format (unit mm)*
G04 Created by KiCad (PCBNEW 5.0.1-33cea8e~68~ubuntu18.04.1) date Paz 16 Ara 2018 18:27:52 +03*
%MOMM*%
%LPD*%
G01*
G04 APERTURE LIST*
%ADD10C,0.100000*%
%ADD11C,0.975000*%
G04 APERTURE END LIST*
D10*
G04 #@! TO.C,C13*
G36*
X134416642Y-88017674D02*
X134440303Y-88021184D01*
X134463507Y-88026996D01*
X134486029Y-88035054D01*
X134507653Y-88045282D01*
X134528170Y-88057579D01*
X134547383Y-88071829D01*
X134565107Y-88087893D01*
X134581171Y-88105617D01*
X134595421Y-88124830D01*
X134607718Y-88145347D01*
X134617946Y-88166971D01*
X134626004Y-88189493D01*
X134631816Y-88212697D01*
X134635326Y-88236358D01*
X134636500Y-88260250D01*
X134636500Y-88747750D01*
X134635326Y-88771642D01*
X134631816Y-88795303D01*
X134626004Y-88818507D01*
X134617946Y-88841029D01*
X134607718Y-88862653D01*
X134595421Y-88883170D01*
X134581171Y-88902383D01*
X134565107Y-88920107D01*
X134547383Y-88936171D01*
X134528170Y-88950421D01*
X134507653Y-88962718D01*
X134486029Y-88972946D01*
X134463507Y-88981004D01*
X134440303Y-88986816D01*
X134416642Y-88990326D01*
X134392750Y-88991500D01*
X133480250Y-88991500D01*
X133456358Y-88990326D01*
X133432697Y-88986816D01*
X133409493Y-88981004D01*
X133386971Y-88972946D01*
X133365347Y-88962718D01*
X133344830Y-88950421D01*
X133325617Y-88936171D01*
X133307893Y-88920107D01*
X133291829Y-88902383D01*
X133277579Y-88883170D01*
X133265282Y-88862653D01*
X133255054Y-88841029D01*
X133246996Y-88818507D01*
X133241184Y-88795303D01*
X133237674Y-88771642D01*
X133236500Y-88747750D01*
X133236500Y-88260250D01*
X133237674Y-88236358D01*
X133241184Y-88212697D01*
X133246996Y-88189493D01*
X133255054Y-88166971D01*
X133265282Y-88145347D01*
X133277579Y-88124830D01*
X133291829Y-88105617D01*
X133307893Y-88087893D01*
X133325617Y-88071829D01*
X133344830Y-88057579D01*
X133365347Y-88045282D01*
X133386971Y-88035054D01*
X133409493Y-88026996D01*
X133432697Y-88021184D01*
X133456358Y-88017674D01*
X133480250Y-88016500D01*
X134392750Y-88016500D01*
X134416642Y-88017674D01*
X134416642Y-88017674D01*
G37*
D11*
X133936500Y-88504000D03*
D10*
G36*
X134416642Y-86142674D02*
X134440303Y-86146184D01*
X134463507Y-86151996D01*
X134486029Y-86160054D01*
X134507653Y-86170282D01*
X134528170Y-86182579D01*
X134547383Y-86196829D01*
X134565107Y-86212893D01*
X134581171Y-86230617D01*
X134595421Y-86249830D01*
X134607718Y-86270347D01*
X134617946Y-86291971D01*
X134626004Y-86314493D01*
X134631816Y-86337697D01*
X134635326Y-86361358D01*
X134636500Y-86385250D01*
X134636500Y-86872750D01*
X134635326Y-86896642D01*
X134631816Y-86920303D01*
X134626004Y-86943507D01*
X134617946Y-86966029D01*
X134607718Y-86987653D01*
X134595421Y-87008170D01*
X134581171Y-87027383D01*
X134565107Y-87045107D01*
X134547383Y-87061171D01*
X134528170Y-87075421D01*
X134507653Y-87087718D01*
X134486029Y-87097946D01*
X134463507Y-87106004D01*
X134440303Y-87111816D01*
X134416642Y-87115326D01*
X134392750Y-87116500D01*
X133480250Y-87116500D01*
X133456358Y-87115326D01*
X133432697Y-87111816D01*
X133409493Y-87106004D01*
X133386971Y-87097946D01*
X133365347Y-87087718D01*
X133344830Y-87075421D01*
X133325617Y-87061171D01*
X133307893Y-87045107D01*
X133291829Y-87027383D01*
X133277579Y-87008170D01*
X133265282Y-86987653D01*
X133255054Y-86966029D01*
X133246996Y-86943507D01*
X133241184Y-86920303D01*
X133237674Y-86896642D01*
X133236500Y-86872750D01*
X133236500Y-86385250D01*
X133237674Y-86361358D01*
X133241184Y-86337697D01*
X133246996Y-86314493D01*
X133255054Y-86291971D01*
X133265282Y-86270347D01*
X133277579Y-86249830D01*
X133291829Y-86230617D01*
X133307893Y-86212893D01*
X133325617Y-86196829D01*
X133344830Y-86182579D01*
X133365347Y-86170282D01*
X133386971Y-86160054D01*
X133409493Y-86151996D01*
X133432697Y-86146184D01*
X133456358Y-86142674D01*
X133480250Y-86141500D01*
X134392750Y-86141500D01*
X134416642Y-86142674D01*
X134416642Y-86142674D01*
G37*
D11*
X133936500Y-86629000D03*
G04 #@! TD*
D10*
G04 #@! TO.C,C12*
G36*
X136702642Y-88017674D02*
X136726303Y-88021184D01*
X136749507Y-88026996D01*
X136772029Y-88035054D01*
X136793653Y-88045282D01*
X136814170Y-88057579D01*
X136833383Y-88071829D01*
X136851107Y-88087893D01*
X136867171Y-88105617D01*
X136881421Y-88124830D01*
X136893718Y-88145347D01*
X136903946Y-88166971D01*
X136912004Y-88189493D01*
X136917816Y-88212697D01*
X136921326Y-88236358D01*
X136922500Y-88260250D01*
X136922500Y-88747750D01*
X136921326Y-88771642D01*
X136917816Y-88795303D01*
X136912004Y-88818507D01*
X136903946Y-88841029D01*
X136893718Y-88862653D01*
X136881421Y-88883170D01*
X136867171Y-88902383D01*
X136851107Y-88920107D01*
X136833383Y-88936171D01*
X136814170Y-88950421D01*
X136793653Y-88962718D01*
X136772029Y-88972946D01*
X136749507Y-88981004D01*
X136726303Y-88986816D01*
X136702642Y-88990326D01*
X136678750Y-88991500D01*
X135766250Y-88991500D01*
X135742358Y-88990326D01*
X135718697Y-88986816D01*
X135695493Y-88981004D01*
X135672971Y-88972946D01*
X135651347Y-88962718D01*
X135630830Y-88950421D01*
X135611617Y-88936171D01*
X135593893Y-88920107D01*
X135577829Y-88902383D01*
X135563579Y-88883170D01*
X135551282Y-88862653D01*
X135541054Y-88841029D01*
X135532996Y-88818507D01*
X135527184Y-88795303D01*
X135523674Y-88771642D01*
X135522500Y-88747750D01*
X135522500Y-88260250D01*
X135523674Y-88236358D01*
X135527184Y-88212697D01*
X135532996Y-88189493D01*
X135541054Y-88166971D01*
X135551282Y-88145347D01*
X135563579Y-88124830D01*
X135577829Y-88105617D01*
X135593893Y-88087893D01*
X135611617Y-88071829D01*
X135630830Y-88057579D01*
X135651347Y-88045282D01*
X135672971Y-88035054D01*
X135695493Y-88026996D01*
X135718697Y-88021184D01*
X135742358Y-88017674D01*
X135766250Y-88016500D01*
X136678750Y-88016500D01*
X136702642Y-88017674D01*
X136702642Y-88017674D01*
G37*
D11*
X136222500Y-88504000D03*
D10*
G36*
X136702642Y-86142674D02*
X136726303Y-86146184D01*
X136749507Y-86151996D01*
X136772029Y-86160054D01*
X136793653Y-86170282D01*
X136814170Y-86182579D01*
X136833383Y-86196829D01*
X136851107Y-86212893D01*
X136867171Y-86230617D01*
X136881421Y-86249830D01*
X136893718Y-86270347D01*
X136903946Y-86291971D01*
X136912004Y-86314493D01*
X136917816Y-86337697D01*
X136921326Y-86361358D01*
X136922500Y-86385250D01*
X136922500Y-86872750D01*
X136921326Y-86896642D01*
X136917816Y-86920303D01*
X136912004Y-86943507D01*
X136903946Y-86966029D01*
X136893718Y-86987653D01*
X136881421Y-87008170D01*
X136867171Y-87027383D01*
X136851107Y-87045107D01*
X136833383Y-87061171D01*
X136814170Y-87075421D01*
X136793653Y-87087718D01*
X136772029Y-87097946D01*
X136749507Y-87106004D01*
X136726303Y-87111816D01*
X136702642Y-87115326D01*
X136678750Y-87116500D01*
X135766250Y-87116500D01*
X135742358Y-87115326D01*
X135718697Y-87111816D01*
X135695493Y-87106004D01*
X135672971Y-87097946D01*
X135651347Y-87087718D01*
X135630830Y-87075421D01*
X135611617Y-87061171D01*
X135593893Y-87045107D01*
X135577829Y-87027383D01*
X135563579Y-87008170D01*
X135551282Y-86987653D01*
X135541054Y-86966029D01*
X135532996Y-86943507D01*
X135527184Y-86920303D01*
X135523674Y-86896642D01*
X135522500Y-86872750D01*
X135522500Y-86385250D01*
X135523674Y-86361358D01*
X135527184Y-86337697D01*
X135532996Y-86314493D01*
X135541054Y-86291971D01*
X135551282Y-86270347D01*
X135563579Y-86249830D01*
X135577829Y-86230617D01*
X135593893Y-86212893D01*
X135611617Y-86196829D01*
X135630830Y-86182579D01*
X135651347Y-86170282D01*
X135672971Y-86160054D01*
X135695493Y-86151996D01*
X135718697Y-86146184D01*
X135742358Y-86142674D01*
X135766250Y-86141500D01*
X136678750Y-86141500D01*
X136702642Y-86142674D01*
X136702642Y-86142674D01*
G37*
D11*
X136222500Y-86629000D03*
G04 #@! TD*
D10*
G04 #@! TO.C,C6*
G36*
X173708142Y-85063174D02*
X173731803Y-85066684D01*
X173755007Y-85072496D01*
X173777529Y-85080554D01*
X173799153Y-85090782D01*
X173819670Y-85103079D01*
X173838883Y-85117329D01*
X173856607Y-85133393D01*
X173872671Y-85151117D01*
X173886921Y-85170330D01*
X173899218Y-85190847D01*
X173909446Y-85212471D01*
X173917504Y-85234993D01*
X173923316Y-85258197D01*
X173926826Y-85281858D01*
X173928000Y-85305750D01*
X173928000Y-85793250D01*
X173926826Y-85817142D01*
X173923316Y-85840803D01*
X173917504Y-85864007D01*
X173909446Y-85886529D01*
X173899218Y-85908153D01*
X173886921Y-85928670D01*
X173872671Y-85947883D01*
X173856607Y-85965607D01*
X173838883Y-85981671D01*
X173819670Y-85995921D01*
X173799153Y-86008218D01*
X173777529Y-86018446D01*
X173755007Y-86026504D01*
X173731803Y-86032316D01*
X173708142Y-86035826D01*
X173684250Y-86037000D01*
X172771750Y-86037000D01*
X172747858Y-86035826D01*
X172724197Y-86032316D01*
X172700993Y-86026504D01*
X172678471Y-86018446D01*
X172656847Y-86008218D01*
X172636330Y-85995921D01*
X172617117Y-85981671D01*
X172599393Y-85965607D01*
X172583329Y-85947883D01*
X172569079Y-85928670D01*
X172556782Y-85908153D01*
X172546554Y-85886529D01*
X172538496Y-85864007D01*
X172532684Y-85840803D01*
X172529174Y-85817142D01*
X172528000Y-85793250D01*
X172528000Y-85305750D01*
X172529174Y-85281858D01*
X172532684Y-85258197D01*
X172538496Y-85234993D01*
X172546554Y-85212471D01*
X172556782Y-85190847D01*
X172569079Y-85170330D01*
X172583329Y-85151117D01*
X172599393Y-85133393D01*
X172617117Y-85117329D01*
X172636330Y-85103079D01*
X172656847Y-85090782D01*
X172678471Y-85080554D01*
X172700993Y-85072496D01*
X172724197Y-85066684D01*
X172747858Y-85063174D01*
X172771750Y-85062000D01*
X173684250Y-85062000D01*
X173708142Y-85063174D01*
X173708142Y-85063174D01*
G37*
D11*
X173228000Y-85549500D03*
D10*
G36*
X173708142Y-86938174D02*
X173731803Y-86941684D01*
X173755007Y-86947496D01*
X173777529Y-86955554D01*
X173799153Y-86965782D01*
X173819670Y-86978079D01*
X173838883Y-86992329D01*
X173856607Y-87008393D01*
X173872671Y-87026117D01*
X173886921Y-87045330D01*
X173899218Y-87065847D01*
X173909446Y-87087471D01*
X173917504Y-87109993D01*
X173923316Y-87133197D01*
X173926826Y-87156858D01*
X173928000Y-87180750D01*
X173928000Y-87668250D01*
X173926826Y-87692142D01*
X173923316Y-87715803D01*
X173917504Y-87739007D01*
X173909446Y-87761529D01*
X173899218Y-87783153D01*
X173886921Y-87803670D01*
X173872671Y-87822883D01*
X173856607Y-87840607D01*
X173838883Y-87856671D01*
X173819670Y-87870921D01*
X173799153Y-87883218D01*
X173777529Y-87893446D01*
X173755007Y-87901504D01*
X173731803Y-87907316D01*
X173708142Y-87910826D01*
X173684250Y-87912000D01*
X172771750Y-87912000D01*
X172747858Y-87910826D01*
X172724197Y-87907316D01*
X172700993Y-87901504D01*
X172678471Y-87893446D01*
X172656847Y-87883218D01*
X172636330Y-87870921D01*
X172617117Y-87856671D01*
X172599393Y-87840607D01*
X172583329Y-87822883D01*
X172569079Y-87803670D01*
X172556782Y-87783153D01*
X172546554Y-87761529D01*
X172538496Y-87739007D01*
X172532684Y-87715803D01*
X172529174Y-87692142D01*
X172528000Y-87668250D01*
X172528000Y-87180750D01*
X172529174Y-87156858D01*
X172532684Y-87133197D01*
X172538496Y-87109993D01*
X172546554Y-87087471D01*
X172556782Y-87065847D01*
X172569079Y-87045330D01*
X172583329Y-87026117D01*
X172599393Y-87008393D01*
X172617117Y-86992329D01*
X172636330Y-86978079D01*
X172656847Y-86965782D01*
X172678471Y-86955554D01*
X172700993Y-86947496D01*
X172724197Y-86941684D01*
X172747858Y-86938174D01*
X172771750Y-86937000D01*
X173684250Y-86937000D01*
X173708142Y-86938174D01*
X173708142Y-86938174D01*
G37*
D11*
X173228000Y-87424500D03*
G04 #@! TD*
D10*
G04 #@! TO.C,C1*
G36*
X163160142Y-96837174D02*
X163183803Y-96840684D01*
X163207007Y-96846496D01*
X163229529Y-96854554D01*
X163251153Y-96864782D01*
X163271670Y-96877079D01*
X163290883Y-96891329D01*
X163308607Y-96907393D01*
X163324671Y-96925117D01*
X163338921Y-96944330D01*
X163351218Y-96964847D01*
X163361446Y-96986471D01*
X163369504Y-97008993D01*
X163375316Y-97032197D01*
X163378826Y-97055858D01*
X163380000Y-97079750D01*
X163380000Y-97992250D01*
X163378826Y-98016142D01*
X163375316Y-98039803D01*
X163369504Y-98063007D01*
X163361446Y-98085529D01*
X163351218Y-98107153D01*
X163338921Y-98127670D01*
X163324671Y-98146883D01*
X163308607Y-98164607D01*
X163290883Y-98180671D01*
X163271670Y-98194921D01*
X163251153Y-98207218D01*
X163229529Y-98217446D01*
X163207007Y-98225504D01*
X163183803Y-98231316D01*
X163160142Y-98234826D01*
X163136250Y-98236000D01*
X162648750Y-98236000D01*
X162624858Y-98234826D01*
X162601197Y-98231316D01*
X162577993Y-98225504D01*
X162555471Y-98217446D01*
X162533847Y-98207218D01*
X162513330Y-98194921D01*
X162494117Y-98180671D01*
X162476393Y-98164607D01*
X162460329Y-98146883D01*
X162446079Y-98127670D01*
X162433782Y-98107153D01*
X162423554Y-98085529D01*
X162415496Y-98063007D01*
X162409684Y-98039803D01*
X162406174Y-98016142D01*
X162405000Y-97992250D01*
X162405000Y-97079750D01*
X162406174Y-97055858D01*
X162409684Y-97032197D01*
X162415496Y-97008993D01*
X162423554Y-96986471D01*
X162433782Y-96964847D01*
X162446079Y-96944330D01*
X162460329Y-96925117D01*
X162476393Y-96907393D01*
X162494117Y-96891329D01*
X162513330Y-96877079D01*
X162533847Y-96864782D01*
X162555471Y-96854554D01*
X162577993Y-96846496D01*
X162601197Y-96840684D01*
X162624858Y-96837174D01*
X162648750Y-96836000D01*
X163136250Y-96836000D01*
X163160142Y-96837174D01*
X163160142Y-96837174D01*
G37*
D11*
X162892500Y-97536000D03*
D10*
G36*
X165035142Y-96837174D02*
X165058803Y-96840684D01*
X165082007Y-96846496D01*
X165104529Y-96854554D01*
X165126153Y-96864782D01*
X165146670Y-96877079D01*
X165165883Y-96891329D01*
X165183607Y-96907393D01*
X165199671Y-96925117D01*
X165213921Y-96944330D01*
X165226218Y-96964847D01*
X165236446Y-96986471D01*
X165244504Y-97008993D01*
X165250316Y-97032197D01*
X165253826Y-97055858D01*
X165255000Y-97079750D01*
X165255000Y-97992250D01*
X165253826Y-98016142D01*
X165250316Y-98039803D01*
X165244504Y-98063007D01*
X165236446Y-98085529D01*
X165226218Y-98107153D01*
X165213921Y-98127670D01*
X165199671Y-98146883D01*
X165183607Y-98164607D01*
X165165883Y-98180671D01*
X165146670Y-98194921D01*
X165126153Y-98207218D01*
X165104529Y-98217446D01*
X165082007Y-98225504D01*
X165058803Y-98231316D01*
X165035142Y-98234826D01*
X165011250Y-98236000D01*
X164523750Y-98236000D01*
X164499858Y-98234826D01*
X164476197Y-98231316D01*
X164452993Y-98225504D01*
X164430471Y-98217446D01*
X164408847Y-98207218D01*
X164388330Y-98194921D01*
X164369117Y-98180671D01*
X164351393Y-98164607D01*
X164335329Y-98146883D01*
X164321079Y-98127670D01*
X164308782Y-98107153D01*
X164298554Y-98085529D01*
X164290496Y-98063007D01*
X164284684Y-98039803D01*
X164281174Y-98016142D01*
X164280000Y-97992250D01*
X164280000Y-97079750D01*
X164281174Y-97055858D01*
X164284684Y-97032197D01*
X164290496Y-97008993D01*
X164298554Y-96986471D01*
X164308782Y-96964847D01*
X164321079Y-96944330D01*
X164335329Y-96925117D01*
X164351393Y-96907393D01*
X164369117Y-96891329D01*
X164388330Y-96877079D01*
X164408847Y-96864782D01*
X164430471Y-96854554D01*
X164452993Y-96846496D01*
X164476197Y-96840684D01*
X164499858Y-96837174D01*
X164523750Y-96836000D01*
X165011250Y-96836000D01*
X165035142Y-96837174D01*
X165035142Y-96837174D01*
G37*
D11*
X164767500Y-97536000D03*
G04 #@! TD*
D10*
G04 #@! TO.C,C2*
G36*
X165035142Y-94805174D02*
X165058803Y-94808684D01*
X165082007Y-94814496D01*
X165104529Y-94822554D01*
X165126153Y-94832782D01*
X165146670Y-94845079D01*
X165165883Y-94859329D01*
X165183607Y-94875393D01*
X165199671Y-94893117D01*
X165213921Y-94912330D01*
X165226218Y-94932847D01*
X165236446Y-94954471D01*
X165244504Y-94976993D01*
X165250316Y-95000197D01*
X165253826Y-95023858D01*
X165255000Y-95047750D01*
X165255000Y-95960250D01*
X165253826Y-95984142D01*
X165250316Y-96007803D01*
X165244504Y-96031007D01*
X165236446Y-96053529D01*
X165226218Y-96075153D01*
X165213921Y-96095670D01*
X165199671Y-96114883D01*
X165183607Y-96132607D01*
X165165883Y-96148671D01*
X165146670Y-96162921D01*
X165126153Y-96175218D01*
X165104529Y-96185446D01*
X165082007Y-96193504D01*
X165058803Y-96199316D01*
X165035142Y-96202826D01*
X165011250Y-96204000D01*
X164523750Y-96204000D01*
X164499858Y-96202826D01*
X164476197Y-96199316D01*
X164452993Y-96193504D01*
X164430471Y-96185446D01*
X164408847Y-96175218D01*
X164388330Y-96162921D01*
X164369117Y-96148671D01*
X164351393Y-96132607D01*
X164335329Y-96114883D01*
X164321079Y-96095670D01*
X164308782Y-96075153D01*
X164298554Y-96053529D01*
X164290496Y-96031007D01*
X164284684Y-96007803D01*
X164281174Y-95984142D01*
X164280000Y-95960250D01*
X164280000Y-95047750D01*
X164281174Y-95023858D01*
X164284684Y-95000197D01*
X164290496Y-94976993D01*
X164298554Y-94954471D01*
X164308782Y-94932847D01*
X164321079Y-94912330D01*
X164335329Y-94893117D01*
X164351393Y-94875393D01*
X164369117Y-94859329D01*
X164388330Y-94845079D01*
X164408847Y-94832782D01*
X164430471Y-94822554D01*
X164452993Y-94814496D01*
X164476197Y-94808684D01*
X164499858Y-94805174D01*
X164523750Y-94804000D01*
X165011250Y-94804000D01*
X165035142Y-94805174D01*
X165035142Y-94805174D01*
G37*
D11*
X164767500Y-95504000D03*
D10*
G36*
X163160142Y-94805174D02*
X163183803Y-94808684D01*
X163207007Y-94814496D01*
X163229529Y-94822554D01*
X163251153Y-94832782D01*
X163271670Y-94845079D01*
X163290883Y-94859329D01*
X163308607Y-94875393D01*
X163324671Y-94893117D01*
X163338921Y-94912330D01*
X163351218Y-94932847D01*
X163361446Y-94954471D01*
X163369504Y-94976993D01*
X163375316Y-95000197D01*
X163378826Y-95023858D01*
X163380000Y-95047750D01*
X163380000Y-95960250D01*
X163378826Y-95984142D01*
X163375316Y-96007803D01*
X163369504Y-96031007D01*
X163361446Y-96053529D01*
X163351218Y-96075153D01*
X163338921Y-96095670D01*
X163324671Y-96114883D01*
X163308607Y-96132607D01*
X163290883Y-96148671D01*
X163271670Y-96162921D01*
X163251153Y-96175218D01*
X163229529Y-96185446D01*
X163207007Y-96193504D01*
X163183803Y-96199316D01*
X163160142Y-96202826D01*
X163136250Y-96204000D01*
X162648750Y-96204000D01*
X162624858Y-96202826D01*
X162601197Y-96199316D01*
X162577993Y-96193504D01*
X162555471Y-96185446D01*
X162533847Y-96175218D01*
X162513330Y-96162921D01*
X162494117Y-96148671D01*
X162476393Y-96132607D01*
X162460329Y-96114883D01*
X162446079Y-96095670D01*
X162433782Y-96075153D01*
X162423554Y-96053529D01*
X162415496Y-96031007D01*
X162409684Y-96007803D01*
X162406174Y-95984142D01*
X162405000Y-95960250D01*
X162405000Y-95047750D01*
X162406174Y-95023858D01*
X162409684Y-95000197D01*
X162415496Y-94976993D01*
X162423554Y-94954471D01*
X162433782Y-94932847D01*
X162446079Y-94912330D01*
X162460329Y-94893117D01*
X162476393Y-94875393D01*
X162494117Y-94859329D01*
X162513330Y-94845079D01*
X162533847Y-94832782D01*
X162555471Y-94822554D01*
X162577993Y-94814496D01*
X162601197Y-94808684D01*
X162624858Y-94805174D01*
X162648750Y-94804000D01*
X163136250Y-94804000D01*
X163160142Y-94805174D01*
X163160142Y-94805174D01*
G37*
D11*
X162892500Y-95504000D03*
G04 #@! TD*
D10*
G04 #@! TO.C,C3*
G36*
X149021642Y-82777174D02*
X149045303Y-82780684D01*
X149068507Y-82786496D01*
X149091029Y-82794554D01*
X149112653Y-82804782D01*
X149133170Y-82817079D01*
X149152383Y-82831329D01*
X149170107Y-82847393D01*
X149186171Y-82865117D01*
X149200421Y-82884330D01*
X149212718Y-82904847D01*
X149222946Y-82926471D01*
X149231004Y-82948993D01*
X149236816Y-82972197D01*
X149240326Y-82995858D01*
X149241500Y-83019750D01*
X149241500Y-83507250D01*
X149240326Y-83531142D01*
X149236816Y-83554803D01*
X149231004Y-83578007D01*
X149222946Y-83600529D01*
X149212718Y-83622153D01*
X149200421Y-83642670D01*
X149186171Y-83661883D01*
X149170107Y-83679607D01*
X149152383Y-83695671D01*
X149133170Y-83709921D01*
X149112653Y-83722218D01*
X149091029Y-83732446D01*
X149068507Y-83740504D01*
X149045303Y-83746316D01*
X149021642Y-83749826D01*
X148997750Y-83751000D01*
X148085250Y-83751000D01*
X148061358Y-83749826D01*
X148037697Y-83746316D01*
X148014493Y-83740504D01*
X147991971Y-83732446D01*
X147970347Y-83722218D01*
X147949830Y-83709921D01*
X147930617Y-83695671D01*
X147912893Y-83679607D01*
X147896829Y-83661883D01*
X147882579Y-83642670D01*
X147870282Y-83622153D01*
X147860054Y-83600529D01*
X147851996Y-83578007D01*
X147846184Y-83554803D01*
X147842674Y-83531142D01*
X147841500Y-83507250D01*
X147841500Y-83019750D01*
X147842674Y-82995858D01*
X147846184Y-82972197D01*
X147851996Y-82948993D01*
X147860054Y-82926471D01*
X147870282Y-82904847D01*
X147882579Y-82884330D01*
X147896829Y-82865117D01*
X147912893Y-82847393D01*
X147930617Y-82831329D01*
X147949830Y-82817079D01*
X147970347Y-82804782D01*
X147991971Y-82794554D01*
X148014493Y-82786496D01*
X148037697Y-82780684D01*
X148061358Y-82777174D01*
X148085250Y-82776000D01*
X148997750Y-82776000D01*
X149021642Y-82777174D01*
X149021642Y-82777174D01*
G37*
D11*
X148541500Y-83263500D03*
D10*
G36*
X149021642Y-84652174D02*
X149045303Y-84655684D01*
X149068507Y-84661496D01*
X149091029Y-84669554D01*
X149112653Y-84679782D01*
X149133170Y-84692079D01*
X149152383Y-84706329D01*
X149170107Y-84722393D01*
X149186171Y-84740117D01*
X149200421Y-84759330D01*
X149212718Y-84779847D01*
X149222946Y-84801471D01*
X149231004Y-84823993D01*
X149236816Y-84847197D01*
X149240326Y-84870858D01*
X149241500Y-84894750D01*
X149241500Y-85382250D01*
X149240326Y-85406142D01*
X149236816Y-85429803D01*
X149231004Y-85453007D01*
X149222946Y-85475529D01*
X149212718Y-85497153D01*
X149200421Y-85517670D01*
X149186171Y-85536883D01*
X149170107Y-85554607D01*
X149152383Y-85570671D01*
X149133170Y-85584921D01*
X149112653Y-85597218D01*
X149091029Y-85607446D01*
X149068507Y-85615504D01*
X149045303Y-85621316D01*
X149021642Y-85624826D01*
X148997750Y-85626000D01*
X148085250Y-85626000D01*
X148061358Y-85624826D01*
X148037697Y-85621316D01*
X148014493Y-85615504D01*
X147991971Y-85607446D01*
X147970347Y-85597218D01*
X147949830Y-85584921D01*
X147930617Y-85570671D01*
X147912893Y-85554607D01*
X147896829Y-85536883D01*
X147882579Y-85517670D01*
X147870282Y-85497153D01*
X147860054Y-85475529D01*
X147851996Y-85453007D01*
X147846184Y-85429803D01*
X147842674Y-85406142D01*
X147841500Y-85382250D01*
X147841500Y-84894750D01*
X147842674Y-84870858D01*
X147846184Y-84847197D01*
X147851996Y-84823993D01*
X147860054Y-84801471D01*
X147870282Y-84779847D01*
X147882579Y-84759330D01*
X147896829Y-84740117D01*
X147912893Y-84722393D01*
X147930617Y-84706329D01*
X147949830Y-84692079D01*
X147970347Y-84679782D01*
X147991971Y-84669554D01*
X148014493Y-84661496D01*
X148037697Y-84655684D01*
X148061358Y-84652174D01*
X148085250Y-84651000D01*
X148997750Y-84651000D01*
X149021642Y-84652174D01*
X149021642Y-84652174D01*
G37*
D11*
X148541500Y-85138500D03*
G04 #@! TD*
D10*
G04 #@! TO.C,C4*
G36*
X151117142Y-84652174D02*
X151140803Y-84655684D01*
X151164007Y-84661496D01*
X151186529Y-84669554D01*
X151208153Y-84679782D01*
X151228670Y-84692079D01*
X151247883Y-84706329D01*
X151265607Y-84722393D01*
X151281671Y-84740117D01*
X151295921Y-84759330D01*
X151308218Y-84779847D01*
X151318446Y-84801471D01*
X151326504Y-84823993D01*
X151332316Y-84847197D01*
X151335826Y-84870858D01*
X151337000Y-84894750D01*
X151337000Y-85382250D01*
X151335826Y-85406142D01*
X151332316Y-85429803D01*
X151326504Y-85453007D01*
X151318446Y-85475529D01*
X151308218Y-85497153D01*
X151295921Y-85517670D01*
X151281671Y-85536883D01*
X151265607Y-85554607D01*
X151247883Y-85570671D01*
X151228670Y-85584921D01*
X151208153Y-85597218D01*
X151186529Y-85607446D01*
X151164007Y-85615504D01*
X151140803Y-85621316D01*
X151117142Y-85624826D01*
X151093250Y-85626000D01*
X150180750Y-85626000D01*
X150156858Y-85624826D01*
X150133197Y-85621316D01*
X150109993Y-85615504D01*
X150087471Y-85607446D01*
X150065847Y-85597218D01*
X150045330Y-85584921D01*
X150026117Y-85570671D01*
X150008393Y-85554607D01*
X149992329Y-85536883D01*
X149978079Y-85517670D01*
X149965782Y-85497153D01*
X149955554Y-85475529D01*
X149947496Y-85453007D01*
X149941684Y-85429803D01*
X149938174Y-85406142D01*
X149937000Y-85382250D01*
X149937000Y-84894750D01*
X149938174Y-84870858D01*
X149941684Y-84847197D01*
X149947496Y-84823993D01*
X149955554Y-84801471D01*
X149965782Y-84779847D01*
X149978079Y-84759330D01*
X149992329Y-84740117D01*
X150008393Y-84722393D01*
X150026117Y-84706329D01*
X150045330Y-84692079D01*
X150065847Y-84679782D01*
X150087471Y-84669554D01*
X150109993Y-84661496D01*
X150133197Y-84655684D01*
X150156858Y-84652174D01*
X150180750Y-84651000D01*
X151093250Y-84651000D01*
X151117142Y-84652174D01*
X151117142Y-84652174D01*
G37*
D11*
X150637000Y-85138500D03*
D10*
G36*
X151117142Y-82777174D02*
X151140803Y-82780684D01*
X151164007Y-82786496D01*
X151186529Y-82794554D01*
X151208153Y-82804782D01*
X151228670Y-82817079D01*
X151247883Y-82831329D01*
X151265607Y-82847393D01*
X151281671Y-82865117D01*
X151295921Y-82884330D01*
X151308218Y-82904847D01*
X151318446Y-82926471D01*
X151326504Y-82948993D01*
X151332316Y-82972197D01*
X151335826Y-82995858D01*
X151337000Y-83019750D01*
X151337000Y-83507250D01*
X151335826Y-83531142D01*
X151332316Y-83554803D01*
X151326504Y-83578007D01*
X151318446Y-83600529D01*
X151308218Y-83622153D01*
X151295921Y-83642670D01*
X151281671Y-83661883D01*
X151265607Y-83679607D01*
X151247883Y-83695671D01*
X151228670Y-83709921D01*
X151208153Y-83722218D01*
X151186529Y-83732446D01*
X151164007Y-83740504D01*
X151140803Y-83746316D01*
X151117142Y-83749826D01*
X151093250Y-83751000D01*
X150180750Y-83751000D01*
X150156858Y-83749826D01*
X150133197Y-83746316D01*
X150109993Y-83740504D01*
X150087471Y-83732446D01*
X150065847Y-83722218D01*
X150045330Y-83709921D01*
X150026117Y-83695671D01*
X150008393Y-83679607D01*
X149992329Y-83661883D01*
X149978079Y-83642670D01*
X149965782Y-83622153D01*
X149955554Y-83600529D01*
X149947496Y-83578007D01*
X149941684Y-83554803D01*
X149938174Y-83531142D01*
X149937000Y-83507250D01*
X149937000Y-83019750D01*
X149938174Y-82995858D01*
X149941684Y-82972197D01*
X149947496Y-82948993D01*
X149955554Y-82926471D01*
X149965782Y-82904847D01*
X149978079Y-82884330D01*
X149992329Y-82865117D01*
X150008393Y-82847393D01*
X150026117Y-82831329D01*
X150045330Y-82817079D01*
X150065847Y-82804782D01*
X150087471Y-82794554D01*
X150109993Y-82786496D01*
X150133197Y-82780684D01*
X150156858Y-82777174D01*
X150180750Y-82776000D01*
X151093250Y-82776000D01*
X151117142Y-82777174D01*
X151117142Y-82777174D01*
G37*
D11*
X150637000Y-83263500D03*
G04 #@! TD*
D10*
G04 #@! TO.C,C5*
G36*
X170272142Y-94805174D02*
X170295803Y-94808684D01*
X170319007Y-94814496D01*
X170341529Y-94822554D01*
X170363153Y-94832782D01*
X170383670Y-94845079D01*
X170402883Y-94859329D01*
X170420607Y-94875393D01*
X170436671Y-94893117D01*
X170450921Y-94912330D01*
X170463218Y-94932847D01*
X170473446Y-94954471D01*
X170481504Y-94976993D01*
X170487316Y-95000197D01*
X170490826Y-95023858D01*
X170492000Y-95047750D01*
X170492000Y-95960250D01*
X170490826Y-95984142D01*
X170487316Y-96007803D01*
X170481504Y-96031007D01*
X170473446Y-96053529D01*
X170463218Y-96075153D01*
X170450921Y-96095670D01*
X170436671Y-96114883D01*
X170420607Y-96132607D01*
X170402883Y-96148671D01*
X170383670Y-96162921D01*
X170363153Y-96175218D01*
X170341529Y-96185446D01*
X170319007Y-96193504D01*
X170295803Y-96199316D01*
X170272142Y-96202826D01*
X170248250Y-96204000D01*
X169760750Y-96204000D01*
X169736858Y-96202826D01*
X169713197Y-96199316D01*
X169689993Y-96193504D01*
X169667471Y-96185446D01*
X169645847Y-96175218D01*
X169625330Y-96162921D01*
X169606117Y-96148671D01*
X169588393Y-96132607D01*
X169572329Y-96114883D01*
X169558079Y-96095670D01*
X169545782Y-96075153D01*
X169535554Y-96053529D01*
X169527496Y-96031007D01*
X169521684Y-96007803D01*
X169518174Y-95984142D01*
X169517000Y-95960250D01*
X169517000Y-95047750D01*
X169518174Y-95023858D01*
X169521684Y-95000197D01*
X169527496Y-94976993D01*
X169535554Y-94954471D01*
X169545782Y-94932847D01*
X169558079Y-94912330D01*
X169572329Y-94893117D01*
X169588393Y-94875393D01*
X169606117Y-94859329D01*
X169625330Y-94845079D01*
X169645847Y-94832782D01*
X169667471Y-94822554D01*
X169689993Y-94814496D01*
X169713197Y-94808684D01*
X169736858Y-94805174D01*
X169760750Y-94804000D01*
X170248250Y-94804000D01*
X170272142Y-94805174D01*
X170272142Y-94805174D01*
G37*
D11*
X170004500Y-95504000D03*
D10*
G36*
X172147142Y-94805174D02*
X172170803Y-94808684D01*
X172194007Y-94814496D01*
X172216529Y-94822554D01*
X172238153Y-94832782D01*
X172258670Y-94845079D01*
X172277883Y-94859329D01*
X172295607Y-94875393D01*
X172311671Y-94893117D01*
X172325921Y-94912330D01*
X172338218Y-94932847D01*
X172348446Y-94954471D01*
X172356504Y-94976993D01*
X172362316Y-95000197D01*
X172365826Y-95023858D01*
X172367000Y-95047750D01*
X172367000Y-95960250D01*
X172365826Y-95984142D01*
X172362316Y-96007803D01*
X172356504Y-96031007D01*
X172348446Y-96053529D01*
X172338218Y-96075153D01*
X172325921Y-96095670D01*
X172311671Y-96114883D01*
X172295607Y-96132607D01*
X172277883Y-96148671D01*
X172258670Y-96162921D01*
X172238153Y-96175218D01*
X172216529Y-96185446D01*
X172194007Y-96193504D01*
X172170803Y-96199316D01*
X172147142Y-96202826D01*
X172123250Y-96204000D01*
X171635750Y-96204000D01*
X171611858Y-96202826D01*
X171588197Y-96199316D01*
X171564993Y-96193504D01*
X171542471Y-96185446D01*
X171520847Y-96175218D01*
X171500330Y-96162921D01*
X171481117Y-96148671D01*
X171463393Y-96132607D01*
X171447329Y-96114883D01*
X171433079Y-96095670D01*
X171420782Y-96075153D01*
X171410554Y-96053529D01*
X171402496Y-96031007D01*
X171396684Y-96007803D01*
X171393174Y-95984142D01*
X171392000Y-95960250D01*
X171392000Y-95047750D01*
X171393174Y-95023858D01*
X171396684Y-95000197D01*
X171402496Y-94976993D01*
X171410554Y-94954471D01*
X171420782Y-94932847D01*
X171433079Y-94912330D01*
X171447329Y-94893117D01*
X171463393Y-94875393D01*
X171481117Y-94859329D01*
X171500330Y-94845079D01*
X171520847Y-94832782D01*
X171542471Y-94822554D01*
X171564993Y-94814496D01*
X171588197Y-94808684D01*
X171611858Y-94805174D01*
X171635750Y-94804000D01*
X172123250Y-94804000D01*
X172147142Y-94805174D01*
X172147142Y-94805174D01*
G37*
D11*
X171879500Y-95504000D03*
G04 #@! TD*
D10*
G04 #@! TO.C,R2*
G36*
X168591142Y-94805174D02*
X168614803Y-94808684D01*
X168638007Y-94814496D01*
X168660529Y-94822554D01*
X168682153Y-94832782D01*
X168702670Y-94845079D01*
X168721883Y-94859329D01*
X168739607Y-94875393D01*
X168755671Y-94893117D01*
X168769921Y-94912330D01*
X168782218Y-94932847D01*
X168792446Y-94954471D01*
X168800504Y-94976993D01*
X168806316Y-95000197D01*
X168809826Y-95023858D01*
X168811000Y-95047750D01*
X168811000Y-95960250D01*
X168809826Y-95984142D01*
X168806316Y-96007803D01*
X168800504Y-96031007D01*
X168792446Y-96053529D01*
X168782218Y-96075153D01*
X168769921Y-96095670D01*
X168755671Y-96114883D01*
X168739607Y-96132607D01*
X168721883Y-96148671D01*
X168702670Y-96162921D01*
X168682153Y-96175218D01*
X168660529Y-96185446D01*
X168638007Y-96193504D01*
X168614803Y-96199316D01*
X168591142Y-96202826D01*
X168567250Y-96204000D01*
X168079750Y-96204000D01*
X168055858Y-96202826D01*
X168032197Y-96199316D01*
X168008993Y-96193504D01*
X167986471Y-96185446D01*
X167964847Y-96175218D01*
X167944330Y-96162921D01*
X167925117Y-96148671D01*
X167907393Y-96132607D01*
X167891329Y-96114883D01*
X167877079Y-96095670D01*
X167864782Y-96075153D01*
X167854554Y-96053529D01*
X167846496Y-96031007D01*
X167840684Y-96007803D01*
X167837174Y-95984142D01*
X167836000Y-95960250D01*
X167836000Y-95047750D01*
X167837174Y-95023858D01*
X167840684Y-95000197D01*
X167846496Y-94976993D01*
X167854554Y-94954471D01*
X167864782Y-94932847D01*
X167877079Y-94912330D01*
X167891329Y-94893117D01*
X167907393Y-94875393D01*
X167925117Y-94859329D01*
X167944330Y-94845079D01*
X167964847Y-94832782D01*
X167986471Y-94822554D01*
X168008993Y-94814496D01*
X168032197Y-94808684D01*
X168055858Y-94805174D01*
X168079750Y-94804000D01*
X168567250Y-94804000D01*
X168591142Y-94805174D01*
X168591142Y-94805174D01*
G37*
D11*
X168323500Y-95504000D03*
D10*
G36*
X166716142Y-94805174D02*
X166739803Y-94808684D01*
X166763007Y-94814496D01*
X166785529Y-94822554D01*
X166807153Y-94832782D01*
X166827670Y-94845079D01*
X166846883Y-94859329D01*
X166864607Y-94875393D01*
X166880671Y-94893117D01*
X166894921Y-94912330D01*
X166907218Y-94932847D01*
X166917446Y-94954471D01*
X166925504Y-94976993D01*
X166931316Y-95000197D01*
X166934826Y-95023858D01*
X166936000Y-95047750D01*
X166936000Y-95960250D01*
X166934826Y-95984142D01*
X166931316Y-96007803D01*
X166925504Y-96031007D01*
X166917446Y-96053529D01*
X166907218Y-96075153D01*
X166894921Y-96095670D01*
X166880671Y-96114883D01*
X166864607Y-96132607D01*
X166846883Y-96148671D01*
X166827670Y-96162921D01*
X166807153Y-96175218D01*
X166785529Y-96185446D01*
X166763007Y-96193504D01*
X166739803Y-96199316D01*
X166716142Y-96202826D01*
X166692250Y-96204000D01*
X166204750Y-96204000D01*
X166180858Y-96202826D01*
X166157197Y-96199316D01*
X166133993Y-96193504D01*
X166111471Y-96185446D01*
X166089847Y-96175218D01*
X166069330Y-96162921D01*
X166050117Y-96148671D01*
X166032393Y-96132607D01*
X166016329Y-96114883D01*
X166002079Y-96095670D01*
X165989782Y-96075153D01*
X165979554Y-96053529D01*
X165971496Y-96031007D01*
X165965684Y-96007803D01*
X165962174Y-95984142D01*
X165961000Y-95960250D01*
X165961000Y-95047750D01*
X165962174Y-95023858D01*
X165965684Y-95000197D01*
X165971496Y-94976993D01*
X165979554Y-94954471D01*
X165989782Y-94932847D01*
X166002079Y-94912330D01*
X166016329Y-94893117D01*
X166032393Y-94875393D01*
X166050117Y-94859329D01*
X166069330Y-94845079D01*
X166089847Y-94832782D01*
X166111471Y-94822554D01*
X166133993Y-94814496D01*
X166157197Y-94808684D01*
X166180858Y-94805174D01*
X166204750Y-94804000D01*
X166692250Y-94804000D01*
X166716142Y-94805174D01*
X166716142Y-94805174D01*
G37*
D11*
X166448500Y-95504000D03*
G04 #@! TD*
D10*
G04 #@! TO.C,L1*
G36*
X153212642Y-82777174D02*
X153236303Y-82780684D01*
X153259507Y-82786496D01*
X153282029Y-82794554D01*
X153303653Y-82804782D01*
X153324170Y-82817079D01*
X153343383Y-82831329D01*
X153361107Y-82847393D01*
X153377171Y-82865117D01*
X153391421Y-82884330D01*
X153403718Y-82904847D01*
X153413946Y-82926471D01*
X153422004Y-82948993D01*
X153427816Y-82972197D01*
X153431326Y-82995858D01*
X153432500Y-83019750D01*
X153432500Y-83507250D01*
X153431326Y-83531142D01*
X153427816Y-83554803D01*
X153422004Y-83578007D01*
X153413946Y-83600529D01*
X153403718Y-83622153D01*
X153391421Y-83642670D01*
X153377171Y-83661883D01*
X153361107Y-83679607D01*
X153343383Y-83695671D01*
X153324170Y-83709921D01*
X153303653Y-83722218D01*
X153282029Y-83732446D01*
X153259507Y-83740504D01*
X153236303Y-83746316D01*
X153212642Y-83749826D01*
X153188750Y-83751000D01*
X152276250Y-83751000D01*
X152252358Y-83749826D01*
X152228697Y-83746316D01*
X152205493Y-83740504D01*
X152182971Y-83732446D01*
X152161347Y-83722218D01*
X152140830Y-83709921D01*
X152121617Y-83695671D01*
X152103893Y-83679607D01*
X152087829Y-83661883D01*
X152073579Y-83642670D01*
X152061282Y-83622153D01*
X152051054Y-83600529D01*
X152042996Y-83578007D01*
X152037184Y-83554803D01*
X152033674Y-83531142D01*
X152032500Y-83507250D01*
X152032500Y-83019750D01*
X152033674Y-82995858D01*
X152037184Y-82972197D01*
X152042996Y-82948993D01*
X152051054Y-82926471D01*
X152061282Y-82904847D01*
X152073579Y-82884330D01*
X152087829Y-82865117D01*
X152103893Y-82847393D01*
X152121617Y-82831329D01*
X152140830Y-82817079D01*
X152161347Y-82804782D01*
X152182971Y-82794554D01*
X152205493Y-82786496D01*
X152228697Y-82780684D01*
X152252358Y-82777174D01*
X152276250Y-82776000D01*
X153188750Y-82776000D01*
X153212642Y-82777174D01*
X153212642Y-82777174D01*
G37*
D11*
X152732500Y-83263500D03*
D10*
G36*
X153212642Y-84652174D02*
X153236303Y-84655684D01*
X153259507Y-84661496D01*
X153282029Y-84669554D01*
X153303653Y-84679782D01*
X153324170Y-84692079D01*
X153343383Y-84706329D01*
X153361107Y-84722393D01*
X153377171Y-84740117D01*
X153391421Y-84759330D01*
X153403718Y-84779847D01*
X153413946Y-84801471D01*
X153422004Y-84823993D01*
X153427816Y-84847197D01*
X153431326Y-84870858D01*
X153432500Y-84894750D01*
X153432500Y-85382250D01*
X153431326Y-85406142D01*
X153427816Y-85429803D01*
X153422004Y-85453007D01*
X153413946Y-85475529D01*
X153403718Y-85497153D01*
X153391421Y-85517670D01*
X153377171Y-85536883D01*
X153361107Y-85554607D01*
X153343383Y-85570671D01*
X153324170Y-85584921D01*
X153303653Y-85597218D01*
X153282029Y-85607446D01*
X153259507Y-85615504D01*
X153236303Y-85621316D01*
X153212642Y-85624826D01*
X153188750Y-85626000D01*
X152276250Y-85626000D01*
X152252358Y-85624826D01*
X152228697Y-85621316D01*
X152205493Y-85615504D01*
X152182971Y-85607446D01*
X152161347Y-85597218D01*
X152140830Y-85584921D01*
X152121617Y-85570671D01*
X152103893Y-85554607D01*
X152087829Y-85536883D01*
X152073579Y-85517670D01*
X152061282Y-85497153D01*
X152051054Y-85475529D01*
X152042996Y-85453007D01*
X152037184Y-85429803D01*
X152033674Y-85406142D01*
X152032500Y-85382250D01*
X152032500Y-84894750D01*
X152033674Y-84870858D01*
X152037184Y-84847197D01*
X152042996Y-84823993D01*
X152051054Y-84801471D01*
X152061282Y-84779847D01*
X152073579Y-84759330D01*
X152087829Y-84740117D01*
X152103893Y-84722393D01*
X152121617Y-84706329D01*
X152140830Y-84692079D01*
X152161347Y-84679782D01*
X152182971Y-84669554D01*
X152205493Y-84661496D01*
X152228697Y-84655684D01*
X152252358Y-84652174D01*
X152276250Y-84651000D01*
X153188750Y-84651000D01*
X153212642Y-84652174D01*
X153212642Y-84652174D01*
G37*
D11*
X152732500Y-85138500D03*
G04 #@! TD*
D10*
G04 #@! TO.C,C10*
G36*
X166686142Y-81724174D02*
X166709803Y-81727684D01*
X166733007Y-81733496D01*
X166755529Y-81741554D01*
X166777153Y-81751782D01*
X166797670Y-81764079D01*
X166816883Y-81778329D01*
X166834607Y-81794393D01*
X166850671Y-81812117D01*
X166864921Y-81831330D01*
X166877218Y-81851847D01*
X166887446Y-81873471D01*
X166895504Y-81895993D01*
X166901316Y-81919197D01*
X166904826Y-81942858D01*
X166906000Y-81966750D01*
X166906000Y-82879250D01*
X166904826Y-82903142D01*
X166901316Y-82926803D01*
X166895504Y-82950007D01*
X166887446Y-82972529D01*
X166877218Y-82994153D01*
X166864921Y-83014670D01*
X166850671Y-83033883D01*
X166834607Y-83051607D01*
X166816883Y-83067671D01*
X166797670Y-83081921D01*
X166777153Y-83094218D01*
X166755529Y-83104446D01*
X166733007Y-83112504D01*
X166709803Y-83118316D01*
X166686142Y-83121826D01*
X166662250Y-83123000D01*
X166174750Y-83123000D01*
X166150858Y-83121826D01*
X166127197Y-83118316D01*
X166103993Y-83112504D01*
X166081471Y-83104446D01*
X166059847Y-83094218D01*
X166039330Y-83081921D01*
X166020117Y-83067671D01*
X166002393Y-83051607D01*
X165986329Y-83033883D01*
X165972079Y-83014670D01*
X165959782Y-82994153D01*
X165949554Y-82972529D01*
X165941496Y-82950007D01*
X165935684Y-82926803D01*
X165932174Y-82903142D01*
X165931000Y-82879250D01*
X165931000Y-81966750D01*
X165932174Y-81942858D01*
X165935684Y-81919197D01*
X165941496Y-81895993D01*
X165949554Y-81873471D01*
X165959782Y-81851847D01*
X165972079Y-81831330D01*
X165986329Y-81812117D01*
X166002393Y-81794393D01*
X166020117Y-81778329D01*
X166039330Y-81764079D01*
X166059847Y-81751782D01*
X166081471Y-81741554D01*
X166103993Y-81733496D01*
X166127197Y-81727684D01*
X166150858Y-81724174D01*
X166174750Y-81723000D01*
X166662250Y-81723000D01*
X166686142Y-81724174D01*
X166686142Y-81724174D01*
G37*
D11*
X166418500Y-82423000D03*
D10*
G36*
X164811142Y-81724174D02*
X164834803Y-81727684D01*
X164858007Y-81733496D01*
X164880529Y-81741554D01*
X164902153Y-81751782D01*
X164922670Y-81764079D01*
X164941883Y-81778329D01*
X164959607Y-81794393D01*
X164975671Y-81812117D01*
X164989921Y-81831330D01*
X165002218Y-81851847D01*
X165012446Y-81873471D01*
X165020504Y-81895993D01*
X165026316Y-81919197D01*
X165029826Y-81942858D01*
X165031000Y-81966750D01*
X165031000Y-82879250D01*
X165029826Y-82903142D01*
X165026316Y-82926803D01*
X165020504Y-82950007D01*
X165012446Y-82972529D01*
X165002218Y-82994153D01*
X164989921Y-83014670D01*
X164975671Y-83033883D01*
X164959607Y-83051607D01*
X164941883Y-83067671D01*
X164922670Y-83081921D01*
X164902153Y-83094218D01*
X164880529Y-83104446D01*
X164858007Y-83112504D01*
X164834803Y-83118316D01*
X164811142Y-83121826D01*
X164787250Y-83123000D01*
X164299750Y-83123000D01*
X164275858Y-83121826D01*
X164252197Y-83118316D01*
X164228993Y-83112504D01*
X164206471Y-83104446D01*
X164184847Y-83094218D01*
X164164330Y-83081921D01*
X164145117Y-83067671D01*
X164127393Y-83051607D01*
X164111329Y-83033883D01*
X164097079Y-83014670D01*
X164084782Y-82994153D01*
X164074554Y-82972529D01*
X164066496Y-82950007D01*
X164060684Y-82926803D01*
X164057174Y-82903142D01*
X164056000Y-82879250D01*
X164056000Y-81966750D01*
X164057174Y-81942858D01*
X164060684Y-81919197D01*
X164066496Y-81895993D01*
X164074554Y-81873471D01*
X164084782Y-81851847D01*
X164097079Y-81831330D01*
X164111329Y-81812117D01*
X164127393Y-81794393D01*
X164145117Y-81778329D01*
X164164330Y-81764079D01*
X164184847Y-81751782D01*
X164206471Y-81741554D01*
X164228993Y-81733496D01*
X164252197Y-81727684D01*
X164275858Y-81724174D01*
X164299750Y-81723000D01*
X164787250Y-81723000D01*
X164811142Y-81724174D01*
X164811142Y-81724174D01*
G37*
D11*
X164543500Y-82423000D03*
G04 #@! TD*
D10*
G04 #@! TO.C,C11*
G36*
X161557642Y-94805174D02*
X161581303Y-94808684D01*
X161604507Y-94814496D01*
X161627029Y-94822554D01*
X161648653Y-94832782D01*
X161669170Y-94845079D01*
X161688383Y-94859329D01*
X161706107Y-94875393D01*
X161722171Y-94893117D01*
X161736421Y-94912330D01*
X161748718Y-94932847D01*
X161758946Y-94954471D01*
X161767004Y-94976993D01*
X161772816Y-95000197D01*
X161776326Y-95023858D01*
X161777500Y-95047750D01*
X161777500Y-95960250D01*
X161776326Y-95984142D01*
X161772816Y-96007803D01*
X161767004Y-96031007D01*
X161758946Y-96053529D01*
X161748718Y-96075153D01*
X161736421Y-96095670D01*
X161722171Y-96114883D01*
X161706107Y-96132607D01*
X161688383Y-96148671D01*
X161669170Y-96162921D01*
X161648653Y-96175218D01*
X161627029Y-96185446D01*
X161604507Y-96193504D01*
X161581303Y-96199316D01*
X161557642Y-96202826D01*
X161533750Y-96204000D01*
X161046250Y-96204000D01*
X161022358Y-96202826D01*
X160998697Y-96199316D01*
X160975493Y-96193504D01*
X160952971Y-96185446D01*
X160931347Y-96175218D01*
X160910830Y-96162921D01*
X160891617Y-96148671D01*
X160873893Y-96132607D01*
X160857829Y-96114883D01*
X160843579Y-96095670D01*
X160831282Y-96075153D01*
X160821054Y-96053529D01*
X160812996Y-96031007D01*
X160807184Y-96007803D01*
X160803674Y-95984142D01*
X160802500Y-95960250D01*
X160802500Y-95047750D01*
X160803674Y-95023858D01*
X160807184Y-95000197D01*
X160812996Y-94976993D01*
X160821054Y-94954471D01*
X160831282Y-94932847D01*
X160843579Y-94912330D01*
X160857829Y-94893117D01*
X160873893Y-94875393D01*
X160891617Y-94859329D01*
X160910830Y-94845079D01*
X160931347Y-94832782D01*
X160952971Y-94822554D01*
X160975493Y-94814496D01*
X160998697Y-94808684D01*
X161022358Y-94805174D01*
X161046250Y-94804000D01*
X161533750Y-94804000D01*
X161557642Y-94805174D01*
X161557642Y-94805174D01*
G37*
D11*
X161290000Y-95504000D03*
D10*
G36*
X159682642Y-94805174D02*
X159706303Y-94808684D01*
X159729507Y-94814496D01*
X159752029Y-94822554D01*
X159773653Y-94832782D01*
X159794170Y-94845079D01*
X159813383Y-94859329D01*
X159831107Y-94875393D01*
X159847171Y-94893117D01*
X159861421Y-94912330D01*
X159873718Y-94932847D01*
X159883946Y-94954471D01*
X159892004Y-94976993D01*
X159897816Y-95000197D01*
X159901326Y-95023858D01*
X159902500Y-95047750D01*
X159902500Y-95960250D01*
X159901326Y-95984142D01*
X159897816Y-96007803D01*
X159892004Y-96031007D01*
X159883946Y-96053529D01*
X159873718Y-96075153D01*
X159861421Y-96095670D01*
X159847171Y-96114883D01*
X159831107Y-96132607D01*
X159813383Y-96148671D01*
X159794170Y-96162921D01*
X159773653Y-96175218D01*
X159752029Y-96185446D01*
X159729507Y-96193504D01*
X159706303Y-96199316D01*
X159682642Y-96202826D01*
X159658750Y-96204000D01*
X159171250Y-96204000D01*
X159147358Y-96202826D01*
X159123697Y-96199316D01*
X159100493Y-96193504D01*
X159077971Y-96185446D01*
X159056347Y-96175218D01*
X159035830Y-96162921D01*
X159016617Y-96148671D01*
X158998893Y-96132607D01*
X158982829Y-96114883D01*
X158968579Y-96095670D01*
X158956282Y-96075153D01*
X158946054Y-96053529D01*
X158937996Y-96031007D01*
X158932184Y-96007803D01*
X158928674Y-95984142D01*
X158927500Y-95960250D01*
X158927500Y-95047750D01*
X158928674Y-95023858D01*
X158932184Y-95000197D01*
X158937996Y-94976993D01*
X158946054Y-94954471D01*
X158956282Y-94932847D01*
X158968579Y-94912330D01*
X158982829Y-94893117D01*
X158998893Y-94875393D01*
X159016617Y-94859329D01*
X159035830Y-94845079D01*
X159056347Y-94832782D01*
X159077971Y-94822554D01*
X159100493Y-94814496D01*
X159123697Y-94808684D01*
X159147358Y-94805174D01*
X159171250Y-94804000D01*
X159658750Y-94804000D01*
X159682642Y-94805174D01*
X159682642Y-94805174D01*
G37*
D11*
X159415000Y-95504000D03*
G04 #@! TD*
M02*
