M48
;DRILL file {KiCad 5.0.1-33cea8e~68~ubuntu18.04.1} date Paz 16 Ara 2018 18:27:48 +03
;FORMAT={3:3/ absolute / metric / suppress leading zeros}
FMAT,2
METRIC,TZ
T1C0.400
T2C1.000
%
G90
G05
M71
T1
X123571Y-104521
X123952Y-100076
X124460Y-74168
X126365Y-104902
X126873Y-78486
X127000Y-73660
X127381Y-89281
X128016Y-95123
X128524Y-75946
X128651Y-89281
X128905Y-82423
X130556Y-86487
X130556Y-88773
X131064Y-73914
X131445Y-78613
X131826Y-89027
X131953Y-86487
X131953Y-92202
X132080Y-97917
X133858Y-104775
X135001Y-78486
X135207Y-81280
X135509Y-94234
X136398Y-97536
X136398Y-110236
X137033Y-96393
X137873Y-86610
X138176Y-91948
X138430Y-94869
X139319Y-98425
X140208Y-93980
X140335Y-92329
X140462Y-101219
X141224Y-102362
X141351Y-83947
X141366Y-78867
X141366Y-80962
X141478Y-85725
X141986Y-87630
X142113Y-103759
X142240Y-105664
X142382Y-77661
X142382Y-81788
X143764Y-105664
X144526Y-75438
X144653Y-101219
X144907Y-102362
X144907Y-103759
X145923Y-97790
X147701Y-105918
X148478Y-86995
X149098Y-76200
X149352Y-81153
X150749Y-98552
X152654Y-68072
X152654Y-81661
X152781Y-88773
X152796Y-87122
X153416Y-70358
X153416Y-75692
X153543Y-105537
X153670Y-86360
X153670Y-87985
X154559Y-96266
X155321Y-80772
X155575Y-94488
X155829Y-89281
X156464Y-111506
X156591Y-75819
X157590Y-75853
X157734Y-90170
X157734Y-98044
X158369Y-109220
X159131Y-84455
X159131Y-85471
X159131Y-106045
X159639Y-111252
X160147Y-70231
X160655Y-90170
X160782Y-107950
X161671Y-84537
X161671Y-85725
X161862Y-92774
X162052Y-82169
X162306Y-72009
X162433Y-78105
X162814Y-68072
X165354Y-101092
X165557Y-85903
X165557Y-87224
X165557Y-88443
X165557Y-89764
X166395Y-93978
X166827Y-85903
X166827Y-88443
X166878Y-87224
X166878Y-89764
X167005Y-78232
X167005Y-99060
X167386Y-94116
X167894Y-68580
X168097Y-85903
X168097Y-87274
X168097Y-88443
X168097Y-89814
X168148Y-78232
X168961Y-82245
X169232Y-93150
X169316Y-85903
X169316Y-87274
X169316Y-88443
X169316Y-89814
X170053Y-99060
X172466Y-83439
X173736Y-68326
X175387Y-99187
X175514Y-104394
X175808Y-89002
X176530Y-99187
X176657Y-90043
X177546Y-90932
X177546Y-100076
X178562Y-103759
X179070Y-68326
X179451Y-107696
X179578Y-109982
X181864Y-107950
X183642Y-68834
X185166Y-111506
T2
X190500Y-68580
X190500Y-71120
X190500Y-73660
X190500Y-76200
X190500Y-78740
X190500Y-81280
X190500Y-83820
X190500Y-86360
X190500Y-88900
X190500Y-91440
X190500Y-93980
X190500Y-96520
X190500Y-99060
X190500Y-101600
X190500Y-104140
X190500Y-106680
X190500Y-109220
X193040Y-68580
X193040Y-71120
X193040Y-73660
X193040Y-76200
X193040Y-78740
X193040Y-81280
X193040Y-83820
X193040Y-86360
X193040Y-88900
X193040Y-91440
X193040Y-93980
X193040Y-96520
X193040Y-99060
X193040Y-101600
X193040Y-104140
X193040Y-106680
X193040Y-109220
X142494Y-109220
X145034Y-109220
X147574Y-109220
X150114Y-109220
X152654Y-109220
T0
M30
